<svg xmlns="http://www.w3.org/2000/svg" xmlns:xlink="http://www.w3.org/1999/xlink" width="505" height="352.313" viewBox="0 0 505 352.313">
  <defs>
    <linearGradient id="linear-gradient" x1="0.5" x2="0.5" y2="1" gradientUnits="objectBoundingBox">
      <stop offset="0" stop-color="#defff8"/>
      <stop offset="0.803" stop-color="#eaf5ff"/>
      <stop offset="1" stop-color="#f0feff"/>
    </linearGradient>
    <clipPath id="clip-path">
      <rect id="Rectangle_378214" data-name="Rectangle 378214" width="68.567" height="63.95" fill="none"/>
    </clipPath>
  </defs>
  <g id="Group_1074215" data-name="Group 1074215" transform="translate(8906 10269)">
    <g id="Group_1073938" data-name="Group 1073938" transform="translate(-8288 -11623)">
      <g id="Group_1072963" data-name="Group 1072963" transform="translate(192 2670.979) rotate(180)">
        <rect id="Rectangle_376022" data-name="Rectangle 376022" width="505" height="352.313" transform="translate(305 964.667)" fill="url(#linear-gradient)"/>
      </g>
      <g id="Group_1073939" data-name="Group 1073939" transform="translate(4 -2)">
        <g id="Group_1073935" data-name="Group 1073935" transform="translate(-1008 33)">
          <path id="Path_823568" data-name="Path 823568" d="M20,0H83a20,20,0,0,1,20,20V253a20,20,0,0,1-20,20H20A20,20,0,0,1,0,253V20A20,20,0,0,1,20,0Z" transform="translate(410 1362)" fill="#ffae7e"/>
          <g id="Group_1073934" data-name="Group 1073934" transform="translate(-172)">
            <path id="Path_823505" data-name="Path 823505" d="M0,0V50" transform="translate(685 1503.507) rotate(-90)" fill="none" stroke="#615504" stroke-width="2"/>
            <path id="Path_823507" data-name="Path 823507" d="M0,0V26.25" transform="translate(710 1399) rotate(-90)" fill="none" stroke="#615504" stroke-width="2"/>
            <path id="Path_823508" data-name="Path 823508" d="M0,0V26.25" transform="translate(710 1608) rotate(-90)" fill="none" stroke="#615504" stroke-width="2"/>
            <path id="Path_823506" data-name="Path 823506" d="M0,0V208.668" transform="translate(710 1607.332) rotate(180)" fill="none" stroke="#615504" stroke-width="2"/>
          </g>
          <path id="Path_824430" data-name="Path 824430" d="M8,0H303a8,8,0,0,1,8,8V46a8,8,0,0,1-8,8H8a8,8,0,0,1-8-8V8A8,8,0,0,1,8,0Z" transform="translate(556 1371.5)" fill="#c1e29a"/>
          <path id="Path_824431" data-name="Path 824431" d="M8,0H303a8,8,0,0,1,8,8V46a8,8,0,0,1-8,8H8a8,8,0,0,1-8-8V8A8,8,0,0,1,8,0Z" transform="translate(556 1471.832)" fill="#c1e29a"/>
          <path id="Path_824432" data-name="Path 824432" d="M8,0H303a8,8,0,0,1,8,8V46a8,8,0,0,1-8,8H8a8,8,0,0,1-8-8V8A8,8,0,0,1,8,0Z" transform="translate(556 1581)" fill="#c1e29a"/>
          <path id="Path_824433" data-name="Path 824433" d="M-111.668-4.93h-4.5v3.047h5.281V0h-7.625V-11.375h7.609v1.9h-5.266v2.711h4.5Zm6.586,2.594a.727.727,0,0,0-.41-.652,4.659,4.659,0,0,0-1.316-.426q-3.016-.633-3.016-2.562a2.323,2.323,0,0,1,.934-1.879,3.766,3.766,0,0,1,2.441-.754,4.053,4.053,0,0,1,2.574.758,2.388,2.388,0,0,1,.965,1.969h-2.258a1.092,1.092,0,0,0-.312-.8A1.322,1.322,0,0,0-106.457-7a1.351,1.351,0,0,0-.883.258.814.814,0,0,0-.312.656.7.7,0,0,0,.355.605,3.657,3.657,0,0,0,1.2.4,9.8,9.8,0,0,1,1.422.379,2.336,2.336,0,0,1,1.789,2.273,2.2,2.2,0,0,1-.992,1.871,4.28,4.28,0,0,1-2.562.715,4.47,4.47,0,0,1-1.887-.379,3.166,3.166,0,0,1-1.293-1.039,2.414,2.414,0,0,1-.469-1.426h2.141a1.179,1.179,0,0,0,.445.922,1.766,1.766,0,0,0,1.109.32,1.635,1.635,0,0,0,.98-.246A.766.766,0,0,0-105.082-2.336Zm6.352-8.2v2.078h1.445V-6.8H-98.73v4.219a1.007,1.007,0,0,0,.18.672.9.9,0,0,0,.688.2,3.6,3.6,0,0,0,.664-.055V-.047a4.648,4.648,0,0,1-1.367.2,2.156,2.156,0,0,1-2.422-2.4V-6.8h-1.234V-8.453h1.234v-2.078Zm7.453,4.2A6.134,6.134,0,0,0-92.09-6.4a1.654,1.654,0,0,0-1.68.867V0h-2.258V-8.453h2.133l.063,1.008a2.092,2.092,0,0,1,1.883-1.164,2.366,2.366,0,0,1,.7.1Zm6.148,5.477A2.831,2.831,0,0,1-87.441.156a2.67,2.67,0,0,1-2.074-.781,3.335,3.335,0,0,1-.73-2.289V-8.453h2.258v5.467q0,1.322,1.2,1.322a1.63,1.63,0,0,0,1.578-.8V-8.453h2.266V0h-2.125Zm7.406-.8a1.481,1.481,0,0,0,1.016-.344,1.2,1.2,0,0,0,.406-.914h2.117a2.9,2.9,0,0,1-.469,1.574A3.093,3.093,0,0,1-75.914-.238a3.949,3.949,0,0,1-1.77.395A3.67,3.67,0,0,1-80.543-1,4.56,4.56,0,0,1-81.59-4.18v-.148a4.508,4.508,0,0,1,1.039-3.117A3.627,3.627,0,0,1-77.7-8.609a3.555,3.555,0,0,1,2.543.9,3.2,3.2,0,0,1,.973,2.4H-76.3a1.551,1.551,0,0,0-.406-1.072,1.354,1.354,0,0,0-1.031-.412,1.36,1.36,0,0,0-1.191.575,3.333,3.333,0,0,0-.4,1.866v.235a3.375,3.375,0,0,0,.4,1.878A1.377,1.377,0,0,0-77.723-1.664Zm7.531-8.867v2.078h1.445V-6.8h-1.445v4.219a1.007,1.007,0,0,0,.18.672.9.9,0,0,0,.688.2,3.6,3.6,0,0,0,.664-.055V-.047a4.648,4.648,0,0,1-1.367.2,2.156,2.156,0,0,1-2.422-2.4V-6.8h-1.234V-8.453h1.234v-2.078Zm7.766,9.672A2.831,2.831,0,0,1-64.738.156a2.67,2.67,0,0,1-2.074-.781,3.335,3.335,0,0,1-.73-2.289V-8.453h2.258v5.467q0,1.322,1.2,1.322a1.63,1.63,0,0,0,1.578-.8V-8.453h2.266V0h-2.125Zm8.641-5.477A6.134,6.134,0,0,0-54.6-6.4a1.654,1.654,0,0,0-1.68.867V0h-2.258V-8.453H-56.4l.063,1.008a2.092,2.092,0,0,1,1.883-1.164,2.366,2.366,0,0,1,.7.1ZM-48.035,0a2.507,2.507,0,0,1-.227-.758,2.732,2.732,0,0,1-2.133.914,3,3,0,0,1-2.059-.719,2.312,2.312,0,0,1-.816-1.812,2.389,2.389,0,0,1,1-2.062,4.915,4.915,0,0,1,2.879-.727h1.039v-.484a1.393,1.393,0,0,0-.3-.937,1.183,1.183,0,0,0-.949-.352,1.345,1.345,0,0,0-.895.273.929.929,0,0,0-.324.75h-2.258a2.268,2.268,0,0,1,.453-1.359,3,3,0,0,1,1.281-.98,4.669,4.669,0,0,1,1.859-.355,3.689,3.689,0,0,1,2.48.785,2.747,2.747,0,0,1,.918,2.207v3.664a4.041,4.041,0,0,0,.336,1.82V0ZM-49.9-1.57a1.945,1.945,0,0,0,.922-.223,1.462,1.462,0,0,0,.625-.6V-3.844H-49.2q-1.7,0-1.8,1.172l-.008.133a.9.9,0,0,0,.3.7A1.153,1.153,0,0,0-49.9-1.57Zm9.18-2.734a5.053,5.053,0,0,1,.887-3.148A2.9,2.9,0,0,1-37.4-8.609,2.6,2.6,0,0,1-35.238-7.57l.148-.883h1.984V3.25h-2.266V-.727a2.6,2.6,0,0,1-2.047.883,2.878,2.878,0,0,1-2.406-1.172A5.3,5.3,0,0,1-40.723-4.3Zm2.258.16A3.314,3.314,0,0,0-38.039-2.3a1.363,1.363,0,0,0,1.2.634,1.518,1.518,0,0,0,1.469-.829v-3.5a1.506,1.506,0,0,0-1.453-.8,1.38,1.38,0,0,0-1.211.634A3.661,3.661,0,0,0-38.465-4.144Zm12.2,3.285A2.831,2.831,0,0,1-28.582.156a2.67,2.67,0,0,1-2.074-.781,3.335,3.335,0,0,1-.73-2.289V-8.453h2.258v5.467q0,1.322,1.2,1.322a1.63,1.63,0,0,0,1.578-.8V-8.453h2.266V0h-2.125ZM-19.941,0H-22.2V-8.453h2.258Zm-.664-11.883h2.461l-2.164,2.422h-1.836Zm4.727,3.43.07.945a2.971,2.971,0,0,1,2.43-1.1A2.255,2.255,0,0,1-11.137-7.32,2.9,2.9,0,0,1-8.6-8.609a2.521,2.521,0,0,1,2.047.8A3.681,3.681,0,0,1-5.879-5.4V0H-8.145V-5.391a1.61,1.61,0,0,0-.281-1.051,1.246,1.246,0,0,0-.992-.332,1.409,1.409,0,0,0-1.406.969l.008,5.8h-2.258V-5.383a1.59,1.59,0,0,0-.289-1.062,1.259,1.259,0,0,0-.984-.328,1.463,1.463,0,0,0-1.391.8V0H-18V-8.453ZM-1.762,0H-4.027V-8.453h2.266Zm-2.4-10.641a1.112,1.112,0,0,1,.34-.836,1.277,1.277,0,0,1,.926-.328,1.28,1.28,0,0,1,.922.328,1.105,1.105,0,0,1,.344.836,1.108,1.108,0,0,1-.348.844,1.283,1.283,0,0,1-.918.328A1.283,1.283,0,0,1-3.812-9.8,1.108,1.108,0,0,1-4.16-10.641ZM3.613-1.664a1.481,1.481,0,0,0,1.016-.344,1.2,1.2,0,0,0,.406-.914H7.152a2.9,2.9,0,0,1-.469,1.574A3.093,3.093,0,0,1,5.422-.238a3.949,3.949,0,0,1-1.77.395A3.67,3.67,0,0,1,.793-1,4.56,4.56,0,0,1-.254-4.18v-.148A4.508,4.508,0,0,1,.785-7.445,3.627,3.627,0,0,1,3.637-8.609a3.555,3.555,0,0,1,2.543.9,3.2,3.2,0,0,1,.973,2.4H5.035a1.551,1.551,0,0,0-.406-1.072A1.354,1.354,0,0,0,3.6-6.789a1.36,1.36,0,0,0-1.191.575A3.333,3.333,0,0,0,2-4.348v.235a3.375,3.375,0,0,0,.4,1.878A1.377,1.377,0,0,0,3.613-1.664ZM13.34,0a2.507,2.507,0,0,1-.227-.758A2.732,2.732,0,0,1,10.98.156,3,3,0,0,1,8.922-.562a2.312,2.312,0,0,1-.816-1.812,2.389,2.389,0,0,1,1-2.062,4.915,4.915,0,0,1,2.879-.727H13.02v-.484a1.393,1.393,0,0,0-.3-.937,1.183,1.183,0,0,0-.949-.352,1.345,1.345,0,0,0-.895.273.929.929,0,0,0-.324.75H8.293a2.268,2.268,0,0,1,.453-1.359,3,3,0,0,1,1.281-.98,4.669,4.669,0,0,1,1.859-.355,3.689,3.689,0,0,1,2.48.785,2.747,2.747,0,0,1,.918,2.207v3.664a4.041,4.041,0,0,0,.336,1.82V0ZM11.473-1.57a1.945,1.945,0,0,0,.922-.223,1.462,1.462,0,0,0,.625-.6V-3.844h-.844q-1.7,0-1.8,1.172l-.008.133a.9.9,0,0,0,.3.7A1.153,1.153,0,0,0,11.473-1.57Zm9.18-2.719a5.094,5.094,0,0,1,.887-3.148,2.877,2.877,0,0,1,2.426-1.172A2.589,2.589,0,0,1,26-7.687V-12H28.27V0H26.23l-.109-.9A2.657,2.657,0,0,1,23.949.156,2.869,2.869,0,0,1,21.555-1.02,5.258,5.258,0,0,1,20.652-4.289Zm2.258.168A3.337,3.337,0,0,0,23.324-2.3a1.349,1.349,0,0,0,1.2.634A1.511,1.511,0,0,0,26-2.548V-5.889a1.489,1.489,0,0,0-1.461-.884Q22.91-6.773,22.91-4.121Zm11,4.277A4.15,4.15,0,0,1,30.883-.984a4.054,4.054,0,0,1-1.168-3.039v-.219a5.106,5.106,0,0,1,.492-2.277A3.612,3.612,0,0,1,31.6-8.066a3.914,3.914,0,0,1,2.059-.543,3.508,3.508,0,0,1,2.73,1.094,4.444,4.444,0,0,1,1,3.1v.922H32a2.1,2.1,0,0,0,.66,1.328,2,2,0,0,0,1.395.5A2.437,2.437,0,0,0,36.1-2.609l1.109,1.242A3.389,3.389,0,0,1,35.832-.246,4.511,4.511,0,0,1,33.91.156Zm-.258-6.945a1.411,1.411,0,0,0-1.09.455,2.357,2.357,0,0,0-.535,1.3h3.141v-.181a1.681,1.681,0,0,0-.406-1.165A1.456,1.456,0,0,0,33.652-6.789ZM47.23-2.336a.727.727,0,0,0-.41-.652A4.659,4.659,0,0,0,45.5-3.414q-3.016-.633-3.016-2.562a2.323,2.323,0,0,1,.934-1.879,3.766,3.766,0,0,1,2.441-.754,4.053,4.053,0,0,1,2.574.758A2.388,2.388,0,0,1,49.4-5.883H47.145a1.092,1.092,0,0,0-.312-.8A1.322,1.322,0,0,0,45.855-7a1.351,1.351,0,0,0-.883.258.814.814,0,0,0-.312.656.7.7,0,0,0,.355.605,3.657,3.657,0,0,0,1.2.4,9.8,9.8,0,0,1,1.422.379A2.336,2.336,0,0,1,49.426-2.43a2.2,2.2,0,0,1-.992,1.871,4.28,4.28,0,0,1-2.562.715,4.47,4.47,0,0,1-1.887-.379,3.166,3.166,0,0,1-1.293-1.039,2.414,2.414,0,0,1-.469-1.426h2.141a1.179,1.179,0,0,0,.445.922,1.766,1.766,0,0,0,1.109.32,1.635,1.635,0,0,0,.98-.246A.766.766,0,0,0,47.23-2.336ZM55.941-.859A2.831,2.831,0,0,1,53.629.156a2.67,2.67,0,0,1-2.074-.781,3.335,3.335,0,0,1-.73-2.289V-8.453h2.258v5.467q0,1.322,1.2,1.322a1.63,1.63,0,0,0,1.578-.8V-8.453h2.266V0H56ZM64.41-2.336A.727.727,0,0,0,64-2.988a4.659,4.659,0,0,0-1.316-.426q-3.016-.633-3.016-2.562A2.323,2.323,0,0,1,60.6-7.855a3.766,3.766,0,0,1,2.441-.754,4.053,4.053,0,0,1,2.574.758,2.388,2.388,0,0,1,.965,1.969H64.324a1.092,1.092,0,0,0-.312-.8A1.322,1.322,0,0,0,63.035-7a1.351,1.351,0,0,0-.883.258.814.814,0,0,0-.312.656.7.7,0,0,0,.355.605,3.657,3.657,0,0,0,1.2.4,9.8,9.8,0,0,1,1.422.379A2.336,2.336,0,0,1,66.605-2.43a2.2,2.2,0,0,1-.992,1.871,4.28,4.28,0,0,1-2.562.715,4.47,4.47,0,0,1-1.887-.379,3.166,3.166,0,0,1-1.293-1.039A2.414,2.414,0,0,1,59.4-2.687h2.141a1.179,1.179,0,0,0,.445.922,1.766,1.766,0,0,0,1.109.32,1.635,1.635,0,0,0,.98-.246A.766.766,0,0,0,64.41-2.336Zm6.352-8.2v2.078h1.445V-6.8H70.762v4.219a1.007,1.007,0,0,0,.18.672.9.9,0,0,0,.688.2,3.6,3.6,0,0,0,.664-.055V-.047a4.648,4.648,0,0,1-1.367.2,2.156,2.156,0,0,1-2.422-2.4V-6.8H67.27V-8.453H68.5v-2.078ZM78.363,0a2.507,2.507,0,0,1-.227-.758A2.732,2.732,0,0,1,76,.156a3,3,0,0,1-2.059-.719,2.312,2.312,0,0,1-.816-1.812,2.389,2.389,0,0,1,1-2.062A4.915,4.915,0,0,1,77-5.164h1.039v-.484a1.393,1.393,0,0,0-.3-.937,1.183,1.183,0,0,0-.949-.352,1.345,1.345,0,0,0-.895.273.929.929,0,0,0-.324.75H73.316a2.268,2.268,0,0,1,.453-1.359,3,3,0,0,1,1.281-.98,4.669,4.669,0,0,1,1.859-.355,3.689,3.689,0,0,1,2.48.785,2.747,2.747,0,0,1,.918,2.207v3.664a4.041,4.041,0,0,0,.336,1.82V0ZM76.5-1.57a1.945,1.945,0,0,0,.922-.223,1.462,1.462,0,0,0,.625-.6V-3.844H77.2q-1.7,0-1.8,1.172l-.008.133a.9.9,0,0,0,.3.7A1.153,1.153,0,0,0,76.5-1.57Zm7.625-6.883.07.977a2.951,2.951,0,0,1,2.43-1.133,2.453,2.453,0,0,1,2,.789,3.682,3.682,0,0,1,.672,2.359V0H87.035V-5.406a1.465,1.465,0,0,0-.312-1.043,1.4,1.4,0,0,0-1.039-.324,1.553,1.553,0,0,0-1.43.813V0H82V-8.453Zm10.4,6.789a1.481,1.481,0,0,0,1.016-.344,1.2,1.2,0,0,0,.406-.914h2.117a2.9,2.9,0,0,1-.469,1.574A3.093,3.093,0,0,1,96.328-.238a3.949,3.949,0,0,1-1.77.395A3.67,3.67,0,0,1,91.7-1,4.56,4.56,0,0,1,90.652-4.18v-.148a4.508,4.508,0,0,1,1.039-3.117,3.627,3.627,0,0,1,2.852-1.164,3.555,3.555,0,0,1,2.543.9,3.2,3.2,0,0,1,.973,2.4H95.941a1.551,1.551,0,0,0-.406-1.072A1.354,1.354,0,0,0,94.5-6.789a1.36,1.36,0,0,0-1.191.575,3.333,3.333,0,0,0-.4,1.866v.235a3.375,3.375,0,0,0,.4,1.878A1.377,1.377,0,0,0,94.52-1.664ZM101.73,0H99.465V-8.453h2.266Zm-2.4-10.641a1.112,1.112,0,0,1,.34-.836,1.277,1.277,0,0,1,.926-.328,1.28,1.28,0,0,1,.922.328,1.105,1.105,0,0,1,.344.836,1.108,1.108,0,0,1-.348.844,1.283,1.283,0,0,1-.918.328A1.283,1.283,0,0,1,99.68-9.8,1.108,1.108,0,0,1,99.332-10.641ZM108.488,0a2.507,2.507,0,0,1-.227-.758,2.732,2.732,0,0,1-2.133.914,3,3,0,0,1-2.059-.719,2.312,2.312,0,0,1-.816-1.812,2.389,2.389,0,0,1,1-2.062,4.915,4.915,0,0,1,2.879-.727h1.039v-.484a1.393,1.393,0,0,0-.3-.937,1.183,1.183,0,0,0-.949-.352,1.345,1.345,0,0,0-.895.273.929.929,0,0,0-.324.75h-2.258a2.268,2.268,0,0,1,.453-1.359,3,3,0,0,1,1.281-.98,4.669,4.669,0,0,1,1.859-.355,3.689,3.689,0,0,1,2.48.785,2.747,2.747,0,0,1,.918,2.207v3.664a4.041,4.041,0,0,0,.336,1.82V0Zm-1.867-1.57a1.945,1.945,0,0,0,.922-.223,1.462,1.462,0,0,0,.625-.6V-3.844h-.844q-1.7,0-1.8,1.172l-.008.133a.9.9,0,0,0,.3.7A1.153,1.153,0,0,0,106.621-1.57Zm10.125-.766a.727.727,0,0,0-.41-.652,4.659,4.659,0,0,0-1.316-.426Q112-4.047,112-5.977a2.323,2.323,0,0,1,.934-1.879,3.766,3.766,0,0,1,2.441-.754,4.053,4.053,0,0,1,2.574.758,2.388,2.388,0,0,1,.965,1.969H116.66a1.092,1.092,0,0,0-.312-.8A1.322,1.322,0,0,0,115.371-7a1.351,1.351,0,0,0-.883.258.814.814,0,0,0-.312.656.7.7,0,0,0,.355.605,3.657,3.657,0,0,0,1.2.4,9.8,9.8,0,0,1,1.422.379,2.336,2.336,0,0,1,1.789,2.273,2.2,2.2,0,0,1-.992,1.871,4.28,4.28,0,0,1-2.562.715A4.47,4.47,0,0,1,113.5-.223a3.166,3.166,0,0,1-1.293-1.039,2.414,2.414,0,0,1-.469-1.426h2.141a1.179,1.179,0,0,0,.445.922,1.766,1.766,0,0,0,1.109.32,1.635,1.635,0,0,0,.98-.246A.766.766,0,0,0,116.746-2.336Z" transform="translate(719 1404)"/>
          <path id="Path_824434" data-name="Path 824434" d="M-125.387-3.789A4.025,4.025,0,0,1-126.742-.9,4.76,4.76,0,0,1-129.965.156a4.281,4.281,0,0,1-3.441-1.473,6.038,6.038,0,0,1-1.254-4.043v-.7a6.819,6.819,0,0,1,.578-2.891,4.332,4.332,0,0,1,1.652-1.918,4.629,4.629,0,0,1,2.5-.668,4.637,4.637,0,0,1,3.172,1.055,4.326,4.326,0,0,1,1.391,2.961h-2.344a2.376,2.376,0,0,0-.613-1.6,2.271,2.271,0,0,0-1.605-.5,1.991,1.991,0,0,0-1.754.84,4.707,4.707,0,0,0-.6,2.605V-5.3a5.038,5.038,0,0,0,.559,2.7,1.954,1.954,0,0,0,1.762.852,2.314,2.314,0,0,0,1.621-.5,2.241,2.241,0,0,0,.613-1.535Zm1.039-.516a5.013,5.013,0,0,1,.484-2.242,3.546,3.546,0,0,1,1.395-1.523,4.069,4.069,0,0,1,2.113-.539,3.849,3.849,0,0,1,2.793,1.047,4.2,4.2,0,0,1,1.207,2.844l.016.578a4.418,4.418,0,0,1-1.086,3.121A3.775,3.775,0,0,1-120.34.156a3.793,3.793,0,0,1-2.918-1.172,4.5,4.5,0,0,1-1.09-3.187Zm2.258.16a3.16,3.16,0,0,0,.453,1.843,1.5,1.5,0,0,0,1.3.638,1.5,1.5,0,0,0,1.281-.63,3.457,3.457,0,0,0,.461-2.015,3.128,3.128,0,0,0-.461-1.831,1.5,1.5,0,0,0-1.3-.649,1.474,1.474,0,0,0-1.281.646A3.516,3.516,0,0,0-122.09-4.144Zm11.031,4.3a4.15,4.15,0,0,1-3.027-1.141,4.054,4.054,0,0,1-1.168-3.039v-.219a5.106,5.106,0,0,1,.492-2.277,3.612,3.612,0,0,1,1.395-1.547,3.914,3.914,0,0,1,2.059-.543,3.508,3.508,0,0,1,2.73,1.094,4.444,4.444,0,0,1,1,3.1v.922h-5.383a2.1,2.1,0,0,0,.66,1.328,2,2,0,0,0,1.395.5,2.437,2.437,0,0,0,2.039-.945l1.109,1.242a3.389,3.389,0,0,1-1.375,1.121A4.511,4.511,0,0,1-111.059.156Zm-.258-6.945a1.411,1.411,0,0,0-1.09.455,2.357,2.357,0,0,0-.535,1.3h3.141v-.181a1.681,1.681,0,0,0-.406-1.165A1.456,1.456,0,0,0-111.316-6.789ZM-105.754,0V-6.8h-1.258V-8.453h1.258v-.391a3.17,3.17,0,0,1,.98-2.457,3.945,3.945,0,0,1,2.723-.863,9.031,9.031,0,0,1,2.563.461l-.328,1.867A10,10,0,0,0-101-10.129a5.835,5.835,0,0,0-.906-.066q-1.578,0-1.578,1.4v.344h1.664V-6.8h-1.664V0Zm7.32,0H-100.7V-8.453h2.266Zm5.383-1.664a1.481,1.481,0,0,0,1.016-.344,1.2,1.2,0,0,0,.406-.914h2.117a2.9,2.9,0,0,1-.469,1.574A3.093,3.093,0,0,1-91.242-.238a3.949,3.949,0,0,1-1.77.395A3.67,3.67,0,0,1-95.871-1,4.56,4.56,0,0,1-96.918-4.18v-.148a4.508,4.508,0,0,1,1.039-3.117,3.627,3.627,0,0,1,2.852-1.164,3.555,3.555,0,0,1,2.543.9,3.2,3.2,0,0,1,.973,2.4h-2.117a1.551,1.551,0,0,0-.406-1.072,1.354,1.354,0,0,0-1.031-.412,1.36,1.36,0,0,0-1.191.575,3.333,3.333,0,0,0-.4,1.866v.235a3.375,3.375,0,0,0,.4,1.878A1.377,1.377,0,0,0-93.051-1.664ZM-85.84,0h-2.266V-8.453h2.266Zm-2.4-10.641a1.112,1.112,0,0,1,.34-.836,1.277,1.277,0,0,1,.926-.328,1.28,1.28,0,0,1,.922.328,1.105,1.105,0,0,1,.344.836,1.108,1.108,0,0,1-.348.844,1.283,1.283,0,0,1-.918.328,1.283,1.283,0,0,1-.918-.328A1.108,1.108,0,0,1-88.238-10.641ZM-80.09.156A4.15,4.15,0,0,1-83.117-.984a4.054,4.054,0,0,1-1.168-3.039v-.219a5.106,5.106,0,0,1,.492-2.277A3.612,3.612,0,0,1-82.4-8.066a3.914,3.914,0,0,1,2.059-.543,3.508,3.508,0,0,1,2.73,1.094,4.444,4.444,0,0,1,1,3.1v.922H-82a2.1,2.1,0,0,0,.66,1.328,2,2,0,0,0,1.395.5A2.437,2.437,0,0,0-77.9-2.609l1.109,1.242A3.389,3.389,0,0,1-78.168-.246,4.511,4.511,0,0,1-80.09.156Zm-.258-6.945a1.411,1.411,0,0,0-1.09.455,2.357,2.357,0,0,0-.535,1.3h3.141v-.181a1.681,1.681,0,0,0-.406-1.165A1.456,1.456,0,0,0-80.348-6.789Zm7.094-1.664.07.977a2.951,2.951,0,0,1,2.43-1.133,2.453,2.453,0,0,1,2,.789,3.682,3.682,0,0,1,.672,2.359V0H-70.34V-5.406a1.465,1.465,0,0,0-.312-1.043,1.4,1.4,0,0,0-1.039-.324,1.553,1.553,0,0,0-1.43.813V0h-2.258V-8.453Zm9.586-2.078v2.078h1.445V-6.8h-1.445v4.219a1.007,1.007,0,0,0,.18.672.9.9,0,0,0,.688.2,3.6,3.6,0,0,0,.664-.055V-.047a4.648,4.648,0,0,1-1.367.2,2.156,2.156,0,0,1-2.422-2.4V-6.8H-67.16V-8.453h1.234v-2.078ZM-57.074.156A4.15,4.15,0,0,1-60.1-.984,4.054,4.054,0,0,1-61.27-4.023v-.219a5.106,5.106,0,0,1,.492-2.277,3.612,3.612,0,0,1,1.395-1.547,3.914,3.914,0,0,1,2.059-.543,3.508,3.508,0,0,1,2.73,1.094,4.444,4.444,0,0,1,1,3.1v.922H-58.98a2.1,2.1,0,0,0,.66,1.328,2,2,0,0,0,1.395.5,2.437,2.437,0,0,0,2.039-.945l1.109,1.242A3.389,3.389,0,0,1-55.152-.246,4.511,4.511,0,0,1-57.074.156Zm-.258-6.945a1.411,1.411,0,0,0-1.09.455,2.357,2.357,0,0,0-.535,1.3h3.141v-.181a1.681,1.681,0,0,0-.406-1.165A1.456,1.456,0,0,0-57.332-6.789Zm8.648,2.5A5.094,5.094,0,0,1-47.8-7.437a2.877,2.877,0,0,1,2.426-1.172,2.589,2.589,0,0,1,2.039.922V-12h2.266V0h-2.039l-.109-.9A2.657,2.657,0,0,1-45.387.156,2.869,2.869,0,0,1-47.781-1.02,5.258,5.258,0,0,1-48.684-4.289Zm2.258.168A3.337,3.337,0,0,0-46.012-2.3a1.349,1.349,0,0,0,1.2.634,1.511,1.511,0,0,0,1.477-.884V-5.889a1.489,1.489,0,0,0-1.461-.884Q-46.426-6.773-46.426-4.121Zm11,4.277A4.15,4.15,0,0,1-38.453-.984a4.054,4.054,0,0,1-1.168-3.039v-.219a5.106,5.106,0,0,1,.492-2.277,3.612,3.612,0,0,1,1.395-1.547,3.914,3.914,0,0,1,2.059-.543,3.508,3.508,0,0,1,2.73,1.094,4.444,4.444,0,0,1,1,3.1v.922h-5.383a2.1,2.1,0,0,0,.66,1.328,2,2,0,0,0,1.395.5,2.437,2.437,0,0,0,2.039-.945l1.109,1.242A3.389,3.389,0,0,1-33.5-.246,4.511,4.511,0,0,1-35.426.156Zm-.258-6.945a1.411,1.411,0,0,0-1.09.455,2.357,2.357,0,0,0-.535,1.3h3.141v-.181a1.681,1.681,0,0,0-.406-1.165A1.456,1.456,0,0,0-35.684-6.789Zm16.609,2.641a5.07,5.07,0,0,1-.887,3.129A2.843,2.843,0,0,1-22.355.156a2.633,2.633,0,0,1-2.07-.891V3.25h-2.258v-11.7h2.094l.078.828a2.654,2.654,0,0,1,2.141-.984,2.862,2.862,0,0,1,2.43,1.156,5.207,5.207,0,0,1,.867,3.188Zm-2.258-.164a3.327,3.327,0,0,0-.418-1.82,1.361,1.361,0,0,0-1.215-.641,1.478,1.478,0,0,0-1.461.813V-2.5a1.5,1.5,0,0,0,1.477.836Q-21.332-1.664-21.332-4.312ZM-12.777,0A2.507,2.507,0,0,1-13-.758a2.732,2.732,0,0,1-2.133.914A3,3,0,0,1-17.2-.562a2.312,2.312,0,0,1-.816-1.812,2.389,2.389,0,0,1,1-2.062,4.915,4.915,0,0,1,2.879-.727H-13.1v-.484a1.393,1.393,0,0,0-.3-.937,1.183,1.183,0,0,0-.949-.352,1.345,1.345,0,0,0-.895.273.929.929,0,0,0-.324.75h-2.258a2.268,2.268,0,0,1,.453-1.359,3,3,0,0,1,1.281-.98,4.669,4.669,0,0,1,1.859-.355,3.689,3.689,0,0,1,2.48.785,2.747,2.747,0,0,1,.918,2.207v3.664A4.041,4.041,0,0,0-10.5-.133V0Zm-1.867-1.57a1.945,1.945,0,0,0,.922-.223,1.462,1.462,0,0,0,.625-.6V-3.844h-.844q-1.7,0-1.8,1.172l-.008.133a.9.9,0,0,0,.3.7A1.153,1.153,0,0,0-14.645-1.57Zm10.3-4.766A6.134,6.134,0,0,0-5.16-6.4a1.654,1.654,0,0,0-1.68.867V0H-9.1V-8.453h2.133L-6.9-7.445A2.092,2.092,0,0,1-5.02-8.609a2.366,2.366,0,0,1,.7.1Zm4.18-4.2v2.078H1.277V-6.8H-.168v4.219a1.007,1.007,0,0,0,.18.672A.9.9,0,0,0,.7-1.7a3.6,3.6,0,0,0,.664-.055V-.047A4.648,4.648,0,0,1,0,.156a2.156,2.156,0,0,1-2.422-2.4V-6.8H-3.66V-8.453h1.234v-2.078ZM4.918,0H2.652V-8.453H4.918ZM2.52-10.641a1.112,1.112,0,0,1,.34-.836,1.277,1.277,0,0,1,.926-.328,1.28,1.28,0,0,1,.922.328,1.105,1.105,0,0,1,.344.836A1.108,1.108,0,0,1,4.7-9.8a1.283,1.283,0,0,1-.918.328A1.283,1.283,0,0,1,2.867-9.8,1.108,1.108,0,0,1,2.52-10.641Zm7.773,8.977a1.481,1.481,0,0,0,1.016-.344,1.2,1.2,0,0,0,.406-.914h2.117a2.9,2.9,0,0,1-.469,1.574A3.093,3.093,0,0,1,12.1-.238a3.949,3.949,0,0,1-1.77.395A3.67,3.67,0,0,1,7.473-1,4.56,4.56,0,0,1,6.426-4.18v-.148A4.508,4.508,0,0,1,7.465-7.445a3.627,3.627,0,0,1,2.852-1.164,3.555,3.555,0,0,1,2.543.9,3.2,3.2,0,0,1,.973,2.4H11.715a1.551,1.551,0,0,0-.406-1.072,1.354,1.354,0,0,0-1.031-.412,1.36,1.36,0,0,0-1.191.575,3.333,3.333,0,0,0-.4,1.866v.235a3.375,3.375,0,0,0,.4,1.878A1.377,1.377,0,0,0,10.293-1.664ZM17.5,0H15.238V-8.453H17.5Zm-2.4-10.641a1.112,1.112,0,0,1,.34-.836,1.277,1.277,0,0,1,.926-.328,1.28,1.28,0,0,1,.922.328,1.105,1.105,0,0,1,.344.836,1.108,1.108,0,0,1-.348.844,1.283,1.283,0,0,1-.918.328,1.283,1.283,0,0,1-.918-.328A1.108,1.108,0,0,1,15.105-10.641ZM19.012-4.3A5.013,5.013,0,0,1,19.5-6.547,3.546,3.546,0,0,1,20.891-8.07,4.069,4.069,0,0,1,23-8.609,3.849,3.849,0,0,1,25.8-7.562,4.2,4.2,0,0,1,27-4.719l.016.578A4.418,4.418,0,0,1,25.934-1.02,3.775,3.775,0,0,1,23.02.156,3.793,3.793,0,0,1,20.1-1.016,4.5,4.5,0,0,1,19.012-4.2Zm2.258.16A3.16,3.16,0,0,0,21.723-2.3a1.5,1.5,0,0,0,1.3.638,1.5,1.5,0,0,0,1.281-.63,3.457,3.457,0,0,0,.461-2.015A3.128,3.128,0,0,0,24.3-6.14,1.5,1.5,0,0,0,23-6.789a1.474,1.474,0,0,0-1.281.646A3.516,3.516,0,0,0,21.27-4.144ZM23.449-12H25.91L23.746-9.578H21.91Zm7.039,3.547.07.977a2.951,2.951,0,0,1,2.43-1.133,2.453,2.453,0,0,1,2,.789,3.682,3.682,0,0,1,.672,2.359V0H33.4V-5.406a1.465,1.465,0,0,0-.312-1.043,1.4,1.4,0,0,0-1.039-.324,1.553,1.553,0,0,0-1.43.813V0H28.363V-8.453ZM41-4.3a5.013,5.013,0,0,1,.484-2.242A3.546,3.546,0,0,1,42.883-8.07,4.069,4.069,0,0,1,45-8.609a3.849,3.849,0,0,1,2.793,1.047A4.2,4.2,0,0,1,49-4.719l.016.578A4.418,4.418,0,0,1,47.926-1.02,3.775,3.775,0,0,1,45.012.156a3.793,3.793,0,0,1-2.918-1.172A4.5,4.5,0,0,1,41-4.2Zm2.258.16A3.16,3.16,0,0,0,43.715-2.3a1.5,1.5,0,0,0,1.3.638,1.5,1.5,0,0,0,1.281-.63,3.457,3.457,0,0,0,.461-2.015,3.128,3.128,0,0,0-.461-1.831A1.5,1.5,0,0,0,45-6.789a1.474,1.474,0,0,0-1.281.646A3.516,3.516,0,0,0,43.262-4.144Zm10.656,2.48a1.481,1.481,0,0,0,1.016-.344,1.2,1.2,0,0,0,.406-.914h2.117a2.9,2.9,0,0,1-.469,1.574A3.093,3.093,0,0,1,55.727-.238a3.949,3.949,0,0,1-1.77.395A3.67,3.67,0,0,1,51.1-1,4.56,4.56,0,0,1,50.051-4.18v-.148A4.508,4.508,0,0,1,51.09-7.445a3.627,3.627,0,0,1,2.852-1.164,3.555,3.555,0,0,1,2.543.9,3.2,3.2,0,0,1,.973,2.4H55.34a1.551,1.551,0,0,0-.406-1.072A1.354,1.354,0,0,0,53.9-6.789a1.36,1.36,0,0,0-1.191.575,3.333,3.333,0,0,0-.4,1.866v.235a3.375,3.375,0,0,0,.4,1.878A1.377,1.377,0,0,0,53.918-1.664Zm7.531-8.867v2.078h1.445V-6.8H61.449v4.219a1.007,1.007,0,0,0,.18.672.9.9,0,0,0,.688.2,3.6,3.6,0,0,0,.664-.055V-.047a4.648,4.648,0,0,1-1.367.2,2.156,2.156,0,0,1-2.422-2.4V-6.8H57.957V-8.453h1.234v-2.078ZM69.051,0a2.507,2.507,0,0,1-.227-.758,2.732,2.732,0,0,1-2.133.914,3,3,0,0,1-2.059-.719,2.312,2.312,0,0,1-.816-1.812,2.389,2.389,0,0,1,1-2.062,4.915,4.915,0,0,1,2.879-.727H68.73v-.484a1.393,1.393,0,0,0-.3-.937,1.183,1.183,0,0,0-.949-.352,1.345,1.345,0,0,0-.895.273.929.929,0,0,0-.324.75H64a2.268,2.268,0,0,1,.453-1.359,3,3,0,0,1,1.281-.98A4.669,4.669,0,0,1,67.6-8.609a3.689,3.689,0,0,1,2.48.785A2.747,2.747,0,0,1,71-5.617v3.664a4.041,4.041,0,0,0,.336,1.82V0ZM67.184-1.57a1.945,1.945,0,0,0,.922-.223,1.462,1.462,0,0,0,.625-.6V-3.844h-.844q-1.7,0-1.8,1.172l-.008.133a.9.9,0,0,0,.3.7A1.153,1.153,0,0,0,67.184-1.57Zm7.625-6.883.07.977a2.951,2.951,0,0,1,2.43-1.133,2.453,2.453,0,0,1,2,.789,3.682,3.682,0,0,1,.672,2.359V0H77.723V-5.406a1.465,1.465,0,0,0-.312-1.043,1.4,1.4,0,0,0-1.039-.324,1.553,1.553,0,0,0-1.43.813V0H72.684V-8.453ZM81.34-4.3a5.013,5.013,0,0,1,.484-2.242A3.546,3.546,0,0,1,83.219-8.07a4.069,4.069,0,0,1,2.113-.539,3.849,3.849,0,0,1,2.793,1.047,4.2,4.2,0,0,1,1.207,2.844l.016.578A4.418,4.418,0,0,1,88.262-1.02,3.775,3.775,0,0,1,85.348.156,3.793,3.793,0,0,1,82.43-1.016,4.5,4.5,0,0,1,81.34-4.2Zm2.258.16A3.16,3.16,0,0,0,84.051-2.3a1.5,1.5,0,0,0,1.3.638,1.5,1.5,0,0,0,1.281-.63,3.457,3.457,0,0,0,.461-2.015,3.128,3.128,0,0,0-.461-1.831,1.5,1.5,0,0,0-1.3-.649,1.474,1.474,0,0,0-1.281.646A3.516,3.516,0,0,0,83.6-4.144ZM93.121,0H90.855V-12h2.266Zm2.57.977h-1.68L98.2-11.375h1.68ZM105.855,0a2.507,2.507,0,0,1-.227-.758A2.732,2.732,0,0,1,103.5.156a3,3,0,0,1-2.059-.719,2.312,2.312,0,0,1-.816-1.812,2.389,2.389,0,0,1,1-2.062,4.915,4.915,0,0,1,2.879-.727h1.039v-.484a1.393,1.393,0,0,0-.3-.937,1.183,1.183,0,0,0-.949-.352,1.345,1.345,0,0,0-.895.273.929.929,0,0,0-.324.75h-2.258a2.268,2.268,0,0,1,.453-1.359,3,3,0,0,1,1.281-.98,4.669,4.669,0,0,1,1.859-.355,3.689,3.689,0,0,1,2.48.785,2.747,2.747,0,0,1,.918,2.207v3.664a4.041,4.041,0,0,0,.336,1.82V0Zm-1.867-1.57a1.945,1.945,0,0,0,.922-.223,1.462,1.462,0,0,0,.625-.6V-3.844h-.844q-1.7,0-1.8,1.172l-.008.133a.9.9,0,0,0,.3.7A1.153,1.153,0,0,0,103.988-1.57Zm5.219-2.719a4.954,4.954,0,0,1,.926-3.133,3,3,0,0,1,2.5-1.187,2.631,2.631,0,0,1,2.164.953l.094-.8h2.047V-.281a3.613,3.613,0,0,1-.5,1.93,3.236,3.236,0,0,1-1.418,1.25,4.985,4.985,0,0,1-2.141.43,4.635,4.635,0,0,1-1.812-.371A3.217,3.217,0,0,1,109.723,2l1-1.375a2.645,2.645,0,0,0,2.047.945,1.936,1.936,0,0,0,1.4-.48,1.8,1.8,0,0,0,.5-1.363V-.727a2.612,2.612,0,0,1-2.055.883,2.992,2.992,0,0,1-2.465-1.191,4.953,4.953,0,0,1-.941-3.16Zm2.258.168a3.085,3.085,0,0,0,.461,1.8,1.466,1.466,0,0,0,1.266.653,1.568,1.568,0,0,0,1.477-.775V-6a1.564,1.564,0,0,0-1.461-.775,1.476,1.476,0,0,0-1.277.665A3.477,3.477,0,0,0,111.465-4.121ZM123.73-.859A2.831,2.831,0,0,1,121.418.156a2.67,2.67,0,0,1-2.074-.781,3.335,3.335,0,0,1-.73-2.289V-8.453h2.258v5.467q0,1.322,1.2,1.322a1.63,1.63,0,0,0,1.578-.8V-8.453h2.266V0h-2.125ZM132.52,0a2.507,2.507,0,0,1-.227-.758,2.732,2.732,0,0,1-2.133.914A3,3,0,0,1,128.1-.562a2.312,2.312,0,0,1-.816-1.812,2.389,2.389,0,0,1,1-2.062,4.915,4.915,0,0,1,2.879-.727H132.2v-.484a1.393,1.393,0,0,0-.3-.937,1.183,1.183,0,0,0-.949-.352,1.345,1.345,0,0,0-.895.273.929.929,0,0,0-.324.75h-2.258a2.268,2.268,0,0,1,.453-1.359,3,3,0,0,1,1.281-.98,4.669,4.669,0,0,1,1.859-.355,3.689,3.689,0,0,1,2.48.785,2.747,2.747,0,0,1,.918,2.207v3.664a4.041,4.041,0,0,0,.336,1.82V0Zm-1.867-1.57a1.945,1.945,0,0,0,.922-.223,1.462,1.462,0,0,0,.625-.6V-3.844h-.844q-1.7,0-1.8,1.172l-.008.133a.9.9,0,0,0,.3.7A1.153,1.153,0,0,0,130.652-1.57Z" transform="translate(719 1504.332)"/>
          <path id="Path_824435" data-name="Path 824435" d="M-107.824-4.164h-1.867V0h-2.344V-11.375h4.227a4.778,4.778,0,0,1,3.109.9,3.1,3.1,0,0,1,1.094,2.539,3.5,3.5,0,0,1-.5,1.941,3.437,3.437,0,0,1-1.527,1.238l2.461,4.648V0h-2.516Zm-1.867-1.9h1.891a1.936,1.936,0,0,0,1.367-.449,1.606,1.606,0,0,0,.484-1.238,1.719,1.719,0,0,0-.457-1.266,1.9,1.9,0,0,0-1.4-.461h-1.883ZM-98.082.156a4.15,4.15,0,0,1-3.027-1.141,4.054,4.054,0,0,1-1.168-3.039v-.219a5.106,5.106,0,0,1,.492-2.277,3.612,3.612,0,0,1,1.395-1.547,3.914,3.914,0,0,1,2.059-.543A3.508,3.508,0,0,1-95.6-7.516a4.444,4.444,0,0,1,1,3.1v.922h-5.383a2.1,2.1,0,0,0,.66,1.328,2,2,0,0,0,1.395.5,2.437,2.437,0,0,0,2.039-.945l1.109,1.242A3.389,3.389,0,0,1-96.16-.246,4.511,4.511,0,0,1-98.082.156Zm-.258-6.945a1.411,1.411,0,0,0-1.09.455,2.357,2.357,0,0,0-.535,1.3h3.141v-.181a1.681,1.681,0,0,0-.406-1.165A1.456,1.456,0,0,0-98.34-6.789Zm4.688,2.5a4.954,4.954,0,0,1,.926-3.133,3,3,0,0,1,2.5-1.187,2.631,2.631,0,0,1,2.164.953l.094-.8h2.047V-.281a3.613,3.613,0,0,1-.5,1.93A3.236,3.236,0,0,1-87.848,2.9a4.985,4.985,0,0,1-2.141.43A4.635,4.635,0,0,1-91.8,2.957,3.217,3.217,0,0,1-93.137,2l1-1.375a2.645,2.645,0,0,0,2.047.945,1.936,1.936,0,0,0,1.4-.48,1.8,1.8,0,0,0,.5-1.363V-.727a2.612,2.612,0,0,1-2.055.883,2.992,2.992,0,0,1-2.465-1.191,4.953,4.953,0,0,1-.941-3.16Zm2.258.168a3.085,3.085,0,0,0,.461,1.8,1.466,1.466,0,0,0,1.266.653,1.568,1.568,0,0,0,1.477-.775V-6a1.564,1.564,0,0,0-1.461-.775,1.476,1.476,0,0,0-1.277.665A3.477,3.477,0,0,0-91.395-4.121ZM-81.809,0h-2.266V-12h2.266Zm6.758,0a2.507,2.507,0,0,1-.227-.758A2.732,2.732,0,0,1-77.41.156a3,3,0,0,1-2.059-.719,2.312,2.312,0,0,1-.816-1.812,2.389,2.389,0,0,1,1-2.062,4.915,4.915,0,0,1,2.879-.727h1.039v-.484a1.393,1.393,0,0,0-.3-.937,1.183,1.183,0,0,0-.949-.352,1.345,1.345,0,0,0-.895.273.929.929,0,0,0-.324.75H-80.1a2.268,2.268,0,0,1,.453-1.359,3,3,0,0,1,1.281-.98A4.669,4.669,0,0,1-76.5-8.609a3.689,3.689,0,0,1,2.48.785,2.747,2.747,0,0,1,.918,2.207v3.664a4.041,4.041,0,0,0,.336,1.82V0Zm-1.867-1.57A1.945,1.945,0,0,0-76-1.793a1.462,1.462,0,0,0,.625-.6V-3.844h-.844q-1.7,0-1.8,1.172l-.008.133a.9.9,0,0,0,.3.7A1.153,1.153,0,0,0-76.918-1.57Zm7.664-6.883.07.945a2.971,2.971,0,0,1,2.43-1.1A2.255,2.255,0,0,1-64.512-7.32a2.9,2.9,0,0,1,2.539-1.289,2.521,2.521,0,0,1,2.047.8,3.681,3.681,0,0,1,.672,2.41V0H-61.52V-5.391A1.61,1.61,0,0,0-61.8-6.441a1.246,1.246,0,0,0-.992-.332A1.409,1.409,0,0,0-64.2-5.8l.008,5.8h-2.258V-5.383a1.59,1.59,0,0,0-.289-1.062,1.259,1.259,0,0,0-.984-.328,1.463,1.463,0,0,0-1.391.8V0h-2.258V-8.453ZM-53.629.156A4.15,4.15,0,0,1-56.656-.984a4.054,4.054,0,0,1-1.168-3.039v-.219a5.106,5.106,0,0,1,.492-2.277,3.612,3.612,0,0,1,1.395-1.547,3.914,3.914,0,0,1,2.059-.543,3.508,3.508,0,0,1,2.73,1.094,4.444,4.444,0,0,1,1,3.1v.922h-5.383a2.1,2.1,0,0,0,.66,1.328,2,2,0,0,0,1.395.5,2.437,2.437,0,0,0,2.039-.945l1.109,1.242A3.389,3.389,0,0,1-51.707-.246,4.511,4.511,0,0,1-53.629.156Zm-.258-6.945a1.411,1.411,0,0,0-1.09.455,2.357,2.357,0,0,0-.535,1.3h3.141v-.181a1.681,1.681,0,0,0-.406-1.165A1.456,1.456,0,0,0-53.887-6.789Zm7.094-1.664.07.977a2.951,2.951,0,0,1,2.43-1.133,2.453,2.453,0,0,1,2,.789,3.682,3.682,0,0,1,.672,2.359V0h-2.258V-5.406a1.465,1.465,0,0,0-.312-1.043,1.4,1.4,0,0,0-1.039-.324,1.553,1.553,0,0,0-1.43.813V0h-2.258V-8.453Zm9.586-2.078v2.078h1.445V-6.8h-1.445v4.219a1.007,1.007,0,0,0,.18.672.9.9,0,0,0,.688.2,3.6,3.6,0,0,0,.664-.055V-.047a4.648,4.648,0,0,1-1.367.2,2.156,2.156,0,0,1-2.422-2.4V-6.8H-40.7V-8.453h1.234v-2.078ZM-29.605,0a2.507,2.507,0,0,1-.227-.758,2.732,2.732,0,0,1-2.133.914,3,3,0,0,1-2.059-.719,2.312,2.312,0,0,1-.816-1.812,2.389,2.389,0,0,1,1-2.062,4.915,4.915,0,0,1,2.879-.727h1.039v-.484a1.393,1.393,0,0,0-.3-.937,1.183,1.183,0,0,0-.949-.352,1.345,1.345,0,0,0-.895.273.929.929,0,0,0-.324.75h-2.258A2.268,2.268,0,0,1-34.2-7.273a3,3,0,0,1,1.281-.98,4.669,4.669,0,0,1,1.859-.355,3.689,3.689,0,0,1,2.48.785,2.747,2.747,0,0,1,.918,2.207v3.664a4.041,4.041,0,0,0,.336,1.82V0Zm-1.867-1.57a1.945,1.945,0,0,0,.922-.223,1.462,1.462,0,0,0,.625-.6V-3.844h-.844q-1.7,0-1.8,1.172l-.008.133a.9.9,0,0,0,.3.7A1.153,1.153,0,0,0-31.473-1.57Zm9.063-.094a1.481,1.481,0,0,0,1.016-.344,1.2,1.2,0,0,0,.406-.914h2.117a2.9,2.9,0,0,1-.469,1.574A3.093,3.093,0,0,1-20.6-.238a3.949,3.949,0,0,1-1.77.395A3.67,3.67,0,0,1-25.23-1,4.56,4.56,0,0,1-26.277-4.18v-.148a4.508,4.508,0,0,1,1.039-3.117,3.627,3.627,0,0,1,2.852-1.164,3.555,3.555,0,0,1,2.543.9,3.2,3.2,0,0,1,.973,2.4h-2.117a1.551,1.551,0,0,0-.406-1.072,1.354,1.354,0,0,0-1.031-.412,1.36,1.36,0,0,0-1.191.575,3.333,3.333,0,0,0-.4,1.866v.235a3.375,3.375,0,0,0,.4,1.878A1.377,1.377,0,0,0-22.41-1.664ZM-15.2,0h-2.266V-8.453H-15.2Zm-2.4-10.641a1.112,1.112,0,0,1,.34-.836,1.277,1.277,0,0,1,.926-.328,1.28,1.28,0,0,1,.922.328,1.105,1.105,0,0,1,.344.836,1.108,1.108,0,0,1-.348.844,1.283,1.283,0,0,1-.918.328A1.283,1.283,0,0,1-17.25-9.8,1.108,1.108,0,0,1-17.6-10.641ZM-13.691-4.3a5.013,5.013,0,0,1,.484-2.242A3.546,3.546,0,0,1-11.812-8.07,4.069,4.069,0,0,1-9.7-8.609,3.849,3.849,0,0,1-6.906-7.562,4.2,4.2,0,0,1-5.7-4.719l.016.578A4.418,4.418,0,0,1-6.77-1.02,3.775,3.775,0,0,1-9.684.156,3.793,3.793,0,0,1-12.6-1.016,4.5,4.5,0,0,1-13.691-4.2Zm2.258.16A3.16,3.16,0,0,0-10.98-2.3a1.5,1.5,0,0,0,1.3.638A1.5,1.5,0,0,0-8.4-2.294a3.457,3.457,0,0,0,.461-2.015A3.128,3.128,0,0,0-8.4-6.14a1.5,1.5,0,0,0-1.3-.649,1.474,1.474,0,0,0-1.281.646A3.516,3.516,0,0,0-11.434-4.144Zm9.219-4.309.07.977A2.951,2.951,0,0,1,.285-8.609a2.453,2.453,0,0,1,2,.789,3.682,3.682,0,0,1,.672,2.359V0H.7V-5.406A1.465,1.465,0,0,0,.387-6.449,1.4,1.4,0,0,0-.652-6.773a1.553,1.553,0,0,0-1.43.813V0H-4.34V-8.453ZM8.559.156A4.15,4.15,0,0,1,5.531-.984,4.054,4.054,0,0,1,4.363-4.023v-.219A5.106,5.106,0,0,1,4.855-6.52,3.612,3.612,0,0,1,6.25-8.066a3.914,3.914,0,0,1,2.059-.543,3.508,3.508,0,0,1,2.73,1.094,4.444,4.444,0,0,1,1,3.1v.922H6.652a2.1,2.1,0,0,0,.66,1.328,2,2,0,0,0,1.395.5,2.437,2.437,0,0,0,2.039-.945l1.109,1.242A3.389,3.389,0,0,1,10.48-.246,4.511,4.511,0,0,1,8.559.156ZM8.3-6.789a1.411,1.411,0,0,0-1.09.455,2.357,2.357,0,0,0-.535,1.3H9.816v-.181A1.681,1.681,0,0,0,9.41-6.377,1.456,1.456,0,0,0,8.3-6.789Zm9.594,4.453a.727.727,0,0,0-.41-.652,4.659,4.659,0,0,0-1.316-.426q-3.016-.633-3.016-2.562a2.323,2.323,0,0,1,.934-1.879,3.766,3.766,0,0,1,2.441-.754,4.053,4.053,0,0,1,2.574.758,2.388,2.388,0,0,1,.965,1.969H17.809a1.092,1.092,0,0,0-.312-.8A1.322,1.322,0,0,0,16.52-7a1.351,1.351,0,0,0-.883.258.814.814,0,0,0-.312.656.7.7,0,0,0,.355.605,3.657,3.657,0,0,0,1.2.4A9.8,9.8,0,0,1,18.3-4.7,2.336,2.336,0,0,1,20.09-2.43,2.2,2.2,0,0,1,19.1-.559a4.28,4.28,0,0,1-2.562.715,4.47,4.47,0,0,1-1.887-.379,3.166,3.166,0,0,1-1.293-1.039,2.414,2.414,0,0,1-.469-1.426h2.141a1.179,1.179,0,0,0,.445.922,1.766,1.766,0,0,0,1.109.32,1.635,1.635,0,0,0,.98-.246A.766.766,0,0,0,17.895-2.336ZM30.426,0A2.507,2.507,0,0,1,30.2-.758a2.732,2.732,0,0,1-2.133.914,3,3,0,0,1-2.059-.719,2.312,2.312,0,0,1-.816-1.812,2.389,2.389,0,0,1,1-2.062,4.915,4.915,0,0,1,2.879-.727h1.039v-.484a1.393,1.393,0,0,0-.3-.937,1.183,1.183,0,0,0-.949-.352,1.345,1.345,0,0,0-.895.273.929.929,0,0,0-.324.75H25.379a2.268,2.268,0,0,1,.453-1.359,3,3,0,0,1,1.281-.98,4.669,4.669,0,0,1,1.859-.355,3.689,3.689,0,0,1,2.48.785,2.747,2.747,0,0,1,.918,2.207v3.664a4.041,4.041,0,0,0,.336,1.82V0ZM28.559-1.57a1.945,1.945,0,0,0,.922-.223,1.462,1.462,0,0,0,.625-.6V-3.844h-.844q-1.7,0-1.8,1.172l-.008.133a.9.9,0,0,0,.3.7A1.153,1.153,0,0,0,28.559-1.57Zm7.664-6.883.07.945a2.971,2.971,0,0,1,2.43-1.1A2.255,2.255,0,0,1,40.965-7.32,2.9,2.9,0,0,1,43.5-8.609a2.521,2.521,0,0,1,2.047.8,3.681,3.681,0,0,1,.672,2.41V0H43.957V-5.391a1.61,1.61,0,0,0-.281-1.051,1.246,1.246,0,0,0-.992-.332,1.409,1.409,0,0,0-1.406.969L41.285,0H39.027V-5.383a1.59,1.59,0,0,0-.289-1.062,1.259,1.259,0,0,0-.984-.328,1.463,1.463,0,0,0-1.391.8V0H34.105V-8.453Zm19.352,4.3A5.119,5.119,0,0,1,54.707-.98,2.872,2.872,0,0,1,52.285.156,2.639,2.639,0,0,1,50.09-.9l-.1.9H47.957V-12h2.258v4.3a2.571,2.571,0,0,1,2.055-.914A2.9,2.9,0,0,1,54.7-7.473a5.126,5.126,0,0,1,.879,3.2Zm-2.258-.164a3.363,3.363,0,0,0-.406-1.871,1.374,1.374,0,0,0-1.211-.59,1.489,1.489,0,0,0-1.484.883v3.336a1.509,1.509,0,0,0,1.5.891,1.394,1.394,0,0,0,1.438-1.078A5.562,5.562,0,0,0,53.316-4.312ZM59.348,0H57.082V-8.453h2.266Zm-2.4-10.641a1.112,1.112,0,0,1,.34-.836,1.277,1.277,0,0,1,.926-.328,1.28,1.28,0,0,1,.922.328,1.105,1.105,0,0,1,.344.836,1.108,1.108,0,0,1-.348.844,1.283,1.283,0,0,1-.918.328A1.283,1.283,0,0,1,57.3-9.8,1.108,1.108,0,0,1,56.949-10.641ZM65.1.156A4.15,4.15,0,0,1,62.07-.984,4.054,4.054,0,0,1,60.9-4.023v-.219a5.106,5.106,0,0,1,.492-2.277,3.612,3.612,0,0,1,1.395-1.547,3.914,3.914,0,0,1,2.059-.543,3.508,3.508,0,0,1,2.73,1.094,4.444,4.444,0,0,1,1,3.1v.922H63.191a2.1,2.1,0,0,0,.66,1.328,2,2,0,0,0,1.395.5,2.437,2.437,0,0,0,2.039-.945l1.109,1.242A3.389,3.389,0,0,1,67.02-.246,4.511,4.511,0,0,1,65.1.156ZM64.84-6.789a1.411,1.411,0,0,0-1.09.455,2.357,2.357,0,0,0-.535,1.3h3.141v-.181a1.681,1.681,0,0,0-.406-1.165A1.456,1.456,0,0,0,64.84-6.789Zm7.094-1.664.07.977a2.951,2.951,0,0,1,2.43-1.133,2.453,2.453,0,0,1,2,.789,3.682,3.682,0,0,1,.672,2.359V0H74.848V-5.406a1.465,1.465,0,0,0-.312-1.043A1.4,1.4,0,0,0,73.5-6.773a1.553,1.553,0,0,0-1.43.813V0H69.809V-8.453Zm9.586-2.078v2.078h1.445V-6.8H81.52v4.219a1.007,1.007,0,0,0,.18.672.9.9,0,0,0,.688.2,3.6,3.6,0,0,0,.664-.055V-.047a4.648,4.648,0,0,1-1.367.2,2.156,2.156,0,0,1-2.422-2.4V-6.8H78.027V-8.453h1.234v-2.078ZM89.121,0a2.507,2.507,0,0,1-.227-.758,2.732,2.732,0,0,1-2.133.914A3,3,0,0,1,84.7-.562a2.312,2.312,0,0,1-.816-1.812,2.389,2.389,0,0,1,1-2.062,4.915,4.915,0,0,1,2.879-.727H88.8v-.484a1.393,1.393,0,0,0-.3-.937,1.183,1.183,0,0,0-.949-.352,1.345,1.345,0,0,0-.895.273.929.929,0,0,0-.324.75H84.074a2.268,2.268,0,0,1,.453-1.359,3,3,0,0,1,1.281-.98,4.669,4.669,0,0,1,1.859-.355,3.689,3.689,0,0,1,2.48.785,2.747,2.747,0,0,1,.918,2.207v3.664A4.041,4.041,0,0,0,91.4-.133V0ZM87.254-1.57a1.945,1.945,0,0,0,.922-.223,1.462,1.462,0,0,0,.625-.6V-3.844h-.844q-1.7,0-1.8,1.172l-.008.133a.9.9,0,0,0,.3.7A1.153,1.153,0,0,0,87.254-1.57ZM95.184,0H92.918V-12h2.266Zm5.75.156A4.15,4.15,0,0,1,97.906-.984a4.054,4.054,0,0,1-1.168-3.039v-.219A5.106,5.106,0,0,1,97.23-6.52a3.612,3.612,0,0,1,1.395-1.547,3.914,3.914,0,0,1,2.059-.543,3.508,3.508,0,0,1,2.73,1.094,4.444,4.444,0,0,1,1,3.1v.922H99.027a2.1,2.1,0,0,0,.66,1.328,2,2,0,0,0,1.395.5,2.437,2.437,0,0,0,2.039-.945l1.109,1.242a3.389,3.389,0,0,1-1.375,1.121A4.511,4.511,0,0,1,100.934.156Zm-.258-6.945a1.411,1.411,0,0,0-1.09.455,2.357,2.357,0,0,0-.535,1.3h3.141v-.181a1.681,1.681,0,0,0-.406-1.165A1.456,1.456,0,0,0,100.676-6.789Zm9.594,4.453a.727.727,0,0,0-.41-.652,4.659,4.659,0,0,0-1.316-.426q-3.016-.633-3.016-2.562a2.323,2.323,0,0,1,.934-1.879,3.766,3.766,0,0,1,2.441-.754,4.053,4.053,0,0,1,2.574.758,2.388,2.388,0,0,1,.965,1.969h-2.258a1.092,1.092,0,0,0-.312-.8A1.322,1.322,0,0,0,108.895-7a1.351,1.351,0,0,0-.883.258.814.814,0,0,0-.312.656.7.7,0,0,0,.355.605,3.657,3.657,0,0,0,1.2.4,9.8,9.8,0,0,1,1.422.379,2.336,2.336,0,0,1,1.789,2.273,2.2,2.2,0,0,1-.992,1.871,4.28,4.28,0,0,1-2.562.715,4.47,4.47,0,0,1-1.887-.379,3.166,3.166,0,0,1-1.293-1.039,2.414,2.414,0,0,1-.469-1.426H107.4a1.179,1.179,0,0,0,.445.922,1.766,1.766,0,0,0,1.109.32,1.635,1.635,0,0,0,.98-.246A.766.766,0,0,0,110.27-2.336Z" transform="translate(719 1613.5)"/>
          <path id="Path_824436" data-name="Path 824436" d="M-29.449,0h-2.344V-11.375h2.344Zm4.1-8.453.07.977a2.951,2.951,0,0,1,2.43-1.133,2.453,2.453,0,0,1,2,.789,3.682,3.682,0,0,1,.672,2.359V0h-2.258V-5.406a1.465,1.465,0,0,0-.312-1.043,1.4,1.4,0,0,0-1.039-.324,1.553,1.553,0,0,0-1.43.813V0h-2.258V-8.453Zm11.461,6.117a.727.727,0,0,0-.41-.652,4.659,4.659,0,0,0-1.316-.426q-3.016-.633-3.016-2.562A2.323,2.323,0,0,1-17.7-7.855a3.766,3.766,0,0,1,2.441-.754,4.053,4.053,0,0,1,2.574.758,2.388,2.388,0,0,1,.965,1.969h-2.258a1.092,1.092,0,0,0-.312-.8A1.322,1.322,0,0,0-15.262-7a1.351,1.351,0,0,0-.883.258.814.814,0,0,0-.312.656.7.7,0,0,0,.355.605,3.657,3.657,0,0,0,1.2.4A9.8,9.8,0,0,1-13.48-4.7,2.336,2.336,0,0,1-11.691-2.43a2.2,2.2,0,0,1-.992,1.871,4.28,4.28,0,0,1-2.562.715,4.47,4.47,0,0,1-1.887-.379,3.166,3.166,0,0,1-1.293-1.039,2.414,2.414,0,0,1-.469-1.426h2.141a1.179,1.179,0,0,0,.445.922,1.766,1.766,0,0,0,1.109.32,1.635,1.635,0,0,0,.98-.246A.766.766,0,0,0-13.887-2.336ZM-5.176-.859A2.831,2.831,0,0,1-7.488.156,2.67,2.67,0,0,1-9.562-.625a3.335,3.335,0,0,1-.73-2.289V-8.453h2.258v5.467q0,1.322,1.2,1.322a1.63,1.63,0,0,0,1.578-.8V-8.453h2.266V0H-5.113ZM.832-8.453l.07.945a2.971,2.971,0,0,1,2.43-1.1A2.255,2.255,0,0,1,5.574-7.32,2.9,2.9,0,0,1,8.113-8.609a2.521,2.521,0,0,1,2.047.8,3.681,3.681,0,0,1,.672,2.41V0H8.566V-5.391a1.61,1.61,0,0,0-.281-1.051,1.246,1.246,0,0,0-.992-.332A1.409,1.409,0,0,0,5.887-5.8L5.895,0H3.637V-5.383a1.59,1.59,0,0,0-.289-1.062,1.259,1.259,0,0,0-.984-.328,1.463,1.463,0,0,0-1.391.8V0H-1.285V-8.453ZM12.215-4.3A5.013,5.013,0,0,1,12.7-6.547,3.546,3.546,0,0,1,14.094-8.07a4.069,4.069,0,0,1,2.113-.539A3.849,3.849,0,0,1,19-7.562a4.2,4.2,0,0,1,1.207,2.844l.016.578A4.418,4.418,0,0,1,19.137-1.02,3.775,3.775,0,0,1,16.223.156,3.793,3.793,0,0,1,13.3-1.016,4.5,4.5,0,0,1,12.215-4.2Zm2.258.16A3.16,3.16,0,0,0,14.926-2.3a1.5,1.5,0,0,0,1.3.638,1.5,1.5,0,0,0,1.281-.63,3.457,3.457,0,0,0,.461-2.015A3.128,3.128,0,0,0,17.5-6.14a1.5,1.5,0,0,0-1.3-.649,1.474,1.474,0,0,0-1.281.646A3.516,3.516,0,0,0,14.473-4.144ZM26.191-2.336a.727.727,0,0,0-.41-.652,4.659,4.659,0,0,0-1.316-.426q-3.016-.633-3.016-2.562a2.323,2.323,0,0,1,.934-1.879,3.766,3.766,0,0,1,2.441-.754,4.053,4.053,0,0,1,2.574.758,2.388,2.388,0,0,1,.965,1.969H26.105a1.092,1.092,0,0,0-.312-.8A1.322,1.322,0,0,0,24.816-7a1.351,1.351,0,0,0-.883.258.814.814,0,0,0-.312.656.7.7,0,0,0,.355.605,3.657,3.657,0,0,0,1.2.4A9.8,9.8,0,0,1,26.6-4.7,2.336,2.336,0,0,1,28.387-2.43a2.2,2.2,0,0,1-.992,1.871,4.28,4.28,0,0,1-2.562.715,4.47,4.47,0,0,1-1.887-.379,3.166,3.166,0,0,1-1.293-1.039,2.414,2.414,0,0,1-.469-1.426h2.141a1.179,1.179,0,0,0,.445.922,1.766,1.766,0,0,0,1.109.32,1.635,1.635,0,0,0,.98-.246A.766.766,0,0,0,26.191-2.336ZM-41.348,13.711a5.094,5.094,0,0,1,.887-3.148,2.877,2.877,0,0,1,2.426-1.172A2.589,2.589,0,0,1-36,10.313V6h2.266V18H-35.77l-.109-.9a2.657,2.657,0,0,1-2.172,1.055,2.869,2.869,0,0,1-2.395-1.176A5.258,5.258,0,0,1-41.348,13.711Zm2.258.168a3.337,3.337,0,0,0,.414,1.823,1.349,1.349,0,0,0,1.2.634A1.511,1.511,0,0,0-36,15.452V12.111a1.489,1.489,0,0,0-1.461-.884Q-39.09,11.227-39.09,13.879Zm11,4.277a4.15,4.15,0,0,1-3.027-1.141,4.054,4.054,0,0,1-1.168-3.039v-.219a5.106,5.106,0,0,1,.492-2.277A3.612,3.612,0,0,1-30.4,9.934a3.914,3.914,0,0,1,2.059-.543,3.508,3.508,0,0,1,2.73,1.094,4.444,4.444,0,0,1,1,3.1v.922H-30a2.1,2.1,0,0,0,.66,1.328,2,2,0,0,0,1.395.5,2.437,2.437,0,0,0,2.039-.945l1.109,1.242a3.389,3.389,0,0,1-1.375,1.121A4.511,4.511,0,0,1-28.09,18.156Zm-.258-6.945a1.411,1.411,0,0,0-1.09.455,2.357,2.357,0,0,0-.535,1.3h3.141v-.181a1.681,1.681,0,0,0-.406-1.165A1.456,1.456,0,0,0-28.348,11.211ZM-17.23,9.547l.07.945a2.971,2.971,0,0,1,2.43-1.1,2.255,2.255,0,0,1,2.242,1.289A2.9,2.9,0,0,1-9.949,9.391a2.521,2.521,0,0,1,2.047.8A3.681,3.681,0,0,1-7.23,12.6V18H-9.5V12.609a1.61,1.61,0,0,0-.281-1.051,1.246,1.246,0,0,0-.992-.332,1.409,1.409,0,0,0-1.406.969l.008,5.8h-2.258V12.617a1.59,1.59,0,0,0-.289-1.062,1.259,1.259,0,0,0-.984-.328,1.463,1.463,0,0,0-1.391.8V18h-2.258V9.547ZM-5.848,13.7a5.013,5.013,0,0,1,.484-2.242A3.546,3.546,0,0,1-3.969,9.93a4.069,4.069,0,0,1,2.113-.539A3.849,3.849,0,0,1,.938,10.438a4.2,4.2,0,0,1,1.207,2.844l.016.578A4.418,4.418,0,0,1,1.074,16.98,3.775,3.775,0,0,1-1.84,18.156a3.793,3.793,0,0,1-2.918-1.172A4.5,4.5,0,0,1-5.848,13.8Zm2.258.16A3.16,3.16,0,0,0-3.137,15.7a1.5,1.5,0,0,0,1.3.638,1.5,1.5,0,0,0,1.281-.63A3.457,3.457,0,0,0-.1,13.691,3.128,3.128,0,0,0-.559,11.86a1.5,1.5,0,0,0-1.3-.649,1.474,1.474,0,0,0-1.281.646A3.516,3.516,0,0,0-3.59,13.856ZM3.2,13.711a5.094,5.094,0,0,1,.887-3.148A2.877,2.877,0,0,1,6.512,9.391a2.589,2.589,0,0,1,2.039.922V6h2.266V18H8.777l-.109-.9A2.657,2.657,0,0,1,6.5,18.156,2.869,2.869,0,0,1,4.1,16.98,5.258,5.258,0,0,1,3.2,13.711Zm2.258.168A3.337,3.337,0,0,0,5.871,15.7a1.349,1.349,0,0,0,1.2.634,1.511,1.511,0,0,0,1.477-.884V12.111a1.489,1.489,0,0,0-1.461-.884Q5.457,11.227,5.457,13.879Zm11,4.277a4.15,4.15,0,0,1-3.027-1.141,4.054,4.054,0,0,1-1.168-3.039v-.219a5.106,5.106,0,0,1,.492-2.277,3.612,3.612,0,0,1,1.395-1.547,3.914,3.914,0,0,1,2.059-.543,3.508,3.508,0,0,1,2.73,1.094,4.444,4.444,0,0,1,1,3.1v.922H14.551a2.1,2.1,0,0,0,.66,1.328,2,2,0,0,0,1.395.5,2.437,2.437,0,0,0,2.039-.945l1.109,1.242a3.389,3.389,0,0,1-1.375,1.121A4.511,4.511,0,0,1,16.457,18.156ZM16.2,11.211a1.411,1.411,0,0,0-1.09.455,2.357,2.357,0,0,0-.535,1.3h3.141v-.181a1.681,1.681,0,0,0-.406-1.165A1.456,1.456,0,0,0,16.2,11.211ZM23.6,18H21.332V6H23.6Zm1.508-4.3a5.013,5.013,0,0,1,.484-2.242A3.546,3.546,0,0,1,26.984,9.93,4.069,4.069,0,0,1,29.1,9.391a3.849,3.849,0,0,1,2.793,1.047A4.2,4.2,0,0,1,33.1,13.281l.016.578a4.418,4.418,0,0,1-1.086,3.121,3.775,3.775,0,0,1-2.914,1.176A3.793,3.793,0,0,1,26.2,16.984a4.5,4.5,0,0,1-1.09-3.187Zm2.258.16a3.16,3.16,0,0,0,.453,1.843,1.628,1.628,0,0,0,2.578.008,3.457,3.457,0,0,0,.461-2.015,3.128,3.128,0,0,0-.461-1.831,1.5,1.5,0,0,0-1.3-.649,1.474,1.474,0,0,0-1.281.646A3.516,3.516,0,0,0,27.363,13.856Zm11.719,1.808a.727.727,0,0,0-.41-.652,4.659,4.659,0,0,0-1.316-.426q-3.016-.633-3.016-2.562a2.323,2.323,0,0,1,.934-1.879,3.766,3.766,0,0,1,2.441-.754,4.053,4.053,0,0,1,2.574.758,2.388,2.388,0,0,1,.965,1.969H39a1.092,1.092,0,0,0-.312-.8A1.322,1.322,0,0,0,37.707,11a1.351,1.351,0,0,0-.883.258.814.814,0,0,0-.312.656.7.7,0,0,0,.355.605,3.657,3.657,0,0,0,1.2.4,9.8,9.8,0,0,1,1.422.379,2.336,2.336,0,0,1,1.789,2.273,2.2,2.2,0,0,1-.992,1.871,4.28,4.28,0,0,1-2.562.715,4.47,4.47,0,0,1-1.887-.379,3.166,3.166,0,0,1-1.293-1.039,2.414,2.414,0,0,1-.469-1.426h2.141a1.179,1.179,0,0,0,.445.922,1.766,1.766,0,0,0,1.109.32,1.635,1.635,0,0,0,.98-.246A.766.766,0,0,0,39.082,15.664Z" transform="translate(462 1521.891)"/>
          <g id="Group_1073948" data-name="Group 1073948" transform="translate(427 1434.773)">
            <g id="Group_1073946" data-name="Group 1073946" clip-path="url(#clip-path)">
              <path id="Path_823510" data-name="Path 823510" d="M14.526,3.828a22.631,22.631,0,0,1,3.259-.009,1.165,1.165,0,0,0,1.267.966l25.139,0a3.2,3.2,0,0,0,.987.013l3.306,0a.74.74,0,0,0,.37.025.326.326,0,0,1,.285.383c-.009.148-.012.3-.182.347-.714.2-.881.731-.881,1.381q0,7.813,0,15.628a1.287,1.287,0,0,0,.633,1.237,1.034,1.034,0,0,1,.017,1.694,1.244,1.244,0,0,0-.642,1.1.033.033,0,0,0,0,.054q0,8.015-.005,16.03a1.256,1.256,0,0,0,.637,1.2,1,1,0,0,1,.073,1.612,1.641,1.641,0,0,0-.714,1.582c.011,4.607.006,9.214.009,13.821,0,.669.012,1.338.018,2.006,0,.007-.016.016-.014.019a.243.243,0,0,0,.027.035,1.106,1.106,0,0,0,.767.84.355.355,0,0,1,.266.369c-.006.217-.061.366-.285.418l-.03-.007-.02.022-3.424.018c-.02-.032-.04-.027-.058,0h-.477c-.019-.03-.038-.032-.059,0-.324,0-.647-.009-.971-.009q-16.324,0-32.647,0c-1.049,0-2.1.02-3.146.028a.412.412,0,0,1-.473-.358.388.388,0,0,1,.378-.478c.829-.134,1.085-.553,1.087-1.4.007-2.567,0-5.135,0-7.7s-.007-5.134,0-7.7a1.274,1.274,0,0,0-.843-1.335.937.937,0,0,1-.624-.865.953.953,0,0,1,.611-.983,1.326,1.326,0,0,0,.861-1.425c-.017-2.1-.006-4.2-.006-6.294,0-3.047-.007-6.093,0-9.14a1.273,1.273,0,0,0-.847-1.364.8.8,0,0,1-.12-.059.979.979,0,0,1-.435-1.2c.162-.473.609-.585.972-.8.051-.03.126.007.159-.084a2.612,2.612,0,0,0,.271-.916q-.01-7.8-.005-15.6a1.208,1.208,0,0,0-1.03-1.324c-.225-.015-.458-.116-.434-.4a.4.4,0,0,1,.463-.4c.026.024.046.019.063-.01l.143,0a.229.229,0,0,0,.256,0h4.631c.02.03.04.029.059,0l.213,0c.043.044.082.031.118-.01a1.385,1.385,0,0,0,.405-.082,1.177,1.177,0,0,0,.619-.866M27.709,48.943l.063,0,.414.012.117,0a11.256,11.256,0,0,0,2.893-.275,13.341,13.341,0,0,0,5.253-2.262,2.152,2.152,0,0,1,1.352-.4c1.763-.015,3.526,0,5.289-.005a1,1,0,0,0,.612-1.87,1.145,1.145,0,0,0-.626-.14c-1.149,0-2.3,0-3.448,0-.106,0-.252.052-.309-.051-.073-.132.076-.214.148-.305A13.6,13.6,0,0,0,41.141,41a17.252,17.252,0,0,0,.979-2.56,1.071,1.071,0,0,0-.233-1.266,4.28,4.28,0,0,0-.385-.258c.015-.492.1-.977.089-1.474-.006-.353.13-.711.106-1.078.024-.068.087-.051.137-.069a.969.969,0,0,0,.681-.952,8.158,8.158,0,0,0-.427-2.553,14.229,14.229,0,0,0-2.635-5.063c-.07-.088-.243-.162-.161-.292.065-.1.228-.044.346-.044,1.172,0,2.343.006,3.515,0,.5,0,1-.342,1.026-.728.044-.624-.019-.957-.612-1.193a1.542,1.542,0,0,0-.577-.089c-1.652,0-3.3-.021-4.955.013a2.767,2.767,0,0,1-1.76-.53,12.837,12.837,0,0,0-4.747-2.047,17.339,17.339,0,0,0-2.819-.376,11.878,11.878,0,0,0-1.462.051,12.726,12.726,0,0,0-1.8.24,14.355,14.355,0,0,0-5.5,2.479.881.881,0,0,1-.559.175c-.993-.009-1.987,0-2.98,0-.949,0-1.9-.008-2.846,0a1,1,0,0,0-.978,1.348,1.044,1.044,0,0,0,1.03.659c1.16.007,2.321,0,3.482.008.127,0,.268-.046.35.027q-6.771,9.317.048,18.581h-.446c-1.172,0-2.344,0-3.516,0a1.059,1.059,0,0,0-1.019.814,1.072,1.072,0,0,0,.519,1.047,1.433,1.433,0,0,0,.713.147c1.852,0,3.7,0,5.557-.009a1.21,1.21,0,0,1,.744.237c.345.245.7.483,1.06.7a13.937,13.937,0,0,0,6.6,1.995" transform="translate(-5.519 -2.753)" fill="#e86672"/>
              <path id="Path_823511" data-name="Path 823511" d="M182.535,109.715a1.738,1.738,0,0,0-.811-.136c-.791.009-1.583,0-2.374.006a1.166,1.166,0,0,0-1.333-1.034q-5.506.006-11.012.018l-.128-.051a2.526,2.526,0,0,0-.927-2.347.648.648,0,0,1-.11-.2c0-.024,0-.049-.006-.073.006-.3.018-.6.018-.9q0-4.569,0-9.139c0-.271-.147-.628.04-.794s.555-.062.843-.063c1.094-.006,2.187,0,3.281-.013a1.057,1.057,0,0,0,.979-.82,1,1,0,0,0-.445-1.006,1.247,1.247,0,0,0-.735-.18h-3.683c-.182,0-.385.024-.328-.268.034-.015.057-.034.033-.074a12.074,12.074,0,0,0-.014-1.4l.026-.2c.2-.256.42-.5.6-.771a3.192,3.192,0,0,0,.366-2.315,2.475,2.475,0,0,0-.719-1.325.924.924,0,0,1-.271-.411.7.7,0,0,0,.011-.414c0-1.281.011-2.563.01-3.844,0-.768-.015-1.537-.023-2.3.006-.008.018-.019.016-.024a.322.322,0,0,0-.027-.05c.023-.231.2-.129.31-.129q4.986,0,9.972,0,3.681,0,7.362-.007a.992.992,0,0,0,1.009-1.425c-.2-.509-.662-.607-1.16-.607q-8.516.009-17.031.013a.05.05,0,0,0-.081,0c-.129-.015-.281.041-.366-.115,0-.046,0-.093,0-.139l.008-.131c0-.024,0-.049.005-.073,0-1.963.034-3.926-.019-5.888l.009-.07a.793.793,0,0,1,.216-.293,3.047,3.047,0,0,0-.019-4.224.636.636,0,0,1-.206-.51.179.179,0,0,0,.013-.2,10.433,10.433,0,0,0-.036-1.7c-.023-.13.033-.257.17-.209a1.938,1.938,0,0,0,.688.014c3.422,0,6.843.013,10.265.005,2.518-.006,5.037.046,7.556-.033a2,2,0,0,0,.733.01c.608.04,1.217,0,1.825-.009.038.048.075.046.111,0a1.892,1.892,0,0,1,.625.116c-.5.244-.833.535-.786,1.074-.007,0-.021.01-.021.014a.252.252,0,0,0,.013.045l0,.421-.014.024.015.024q0,5.33,0,10.66a9.593,9.593,0,0,0,.035,1.2.927.927,0,0,0,.418.672c.494.351.535.593.1.992a1.258,1.258,0,0,0-.532.948c-.008,0-.023.009-.022.013a.26.26,0,0,0,.013.046q0,.31-.006.621l-.015.024.015.024q0,3.192-.006,6.384c0,1.616-.006,3.231,0,4.847a1.376,1.376,0,0,0,.475,1.251c.515.378.516.635.015,1.05a1.136,1.136,0,0,0-.474.876.166.166,0,0,0-.007.188q0,1.689-.008,3.378c0,2.754,0,5.508-.006,8.262a1.367,1.367,0,0,0,.736,1.415c.041.019.063.062.023.138h-.574c-.037-.05-.076-.054-.118-.006-1.118-.048-2.236,0-3.354,0a.088.088,0,0,0-.131.009,1.056,1.056,0,0,0-1.018,1.144M178.895,95v0H180c1.193,0,2.385,0,3.578-.015a.939.939,0,0,0,.98-.853.986.986,0,0,0-.847-1.121,3.171,3.171,0,0,0-.465-.03q-4.365,0-8.729,0a2.2,2.2,0,0,0-.531.048.945.945,0,0,0-.756,1.078.967.967,0,0,0,.85.876,3.887,3.887,0,0,0,.5.021q2.157,0,4.314,0" transform="translate(-121.241 -46.693)" fill="#80cded"/>
              <path id="Path_823512" data-name="Path 823512" d="M44.587,24.385c.053,1.963.017,3.926.019,5.888-.042.021-.046.046-.005.073,0,.044-.005.088-.008.131a.083.083,0,0,0,0,.139c.085.156.236.1.366.115l.081,0q8.516-.006,17.031-.013c.5,0,.961.1,1.16.607a.992.992,0,0,1-1.009,1.425q-3.681.01-7.362.007-4.986,0-9.972,0c-.107,0-.287-.1-.31.129-.005.008-.017.019-.015.025a.306.306,0,0,0,.026.049c.008.768.023,1.537.023,2.305,0,1.281-.006,2.563-.01,3.844-.326.129-.008.275-.011.413a.923.923,0,0,0,.271.411,2.475,2.475,0,0,1,.719,1.325,3.191,3.191,0,0,1-.366,2.314c-.179.271-.4.515-.6.771-.087.056-.072.126-.026.2a12.067,12.067,0,0,1,.014,1.4l-.033.074c-.057.293.146.268.328.268h3.683a1.247,1.247,0,0,1,.735.18,1,1,0,0,1,.445,1.006,1.057,1.057,0,0,1-.979.82c-1.094.014-2.187.007-3.281.013-.288,0-.647-.111-.843.063s-.04.523-.04.794q-.01,4.569,0,9.139c0,.3-.012.6-.018.9-.038.028-.037.052.006.074a.648.648,0,0,0,.11.2,2.526,2.526,0,0,1,.927,2.347c.016.084.071.069.128.051q5.506-.01,11.012-.018a1.166,1.166,0,0,1,1.333,1.034A1.214,1.214,0,0,1,56.9,63.946c-.243.019-.5-.062-.75-.061q-26.614.005-53.227,0a3.477,3.477,0,0,1-1.393-.183,2.49,2.49,0,0,1-1.512-2.13,2.1,2.1,0,0,1,.834-1.913c.178-.131.347-.3.52-.45.11,0,.133-.088.157-.16.013-.039-.04-.061-.086-.046,0-.045-.005-.091-.008-.136a.247.247,0,0,0-.013-.334c0-.044,0-.089,0-.133a.543.543,0,0,0,0-.537V53.716c.072-.045.071-.091,0-.135.005-.055.015-.11.015-.166q0-4.317-.005-8.635a.468.468,0,0,0-.195-.417,2.946,2.946,0,0,1-.2-4.64,1.173,1.173,0,0,0,.407-.995q-.008-6.827,0-13.655a1.1,1.1,0,0,0-.385-.944,2.739,2.739,0,0,1-1.029-2.4,3,3,0,0,1,1.184-2.219.473.473,0,0,0,.225-.415c0-.323,0-.647,0-.97q0-6.376,0-12.752a1.05,1.05,0,0,1,0-.167.767.767,0,0,0-.377-.819A2.339,2.339,0,0,1,.913.577,2.273,2.273,0,0,1,2.452.021C4.225,0,6-.015,7.773.02A1.119,1.119,0,0,1,9.006,1.074a1.177,1.177,0,0,1-.618.866,1.38,1.38,0,0,1-.405.082l-.118.01-.212,0a.042.042,0,0,0-.059,0H2.963a.351.351,0,0,0-.256,0l-.143,0-.063.01a.4.4,0,0,0-.463.4c-.024.289.21.39.434.4A1.208,1.208,0,0,1,3.5,4.177q0,7.8.005,15.6a2.619,2.619,0,0,1-.271.916c-.033.091-.109.054-.159.084-.363.22-.811.332-.973.8a.98.98,0,0,0,.435,1.2.827.827,0,0,0,.12.059A1.273,1.273,0,0,1,3.507,24.2c-.01,3.047,0,6.093,0,9.14,0,2.1-.011,4.2.006,6.294a1.325,1.325,0,0,1-.861,1.425.953.953,0,0,0-.611.983.938.938,0,0,0,.624.865,1.274,1.274,0,0,1,.843,1.335c-.009,2.567,0,5.134,0,7.7s0,5.135,0,7.7c0,.851-.258,1.27-1.087,1.4a.388.388,0,0,0-.378.478.412.412,0,0,0,.473.358c1.049-.008,2.1-.028,3.146-.028q16.323,0,32.647,0c.324,0,.647.006.971.009l.029.013.03-.011h.477l.029.01.028-.012,3.424-.018c.026.025.041.015.05-.016.224-.052.279-.2.285-.418a.355.355,0,0,0-.266-.369,1.1,1.1,0,0,1-.767-.84c0-.006.014-.016.012-.019a.248.248,0,0,0-.025-.035c-.006-.669-.018-1.338-.018-2.007,0-4.607,0-9.214-.009-13.821a1.641,1.641,0,0,1,.714-1.582,1,1,0,0,0-.073-1.612,1.256,1.256,0,0,1-.637-1.2q.007-8.015.005-16.03c.007,0,.019-.01.019-.014a.262.262,0,0,0-.015-.04,1.244,1.244,0,0,1,.642-1.1,1.034,1.034,0,0,0-.017-1.694,1.287,1.287,0,0,1-.633-1.237q.006-7.814,0-15.628c0-.65.167-1.185.881-1.381.17-.046.173-.2.182-.347a.327.327,0,0,0-.285-.383.367.367,0,0,0-.37-.025l-3.306,0a3.511,3.511,0,0,0-.987-.013l-25.139,0a1.165,1.165,0,0,1-1.267-.966C12.6.167,12.828.007,13.8.007q14.632,0,29.264,0a2.694,2.694,0,0,1,2.407,1.427,2.6,2.6,0,0,1-.462,2.656c-.155.162-.4.258-.431.524a.168.168,0,0,0,0,.166l-.019.184c-.023.017-.059.03-.065.052-.013.048.015.078.066.081a1.583,1.583,0,0,1,.015.535c-.14.145-.159.285.02.415q0,4.24.005,8.481c-.062,0-.1.027-.1.093a.079.079,0,0,0,.093.064l0,.432-.011.043.039-.011c.512,0,1.025.006,1.537.006l20.289-.006a2.1,2.1,0,0,1,1.969,1.393,2.014,2.014,0,0,1-.47,2.15.5.5,0,0,0-.157.409q.006,5.189,0,10.378a1.547,1.547,0,0,0,.324,1.063,2.467,2.467,0,0,1-.185,3.052.552.552,0,0,0-.145.426q.007,5.49,0,10.98a.778.778,0,0,0,.24.556,2.558,2.558,0,0,1-.047,3.157.738.738,0,0,0-.188.535q0,5.356-.011,10.712a.492.492,0,0,0,.162.377,2.033,2.033,0,0,1,.448,2.258,2.08,2.08,0,0,1-1.961,1.293c-1.395.013-2.79,0-4.184,0a1.147,1.147,0,0,1-.957-.868,1.056,1.056,0,0,1,1.018-1.144l.131-.009c1.118,0,2.236-.05,3.353,0l.118.006h.574c.04-.076.018-.119-.023-.138a1.367,1.367,0,0,1-.736-1.415c.007-2.754,0-5.508.006-8.262q0-1.689.008-3.378a.131.131,0,0,0,.007-.188,1.136,1.136,0,0,1,.474-.876c.5-.415.5-.671-.015-1.05a1.375,1.375,0,0,1-.475-1.25c-.006-1.616,0-3.231,0-4.847q0-3.192.006-6.384l.024-.01-.024-.038q0-.31.006-.621c.008,0,.023-.009.023-.012a.293.293,0,0,0-.013-.047,1.258,1.258,0,0,1,.532-.948c.438-.4.4-.641-.1-.992a.926.926,0,0,1-.418-.672,9.592,9.592,0,0,1-.035-1.2q0-5.331,0-10.66l.024-.01-.025-.038q0-.21,0-.421c.008,0,.024-.01.023-.013a.324.324,0,0,0-.016-.046c-.047-.539.283-.83.786-1.074a1.878,1.878,0,0,0-.625-.116l-.111,0c-.608.008-1.217.049-1.825.009a2.009,2.009,0,0,0-.733-.01c-2.518.079-5.037.027-7.556.033-3.422.008-6.843,0-10.265-.005a1.938,1.938,0,0,1-.688-.014c-.137-.048-.193.079-.17.208a10.434,10.434,0,0,1,.036,1.7c-.151.059-.146.127-.013.2a.636.636,0,0,0,.206.51,3.047,3.047,0,0,1,.019,4.224.792.792,0,0,0-.216.293c-.046.018-.046.042-.009.071" transform="translate(0 0)" fill="#060607"/>
              <path id="Path_823513" data-name="Path 823513" d="M5.071,215.322a.543.543,0,0,1,0,.537.491.491,0,0,1,0-.537" transform="translate(-3.65 -157.454)" fill="#49424e"/>
              <path id="Path_823514" data-name="Path 823514" d="M165.577,21.371c-.179-.13-.16-.27-.02-.415a.577.577,0,0,1,.02.415" transform="translate(-120.983 -15.324)" fill="#49424e"/>
              <path id="Path_823515" data-name="Path 823515" d="M5.074,217.815a.247.247,0,0,1,.013.334.2.2,0,0,1-.013-.334" transform="translate(-3.65 -159.277)" fill="#49424e"/>
              <path id="Path_823516" data-name="Path 823516" d="M5.143,219.547c.046-.015.1.007.086.046-.024.072-.048.164-.157.16,0-.078-.055-.173.071-.206" transform="translate(-3.699 -160.54)" fill="#49424e"/>
              <path id="Path_823517" data-name="Path 823517" d="M5.092,199.374c.071.045.073.09,0,.135-.1-.045-.1-.09,0-.135" transform="translate(-3.671 -145.792)" fill="#49424e"/>
              <path id="Path_823518" data-name="Path 823518" d="M165.683,54.215a.08.08,0,0,1-.093-.064c-.009-.066.034-.092.1-.093a.155.155,0,0,1,0,.157" transform="translate(-121.087 -39.53)" fill="#49424e"/>
              <path id="Path_823519" data-name="Path 823519" d="M165.61,18.6c-.051,0-.079-.034-.066-.081.006-.021.043-.035.065-.052q.1.066,0,.133" transform="translate(-121.052 -13.505)" fill="#49424e"/>
              <path id="Path_823520" data-name="Path 823520" d="M165.8,17.33a.17.17,0,0,1,0-.166c.114.054.134.109,0,.166" transform="translate(-121.228 -12.551)" fill="#49424e"/>
              <path id="Path_823521" data-name="Path 823521" d="M165.954,56.281l-.04.011.011-.043.025.007Z" transform="translate(-121.325 -41.132)" fill="#49424e"/>
              <path id="Path_823522" data-name="Path 823522" d="M65.09,85.248c.024.367-.112.725-.106,1.078.008.5-.074.982-.089,1.474-.794-.018-1.088.2-1.327,1.018A12.172,12.172,0,0,1,52.23,97.771a10.968,10.968,0,0,1-2.749-.148,12.958,12.958,0,0,1-4.248-1.7A12.243,12.243,0,0,1,40.6,90.607,11.531,11.531,0,0,1,39.54,85.92a12.339,12.339,0,0,1,.739-4.589A12,12,0,0,1,42.6,77.494a12.136,12.136,0,0,1,6.455-3.84,17.536,17.536,0,0,1,2.19-.294c.023.028.044.026.063-.005l.2-.006c.02.031.04.027.058,0h.212a2.276,2.276,0,0,0,.656.037c.366.01.722.089,1.081.135a11.438,11.438,0,0,1,2.764.7,12.11,12.11,0,0,1,5.483,4.329A11.654,11.654,0,0,1,63.9,84.129a1.1,1.1,0,0,0,1.194,1.119m-21.609-.625c-.044,0-.088.011-.133.013a1.343,1.343,0,0,0-1.365,1.11A2.93,2.93,0,0,0,42.064,87,9.182,9.182,0,0,0,43.136,90.3a9.288,9.288,0,0,0,3.579,3.742,1.1,1.1,0,0,0,.859.069c.576-.141.833-.6,1.094-1.052q1.1-1.911,2.189-3.826a.241.241,0,0,1,.315-.135,2.776,2.776,0,0,0,1.123.006c.262-.058.351.026.463.223.782,1.373,1.56,2.748,2.366,4.108a1.287,1.287,0,0,0,1.965.458,8.486,8.486,0,0,0,1.469-1.156,9.652,9.652,0,0,0,2.679-4.569,12.174,12.174,0,0,0,.307-1.638c.116-1.07-.142-1.744-1.283-1.9l-.016-.024-.018.022c-1.629.006-3.258.01-4.887.02a.312.312,0,0,1-.354-.256,1.9,1.9,0,0,0-.426-.815c-.237-.247-.182-.443-.027-.706.789-1.344,1.573-2.692,2.329-4.055a1.334,1.334,0,0,0-.5-1.833,7.738,7.738,0,0,0-2.12-.827,9.86,9.86,0,0,0-3.217-.3,10.087,10.087,0,0,0-3.905,1.16,1.23,1.23,0,0,0-.508.56,1.309,1.309,0,0,0,.114,1.322q1.167,2.025,2.342,4.047a.453.453,0,0,1-.045.6,2.62,2.62,0,0,0-.477.838.345.345,0,0,1-.368.256q-2.326-.013-4.653-.021c-.014-.031-.027-.029-.04,0" transform="translate(-28.912 -53.634)" fill="#ffd767"/>
              <path id="Path_823523" data-name="Path 823523" d="M55.182,79.732a1.1,1.1,0,0,1-1.194-1.119,11.659,11.659,0,0,0-2.133-5.587A12.112,12.112,0,0,0,46.372,68.7a11.422,11.422,0,0,0-2.764-.7c-.359-.045-.716-.125-1.081-.135a1.193,1.193,0,0,0-.656-.037h-.212a.038.038,0,0,0-.058,0l-.2.006c-.023-.026-.044-.024-.063.005a17.528,17.528,0,0,0-2.19.294,12.136,12.136,0,0,0-6.456,3.84,12.011,12.011,0,0,0-2.316,3.837,12.334,12.334,0,0,0-.739,4.589,11.526,11.526,0,0,0,1.061,4.687,12.243,12.243,0,0,0,4.631,5.316,12.964,12.964,0,0,0,4.248,1.7,10.971,10.971,0,0,0,2.75.148A12.173,12.173,0,0,0,53.66,83.3c.239-.813.533-1.035,1.327-1.018a4.377,4.377,0,0,1,.385.257,1.071,1.071,0,0,1,.233,1.266,17.306,17.306,0,0,1-.979,2.56,13.6,13.6,0,0,1-1.674,2.651c-.072.091-.221.173-.148.305.057.1.2.051.309.051,1.149,0,2.3,0,3.448,0a1.142,1.142,0,0,1,.626.14,1,1,0,0,1-.612,1.869c-1.763,0-3.526-.009-5.289.005a2.156,2.156,0,0,0-1.352.4,13.339,13.339,0,0,1-5.252,2.263,11.267,11.267,0,0,1-2.893.275.074.074,0,0,0-.117,0l-.414-.012c-.02-.028-.041-.032-.063,0a13.938,13.938,0,0,1-6.6-1.994c-.364-.216-.716-.453-1.061-.7a1.209,1.209,0,0,0-.744-.238c-1.852.01-3.705.006-5.558.009a1.428,1.428,0,0,1-.712-.147,1.071,1.071,0,0,1-.519-1.047,1.059,1.059,0,0,1,1.019-.814c1.172-.006,2.343,0,3.515,0h.446q-6.833-9.29-.048-18.581c-.083-.073-.224-.026-.35-.027-1.161-.006-2.321,0-3.482-.008a1.044,1.044,0,0,1-1.029-.659,1,1,0,0,1,.978-1.348c.949-.01,1.9,0,2.846,0,.993,0,1.987,0,2.98,0a.881.881,0,0,0,.558-.175,14.352,14.352,0,0,1,5.5-2.479,12.728,12.728,0,0,1,1.8-.24A11.835,11.835,0,0,1,42.2,65.81a17.347,17.347,0,0,1,2.819.376,12.848,12.848,0,0,1,4.747,2.047,2.767,2.767,0,0,0,1.76.53c1.651-.033,3.3-.01,4.955-.013a1.548,1.548,0,0,1,.577.089c.593.237.656.57.612,1.193-.027.386-.53.726-1.026.728-1.172.005-2.343,0-3.515,0-.119,0-.282-.06-.347.044-.081.131.092.2.161.292a14.217,14.217,0,0,1,2.635,5.063A8.152,8.152,0,0,1,56,78.711a.969.969,0,0,1-.681.952c-.049.017-.113,0-.137.069" transform="translate(-19.005 -48.118)" fill="#060607"/>
              <path id="Path_823524" data-name="Path 823524" d="M143.9,7.5a3.511,3.511,0,0,1,.987.013A3.208,3.208,0,0,1,143.9,7.5" transform="translate(-105.224 -5.464)" fill="#49424e"/>
              <path id="Path_823525" data-name="Path 823525" d="M159.87,7.532a.367.367,0,0,1,.371.025.741.741,0,0,1-.371-.025" transform="translate(-116.905 -5.48)" fill="#49424e"/>
              <path id="Path_823526" data-name="Path 823526" d="M10.07,7.514a.35.35,0,0,1,.256,0,.23.23,0,0,1-.256,0" transform="translate(-7.364 -5.477)" fill="#49424e"/>
              <path id="Path_823527" data-name="Path 823527" d="M84.343,171.854a.074.074,0,0,1,.117,0h-.117" transform="translate(-61.676 -125.648)" fill="#49424e"/>
              <path id="Path_823528" data-name="Path 823528" d="M29.264,7.537l.118-.01c-.036.041-.074.054-.118.01" transform="translate(-21.399 -5.504)" fill="#49424e"/>
              <path id="Path_823529" data-name="Path 823529" d="M158.338,88.74a.252.252,0,0,1,.015.04s-.012.009-.019.014a.033.033,0,0,1,0-.054" transform="translate(-115.773 -64.891)" fill="#49424e"/>
              <path id="Path_823530" data-name="Path 823530" d="M82.567,171.819c.023-.028.044-.024.063,0l-.063,0" transform="translate(-60.377 -125.628)" fill="#49424e"/>
              <path id="Path_823531" data-name="Path 823531" d="M28.255,7.547a.042.042,0,0,1,.059,0c-.019.03-.038.031-.059,0" transform="translate(-20.661 -5.51)" fill="#49424e"/>
              <path id="Path_823532" data-name="Path 823532" d="M9.305,7.6l.063-.01c-.017.029-.038.034-.063.01" transform="translate(-6.804 -5.547)" fill="#49424e"/>
              <path id="Path_823533" data-name="Path 823533" d="M158.393,223.822a.214.214,0,0,1,.025.035s-.008.013-.012.019a.31.31,0,0,1-.027-.036s.009-.013.014-.019" transform="translate(-115.814 -163.67)" fill="#49424e"/>
              <path id="Path_823534" data-name="Path 823534" d="M146.187,230.14l-.03.011-.029-.013c.021-.03.041-.028.059,0" transform="translate(-106.856 -168.273)" fill="#49424e"/>
              <path id="Path_823535" data-name="Path 823535" d="M148.181,230.142l-.028.012-.029-.01c.018-.029.037-.034.058,0" transform="translate(-108.315 -168.276)" fill="#49424e"/>
              <path id="Path_823536" data-name="Path 823536" d="M161.128,230.059c-.009.031-.024.041-.05.015l.02-.022Z" transform="translate(-117.788 -168.226)" fill="#49424e"/>
              <path id="Path_823537" data-name="Path 823537" d="M199.107,174.246q-2.157,0-4.314,0a3.889,3.889,0,0,1-.5-.021.967.967,0,0,1-.85-.876.945.945,0,0,1,.756-1.078,2.195,2.195,0,0,1,.531-.048q4.364,0,8.729,0a3.172,3.172,0,0,1,.465.03.986.986,0,0,1,.847,1.121.939.939,0,0,1-.98.853c-1.193.018-2.385.012-3.578.015h-1.1Z" transform="translate(-141.454 -125.938)" fill="#060607"/>
              <path id="Path_823538" data-name="Path 823538" d="M235.326,63.794a2.008,2.008,0,0,1,.733.01,1.991,1.991,0,0,1-.733-.01" transform="translate(-172.082 -46.628)" fill="#49424e"/>
              <path id="Path_823539" data-name="Path 823539" d="M165.543,145.932c0-.138-.315-.284.011-.414a.7.7,0,0,1-.011.414" transform="translate(-120.954 -106.41)" fill="#49424e"/>
              <path id="Path_823540" data-name="Path 823540" d="M165.637,71.217c-.132-.077-.137-.146.013-.2a.179.179,0,0,1-.013.2" transform="translate(-121.05 -51.928)" fill="#49424e"/>
              <path id="Path_823541" data-name="Path 823541" d="M165.805,165.195c-.046-.074-.061-.144.026-.2l-.026.2" transform="translate(-121.218 -120.653)" fill="#49424e"/>
              <path id="Path_823542" data-name="Path 823542" d="M244.565,180.439a.13.13,0,0,1-.007.188.167.167,0,0,1,.007-.188" transform="translate(-178.815 -131.946)" fill="#49424e"/>
              <path id="Path_823543" data-name="Path 823543" d="M244.943,230.119l-.118-.006c.042-.048.081-.044.118.006" transform="translate(-179.028 -168.245)" fill="#49424e"/>
              <path id="Path_823544" data-name="Path 823544" d="M231.989,230.142l-.131.009a.088.088,0,0,1,.131-.009" transform="translate(-169.546 -168.273)" fill="#49424e"/>
              <path id="Path_823545" data-name="Path 823545" d="M169.936,230.1c-.056.018-.112.034-.128-.051l.128.051" transform="translate(-124.172 -168.223)" fill="#49424e"/>
              <path id="Path_823546" data-name="Path 823546" d="M165.814,113.546a.083.083,0,0,1,0-.139c0,.046,0,.093,0,.139" transform="translate(-121.225 -82.929)" fill="#49424e"/>
              <path id="Path_823547" data-name="Path 823547" d="M244.845,63.87l.111,0c-.036.048-.073.05-.111,0" transform="translate(-179.043 -46.704)" fill="#49424e"/>
              <path id="Path_823548" data-name="Path 823548" d="M165.832,90.545c-.036-.029-.036-.053.009-.071l-.009.071" transform="translate(-121.246 -66.159)" fill="#49424e"/>
              <path id="Path_823549" data-name="Path 823549" d="M165.836,171.027l.033-.074c.024.04,0,.06-.033.074" transform="translate(-121.268 -125.009)" fill="#49424e"/>
              <path id="Path_823550" data-name="Path 823550" d="M244.578,70.083l.025.038-.024.01-.015-.024Z" transform="translate(-178.838 -51.248)" fill="#49424e"/>
              <path id="Path_823551" data-name="Path 823551" d="M244.581,126.647l.024.039-.024.01-.015-.025Z" transform="translate(-178.839 -92.611)" fill="#49424e"/>
              <path id="Path_823552" data-name="Path 823552" d="M244.6,68.3a.294.294,0,0,1,.015.046s-.015.009-.023.013a.259.259,0,0,1-.013-.046s.013-.009.021-.014" transform="translate(-178.852 -49.942)" fill="#49424e"/>
              <path id="Path_823553" data-name="Path 823553" d="M244.618,124.117a.3.3,0,0,1,.013.047s-.015.008-.023.012a.337.337,0,0,1-.013-.046s.015-.009.022-.013" transform="translate(-178.861 -90.761)" fill="#49424e"/>
              <path id="Path_823554" data-name="Path 823554" d="M165.878,112.721c-.041-.027-.037-.052.005-.073,0,.024,0,.049-.005.073" transform="translate(-121.277 -82.374)" fill="#49424e"/>
              <path id="Path_823555" data-name="Path 823555" d="M165.86,220.369c-.043-.021-.045-.046-.006-.073l.006.073" transform="translate(-121.26 -161.092)" fill="#49424e"/>
              <path id="Path_823556" data-name="Path 823556" d="M165.833,122.435a.309.309,0,0,1-.026-.049c0-.006.009-.017.015-.025a.324.324,0,0,1,.027.05c0,.005-.01.016-.016.024" transform="translate(-121.247 -89.477)" fill="#49424e"/>
              <path id="Path_823557" data-name="Path 823557" d="M167.355,114.293l-.081,0a.05.05,0,0,1,.081,0" transform="translate(-122.319 -83.562)" fill="#49424e"/>
              <path id="Path_823558" data-name="Path 823558" d="M66.774,91.379c1.141.156,1.4.829,1.283,1.9a12.123,12.123,0,0,1-.307,1.638,9.652,9.652,0,0,1-2.679,4.569,8.488,8.488,0,0,1-1.469,1.156,1.287,1.287,0,0,1-1.965-.458c-.805-1.359-1.584-2.734-2.366-4.107-.112-.2-.2-.281-.463-.224a2.778,2.778,0,0,1-1.123-.006.241.241,0,0,0-.315.135q-1.091,1.914-2.189,3.825c-.262.455-.518.912-1.094,1.052a1.1,1.1,0,0,1-.859-.069,9.289,9.289,0,0,1-3.579-3.742,9.184,9.184,0,0,1-1.072-3.291A2.927,2.927,0,0,1,48.5,92.5a1.343,1.343,0,0,1,1.365-1.11c.045,0,.089-.009.133-.013l.02.012.02-.013q2.326.01,4.652.021a.345.345,0,0,0,.368-.256,2.622,2.622,0,0,1,.477-.838.453.453,0,0,0,.045-.6q-1.18-2.019-2.342-4.047a1.309,1.309,0,0,1-.113-1.322,1.229,1.229,0,0,1,.508-.56,10.087,10.087,0,0,1,3.905-1.16,9.866,9.866,0,0,1,3.217.3,7.723,7.723,0,0,1,2.12.827,1.334,1.334,0,0,1,.5,1.833c-.755,1.363-1.54,2.71-2.329,4.055-.155.263-.21.459.027.706a1.9,1.9,0,0,1,.426.815.311.311,0,0,0,.354.256c1.629-.01,3.258-.014,4.887-.02l.016.012ZM52.821,93.407v0h-1.94c-.188,0-.317.008-.262.28a8.447,8.447,0,0,0,2.646,4.651c.223.2.329.181.465-.083a31.706,31.706,0,0,1,1.86-3.205.368.368,0,0,0-.006-.485,2.992,2.992,0,0,1-.543-.953c-.051-.179-.146-.213-.313-.211-.635.008-1.271,0-1.906,0m10.991,0v0c-.636,0-1.272.006-1.908,0-.193,0-.319.045-.383.238a2.85,2.85,0,0,1-.532.92.306.306,0,0,0-.045.4c.7,1.076,1.315,2.2,1.912,3.334.135.258.25.243.448.059A8.427,8.427,0,0,0,65.93,93.72c.05-.252,0-.317-.244-.314-.625.009-1.25,0-1.875,0M58.283,84.63a8.072,8.072,0,0,0-2.646.474c-.21.069-.3.137-.156.37.646,1.079,1.3,2.154,1.852,3.286a.338.338,0,0,0,.432.209,2.708,2.708,0,0,1,1.062-.018.331.331,0,0,0,.412-.224c.195-.4.408-.791.629-1.177.4-.7.807-1.385,1.214-2.075.088-.149.153-.276-.089-.349a8.771,8.771,0,0,0-2.711-.5M56.874,92.52a1.381,1.381,0,0,0,1.4,1.354,1.481,1.481,0,0,0,1.419-1.549,1.4,1.4,0,0,0-1.384-1.344,1.5,1.5,0,0,0-1.434,1.539" transform="translate(-35.426 -60.385)" fill="#060607"/>
              <path id="Path_823559" data-name="Path 823559" d="M85.083,73.27a1.19,1.19,0,0,1,.656.037,2.287,2.287,0,0,1-.656-.037" transform="translate(-62.217 -53.558)" fill="#49424e"/>
              <path id="Path_823560" data-name="Path 823560" d="M54.248,115.249l-.02.013-.02-.012c.013-.03.026-.031.04,0" transform="translate(-39.64 -84.259)" fill="#e86672"/>
              <path id="Path_823561" data-name="Path 823561" d="M84.078,73.316a.039.039,0,0,1,.058,0c-.018.029-.038.033-.058,0" transform="translate(-61.482 -53.602)" fill="#49424e"/>
              <path id="Path_823562" data-name="Path 823562" d="M83.084,73.334c.019-.03.04-.032.063-.005-.019.031-.04.033-.063.005" transform="translate(-60.755 -53.608)" fill="#49424e"/>
              <path id="Path_823563" data-name="Path 823563" d="M116.552,115.262l-.018.01-.016-.012.018-.022Z" transform="translate(-85.204 -84.268)" fill="#e86672"/>
              <path id="Path_823564" data-name="Path 823564" d="M58.7,122.866c.636,0,1.271,0,1.907,0,.166,0,.261.032.313.21a2.991,2.991,0,0,0,.543.953.368.368,0,0,1,.007.485,31.689,31.689,0,0,0-1.86,3.206c-.136.263-.243.287-.465.083a8.444,8.444,0,0,1-2.646-4.651c-.055-.271.074-.28.262-.28H58.7Z" transform="translate(-41.305 -89.843)" fill="#49424e"/>
              <path id="Path_823565" data-name="Path 823565" d="M97.669,122.866c.625,0,1.25.006,1.875,0,.243,0,.294.062.244.314a8.426,8.426,0,0,1-2.627,4.631c-.2.184-.312.2-.448-.059-.6-1.134-1.214-2.258-1.912-3.335a.306.306,0,0,1,.045-.4,2.855,2.855,0,0,0,.532-.92c.063-.193.19-.241.383-.238.636.01,1.272,0,1.908,0Z" transform="translate(-69.283 -89.841)" fill="#49424e"/>
              <path id="Path_823566" data-name="Path 823566" d="M77.241,90.215a8.763,8.763,0,0,1,2.711.5c.242.072.177.2.089.349-.407.691-.815,1.38-1.214,2.075-.221.386-.435.777-.629,1.177a.331.331,0,0,1-.412.224,2.7,2.7,0,0,0-1.062.018.338.338,0,0,1-.432-.209c-.553-1.132-1.206-2.207-1.852-3.286-.139-.233-.054-.3.156-.369a8.071,8.071,0,0,1,2.646-.474" transform="translate(-54.384 -65.968)" fill="#49424e"/>
              <path id="Path_823567" data-name="Path 823567" d="M79.787,115.387a1.5,1.5,0,0,1,1.434-1.539,1.4,1.4,0,0,1,1.384,1.344,1.481,1.481,0,0,1-1.419,1.549,1.381,1.381,0,0,1-1.4-1.354" transform="translate(-58.339 -83.251)" fill="#49424e"/>
            </g>
          </g>
        </g>
      </g>
    </g>
  </g>
</svg>
