<svg xmlns="http://www.w3.org/2000/svg" xmlns:xlink="http://www.w3.org/1999/xlink" width="820" height="247.646" viewBox="0 0 820 247.646">
  <defs>
    <linearGradient id="linear-gradient" x1="0.5" x2="0.5" y2="1" gradientUnits="objectBoundingBox">
      <stop offset="0" stop-color="#defff8"/>
      <stop offset="0.803" stop-color="#eaf5ff"/>
      <stop offset="1" stop-color="#f0feff"/>
    </linearGradient>
    <clipPath id="clip-path">
      <rect id="Rectangle_378215" data-name="Rectangle 378215" width="170" height="169.906" fill="none"/>
    </clipPath>
  </defs>
  <g id="Group_1074216" data-name="Group 1074216" transform="translate(-390 -1817.688)">
    <g id="Group_1073942" data-name="Group 1073942" transform="translate(0 550)">
      <g id="Group_1073936" data-name="Group 1073936">
        <g id="Group_1072963" data-name="Group 1072963" transform="translate(1515 2480) rotate(180)">
          <rect id="Rectangle_376022" data-name="Rectangle 376022" width="820" height="247.646" transform="translate(305 964.667)" fill="url(#linear-gradient)"/>
        </g>
        <g id="Group_1073935" data-name="Group 1073935" transform="translate(125 -53)">
          <path id="Path_824437" data-name="Path 824437" d="M20,0H170a20,20,0,0,1,20,20V61a20,20,0,0,1-20,20H20A20,20,0,0,1,0,61V20A20,20,0,0,1,20,0Z" transform="translate(475 1362)" fill="#ffae7e"/>
          <path id="Path_824438" data-name="Path 824438" d="M20,0H170a20,20,0,0,1,20,20V61a20,20,0,0,1-20,20H20A20,20,0,0,1,0,61V20A20,20,0,0,1,20,0Z" transform="translate(600 1460)" fill="#f1d8ff"/>
          <path id="Path_824439" data-name="Path 824439" d="M20,0H170a20,20,0,0,1,20,20V61a20,20,0,0,1-20,20H20A20,20,0,0,1,0,61V20A20,20,0,0,1,20,0Z" transform="translate(810 1460)" fill="#ffae7e"/>
          <path id="Path_824440" data-name="Path 824440" d="M20,0H170a20,20,0,0,1,20,20V61a20,20,0,0,1-20,20H20A20,20,0,0,1,0,61V20A20,20,0,0,1,20,0Z" transform="translate(677 1362)" fill="#e6e7ee"/>
          <path id="Path_824441" data-name="Path 824441" d="M20,0H170a20,20,0,0,1,20,20V61a20,20,0,0,1-20,20H20A20,20,0,0,1,0,61V20A20,20,0,0,1,20,0Z" transform="translate(879 1362)" fill="#c1e29a"/>
          <path id="Path_824442" data-name="Path 824442" d="M3.359-4.008V0H1.016V-11.375H5.453a5.134,5.134,0,0,1,2.254.469A3.454,3.454,0,0,1,9.2-9.574a3.714,3.714,0,0,1,.523,1.965A3.266,3.266,0,0,1,8.582-4.973a4.767,4.767,0,0,1-3.168.965Zm0-1.9H5.453a2.059,2.059,0,0,0,1.418-.437,1.591,1.591,0,0,0,.488-1.25,1.876,1.876,0,0,0-.492-1.352,1.839,1.839,0,0,0-1.359-.531H3.359ZM16.25-.859A2.831,2.831,0,0,1,13.938.156a2.67,2.67,0,0,1-2.074-.781,3.335,3.335,0,0,1-.73-2.289V-8.453h2.258v5.467q0,1.322,1.2,1.322a1.63,1.63,0,0,0,1.578-.8V-8.453h2.266V0H16.313Zm5.969-7.594.07.977a2.951,2.951,0,0,1,2.43-1.133,2.453,2.453,0,0,1,2,.789,3.682,3.682,0,0,1,.672,2.359V0H25.133V-5.406a1.465,1.465,0,0,0-.312-1.043,1.4,1.4,0,0,0-1.039-.324,1.553,1.553,0,0,0-1.43.813V0H20.094V-8.453ZM31.8-10.531v2.078H33.25V-6.8H31.8v4.219a1.007,1.007,0,0,0,.18.672.9.9,0,0,0,.688.2,3.6,3.6,0,0,0,.664-.055V-.047a4.648,4.648,0,0,1-1.367.2,2.156,2.156,0,0,1-2.422-2.4V-6.8H28.313V-8.453h1.234v-2.078ZM33.922-4.3a5.013,5.013,0,0,1,.484-2.242A3.546,3.546,0,0,1,35.8-8.07a4.069,4.069,0,0,1,2.113-.539,3.849,3.849,0,0,1,2.793,1.047,4.2,4.2,0,0,1,1.207,2.844l.016.578A4.418,4.418,0,0,1,40.844-1.02,3.775,3.775,0,0,1,37.93.156a3.793,3.793,0,0,1-2.918-1.172A4.5,4.5,0,0,1,33.922-4.2Zm2.258.16A3.16,3.16,0,0,0,36.633-2.3a1.5,1.5,0,0,0,1.3.638,1.5,1.5,0,0,0,1.281-.63,3.457,3.457,0,0,0,.461-2.015,3.128,3.128,0,0,0-.461-1.831,1.5,1.5,0,0,0-1.3-.649,1.474,1.474,0,0,0-1.281.646A3.516,3.516,0,0,0,36.18-4.144Zm10.773-.145a5.094,5.094,0,0,1,.887-3.148,2.877,2.877,0,0,1,2.426-1.172,2.589,2.589,0,0,1,2.039.922V-12H54.57V0H52.531l-.109-.9A2.657,2.657,0,0,1,50.25.156,2.869,2.869,0,0,1,47.855-1.02,5.258,5.258,0,0,1,46.953-4.289Zm2.258.168A3.337,3.337,0,0,0,49.625-2.3a1.349,1.349,0,0,0,1.2.634A1.511,1.511,0,0,0,52.3-2.548V-5.889a1.489,1.489,0,0,0-1.461-.884Q49.211-6.773,49.211-4.121Zm11,4.277A4.15,4.15,0,0,1,57.184-.984a4.054,4.054,0,0,1-1.168-3.039v-.219a5.106,5.106,0,0,1,.492-2.277A3.612,3.612,0,0,1,57.9-8.066a3.914,3.914,0,0,1,2.059-.543,3.508,3.508,0,0,1,2.73,1.094,4.444,4.444,0,0,1,1,3.1v.922H58.3a2.1,2.1,0,0,0,.66,1.328,2,2,0,0,0,1.395.5A2.437,2.437,0,0,0,62.4-2.609l1.109,1.242A3.389,3.389,0,0,1,62.133-.246,4.511,4.511,0,0,1,60.211.156Zm-.258-6.945a1.411,1.411,0,0,0-1.09.455,2.357,2.357,0,0,0-.535,1.3h3.141v-.181a1.681,1.681,0,0,0-.406-1.165A1.456,1.456,0,0,0,59.953-6.789ZM69.57,0V-6.8H68.313V-8.453H69.57v-.719a2.918,2.918,0,0,1,.816-2.207,3.162,3.162,0,0,1,2.285-.785,5.278,5.278,0,0,1,1.148.156l-.023,1.75a2.878,2.878,0,0,0-.687-.07q-1.273,0-1.273,1.2v.68h1.68V-6.8h-1.68V0ZM79.75-.859A2.831,2.831,0,0,1,77.438.156a2.67,2.67,0,0,1-2.074-.781,3.335,3.335,0,0,1-.73-2.289V-8.453h2.258v5.467q0,1.322,1.2,1.322a1.63,1.63,0,0,0,1.578-.8V-8.453h2.266V0H79.813Zm8.469-1.477a.727.727,0,0,0-.41-.652,4.659,4.659,0,0,0-1.316-.426q-3.016-.633-3.016-2.562a2.323,2.323,0,0,1,.934-1.879,3.766,3.766,0,0,1,2.441-.754,4.053,4.053,0,0,1,2.574.758,2.388,2.388,0,0,1,.965,1.969H88.133a1.092,1.092,0,0,0-.312-.8A1.322,1.322,0,0,0,86.844-7a1.351,1.351,0,0,0-.883.258.814.814,0,0,0-.312.656A.7.7,0,0,0,86-5.48a3.657,3.657,0,0,0,1.2.4,9.8,9.8,0,0,1,1.422.379A2.336,2.336,0,0,1,90.414-2.43a2.2,2.2,0,0,1-.992,1.871,4.28,4.28,0,0,1-2.562.715,4.47,4.47,0,0,1-1.887-.379A3.166,3.166,0,0,1,83.68-1.262a2.414,2.414,0,0,1-.469-1.426h2.141a1.179,1.179,0,0,0,.445.922,1.766,1.766,0,0,0,1.109.32,1.635,1.635,0,0,0,.98-.246A.766.766,0,0,0,88.219-2.336ZM94.25,0H91.984V-8.453H94.25Zm-2.4-10.641a1.112,1.112,0,0,1,.34-.836,1.277,1.277,0,0,1,.926-.328,1.28,1.28,0,0,1,.922.328,1.105,1.105,0,0,1,.344.836,1.108,1.108,0,0,1-.348.844,1.283,1.283,0,0,1-.918.328A1.283,1.283,0,0,1,92.2-9.8,1.108,1.108,0,0,1,91.852-10.641ZM95.758-4.3a5.013,5.013,0,0,1,.484-2.242A3.546,3.546,0,0,1,97.637-8.07a4.069,4.069,0,0,1,2.113-.539,3.849,3.849,0,0,1,2.793,1.047,4.2,4.2,0,0,1,1.207,2.844l.016.578A4.418,4.418,0,0,1,102.68-1.02,3.775,3.775,0,0,1,99.766.156a3.793,3.793,0,0,1-2.918-1.172A4.5,4.5,0,0,1,95.758-4.2Zm2.258.16A3.16,3.16,0,0,0,98.469-2.3a1.5,1.5,0,0,0,1.3.638,1.5,1.5,0,0,0,1.281-.63,3.457,3.457,0,0,0,.461-2.015,3.128,3.128,0,0,0-.461-1.831,1.5,1.5,0,0,0-1.3-.649,1.474,1.474,0,0,0-1.281.646A3.516,3.516,0,0,0,98.016-4.144ZM100.2-12h2.461l-2.164,2.422H98.656Zm7.039,3.547.07.977a2.951,2.951,0,0,1,2.43-1.133,2.453,2.453,0,0,1,2,.789,3.682,3.682,0,0,1,.672,2.359V0h-2.258V-5.406a1.465,1.465,0,0,0-.312-1.043,1.4,1.4,0,0,0-1.039-.324,1.553,1.553,0,0,0-1.43.813V0h-2.258V-8.453Z" transform="translate(508 1408)"/>
          <path id="Path_824443" data-name="Path 824443" d="M3.359-4.008V0H1.016V-11.375H5.453a5.134,5.134,0,0,1,2.254.469A3.454,3.454,0,0,1,9.2-9.574a3.714,3.714,0,0,1,.523,1.965A3.266,3.266,0,0,1,8.582-4.973a4.767,4.767,0,0,1-3.168.965Zm0-1.9H5.453a2.059,2.059,0,0,0,1.418-.437,1.591,1.591,0,0,0,.488-1.25,1.876,1.876,0,0,0-.492-1.352,1.839,1.839,0,0,0-1.359-.531H3.359Zm12.578-.43a6.134,6.134,0,0,0-.812-.062,1.654,1.654,0,0,0-1.68.867V0H11.188V-8.453H13.32l.063,1.008a2.092,2.092,0,0,1,1.883-1.164,2.366,2.366,0,0,1,.7.1ZM20.766.156A4.15,4.15,0,0,1,17.738-.984,4.054,4.054,0,0,1,16.57-4.023v-.219a5.106,5.106,0,0,1,.492-2.277,3.612,3.612,0,0,1,1.395-1.547,3.914,3.914,0,0,1,2.059-.543,3.508,3.508,0,0,1,2.73,1.094,4.444,4.444,0,0,1,1,3.1v.922H18.859a2.1,2.1,0,0,0,.66,1.328,2,2,0,0,0,1.395.5,2.437,2.437,0,0,0,2.039-.945l1.109,1.242A3.389,3.389,0,0,1,22.688-.246,4.511,4.511,0,0,1,20.766.156Zm-.258-6.945a1.411,1.411,0,0,0-1.09.455,2.357,2.357,0,0,0-.535,1.3h3.141v-.181a1.681,1.681,0,0,0-.406-1.165A1.456,1.456,0,0,0,20.508-6.789ZM30.1-2.336a.727.727,0,0,0-.41-.652,4.659,4.659,0,0,0-1.316-.426q-3.016-.633-3.016-2.562a2.323,2.323,0,0,1,.934-1.879,3.766,3.766,0,0,1,2.441-.754,4.053,4.053,0,0,1,2.574.758,2.388,2.388,0,0,1,.965,1.969H30.016a1.092,1.092,0,0,0-.312-.8A1.322,1.322,0,0,0,28.727-7a1.351,1.351,0,0,0-.883.258.814.814,0,0,0-.312.656.7.7,0,0,0,.355.605,3.657,3.657,0,0,0,1.2.4,9.8,9.8,0,0,1,1.422.379A2.336,2.336,0,0,1,32.3-2.43,2.2,2.2,0,0,1,31.3-.559a4.28,4.28,0,0,1-2.562.715,4.47,4.47,0,0,1-1.887-.379,3.166,3.166,0,0,1-1.293-1.039,2.414,2.414,0,0,1-.469-1.426h2.141a1.179,1.179,0,0,0,.445.922,1.766,1.766,0,0,0,1.109.32,1.635,1.635,0,0,0,.98-.246A.766.766,0,0,0,30.1-2.336ZM36.133,0H33.867V-8.453h2.266Zm-2.4-10.641a1.112,1.112,0,0,1,.34-.836A1.277,1.277,0,0,1,35-11.8a1.28,1.28,0,0,1,.922.328,1.105,1.105,0,0,1,.344.836,1.108,1.108,0,0,1-.348.844A1.283,1.283,0,0,1,35-9.469a1.283,1.283,0,0,1-.918-.328A1.108,1.108,0,0,1,33.734-10.641ZM37.641-4.3a5.013,5.013,0,0,1,.484-2.242A3.546,3.546,0,0,1,39.52-8.07a4.069,4.069,0,0,1,2.113-.539,3.849,3.849,0,0,1,2.793,1.047,4.2,4.2,0,0,1,1.207,2.844l.016.578A4.418,4.418,0,0,1,44.563-1.02,3.775,3.775,0,0,1,41.648.156,3.793,3.793,0,0,1,38.73-1.016,4.5,4.5,0,0,1,37.641-4.2Zm2.258.16A3.16,3.16,0,0,0,40.352-2.3a1.5,1.5,0,0,0,1.3.638,1.5,1.5,0,0,0,1.281-.63,3.457,3.457,0,0,0,.461-2.015A3.128,3.128,0,0,0,42.93-6.14a1.5,1.5,0,0,0-1.3-.649,1.474,1.474,0,0,0-1.281.646A3.516,3.516,0,0,0,39.9-4.144ZM42.078-12h2.461L42.375-9.578H40.539Zm7.039,3.547.07.977a2.951,2.951,0,0,1,2.43-1.133,2.453,2.453,0,0,1,2,.789,3.682,3.682,0,0,1,.672,2.359V0H52.031V-5.406a1.465,1.465,0,0,0-.312-1.043,1.4,1.4,0,0,0-1.039-.324,1.553,1.553,0,0,0-1.43.813V0H46.992V-8.453ZM59.633-4.289a5.094,5.094,0,0,1,.887-3.148,2.877,2.877,0,0,1,2.426-1.172,2.589,2.589,0,0,1,2.039.922V-12H67.25V0H65.211L65.1-.9A2.657,2.657,0,0,1,62.93.156,2.869,2.869,0,0,1,60.535-1.02,5.258,5.258,0,0,1,59.633-4.289Zm2.258.168A3.337,3.337,0,0,0,62.3-2.3a1.349,1.349,0,0,0,1.2.634,1.511,1.511,0,0,0,1.477-.884V-5.889a1.489,1.489,0,0,0-1.461-.884Q61.891-6.773,61.891-4.121Zm11,4.277A4.15,4.15,0,0,1,69.863-.984,4.054,4.054,0,0,1,68.7-4.023v-.219a5.106,5.106,0,0,1,.492-2.277,3.612,3.612,0,0,1,1.395-1.547,3.914,3.914,0,0,1,2.059-.543,3.508,3.508,0,0,1,2.73,1.094,4.444,4.444,0,0,1,1,3.1v.922H70.984a2.1,2.1,0,0,0,.66,1.328,2,2,0,0,0,1.395.5,2.437,2.437,0,0,0,2.039-.945l1.109,1.242A3.389,3.389,0,0,1,74.813-.246,4.511,4.511,0,0,1,72.891.156Zm-.258-6.945a1.411,1.411,0,0,0-1.09.455,2.357,2.357,0,0,0-.535,1.3h3.141v-.181a1.681,1.681,0,0,0-.406-1.165A1.456,1.456,0,0,0,72.633-6.789ZM84.8-2.758l1.57-5.7h2.359L85.875,0H83.719L80.867-8.453h2.359ZM94.5,0a2.507,2.507,0,0,1-.227-.758,2.732,2.732,0,0,1-2.133.914,3,3,0,0,1-2.059-.719,2.312,2.312,0,0,1-.816-1.812,2.389,2.389,0,0,1,1-2.062,4.915,4.915,0,0,1,2.879-.727H94.18v-.484a1.393,1.393,0,0,0-.3-.937,1.183,1.183,0,0,0-.949-.352,1.345,1.345,0,0,0-.895.273.929.929,0,0,0-.324.75H89.453a2.268,2.268,0,0,1,.453-1.359,3,3,0,0,1,1.281-.98,4.669,4.669,0,0,1,1.859-.355,3.689,3.689,0,0,1,2.48.785,2.747,2.747,0,0,1,.918,2.207v3.664a4.041,4.041,0,0,0,.336,1.82V0ZM92.633-1.57a1.945,1.945,0,0,0,.922-.223,1.462,1.462,0,0,0,.625-.6V-3.844h-.844q-1.7,0-1.8,1.172l-.008.133a.9.9,0,0,0,.3.7A1.153,1.153,0,0,0,92.633-1.57Zm13.156-2.578A5.07,5.07,0,0,1,104.9-1.02,2.843,2.843,0,0,1,102.508.156a2.633,2.633,0,0,1-2.07-.891V3.25H98.18v-11.7h2.094l.078.828a2.654,2.654,0,0,1,2.141-.984,2.862,2.862,0,0,1,2.43,1.156,5.207,5.207,0,0,1,.867,3.188Zm-2.258-.164a3.327,3.327,0,0,0-.418-1.82,1.361,1.361,0,0,0-1.215-.641,1.478,1.478,0,0,0-1.461.813V-2.5a1.5,1.5,0,0,0,1.477.836Q103.531-1.664,103.531-4.312Zm3.3.008a5.013,5.013,0,0,1,.484-2.242,3.546,3.546,0,0,1,1.395-1.523,4.069,4.069,0,0,1,2.113-.539,3.849,3.849,0,0,1,2.793,1.047,4.2,4.2,0,0,1,1.207,2.844l.016.578a4.418,4.418,0,0,1-1.086,3.121A3.775,3.775,0,0,1,110.844.156a3.793,3.793,0,0,1-2.918-1.172,4.5,4.5,0,0,1-1.09-3.187Zm2.258.16a3.16,3.16,0,0,0,.453,1.843,1.5,1.5,0,0,0,1.3.638,1.5,1.5,0,0,0,1.281-.63,3.457,3.457,0,0,0,.461-2.015,3.128,3.128,0,0,0-.461-1.831,1.5,1.5,0,0,0-1.3-.649,1.474,1.474,0,0,0-1.281.646A3.516,3.516,0,0,0,109.094-4.144Zm11.891-2.192a6.134,6.134,0,0,0-.812-.062,1.654,1.654,0,0,0-1.68.867V0h-2.258V-8.453h2.133l.063,1.008a2.092,2.092,0,0,1,1.883-1.164,2.366,2.366,0,0,1,.7.1Z" transform="translate(635 1506)"/>
          <path id="Path_824444" data-name="Path 824444" d="M6.914-2.984A1.2,1.2,0,0,0,6.445-4a6.148,6.148,0,0,0-1.687-.75,11.963,11.963,0,0,1-1.93-.777A3.153,3.153,0,0,1,.891-8.352,2.747,2.747,0,0,1,1.41-10,3.389,3.389,0,0,1,2.9-11.125a5.616,5.616,0,0,1,2.184-.406,5.112,5.112,0,0,1,2.172.441,3.458,3.458,0,0,1,1.48,1.246,3.261,3.261,0,0,1,.527,1.828H6.922A1.534,1.534,0,0,0,6.43-9.23a2.023,2.023,0,0,0-1.383-.434A2.162,2.162,0,0,0,3.711-9.3a1.146,1.146,0,0,0-.477.957,1.1,1.1,0,0,0,.559.93,6.311,6.311,0,0,0,1.645.7A7.106,7.106,0,0,1,8.352-5.219,2.972,2.972,0,0,1,9.266-3,2.737,2.737,0,0,1,8.148-.684a4.891,4.891,0,0,1-3.008.84A5.808,5.808,0,0,1,2.75-.324,3.783,3.783,0,0,1,1.105-1.641,3.371,3.371,0,0,1,.539-3.578H2.891q0,1.883,2.25,1.883a2.189,2.189,0,0,0,1.3-.34A1.106,1.106,0,0,0,6.914-2.984ZM10.352-4.3a5.013,5.013,0,0,1,.484-2.242A3.546,3.546,0,0,1,12.23-8.07a4.069,4.069,0,0,1,2.113-.539,3.849,3.849,0,0,1,2.793,1.047,4.2,4.2,0,0,1,1.207,2.844l.016.578A4.418,4.418,0,0,1,17.273-1.02,3.775,3.775,0,0,1,14.359.156a3.793,3.793,0,0,1-2.918-1.172A4.5,4.5,0,0,1,10.352-4.2Zm2.258.16A3.16,3.16,0,0,0,13.063-2.3a1.5,1.5,0,0,0,1.3.638,1.5,1.5,0,0,0,1.281-.63A3.457,3.457,0,0,0,16.1-4.309a3.128,3.128,0,0,0-.461-1.831,1.5,1.5,0,0,0-1.3-.649,1.474,1.474,0,0,0-1.281.646A3.516,3.516,0,0,0,12.609-4.144ZM22.133,0H19.867V-12h2.266Zm6.922-.859A2.831,2.831,0,0,1,26.742.156a2.67,2.67,0,0,1-2.074-.781,3.335,3.335,0,0,1-.73-2.289V-8.453H26.2v5.467q0,1.322,1.2,1.322a1.63,1.63,0,0,0,1.578-.8V-8.453h2.266V0H29.117ZM40.563-4.148A5.119,5.119,0,0,1,39.7-.98,2.872,2.872,0,0,1,37.273.156,2.639,2.639,0,0,1,35.078-.9l-.1.9H32.945V-12H35.2v4.3a2.571,2.571,0,0,1,2.055-.914,2.9,2.9,0,0,1,2.426,1.137,5.126,5.126,0,0,1,.879,3.2ZM38.3-4.312A3.363,3.363,0,0,0,37.9-6.184a1.374,1.374,0,0,0-1.211-.59,1.489,1.489,0,0,0-1.484.883v3.336a1.509,1.509,0,0,0,1.5.891,1.394,1.394,0,0,0,1.438-1.078A5.562,5.562,0,0,0,38.3-4.312ZM44.336,0H42.07V-8.453h2.266Zm-2.4-10.641a1.112,1.112,0,0,1,.34-.836A1.277,1.277,0,0,1,43.2-11.8a1.28,1.28,0,0,1,.922.328,1.105,1.105,0,0,1,.344.836,1.108,1.108,0,0,1-.348.844,1.283,1.283,0,0,1-.918.328,1.283,1.283,0,0,1-.918-.328A1.108,1.108,0,0,1,41.938-10.641ZM48.578,0H46.313V-12h2.266ZM52.82,0H50.555V-8.453H52.82Zm-2.4-10.641a1.112,1.112,0,0,1,.34-.836,1.277,1.277,0,0,1,.926-.328,1.28,1.28,0,0,1,.922.328,1.105,1.105,0,0,1,.344.836,1.108,1.108,0,0,1-.348.844,1.283,1.283,0,0,1-.918.328A1.283,1.283,0,0,1,50.77-9.8,1.108,1.108,0,0,1,50.422-10.641Zm3.906,6.352a5.094,5.094,0,0,1,.887-3.148,2.877,2.877,0,0,1,2.426-1.172,2.589,2.589,0,0,1,2.039.922V-12h2.266V0H59.906L59.8-.9A2.657,2.657,0,0,1,57.625.156,2.869,2.869,0,0,1,55.23-1.02,5.258,5.258,0,0,1,54.328-4.289Zm2.258.168A3.337,3.337,0,0,0,57-2.3a1.349,1.349,0,0,0,1.2.634,1.511,1.511,0,0,0,1.477-.884V-5.889a1.489,1.489,0,0,0-1.461-.884Q56.586-6.773,56.586-4.121ZM68.594,0a2.507,2.507,0,0,1-.227-.758,2.732,2.732,0,0,1-2.133.914,3,3,0,0,1-2.059-.719,2.312,2.312,0,0,1-.816-1.812,2.389,2.389,0,0,1,1-2.062,4.915,4.915,0,0,1,2.879-.727h1.039v-.484a1.393,1.393,0,0,0-.3-.937,1.183,1.183,0,0,0-.949-.352,1.345,1.345,0,0,0-.895.273.929.929,0,0,0-.324.75H63.547A2.268,2.268,0,0,1,64-7.273a3,3,0,0,1,1.281-.98,4.669,4.669,0,0,1,1.859-.355,3.689,3.689,0,0,1,2.48.785,2.747,2.747,0,0,1,.918,2.207v3.664a4.041,4.041,0,0,0,.336,1.82V0ZM66.727-1.57a1.945,1.945,0,0,0,.922-.223,1.462,1.462,0,0,0,.625-.6V-3.844H67.43q-1.7,0-1.8,1.172l-.008.133a.9.9,0,0,0,.3.7A1.153,1.153,0,0,0,66.727-1.57Zm5.2-2.719a5.094,5.094,0,0,1,.887-3.148,2.877,2.877,0,0,1,2.426-1.172,2.589,2.589,0,0,1,2.039.922V-12h2.266V0H77.5l-.109-.9A2.657,2.657,0,0,1,75.219.156,2.869,2.869,0,0,1,72.824-1.02,5.258,5.258,0,0,1,71.922-4.289Zm2.258.168A3.337,3.337,0,0,0,74.594-2.3a1.349,1.349,0,0,0,1.2.634,1.511,1.511,0,0,0,1.477-.884V-5.889a1.489,1.489,0,0,0-1.461-.884Q74.18-6.773,74.18-4.121Zm10.742-.168a5.094,5.094,0,0,1,.887-3.148,2.877,2.877,0,0,1,2.426-1.172,2.589,2.589,0,0,1,2.039.922V-12h2.266V0H90.5l-.109-.9A2.657,2.657,0,0,1,88.219.156,2.869,2.869,0,0,1,85.824-1.02,5.258,5.258,0,0,1,84.922-4.289Zm2.258.168A3.337,3.337,0,0,0,87.594-2.3a1.349,1.349,0,0,0,1.2.634,1.511,1.511,0,0,0,1.477-.884V-5.889a1.489,1.489,0,0,0-1.461-.884Q87.18-6.773,87.18-4.121Zm11,4.277A4.15,4.15,0,0,1,95.152-.984a4.054,4.054,0,0,1-1.168-3.039v-.219a5.106,5.106,0,0,1,.492-2.277,3.612,3.612,0,0,1,1.395-1.547,3.914,3.914,0,0,1,2.059-.543,3.508,3.508,0,0,1,2.73,1.094,4.444,4.444,0,0,1,1,3.1v.922H96.273a2.1,2.1,0,0,0,.66,1.328,2,2,0,0,0,1.395.5,2.437,2.437,0,0,0,2.039-.945l1.109,1.242A3.389,3.389,0,0,1,100.1-.246,4.511,4.511,0,0,1,98.18.156Zm-.258-6.945a1.411,1.411,0,0,0-1.09.455,2.357,2.357,0,0,0-.535,1.3h3.141v-.181a1.681,1.681,0,0,0-.406-1.165A1.456,1.456,0,0,0,97.922-6.789ZM105.32,0h-2.266V-12h2.266Zm10.742,0a2.507,2.507,0,0,1-.227-.758A2.732,2.732,0,0,1,113.7.156a3,3,0,0,1-2.059-.719,2.312,2.312,0,0,1-.816-1.812,2.389,2.389,0,0,1,1-2.062,4.915,4.915,0,0,1,2.879-.727h1.039v-.484a1.393,1.393,0,0,0-.3-.937,1.183,1.183,0,0,0-.949-.352,1.345,1.345,0,0,0-.895.273.929.929,0,0,0-.324.75h-2.258a2.268,2.268,0,0,1,.453-1.359,3,3,0,0,1,1.281-.98,4.669,4.669,0,0,1,1.859-.355,3.689,3.689,0,0,1,2.48.785,2.747,2.747,0,0,1,.918,2.207v3.664a4.041,4.041,0,0,0,.336,1.82V0ZM114.2-1.57a1.945,1.945,0,0,0,.922-.223,1.462,1.462,0,0,0,.625-.6V-3.844H114.9q-1.7,0-1.8,1.172l-.008.133a.9.9,0,0,0,.3.7A1.153,1.153,0,0,0,114.2-1.57Zm5.219-2.719a4.954,4.954,0,0,1,.926-3.133,3,3,0,0,1,2.5-1.187A2.631,2.631,0,0,1,125-7.656l.094-.8h2.047V-.281a3.613,3.613,0,0,1-.5,1.93,3.236,3.236,0,0,1-1.418,1.25,4.985,4.985,0,0,1-2.141.43,4.635,4.635,0,0,1-1.812-.371A3.217,3.217,0,0,1,119.93,2l1-1.375a2.645,2.645,0,0,0,2.047.945,1.936,1.936,0,0,0,1.4-.48,1.8,1.8,0,0,0,.5-1.363V-.727a2.612,2.612,0,0,1-2.055.883,2.992,2.992,0,0,1-2.465-1.191,4.953,4.953,0,0,1-.941-3.16Zm2.258.168a3.085,3.085,0,0,0,.461,1.8,1.466,1.466,0,0,0,1.266.653,1.568,1.568,0,0,0,1.477-.775V-6a1.564,1.564,0,0,0-1.461-.775,1.476,1.476,0,0,0-1.277.665A3.477,3.477,0,0,0,121.672-4.121ZM133.938-.859A2.831,2.831,0,0,1,131.625.156a2.67,2.67,0,0,1-2.074-.781,3.335,3.335,0,0,1-.73-2.289V-8.453h2.258v5.467q0,1.322,1.2,1.322a1.63,1.63,0,0,0,1.578-.8V-8.453h2.266V0H134ZM142.727,0a2.507,2.507,0,0,1-.227-.758,2.732,2.732,0,0,1-2.133.914,3,3,0,0,1-2.059-.719,2.312,2.312,0,0,1-.816-1.812,2.389,2.389,0,0,1,1-2.062,4.915,4.915,0,0,1,2.879-.727h1.039v-.484a1.393,1.393,0,0,0-.3-.937,1.183,1.183,0,0,0-.949-.352,1.345,1.345,0,0,0-.895.273.929.929,0,0,0-.324.75H137.68a2.268,2.268,0,0,1,.453-1.359,3,3,0,0,1,1.281-.98,4.669,4.669,0,0,1,1.859-.355,3.689,3.689,0,0,1,2.48.785,2.747,2.747,0,0,1,.918,2.207v3.664a4.041,4.041,0,0,0,.336,1.82V0Zm-1.867-1.57a1.945,1.945,0,0,0,.922-.223,1.462,1.462,0,0,0,.625-.6V-3.844h-.844q-1.7,0-1.8,1.172l-.008.133a.9.9,0,0,0,.3.7A1.153,1.153,0,0,0,140.859-1.57Z" transform="translate(834 1506)"/>
          <path id="Path_824445" data-name="Path 824445" d="M3.359-4.008V0H1.016V-11.375H5.453a5.134,5.134,0,0,1,2.254.469A3.454,3.454,0,0,1,9.2-9.574a3.714,3.714,0,0,1,.523,1.965A3.266,3.266,0,0,1,8.582-4.973a4.767,4.767,0,0,1-3.168.965Zm0-1.9H5.453a2.059,2.059,0,0,0,1.418-.437,1.591,1.591,0,0,0,.488-1.25,1.876,1.876,0,0,0-.492-1.352,1.839,1.839,0,0,0-1.359-.531H3.359ZM16.25-.859A2.831,2.831,0,0,1,13.938.156a2.67,2.67,0,0,1-2.074-.781,3.335,3.335,0,0,1-.73-2.289V-8.453h2.258v5.467q0,1.322,1.2,1.322a1.63,1.63,0,0,0,1.578-.8V-8.453h2.266V0H16.313Zm5.969-7.594.07.977a2.951,2.951,0,0,1,2.43-1.133,2.453,2.453,0,0,1,2,.789,3.682,3.682,0,0,1,.672,2.359V0H25.133V-5.406a1.465,1.465,0,0,0-.312-1.043,1.4,1.4,0,0,0-1.039-.324,1.553,1.553,0,0,0-1.43.813V0H20.094V-8.453ZM31.8-10.531v2.078H33.25V-6.8H31.8v4.219a1.007,1.007,0,0,0,.18.672.9.9,0,0,0,.688.2,3.6,3.6,0,0,0,.664-.055V-.047a4.648,4.648,0,0,1-1.367.2,2.156,2.156,0,0,1-2.422-2.4V-6.8H28.313V-8.453h1.234v-2.078ZM33.922-4.3a5.013,5.013,0,0,1,.484-2.242A3.546,3.546,0,0,1,35.8-8.07a4.069,4.069,0,0,1,2.113-.539,3.849,3.849,0,0,1,2.793,1.047,4.2,4.2,0,0,1,1.207,2.844l.016.578A4.418,4.418,0,0,1,40.844-1.02,3.775,3.775,0,0,1,37.93.156a3.793,3.793,0,0,1-2.918-1.172A4.5,4.5,0,0,1,33.922-4.2Zm2.258.16A3.16,3.16,0,0,0,36.633-2.3a1.5,1.5,0,0,0,1.3.638,1.5,1.5,0,0,0,1.281-.63,3.457,3.457,0,0,0,.461-2.015,3.128,3.128,0,0,0-.461-1.831,1.5,1.5,0,0,0-1.3-.649,1.474,1.474,0,0,0-1.281.646A3.516,3.516,0,0,0,36.18-4.144Zm10.773-.145a5.094,5.094,0,0,1,.887-3.148,2.877,2.877,0,0,1,2.426-1.172,2.589,2.589,0,0,1,2.039.922V-12H54.57V0H52.531l-.109-.9A2.657,2.657,0,0,1,50.25.156,2.869,2.869,0,0,1,47.855-1.02,5.258,5.258,0,0,1,46.953-4.289Zm2.258.168A3.337,3.337,0,0,0,49.625-2.3a1.349,1.349,0,0,0,1.2.634A1.511,1.511,0,0,0,52.3-2.548V-5.889a1.489,1.489,0,0,0-1.461-.884Q49.211-6.773,49.211-4.121Zm11,4.277A4.15,4.15,0,0,1,57.184-.984a4.054,4.054,0,0,1-1.168-3.039v-.219a5.106,5.106,0,0,1,.492-2.277A3.612,3.612,0,0,1,57.9-8.066a3.914,3.914,0,0,1,2.059-.543,3.508,3.508,0,0,1,2.73,1.094,4.444,4.444,0,0,1,1,3.1v.922H58.3a2.1,2.1,0,0,0,.66,1.328,2,2,0,0,0,1.395.5A2.437,2.437,0,0,0,62.4-2.609l1.109,1.242A3.389,3.389,0,0,1,62.133-.246,4.511,4.511,0,0,1,60.211.156Zm-.258-6.945a1.411,1.411,0,0,0-1.09.455,2.357,2.357,0,0,0-.535,1.3h3.141v-.181a1.681,1.681,0,0,0-.406-1.165A1.456,1.456,0,0,0,59.953-6.789ZM72.844.156A4.15,4.15,0,0,1,69.816-.984a4.054,4.054,0,0,1-1.168-3.039v-.219a5.106,5.106,0,0,1,.492-2.277,3.612,3.612,0,0,1,1.395-1.547,3.914,3.914,0,0,1,2.059-.543,3.508,3.508,0,0,1,2.73,1.094,4.444,4.444,0,0,1,1,3.1v.922H70.938a2.1,2.1,0,0,0,.66,1.328,2,2,0,0,0,1.395.5,2.437,2.437,0,0,0,2.039-.945l1.109,1.242A3.389,3.389,0,0,1,74.766-.246,4.511,4.511,0,0,1,72.844.156Zm-.258-6.945a1.411,1.411,0,0,0-1.09.455,2.357,2.357,0,0,0-.535,1.3H74.1v-.181A1.681,1.681,0,0,0,73.7-6.377,1.456,1.456,0,0,0,72.586-6.789ZM85.219-4.148A5.119,5.119,0,0,1,84.352-.98,2.872,2.872,0,0,1,81.93.156,2.639,2.639,0,0,1,79.734-.9l-.1.9H77.6V-12h2.258v4.3a2.571,2.571,0,0,1,2.055-.914A2.9,2.9,0,0,1,84.34-7.473a5.126,5.126,0,0,1,.879,3.2Zm-2.258-.164a3.363,3.363,0,0,0-.406-1.871,1.374,1.374,0,0,0-1.211-.59,1.489,1.489,0,0,0-1.484.883v3.336a1.509,1.509,0,0,0,1.5.891A1.394,1.394,0,0,0,82.8-2.742,5.562,5.562,0,0,0,82.961-4.312ZM91.672-.859A2.831,2.831,0,0,1,89.359.156a2.67,2.67,0,0,1-2.074-.781,3.335,3.335,0,0,1-.73-2.289V-8.453h2.258v5.467q0,1.322,1.2,1.322a1.63,1.63,0,0,0,1.578-.8V-8.453h2.266V0H91.734ZM97.945,0H95.68V-12h2.266Zm4.242,0H99.922V-12h2.266Zm4.242,0h-2.266V-8.453h2.266Zm-2.4-10.641a1.112,1.112,0,0,1,.34-.836,1.277,1.277,0,0,1,.926-.328,1.28,1.28,0,0,1,.922.328,1.105,1.105,0,0,1,.344.836,1.108,1.108,0,0,1-.348.844,1.283,1.283,0,0,1-.918.328,1.283,1.283,0,0,1-.918-.328A1.108,1.108,0,0,1,104.031-10.641ZM111.8-1.664a1.481,1.481,0,0,0,1.016-.344,1.2,1.2,0,0,0,.406-.914h2.117a2.9,2.9,0,0,1-.469,1.574,3.093,3.093,0,0,1-1.262,1.109,3.949,3.949,0,0,1-1.77.395A3.67,3.67,0,0,1,108.984-1a4.56,4.56,0,0,1-1.047-3.184v-.148a4.508,4.508,0,0,1,1.039-3.117,3.627,3.627,0,0,1,2.852-1.164,3.555,3.555,0,0,1,2.543.9,3.2,3.2,0,0,1,.973,2.4h-2.117a1.551,1.551,0,0,0-.406-1.072,1.354,1.354,0,0,0-1.031-.412,1.36,1.36,0,0,0-1.191.575,3.333,3.333,0,0,0-.4,1.866v.235a3.375,3.375,0,0,0,.4,1.878A1.377,1.377,0,0,0,111.8-1.664ZM119.016,0H116.75V-8.453h2.266Zm-2.4-10.641a1.112,1.112,0,0,1,.34-.836,1.277,1.277,0,0,1,.926-.328,1.28,1.28,0,0,1,.922.328,1.105,1.105,0,0,1,.344.836,1.108,1.108,0,0,1-.348.844,1.283,1.283,0,0,1-.918.328,1.283,1.283,0,0,1-.918-.328A1.108,1.108,0,0,1,116.617-10.641ZM120.523-4.3a5.013,5.013,0,0,1,.484-2.242A3.546,3.546,0,0,1,122.4-8.07a4.069,4.069,0,0,1,2.113-.539,3.849,3.849,0,0,1,2.793,1.047,4.2,4.2,0,0,1,1.207,2.844l.016.578a4.418,4.418,0,0,1-1.086,3.121A3.775,3.775,0,0,1,124.531.156a3.793,3.793,0,0,1-2.918-1.172,4.5,4.5,0,0,1-1.09-3.187Zm2.258.16a3.16,3.16,0,0,0,.453,1.843,1.5,1.5,0,0,0,1.3.638,1.5,1.5,0,0,0,1.281-.63,3.457,3.457,0,0,0,.461-2.015,3.128,3.128,0,0,0-.461-1.831,1.5,1.5,0,0,0-1.3-.649,1.474,1.474,0,0,0-1.281.646A3.516,3.516,0,0,0,122.781-4.144ZM124.961-12h2.461l-2.164,2.422h-1.836ZM132-8.453l.07.977a2.951,2.951,0,0,1,2.43-1.133,2.453,2.453,0,0,1,2,.789,3.682,3.682,0,0,1,.672,2.359V0h-2.258V-5.406a1.465,1.465,0,0,0-.312-1.043,1.4,1.4,0,0,0-1.039-.324,1.553,1.553,0,0,0-1.43.813V0h-2.258V-8.453Z" transform="translate(707 1408)"/>
          <path id="Path_824446" data-name="Path 824446" d="M-41.793-4.008V0h-2.344V-11.375H-39.7a5.134,5.134,0,0,1,2.254.469,3.454,3.454,0,0,1,1.5,1.332,3.714,3.714,0,0,1,.523,1.965A3.266,3.266,0,0,1-36.57-4.973a4.767,4.767,0,0,1-3.168.965Zm0-1.9H-39.7a2.059,2.059,0,0,0,1.418-.437,1.591,1.591,0,0,0,.488-1.25,1.876,1.876,0,0,0-.492-1.352,1.839,1.839,0,0,0-1.359-.531h-2.148Zm12.578-.43a6.134,6.134,0,0,0-.812-.062,1.654,1.654,0,0,0-1.68.867V0h-2.258V-8.453h2.133l.063,1.008a2.092,2.092,0,0,1,1.883-1.164,2.366,2.366,0,0,1,.7.1Zm.453,2.031a5.013,5.013,0,0,1,.484-2.242A3.546,3.546,0,0,1-26.883-8.07a4.069,4.069,0,0,1,2.113-.539,3.849,3.849,0,0,1,2.793,1.047A4.2,4.2,0,0,1-20.77-4.719l.016.578A4.418,4.418,0,0,1-21.84-1.02,3.775,3.775,0,0,1-24.754.156a3.793,3.793,0,0,1-2.918-1.172A4.5,4.5,0,0,1-28.762-4.2Zm2.258.16A3.16,3.16,0,0,0-26.051-2.3a1.5,1.5,0,0,0,1.3.638,1.5,1.5,0,0,0,1.281-.63,3.457,3.457,0,0,0,.461-2.015,3.128,3.128,0,0,0-.461-1.831,1.5,1.5,0,0,0-1.3-.649,1.474,1.474,0,0,0-1.281.646A3.516,3.516,0,0,0-26.5-4.144Zm14.75,0a5.07,5.07,0,0,1-.887,3.129A2.843,2.843,0,0,1-15.035.156a2.633,2.633,0,0,1-2.07-.891V3.25h-2.258v-11.7h2.094l.078.828a2.654,2.654,0,0,1,2.141-.984,2.862,2.862,0,0,1,2.43,1.156,5.207,5.207,0,0,1,.867,3.188Zm-2.258-.164a3.327,3.327,0,0,0-.418-1.82,1.361,1.361,0,0,0-1.215-.641,1.478,1.478,0,0,0-1.461.813V-2.5a1.5,1.5,0,0,0,1.477.836Q-14.012-1.664-14.012-4.312ZM-7.973,0h-2.266V-8.453h2.266Zm-2.4-10.641a1.112,1.112,0,0,1,.34-.836,1.277,1.277,0,0,1,.926-.328,1.28,1.28,0,0,1,.922.328,1.105,1.105,0,0,1,.344.836,1.108,1.108,0,0,1-.348.844,1.283,1.283,0,0,1-.918.328,1.283,1.283,0,0,1-.918-.328A1.108,1.108,0,0,1-10.371-10.641ZM-2.223.156A4.15,4.15,0,0,1-5.25-.984,4.054,4.054,0,0,1-6.418-4.023v-.219A5.106,5.106,0,0,1-5.926-6.52,3.612,3.612,0,0,1-4.531-8.066a3.914,3.914,0,0,1,2.059-.543A3.508,3.508,0,0,1,.258-7.516a4.444,4.444,0,0,1,1,3.1v.922H-4.129a2.1,2.1,0,0,0,.66,1.328,2,2,0,0,0,1.395.5A2.437,2.437,0,0,0-.035-2.609L1.074-1.367A3.389,3.389,0,0,1-.3-.246,4.511,4.511,0,0,1-2.223.156ZM-2.48-6.789a1.411,1.411,0,0,0-1.09.455,2.357,2.357,0,0,0-.535,1.3H-.965v-.181a1.681,1.681,0,0,0-.406-1.165A1.456,1.456,0,0,0-2.48-6.789Zm4.664,2.5A5.094,5.094,0,0,1,3.07-7.437,2.877,2.877,0,0,1,5.5-8.609a2.589,2.589,0,0,1,2.039.922V-12H9.8V0H7.762L7.652-.9A2.657,2.657,0,0,1,5.48.156,2.869,2.869,0,0,1,3.086-1.02,5.258,5.258,0,0,1,2.184-4.289Zm2.258.168A3.337,3.337,0,0,0,4.855-2.3a1.349,1.349,0,0,0,1.2.634,1.511,1.511,0,0,0,1.477-.884V-5.889a1.489,1.489,0,0,0-1.461-.884Q4.441-6.773,4.441-4.121ZM16.449,0a2.507,2.507,0,0,1-.227-.758A2.732,2.732,0,0,1,14.09.156a3,3,0,0,1-2.059-.719,2.312,2.312,0,0,1-.816-1.812,2.389,2.389,0,0,1,1-2.062,4.915,4.915,0,0,1,2.879-.727h1.039v-.484a1.393,1.393,0,0,0-.3-.937,1.183,1.183,0,0,0-.949-.352,1.345,1.345,0,0,0-.895.273.929.929,0,0,0-.324.75H11.4a2.268,2.268,0,0,1,.453-1.359,3,3,0,0,1,1.281-.98A4.669,4.669,0,0,1,15-8.609a3.689,3.689,0,0,1,2.48.785,2.747,2.747,0,0,1,.918,2.207v3.664a4.041,4.041,0,0,0,.336,1.82V0ZM14.582-1.57a1.945,1.945,0,0,0,.922-.223,1.462,1.462,0,0,0,.625-.6V-3.844h-.844q-1.7,0-1.8,1.172l-.008.133a.9.9,0,0,0,.3.7A1.153,1.153,0,0,0,14.582-1.57Zm5.2-2.719a5.094,5.094,0,0,1,.887-3.148A2.877,2.877,0,0,1,23.09-8.609a2.589,2.589,0,0,1,2.039.922V-12h2.266V0H25.355l-.109-.9A2.657,2.657,0,0,1,23.074.156,2.869,2.869,0,0,1,20.68-1.02,5.258,5.258,0,0,1,19.777-4.289Zm2.258.168A3.337,3.337,0,0,0,22.449-2.3a1.349,1.349,0,0,0,1.2.634,1.511,1.511,0,0,0,1.477-.884V-5.889a1.489,1.489,0,0,0-1.461-.884Q22.035-6.773,22.035-4.121Zm11,4.277A4.15,4.15,0,0,1,30.008-.984,4.054,4.054,0,0,1,28.84-4.023v-.219a5.106,5.106,0,0,1,.492-2.277,3.612,3.612,0,0,1,1.395-1.547,3.914,3.914,0,0,1,2.059-.543,3.508,3.508,0,0,1,2.73,1.094,4.444,4.444,0,0,1,1,3.1v.922H31.129a2.1,2.1,0,0,0,.66,1.328,2,2,0,0,0,1.395.5,2.437,2.437,0,0,0,2.039-.945l1.109,1.242A3.389,3.389,0,0,1,34.957-.246,4.511,4.511,0,0,1,33.035.156Zm-.258-6.945a1.411,1.411,0,0,0-1.09.455,2.357,2.357,0,0,0-.535,1.3h3.141v-.181a1.681,1.681,0,0,0-.406-1.165A1.456,1.456,0,0,0,32.777-6.789Zm9.594,4.453a.727.727,0,0,0-.41-.652,4.659,4.659,0,0,0-1.316-.426q-3.016-.633-3.016-2.562a2.323,2.323,0,0,1,.934-1.879A3.766,3.766,0,0,1,41-8.609a4.053,4.053,0,0,1,2.574.758,2.388,2.388,0,0,1,.965,1.969H42.285a1.092,1.092,0,0,0-.312-.8A1.322,1.322,0,0,0,41-7a1.351,1.351,0,0,0-.883.258.814.814,0,0,0-.312.656.7.7,0,0,0,.355.605,3.657,3.657,0,0,0,1.2.4,9.8,9.8,0,0,1,1.422.379A2.336,2.336,0,0,1,44.566-2.43a2.2,2.2,0,0,1-.992,1.871,4.28,4.28,0,0,1-2.562.715,4.47,4.47,0,0,1-1.887-.379,3.166,3.166,0,0,1-1.293-1.039,2.414,2.414,0,0,1-.469-1.426H39.5a1.179,1.179,0,0,0,.445.922,1.766,1.766,0,0,0,1.109.32,1.635,1.635,0,0,0,.98-.246A.766.766,0,0,0,42.371-2.336ZM-54.3,18V11.2h-1.258V9.547H-54.3V8.828a2.918,2.918,0,0,1,.816-2.207A3.162,3.162,0,0,1-51.2,5.836a5.278,5.278,0,0,1,1.148.156l-.023,1.75a2.878,2.878,0,0,0-.687-.07q-1.273,0-1.273,1.2v.68h1.68V11.2h-1.68V18Zm7.555,0H-49V9.547h2.258ZM-47.41,6.117h2.461l-2.164,2.422h-1.836Zm7.188,9.547a.727.727,0,0,0-.41-.652,4.659,4.659,0,0,0-1.316-.426q-3.016-.633-3.016-2.562a2.323,2.323,0,0,1,.934-1.879,3.766,3.766,0,0,1,2.441-.754,4.053,4.053,0,0,1,2.574.758,2.388,2.388,0,0,1,.965,1.969h-2.258a1.092,1.092,0,0,0-.312-.8A1.322,1.322,0,0,0-41.6,11a1.351,1.351,0,0,0-.883.258.814.814,0,0,0-.312.656.7.7,0,0,0,.355.605,3.657,3.657,0,0,0,1.2.4,9.8,9.8,0,0,1,1.422.379,2.336,2.336,0,0,1,1.789,2.273,2.2,2.2,0,0,1-.992,1.871,4.28,4.28,0,0,1-2.562.715,4.47,4.47,0,0,1-1.887-.379,3.166,3.166,0,0,1-1.293-1.039,2.414,2.414,0,0,1-.469-1.426h2.141a1.179,1.179,0,0,0,.445.922,1.766,1.766,0,0,0,1.109.32,1.635,1.635,0,0,0,.98-.246A.766.766,0,0,0-40.223,15.664ZM-34.191,18h-2.266V9.547h2.266Zm-2.4-10.641a1.112,1.112,0,0,1,.34-.836,1.277,1.277,0,0,1,.926-.328,1.28,1.28,0,0,1,.922.328,1.105,1.105,0,0,1,.344.836,1.108,1.108,0,0,1-.348.844,1.283,1.283,0,0,1-.918.328,1.283,1.283,0,0,1-.918-.328A1.108,1.108,0,0,1-36.59,7.359Zm7.773,8.977a1.481,1.481,0,0,0,1.016-.344,1.2,1.2,0,0,0,.406-.914h2.117a2.9,2.9,0,0,1-.469,1.574,3.093,3.093,0,0,1-1.262,1.109,3.949,3.949,0,0,1-1.77.395A3.67,3.67,0,0,1-31.637,17a4.56,4.56,0,0,1-1.047-3.184v-.148a4.508,4.508,0,0,1,1.039-3.117,3.627,3.627,0,0,1,2.852-1.164,3.555,3.555,0,0,1,2.543.9,3.2,3.2,0,0,1,.973,2.4h-2.117a1.551,1.551,0,0,0-.406-1.072,1.354,1.354,0,0,0-1.031-.412,1.36,1.36,0,0,0-1.191.575,3.333,3.333,0,0,0-.4,1.866v.235a3.375,3.375,0,0,0,.4,1.878A1.377,1.377,0,0,0-28.816,16.336ZM-24.34,13.7a5.013,5.013,0,0,1,.484-2.242A3.546,3.546,0,0,1-22.461,9.93a4.069,4.069,0,0,1,2.113-.539,3.849,3.849,0,0,1,2.793,1.047,4.2,4.2,0,0,1,1.207,2.844l.016.578a4.418,4.418,0,0,1-1.086,3.121,3.775,3.775,0,0,1-2.914,1.176,3.793,3.793,0,0,1-2.918-1.172A4.5,4.5,0,0,1-24.34,13.8Zm2.258.16a3.16,3.16,0,0,0,.453,1.843,1.5,1.5,0,0,0,1.3.638,1.5,1.5,0,0,0,1.281-.63,3.457,3.457,0,0,0,.461-2.015,3.128,3.128,0,0,0-.461-1.831,1.5,1.5,0,0,0-1.3-.649,1.474,1.474,0,0,0-1.281.646A3.516,3.516,0,0,0-22.082,13.856Zm7.852,5.121h-1.68l4.188-12.352h1.68ZM-9.316,13.7a5.053,5.053,0,0,1,.887-3.148A2.9,2.9,0,0,1-6,9.391,2.6,2.6,0,0,1-3.832,10.43l.148-.883H-1.7v11.7H-3.965V17.273a2.6,2.6,0,0,1-2.047.883,2.878,2.878,0,0,1-2.406-1.172A5.3,5.3,0,0,1-9.316,13.7Zm2.258.16A3.315,3.315,0,0,0-6.633,15.7a1.363,1.363,0,0,0,1.2.634,1.518,1.518,0,0,0,1.469-.829v-3.5a1.506,1.506,0,0,0-1.453-.8,1.38,1.38,0,0,0-1.211.634A3.661,3.661,0,0,0-7.059,13.856Zm12.2,3.285a2.831,2.831,0,0,1-2.312,1.016A2.67,2.67,0,0,1,.75,17.375a3.335,3.335,0,0,1-.73-2.289V9.547H2.277v5.467q0,1.322,1.2,1.322a1.63,1.63,0,0,0,1.578-.8V9.547H7.324V18H5.2ZM11.465,18H9.207V9.547h2.258ZM10.8,6.117h2.461L11.1,8.539H9.262Zm4.727,3.43.07.945a2.971,2.971,0,0,1,2.43-1.1A2.255,2.255,0,0,1,20.27,10.68a2.9,2.9,0,0,1,2.539-1.289,2.521,2.521,0,0,1,2.047.8,3.681,3.681,0,0,1,.672,2.41V18H23.262V12.609a1.61,1.61,0,0,0-.281-1.051,1.246,1.246,0,0,0-.992-.332,1.409,1.409,0,0,0-1.406.969L20.59,18H18.332V12.617a1.59,1.59,0,0,0-.289-1.062,1.259,1.259,0,0,0-.984-.328,1.463,1.463,0,0,0-1.391.8V18H13.41V9.547ZM29.645,18H27.379V9.547h2.266Zm-2.4-10.641a1.112,1.112,0,0,1,.34-.836,1.465,1.465,0,0,1,1.848,0,1.193,1.193,0,0,1,0,1.68,1.448,1.448,0,0,1-1.836,0A1.108,1.108,0,0,1,27.246,7.359Zm7.773,8.977a1.481,1.481,0,0,0,1.016-.344,1.2,1.2,0,0,0,.406-.914h2.117a2.9,2.9,0,0,1-.469,1.574,3.093,3.093,0,0,1-1.262,1.109,3.949,3.949,0,0,1-1.77.395A3.67,3.67,0,0,1,32.2,17a4.56,4.56,0,0,1-1.047-3.184v-.148a4.508,4.508,0,0,1,1.039-3.117,3.627,3.627,0,0,1,2.852-1.164,3.555,3.555,0,0,1,2.543.9,3.2,3.2,0,0,1,.973,2.4H36.441a1.551,1.551,0,0,0-.406-1.072,1.51,1.51,0,0,0-2.223.163,3.333,3.333,0,0,0-.4,1.866v.235a3.375,3.375,0,0,0,.4,1.878A1.377,1.377,0,0,0,35.02,16.336ZM44.746,18a2.507,2.507,0,0,1-.227-.758,2.732,2.732,0,0,1-2.133.914,3,3,0,0,1-2.059-.719,2.312,2.312,0,0,1-.816-1.812,2.389,2.389,0,0,1,1-2.062,4.915,4.915,0,0,1,2.879-.727h1.039v-.484a1.393,1.393,0,0,0-.3-.937,1.183,1.183,0,0,0-.949-.352,1.345,1.345,0,0,0-.895.273.929.929,0,0,0-.324.75H39.7a2.268,2.268,0,0,1,.453-1.359,3,3,0,0,1,1.281-.98,4.669,4.669,0,0,1,1.859-.355,3.689,3.689,0,0,1,2.48.785,2.747,2.747,0,0,1,.918,2.207v3.664a4.041,4.041,0,0,0,.336,1.82V18Zm-1.867-1.57a1.945,1.945,0,0,0,.922-.223,1.462,1.462,0,0,0,.625-.6V14.156h-.844q-1.7,0-1.8,1.172l-.008.133a.9.9,0,0,0,.3.7A1.153,1.153,0,0,0,42.879,16.43ZM53,15.664a.727.727,0,0,0-.41-.652,4.659,4.659,0,0,0-1.316-.426q-3.016-.633-3.016-2.562a2.323,2.323,0,0,1,.934-1.879,3.766,3.766,0,0,1,2.441-.754,4.053,4.053,0,0,1,2.574.758,2.388,2.388,0,0,1,.965,1.969H52.918a1.092,1.092,0,0,0-.312-.8A1.322,1.322,0,0,0,51.629,11a1.351,1.351,0,0,0-.883.258.814.814,0,0,0-.312.656.7.7,0,0,0,.355.605,3.657,3.657,0,0,0,1.2.4,9.8,9.8,0,0,1,1.422.379A2.336,2.336,0,0,1,55.2,15.57a2.2,2.2,0,0,1-.992,1.871,4.28,4.28,0,0,1-2.562.715,4.47,4.47,0,0,1-1.887-.379,3.166,3.166,0,0,1-1.293-1.039A2.414,2.414,0,0,1,48,15.313h2.141a1.179,1.179,0,0,0,.445.922,1.766,1.766,0,0,0,1.109.32,1.635,1.635,0,0,0,.98-.246A.766.766,0,0,0,53,15.664Z" transform="translate(975 1399)"/>
        </g>
      </g>
    </g>
    <g id="Group_1073950" data-name="Group 1073950" transform="translate(410 1863.688)">
      <g id="Group_1073949" data-name="Group 1073949" clip-path="url(#clip-path)">
        <path id="Path_823569" data-name="Path 823569" d="M118.4,121.009c1.474,2.632,3.022,5.1,4.464,7.627,3.192,5.6,6.486,11.138,9.738,16.7,1.12,1.916,2.3,3.8,3.346,5.756a12.17,12.17,0,0,1,1.649,6.161,12.883,12.883,0,0,1-8.568,11.926,13.566,13.566,0,0,1-4.5.711q-56.033.023-112.065-.012A12.4,12.4,0,0,1,.852,161.643,12.04,12.04,0,0,1,2.034,150.51a4.638,4.638,0,0,0,1.071-2.279c.01-.434.555-.434.752-.809.708-1.344,1.514-2.636,2.28-3.948q1.046-1.794,2.088-3.59c1.294-2.237,2.695-4.417,3.955-6.663,1.545-2.753,3.172-5.458,4.732-8.2,2.216-3.9,4.5-7.758,6.766-11.631a31.7,31.7,0,0,1,1.712-2.812c.419-.572.2-.8-.229-1.139-1.574-1.239-3.226-2.4-4.668-3.777-1.748-1.669-3.487-3.359-5.069-5.2A64.865,64.865,0,0,1,6.367,86.7,61.287,61.287,0,0,1,1.591,72.71c-.431-1.976-.56-4.029-.844-6.041a60.732,60.732,0,0,1-.306-9.1,43.6,43.6,0,0,1,1.207-8.9A52.46,52.46,0,0,1,2.92,43.417a69.837,69.837,0,0,1,3.418-8.645,59.711,59.711,0,0,1,3.769-6.877,72.209,72.209,0,0,1,6.479-8.27,60.548,60.548,0,0,1,9.858-8.588A57,57,0,0,1,39.3,4.116,62.613,62.613,0,0,1,50.865.953,49.709,49.709,0,0,1,62.015.038,62.728,62.728,0,0,1,69.533.7c2.46.411,4.889.917,7.3,1.541A58.547,58.547,0,0,1,106.1,20.083a65.677,65.677,0,0,1,8.65,12.442,37.7,37.7,0,0,1,2.5,5.342.851.851,0,0,0,1.17.554,32.454,32.454,0,0,1,8.455-1.038,46.454,46.454,0,0,1,16.009,2.753,36.892,36.892,0,0,1,9.609,5.306,48.738,48.738,0,0,1,5.817,5.034,34.649,34.649,0,0,1,4.3,5.47,41.5,41.5,0,0,1,4.756,9.113,69.394,69.394,0,0,1,1.879,7.278,35.816,35.816,0,0,1-.059,14.817,47.186,47.186,0,0,1-3.563,11.069,42.14,42.14,0,0,1-15.764,17.237,41.341,41.341,0,0,1-5.17,2.65,47.136,47.136,0,0,1-10.653,3.126,45.162,45.162,0,0,1-9.165.521,23.257,23.257,0,0,1-4.239-.605,16.912,16.912,0,0,0-2.233-.143m8.249-80.983a.349.349,0,0,0-.55.009c-1.16.139-2.318.338-3.483.406a28.461,28.461,0,0,0-8.1,1.815,39.959,39.959,0,0,0-12.049,6.938A40.42,40.42,0,0,0,89.715,68.569c-.257.814-.825,1.684-.208,2.73,3.973,6.731,7.88,13.5,11.809,20.257q6.929,11.915,13.846,23.835c.8,1.381,1.582,2.523,3.423,2.7,2.156.213,4.275.865,6.445.979a40.172,40.172,0,0,0,12.339-1.171,38.827,38.827,0,0,0,23.925-17.388,38.243,38.243,0,0,0,4.349-9.77,37.642,37.642,0,0,0,1.515-7.466,35.514,35.514,0,0,0,.033-5.8,45.9,45.9,0,0,0-1.322-8.4,37.765,37.765,0,0,0-6.03-12.621A38.258,38.258,0,0,0,144.056,43.64a39.457,39.457,0,0,0-17.407-3.613M12.878,60.365a41.012,41.012,0,0,0,.563,8.324,48.273,48.273,0,0,0,3.744,12.083,38.33,38.33,0,0,0,4.047,7.071,10.219,10.219,0,0,1,1.4,1.726c1.023,2.2,2.878,3.707,4.5,5.4,1.047,1.09,2.289,2,3.312,3.107,1.046,1.136,1.52,1.162,2.248-.176.03-.056.071-.107.1-.164a97.156,97.156,0,0,1,4.761-8.471c2.575-4.176,4.892-8.5,7.469-12.673,2.375-3.85,4.527-7.837,6.765-11.771.695-1.22,1.37-2.457,2.052-3.677.836-1.5,1.76-2.958,2.629-4.447a29.021,29.021,0,0,1,2.09-3.445,14.1,14.1,0,0,1,3.213-3.023c1.029-.675,2.35-.952,2.6-2.629a5.148,5.148,0,0,1,4.552-4.383,5.75,5.75,0,0,1,5.706,2.146,5,5,0,0,1,1.2,3.542c-.03.561-.216,1.19.421,1.646a15.09,15.09,0,0,1,4.171,5.058c2.081,3.661,4.209,7.3,6.324,10.938.136.233.215.593.584.542.338-.047.233-.423.3-.624a41.459,41.459,0,0,1,2.076-5,1.722,1.722,0,0,0-.024-1.773,4.774,4.774,0,0,1-.763-3.453c.763-2.873,2.461-5.152,6.506-4.859a1.835,1.835,0,0,0,1.662-.694,31.014,31.014,0,0,1,8.149-6.732c.789-.443.845-.97.517-1.729A49.6,49.6,0,0,0,95.12,26.432,47.46,47.46,0,0,0,71.782,13.638a53.757,53.757,0,0,0-8.71-1.167,48.243,48.243,0,0,0-9,.52,42.108,42.108,0,0,0-11.644,3.185C27.987,22.536,18.639,33.351,14.285,48.51c-.536,1.867-.812,3.78-1.19,5.672a32.368,32.368,0,0,0-.218,6.184M68.475,167.2v.016q24.658,0,49.316,0c2.271,0,4.542,0,6.812-.022a9.844,9.844,0,0,0,7.085-2.643c3.363-3.24,4.311-7.67,2.22-11.533-2.779-5.133-5.8-10.134-8.748-15.174-1.722-2.944-3.433-5.895-5.187-8.822-1.027-1.714-1.96-3.5-2.964-5.234-3.788-6.549-7.612-13.077-11.415-19.617-2.6-4.47-5.177-8.955-7.78-13.425q-5.711-9.806-11.445-19.6-4.515-7.734-9.025-15.469a10.064,10.064,0,0,0-11.4-4.478,10.733,10.733,0,0,0-6.254,5.3c-2.934,5.124-5.908,10.226-8.877,15.33q-5.127,8.816-10.27,17.622c-3.205,5.521-6.386,11.056-9.586,16.581-3.594,6.205-7.21,12.4-10.794,18.61C17.15,129.861,14,135,11.061,140.256c-2.311,4.132-4.805,8.163-7.139,12.283a8.954,8.954,0,0,0-.409,8.448,9.975,9.975,0,0,0,9.793,6.215h55.17M3.071,60.6a33.147,33.147,0,0,0,.187,3.821,61.228,61.228,0,0,0,.782,6.336A57.98,57.98,0,0,0,8.8,85.438a60.672,60.672,0,0,0,8.132,12.584,80.165,80.165,0,0,0,9.286,8.953c.648.559,1.026.486,1.44-.318.757-1.474,1.589-2.915,2.486-4.309.45-.7.376-1.116-.256-1.6a47.985,47.985,0,0,1-7.145-6.767,50.991,50.991,0,0,1-8.576-13.744,51.809,51.809,0,0,1-3.975-18.282,48.2,48.2,0,0,1,.743-9.794,49.041,49.041,0,0,1,7.006-18.446,55.3,55.3,0,0,1,10.27-11.8,49.447,49.447,0,0,1,9.217-6.464A48.52,48.52,0,0,1,58.356,9.788a52.677,52.677,0,0,1,14.836,1.406,53.676,53.676,0,0,1,8.2,2.738,46.8,46.8,0,0,1,13.87,8.894,51.54,51.54,0,0,1,7.509,8.414,37.424,37.424,0,0,1,5.305,9.917c.266.839.547.915,1.27.433a4.668,4.668,0,0,1,.677-.353,30.908,30.908,0,0,1,4.206-1.582c.557-.159.808-.448.54-1.051-.4-.9-.728-1.84-1.152-2.731A58.631,58.631,0,0,0,97.854,15.778,56.576,56.576,0,0,0,80.438,5.95,54.674,54.674,0,0,0,69.764,3.466,54.942,54.942,0,0,0,62,2.679c-2.763.006-5.508.323-8.255.573A50.851,50.851,0,0,0,45.83,4.817a55.882,55.882,0,0,0-9.47,3.527,63.4,63.4,0,0,0-10.788,6.489,46.972,46.972,0,0,0-8.477,8.112,48.073,48.073,0,0,0-4.862,6.7,62.924,62.924,0,0,0-3.928,7.4A65.606,65.606,0,0,0,5.259,45.14,64.381,64.381,0,0,0,3.071,60.6M69.853,45.834a2.605,2.605,0,0,0-2.7,1.572c-.122.206-.49.42-.3.624a1,1,0,0,0,.847.2,4.959,4.959,0,0,1,2.045.02,23.591,23.591,0,0,0,3.057.45c.522,0,.627-.168.4-.613-.707-1.394-1.069-2.264-3.354-2.257m24.166,8.433c.026-.32-.008-.334-.405-.238a3.569,3.569,0,0,0-2.241,2.879c0,.143-.062.341.126.41a.5.5,0,0,0,.578-.232c.477-.663.932-1.343,1.4-2.017.2-.285.389-.571.547-.8" transform="translate(0 0)" fill="#070708"/>
        <path id="Path_823570" data-name="Path 823570" d="M16.713,64.077a32.366,32.366,0,0,1,.219-6.184c.377-1.893.653-3.805,1.19-5.672,4.353-15.159,13.7-25.974,28.14-32.334A42.121,42.121,0,0,1,57.906,16.7a48.252,48.252,0,0,1,9-.521,53.919,53.919,0,0,1,8.709,1.167A47.472,47.472,0,0,1,98.957,30.142a49.619,49.619,0,0,1,10.632,15.795c.328.759.273,1.287-.517,1.729a31.017,31.017,0,0,0-8.149,6.732,1.837,1.837,0,0,1-1.662.695c-4.045-.293-5.742,1.985-6.5,4.858a4.773,4.773,0,0,0,.762,3.453,1.722,1.722,0,0,1,.025,1.774,41.461,41.461,0,0,0-2.076,5c-.069.2.036.576-.3.623-.369.052-.448-.309-.584-.542-2.115-3.641-4.243-7.276-6.324-10.937a15.092,15.092,0,0,0-4.171-5.058c-.638-.457-.451-1.085-.422-1.646a5,5,0,0,0-1.2-3.543,5.754,5.754,0,0,0-5.706-2.146,5.148,5.148,0,0,0-4.552,4.383c-.252,1.676-1.572,1.953-2.6,2.629A14.105,14.105,0,0,0,62.4,56.962a29.113,29.113,0,0,0-2.09,3.444c-.869,1.488-1.793,2.951-2.629,4.447-.683,1.22-1.358,2.457-2.052,3.677-2.238,3.933-4.39,7.921-6.765,11.77-2.576,4.175-4.894,8.5-7.469,12.673-1.7,2.752-3.342,5.553-4.762,8.471-.028.057-.068.108-.1.164-.728,1.338-1.2,1.312-2.248.176-1.023-1.11-2.265-2.016-3.312-3.106-1.625-1.692-3.48-3.2-4.5-5.4a10.161,10.161,0,0,0-1.4-1.726,38.327,38.327,0,0,1-4.046-7.071A48.242,48.242,0,0,1,17.276,72.4a41.119,41.119,0,0,1-.563-8.323m30.312-3.413c.407-4.007-3.355-8.381-8.454-8.2-4.53.156-7.65,3.64-7.849,8.182-.2,4.511,4.17,8.459,8.527,8.3a8.281,8.281,0,0,0,7.777-8.278m5.123-33.955c-2.681-.455-5.989,2.581-5.883,5.841a6.094,6.094,0,0,0,5.917,5.829,5.953,5.953,0,0,0,5.8-6.077,5.651,5.651,0,0,0-5.838-5.593m19.827,3.421a2.863,2.863,0,0,0-.652.1,11.577,11.577,0,0,0-6.586,6.49.806.806,0,0,0,.1.8,1.333,1.333,0,0,0,2.477-.2,9.267,9.267,0,0,1,2.619-3.36A9.45,9.45,0,0,1,72.438,32.6a1.227,1.227,0,0,0,.879-1.5,1.15,1.15,0,0,0-1.341-.969M93.114,41.482a2.488,2.488,0,0,0-.983.106c-2.837,1.061-4.665,3.246-6.176,5.706a1.415,1.415,0,0,0,.158,1.87c.842.673,1.57.5,2.167-.6A10.712,10.712,0,0,1,91.219,45a15.765,15.765,0,0,1,2.364-1.23,1.215,1.215,0,0,0,.765-1.467.982.982,0,0,0-1.234-.822m-38.908,12.7a17.281,17.281,0,0,0-.017-2,1.142,1.142,0,0,0-1.282-1.12c-.7.018-1.157.152-1.3,1.011a12.278,12.278,0,0,0,.625,6.268c.177.489.241,1.05.766,1.342a1.322,1.322,0,0,0,1.512-.132c.617-.445.44-1.094.32-1.655a16.038,16.038,0,0,1-.628-3.717M35.894,81.966c.1-.588-.307-.91-.771-1.142-.761-.38-1.551-.7-2.323-1.062a1.84,1.84,0,0,0-1.036-.092c-.65.081-.882.616-1.137,1.119s.257.562.444.8c.884,1.1,2.214,1.354,3.466,1.679.815.211,1.367-.387,1.356-1.3M34.3,44.357c1.377,0,1.735-.4,1.615-1.452a1.364,1.364,0,0,0-.9-1.036,12.2,12.2,0,0,0-2.74-1.033c-.708-.169-.977.346-1.367.742-.46.467-.059.8.171,1.064A7.789,7.789,0,0,0,34.3,44.357" transform="translate(-3.836 -3.71)" fill="#d5fff5"/>
        <path id="Path_823571" data-name="Path 823571" d="M69.266,182.377H14.1A9.974,9.974,0,0,1,4.3,176.161a8.952,8.952,0,0,1,.408-8.448c2.335-4.12,4.828-8.151,7.139-12.284,2.941-5.258,6.091-10.394,9.1-15.611,3.584-6.211,7.2-12.4,10.794-18.61,3.2-5.525,6.381-11.06,9.586-16.581Q46.453,95.808,51.6,87.006c2.968-5.1,5.942-10.206,8.877-15.33a10.73,10.73,0,0,1,6.254-5.3,10.064,10.064,0,0,1,11.4,4.479q4.525,7.727,9.025,15.469,5.722,9.8,11.446,19.6c2.6,4.47,5.18,8.953,7.779,13.425,3.8,6.54,7.628,13.067,11.415,19.617,1,1.736,1.936,3.52,2.964,5.234,1.754,2.927,3.465,5.878,5.188,8.822,2.948,5.04,5.969,10.041,8.748,15.173,2.092,3.864,1.144,8.294-2.22,11.534a9.843,9.843,0,0,1-7.084,2.643c-2.271.019-4.541.022-6.812.022q-24.658,0-49.317,0Zm1.657-9.358h52.284a8.115,8.115,0,0,0,.959-.015,1.444,1.444,0,0,0,1.233-2.151,24.393,24.393,0,0,0-1.408-2.683c-1.793-2.959-3.543-5.944-5.289-8.931-.9-1.546-1.7-3.168-2.65-4.671-1.624-2.57-3.112-5.217-4.668-7.824-2.354-3.943-4.536-7.989-6.83-11.968-2.79-4.842-5.621-9.659-8.43-14.489Q85.192,101.492,74.262,82.695c-1.059-1.821-2.1-3.651-3.178-5.464-.543-.915-1.364-1.219-2.06-.785a3.019,3.019,0,0,0-.863,1.015c-2.241,3.528-4.26,7.188-6.363,10.8Q56.33,97.641,50.86,107.024q-4.126,7.089-8.236,14.189c-2.42,4.165-4.818,8.343-7.29,12.477-.76,1.271-1.62,2.528-2.311,3.8-.627,1.152-1.223,2.436-1.893,3.546-2.159,3.577-4.146,7.254-6.33,10.814-.912,1.485-1.751,3.014-2.629,4.519-1.039,1.782-2.1,3.553-3.12,5.344-.628,1.1-1.171,2.265-1.839,3.326-1.17,1.859-2.3,3.736-3.339,5.666-.647,1.2.109,2.138,1.479,2.351a21.91,21.91,0,0,0,3.478-.039q26.046.006,52.093,0" transform="translate(-0.79 -15.174)" fill="#da0033"/>
        <path id="Path_823572" data-name="Path 823572" d="M153.307,51.984A39.45,39.45,0,0,1,170.714,55.6,38.255,38.255,0,0,1,186.5,68.418a37.78,37.78,0,0,1,6.03,12.621,45.916,45.916,0,0,1,1.322,8.4,35.512,35.512,0,0,1-.033,5.8A37.7,37.7,0,0,1,192.3,102.7a38.219,38.219,0,0,1-4.35,9.77,38.824,38.824,0,0,1-23.925,17.388,40.167,40.167,0,0,1-12.338,1.171c-2.171-.115-4.289-.766-6.445-.979-1.841-.181-2.626-1.324-3.423-2.7q-6.894-11.934-13.846-23.835c-3.929-6.757-7.837-13.526-11.809-20.257-.618-1.046-.049-1.916.208-2.73a40.42,40.42,0,0,1,12.748-19.374,39.981,39.981,0,0,1,12.049-6.938,28.472,28.472,0,0,1,8.1-1.815c1.165-.068,2.322-.267,3.483-.406l.55-.009m28.242,40.762.193-.025c.836-.077,1.138-.6,1.143-1.369a22.38,22.38,0,0,0-.182-2.368,28.881,28.881,0,0,0-1.595-7.267,28.3,28.3,0,0,0-11.142-13.992c-2.124-1.412-2.511-1.349-3.766.84q-3.88,6.766-7.769,13.526a1.035,1.035,0,0,1-1.334.514,9.689,9.689,0,0,0-5.453.025.784.784,0,0,1-1.09-.415c-.642-1.176-1.311-2.337-1.98-3.5-2.117-3.676-4.228-7.354-6.365-11.018-.631-1.081-1.274-1.212-2.375-.534a28.494,28.494,0,0,0-11.318,12.869,27.064,27.064,0,0,0-2.469,10.718c-.028,1.847.426,2.048,1.957,2.057,5.562.032,11.123-.012,16.685-.028l.193.035a.559.559,0,0,1,.39.484,8.871,8.871,0,0,0,2.8,5,.946.946,0,0,1,.195,1.4q-1.239,2.043-2.429,4.119c-1.973,3.426-3.952,6.848-5.89,10.293-.555.987-.375,1.555.527,2.1a28.49,28.49,0,0,0,12.183,3.76,23.55,23.55,0,0,0,6.413-.411,29.277,29.277,0,0,0,9.147-3.252c1.217-.685,1.331-1.173.644-2.414-.524-.949-1.064-1.888-1.605-2.827-2.182-3.784-4.339-7.583-6.579-11.333-.394-.66-.34-.926.177-1.445a9.5,9.5,0,0,0,2.352-3.539c.224-.631-.075-1.613.875-1.94l.086.023.075-.049,16.546.024.073.035.07-.043.619-.045" transform="translate(-26.657 -11.957)" fill="gold"/>
        <path id="Path_823573" data-name="Path 823573" d="M3.986,61.4A64.343,64.343,0,0,1,6.175,45.94,65.478,65.478,0,0,1,9.22,37.845a62.924,62.924,0,0,1,3.928-7.4,48.136,48.136,0,0,1,4.862-6.7,46.971,46.971,0,0,1,8.477-8.112A63.351,63.351,0,0,1,37.276,9.144a55.882,55.882,0,0,1,9.47-3.527,50.869,50.869,0,0,1,7.913-1.565c2.747-.249,5.492-.567,8.256-.573a54.943,54.943,0,0,1,7.764.787A54.681,54.681,0,0,1,81.354,6.751a56.581,56.581,0,0,1,17.415,9.827,58.622,58.622,0,0,1,15.763,20.095c.424.891.751,1.828,1.152,2.731.268.6.017.892-.54,1.051a30.947,30.947,0,0,0-4.206,1.582,4.692,4.692,0,0,0-.676.353c-.725.483-1,.407-1.271-.432a37.424,37.424,0,0,0-5.305-9.917,51.5,51.5,0,0,0-7.509-8.414,46.8,46.8,0,0,0-13.87-8.894,53.675,53.675,0,0,0-8.2-2.738,52.674,52.674,0,0,0-14.836-1.406,48.517,48.517,0,0,0-20.926,5.671,49.4,49.4,0,0,0-9.217,6.464,55.244,55.244,0,0,0-10.271,11.8,49.041,49.041,0,0,0-7.006,18.446,48.142,48.142,0,0,0-.742,9.794,51.791,51.791,0,0,0,3.974,18.282A51.022,51.022,0,0,0,23.66,94.787a47.953,47.953,0,0,0,7.145,6.767c.632.479.706.9.256,1.6-.9,1.394-1.729,2.835-2.487,4.308-.413.8-.792.878-1.44.319a80.227,80.227,0,0,1-9.286-8.953A60.637,60.637,0,0,1,9.718,86.238,57.945,57.945,0,0,1,4.957,71.554a60.98,60.98,0,0,1-.783-6.335A33.147,33.147,0,0,1,3.986,61.4" transform="translate(-0.915 -0.8)" fill="#272727"/>
        <path id="Path_823574" data-name="Path 823574" d="M89.81,59.515c2.285-.006,2.647.863,3.354,2.258.226.446.121.614-.4.614a23.86,23.86,0,0,1-3.057-.45,4.929,4.929,0,0,0-2.044-.021,1,1,0,0,1-.848-.2c-.192-.2.176-.418.3-.623a2.606,2.606,0,0,1,2.7-1.573" transform="translate(-19.957 -13.682)" fill="#f6f8fa"/>
        <path id="Path_823575" data-name="Path 823575" d="M121.313,70.391c-.158.232-.351.517-.547.8-.463.674-.918,1.354-1.4,2.017a.5.5,0,0,1-.578.232c-.188-.069-.129-.266-.126-.41a3.569,3.569,0,0,1,2.241-2.879c.4-.1.431-.082.405.238" transform="translate(-27.294 -16.125)" fill="#f6f8fa"/>
        <path id="Path_823576" data-name="Path 823576" d="M164.321,51.945l-.55.008a.349.349,0,0,1,.55-.008" transform="translate(-37.671 -11.919)" fill="#272727"/>
        <path id="Path_823577" data-name="Path 823577" d="M51.221,71.514a8.281,8.281,0,0,1-7.777,8.278c-4.357.159-8.724-3.789-8.527-8.3.2-4.542,3.319-8.025,7.849-8.182,5.1-.177,8.862,4.2,8.454,8.2m-8.457,5.565a5.59,5.59,0,0,0,5.945-5.355A5.424,5.424,0,0,0,42.889,66a5.543,5.543,0,0,0-5.272,5.182c-.262,3.152,2.461,5.953,5.147,5.893" transform="translate(-8.03 -14.561)" fill="#070708"/>
        <path id="Path_823578" data-name="Path 823578" d="M60.989,29.853a5.651,5.651,0,0,1,5.837,5.594,5.952,5.952,0,0,1-5.8,6.077,6.093,6.093,0,0,1-5.918-5.829c-.106-3.259,3.2-6.3,5.883-5.841m3.119,5.8a3.03,3.03,0,0,0-3.2-3.3,3.25,3.25,0,0,0-.142,6.488,3.137,3.137,0,0,0,3.339-3.192" transform="translate(-12.675 -6.857)" fill="#070708"/>
        <path id="Path_823579" data-name="Path 823579" d="M86.315,34.307a1.151,1.151,0,0,1,1.341.97,1.227,1.227,0,0,1-.879,1.5,9.472,9.472,0,0,0-2.508,1.361,9.273,9.273,0,0,0-2.619,3.36,1.333,1.333,0,0,1-2.477.2.807.807,0,0,1-.1-.8,11.58,11.58,0,0,1,6.586-6.491,2.863,2.863,0,0,1,.652-.1" transform="translate(-18.174 -7.889)" fill="#070708"/>
        <path id="Path_823580" data-name="Path 823580" d="M113.726,49.049a.983.983,0,0,1,1.234.823,1.215,1.215,0,0,1-.764,1.466,15.834,15.834,0,0,0-2.364,1.23,10.7,10.7,0,0,0-2.941,3.567c-.6,1.091-1.325,1.268-2.167.6a1.414,1.414,0,0,1-.157-1.87c1.511-2.46,3.338-4.645,6.176-5.707a2.5,2.5,0,0,1,.982-.106" transform="translate(-24.448 -11.278)" fill="#070708"/>
        <path id="Path_823581" data-name="Path 823581" d="M64.593,64.616a16.065,16.065,0,0,0,.628,3.716c.121.561.3,1.21-.319,1.655a1.322,1.322,0,0,1-1.512.132c-.526-.292-.589-.853-.767-1.342A12.278,12.278,0,0,1,62,62.509c.139-.859.592-.993,1.3-1.011a1.143,1.143,0,0,1,1.283,1.12,17.3,17.3,0,0,1,.016,2" transform="translate(-14.225 -14.146)" fill="#070708"/>
        <path id="Path_823582" data-name="Path 823582" d="M40.042,100.938c.011.912-.541,1.511-1.357,1.3-1.253-.325-2.583-.574-3.466-1.679-.188-.234-.693-.307-.445-.8s.488-1.039,1.138-1.119a1.84,1.84,0,0,1,1.036.091c.772.359,1.562.681,2.323,1.063.464.232.873.553.771,1.141" transform="translate(-7.984 -22.683)" fill="#070708"/>
        <path id="Path_823583" data-name="Path 823583" d="M38.484,51.729a7.789,7.789,0,0,1-3.219-1.714c-.229-.26-.631-.6-.171-1.064.39-.4.659-.911,1.367-.742a12.2,12.2,0,0,1,2.74,1.033,1.364,1.364,0,0,1,.9,1.036c.12,1.048-.237,1.45-1.615,1.452" transform="translate(-8.024 -11.081)" fill="#070708"/>
        <path id="Path_823584" data-name="Path 823584" d="M73.971,176.092q-26.047,0-52.093,0a21.909,21.909,0,0,1-3.478.04c-1.37-.213-2.127-1.149-1.48-2.352,1.038-1.93,2.171-3.808,3.34-5.665.668-1.062,1.21-2.226,1.839-3.326,1.023-1.791,2.081-3.562,3.12-5.344.878-1.505,1.717-3.034,2.629-4.519,2.184-3.56,4.171-7.237,6.329-10.814.67-1.11,1.266-2.394,1.893-3.547.691-1.27,1.552-2.528,2.311-3.8,2.472-4.134,4.869-8.313,7.29-12.478q4.122-7.092,8.236-14.189,5.462-9.386,10.938-18.766c2.1-3.61,4.122-7.269,6.363-10.8a3,3,0,0,1,.863-1.015c.7-.435,1.517-.13,2.06.785,1.074,1.813,2.119,3.642,3.178,5.464q10.932,18.8,21.864,37.592c2.81,4.829,5.641,9.647,8.43,14.488,2.293,3.98,4.476,8.025,6.829,11.969,1.555,2.606,3.044,5.254,4.668,7.824.949,1.5,1.746,3.124,2.65,4.671,1.746,2.987,3.495,5.972,5.289,8.93a24.522,24.522,0,0,1,1.408,2.683,1.444,1.444,0,0,1-1.234,2.151,8.285,8.285,0,0,1-.959.015H73.971m-53.238-2.66.1.222.1-.222c.191-.005.383-.015.574-.015l101.675-.005h1.828c-.407-.782-.746-1.471-1.119-2.143-.653-1.177-1.521-2.246-2.111-3.433-1.459-2.934-3.221-5.685-4.9-8.484-.882-1.471-1.669-3-2.586-4.451-.879-1.394-1.588-2.93-2.422-4.373-1.473-2.552-3.14-5-4.513-7.6-1.9-3.608-4.032-7.081-6.066-10.61-4.218-7.318-8.509-14.593-12.754-21.9Q80.788,97.08,73.061,83.726c-.229-.395-.341-.616-.743-.056-.86,1.2-1.448,2.545-2.226,3.788-.97,1.55-1.675,3.267-2.653,4.812-1.668,2.636-3.189,5.357-4.76,8.048-3.3,5.656-6.526,11.358-9.818,17.02-3.52,6.052-7.088,12.076-10.621,18.12-3.233,5.532-6.426,11.085-9.673,16.608-4.005,6.81-7.841,13.721-11.97,20.46-.194.317-.406.679.136.906" transform="translate(-3.838 -18.246)" fill="#070708"/>
        <path id="Path_823585" data-name="Path 823585" d="M147.722,97.191c-5.562.015-11.123.06-16.685.028-1.531-.009-1.985-.21-1.957-2.057a27.063,27.063,0,0,1,2.469-10.718,28.5,28.5,0,0,1,11.319-12.868c1.1-.679,1.745-.548,2.375.534,2.137,3.664,4.248,7.342,6.365,11.018.668,1.161,1.338,2.322,1.98,3.5a.785.785,0,0,0,1.09.416,9.682,9.682,0,0,1,5.453-.026,1.034,1.034,0,0,0,1.334-.514q3.892-6.758,7.769-13.526c1.255-2.189,1.642-2.252,3.766-.839a28.294,28.294,0,0,1,11.142,13.992,28.831,28.831,0,0,1,1.594,7.267,22.147,22.147,0,0,1,.183,2.368c-.005.772-.307,1.292-1.143,1.369l-.193.025-.619.045c-.052-.085-.1-.079-.143.008l-16.546-.024c-.068-.078-.121-.062-.161.027-.95.326-.651,1.309-.875,1.94a9.488,9.488,0,0,1-2.352,3.539c-.517.519-.571.786-.177,1.445,2.239,3.75,4.4,7.549,6.579,11.333.541.939,1.081,1.879,1.605,2.827.686,1.24.571,1.729-.645,2.414a29.227,29.227,0,0,1-9.147,3.252,23.584,23.584,0,0,1-6.414.412,28.5,28.5,0,0,1-12.182-3.76c-.9-.543-1.083-1.11-.527-2.1,1.938-3.446,3.918-6.868,5.89-10.294q1.193-2.072,2.429-4.119a.946.946,0,0,0-.195-1.4,8.871,8.871,0,0,1-2.8-5,.561.561,0,0,0-.39-.484c-.048-.1-.112-.119-.194-.035m-7.61-2.595c2.334,0,4.668-.03,7,.018a1.008,1.008,0,0,0,1.2-.882,9.4,9.4,0,0,1,2.808-4.7.853.853,0,0,0,.2-1.251c-.193-.292-.341-.613-.515-.918q-3.323-5.816-6.64-11.634c-.524-.924-.637-1-1.506-.392a24.362,24.362,0,0,0-6.626,6.926,27.782,27.782,0,0,0-4.216,11.369c-.169,1.237,0,1.461,1.29,1.464,2.334.006,4.668,0,7,0m34.953,0c2.4,0,4.794-.015,7.191.011.674.007,1.07-.166.953-.914a40.1,40.1,0,0,0-.671-4.038,26.009,26.009,0,0,0-10.222-14.893c-.648-.467-1.037-.325-1.378.306q-3.476,6.439-7.235,12.719a.666.666,0,0,0,.133.994,8.9,8.9,0,0,1,2.844,4.874,1.112,1.112,0,0,0,1.29.956c2.365-.039,4.73-.015,7.095-.015m-16.982,27.026c.352-.035.985-.1,1.618-.157a31.2,31.2,0,0,0,8.855-2.25c.592-.236.679-.541.346-1.076-.656-1.056-1.28-2.133-1.9-3.212-1.766-3.068-3.545-6.13-5.27-9.222a1.272,1.272,0,0,0-1.746-.721,7.963,7.963,0,0,1-4.616.137c-1.512-.438-1.485-.445-2.251.946-2.2,4-4.45,7.963-6.83,11.855-.423.693-.288.993.39,1.3a28.776,28.776,0,0,0,11.407,2.4m5.96-25.58a6.6,6.6,0,1,0-13.2-.049,6.584,6.584,0,0,0,6.78,6.488c3.342.038,6.67-2.952,6.424-6.439" transform="translate(-29.691 -16.368)" fill="#070708"/>
        <path id="Path_823586" data-name="Path 823586" d="M201.165,104.915l.193-.025-.193.025" transform="translate(-46.273 -24.127)" fill="#272727"/>
        <path id="Path_823587" data-name="Path 823587" d="M200.174,104.972c.043-.087.091-.092.143-.008l-.069.043Z" transform="translate(-46.045 -24.13)" fill="#272727"/>
        <path id="Path_823588" data-name="Path 823588" d="M178.477,104.972c.04-.089.092-.1.161-.027l-.075.05Z" transform="translate(-41.054 -24.128)" fill="#272727"/>
        <path id="Path_823589" data-name="Path 823589" d="M153.291,104.951c.082-.084.145-.065.194.035l-.194-.035" transform="translate(-35.261 -24.129)" fill="#272727"/>
        <path id="Path_823590" data-name="Path 823590" d="M43.567,77.884c-2.686.06-5.408-2.742-5.147-5.893a5.543,5.543,0,0,1,5.272-5.182,5.424,5.424,0,0,1,5.819,5.72,5.59,5.59,0,0,1-5.945,5.355" transform="translate(-8.834 -15.368)" fill="#f6f8fa"/>
        <path id="Path_823591" data-name="Path 823591" d="M64.906,36.417a3.167,3.167,0,1,1-6.334.03,3.1,3.1,0,0,1,3.136-3.326,3.03,3.03,0,0,1,3.2,3.3" transform="translate(-13.473 -7.619)" fill="#f6f8fa"/>
        <path id="Path_823592" data-name="Path 823592" d="M21.838,174.63c-.542-.227-.33-.589-.136-.906,4.129-6.739,7.964-13.649,11.969-20.461,3.248-5.522,6.44-11.076,9.673-16.608,3.533-6.044,7.1-12.068,10.621-18.121,3.292-5.662,6.516-11.363,9.818-17.02,1.572-2.691,3.092-5.411,4.761-8.049.977-1.545,1.682-3.262,2.653-4.812.778-1.242,1.365-2.589,2.225-3.787.4-.56.514-.339.743.056Q81.9,98.271,89.65,111.616c4.245,7.3,8.536,14.577,12.754,21.9,2.034,3.529,4.163,7,6.066,10.61,1.373,2.6,3.04,5.05,4.514,7.6.832,1.443,1.541,2.978,2.421,4.373.918,1.456,1.7,2.981,2.587,4.451,1.679,2.8,3.441,5.55,4.9,8.484.59,1.187,1.458,2.256,2.111,3.433.373.671.712,1.361,1.119,2.143h-1.829l-101.675.005c-.192,0-.383.01-.574.015h-.2m46.3-15.191v.215c0,2.523-.032,5.047,0,7.57.017,1.545.2,1.721,1.764,1.749,2.492.045,4.985.036,7.478.049,1.678.008,2.154-.44,2.169-2.127.019-2.3,0-4.6.007-6.9,0-1.968-.417-2.429-2.38-2.41-2.422.024-4.843-.1-7.267.11-1.582.135-1.657.112-1.767,1.744M73.753,113v0c-2.557,0-5.114-.014-7.671.007-1.037.008-1.451.435-1.453,1.383,0,1.041.15,2.08.25,3.107.079.818.006,1.649.156,2.445a39.191,39.191,0,0,1,.705,6.244c.049,1.962.28,3.9.491,5.835.073.669-.191,1.325.06,1.962a3.6,3.6,0,0,1,.249,1.843,8.933,8.933,0,0,0,.191,3.032,32.254,32.254,0,0,1,.541,4.914c.154,2.7.728,5.369.634,8.09a1.779,1.779,0,0,0,1.709,1.627c2.685.009,5.37-.014,8.055.012,1.275.012,1.887-.613,1.9-1.706.028-2.6.583-5.151.635-7.748.032-1.595.373-3.166.422-4.774.032-1.081.333-2.174.354-3.275.033-1.674.266-3.334.42-4.993q.273-2.96.521-5.924c.126-1.508.278-3.013.425-4.518.181-1.849.447-3.694.529-5.547.078-1.748-.271-2.017-2.026-2.019q-3.548,0-7.1,0" transform="translate(-4.944 -19.444)" fill="#f6f8fa"/>
        <path id="Path_823593" data-name="Path 823593" d="M21.941,201.546h.2l-.1.222-.1-.222" transform="translate(-5.047 -46.36)" fill="#272727"/>
        <path id="Path_823594" data-name="Path 823594" d="M140.913,95.581c-2.334,0-4.668,0-7,0-1.288,0-1.459-.227-1.29-1.464a27.781,27.781,0,0,1,4.215-11.369,24.364,24.364,0,0,1,6.626-6.926c.869-.609.982-.533,1.507.391,2.2,3.885,4.425,7.758,6.639,11.635.174.3.322.626.515.918a.852.852,0,0,1-.2,1.251,9.392,9.392,0,0,0-2.807,4.7,1.01,1.01,0,0,1-1.2.882c-2.333-.049-4.668-.018-7-.016" transform="translate(-30.494 -17.35)" fill="#272727"/>
        <path id="Path_823595" data-name="Path 823595" d="M185.36,95.594c-2.365,0-4.73-.025-7.095.015a1.111,1.111,0,0,1-1.29-.956,8.9,8.9,0,0,0-2.844-4.874.666.666,0,0,1-.133-.994q3.744-6.288,7.235-12.719c.34-.631.729-.773,1.377-.306a26,26,0,0,1,10.222,14.893,40.056,40.056,0,0,1,.671,4.037c.117.748-.279.921-.953.914-2.4-.026-4.794-.01-7.191-.01" transform="translate(-39.987 -17.363)" fill="#272727"/>
        <path id="Path_823596" data-name="Path 823596" d="M163.15,131.694a28.759,28.759,0,0,1-11.406-2.4c-.679-.31-.815-.609-.391-1.3,2.38-3.891,4.631-7.859,6.83-11.855.766-1.391.739-1.385,2.251-.947a7.957,7.957,0,0,0,4.616-.136,1.272,1.272,0,0,1,1.746.721c1.726,3.092,3.5,6.153,5.27,9.222.621,1.079,1.245,2.155,1.9,3.212.333.536.247.84-.346,1.076a31.194,31.194,0,0,1-8.855,2.25c-.633.055-1.266.122-1.618.156" transform="translate(-34.759 -26.437)" fill="#272727"/>
        <path id="Path_823597" data-name="Path 823597" d="M170.544,101.445c.246,3.487-3.082,6.478-6.424,6.439a6.584,6.584,0,0,1-6.78-6.488,6.6,6.6,0,1,1,13.2.049" transform="translate(-36.192 -21.768)" fill="#272727"/>
        <path id="Path_823598" data-name="Path 823598" d="M86.639,121.511q3.548,0,7.1,0c1.755,0,2.1.27,2.026,2.019-.082,1.853-.349,3.7-.529,5.547-.147,1.505-.3,3.011-.426,4.518q-.247,2.964-.521,5.924c-.152,1.659-.387,3.319-.419,4.993-.022,1.1-.322,2.194-.355,3.275-.048,1.608-.39,3.179-.421,4.774-.052,2.6-.607,5.146-.636,7.747-.012,1.093-.624,1.718-1.9,1.706-2.685-.025-5.37,0-8.055-.012a1.779,1.779,0,0,1-1.709-1.627c.093-2.721-.48-5.388-.635-8.09a32.244,32.244,0,0,0-.541-4.914,8.958,8.958,0,0,1-.19-3.033,3.617,3.617,0,0,0-.249-1.843c-.251-.637.013-1.294-.06-1.962-.213-1.933-.444-3.873-.492-5.835a39.189,39.189,0,0,0-.7-6.244c-.149-.8-.076-1.628-.156-2.445-.1-1.027-.251-2.066-.249-3.107,0-.949.415-1.374,1.453-1.383,2.557-.021,5.114-.007,7.671-.007v0m-5.9,2.627c-.146-.112-.249-.1-.291.1a6.933,6.933,0,0,0-.029.952c.285,2.706.328,5.426.713,8.131.413,2.9.3,5.873.832,8.774.25,1.361.075,2.74.216,4.1.224,2.167.645,4.317.7,6.5.052,1.906.32,3.786.5,5.677.069.721.345.987,1.086.965,1.5-.046,3-.037,4.5.018.709.025,1.006-.242,1-.918,0-1.492.258-2.961.379-4.44.233-2.864.434-5.727.768-8.584.341-2.917.33-5.873.821-8.778.215-1.27.069-2.553.19-3.82.239-2.494.75-4.958.756-7.48,0-.8-.151-1.134-1.039-1.13-3.705.017-7.411-.037-11.116-.065" transform="translate(-17.83 -27.95)" fill="#070708"/>
        <path id="Path_823599" data-name="Path 823599" d="M82.07,181.259c.11-1.632.185-1.61,1.767-1.744,2.424-.206,4.845-.086,7.267-.11,1.963-.019,2.383.441,2.38,2.41,0,2.3.012,4.6-.008,6.9-.014,1.688-.49,2.136-2.169,2.127-2.492-.013-4.985,0-7.477-.049-1.568-.028-1.747-.2-1.764-1.749-.028-2.523,0-5.047,0-7.571l.24-.106-.24-.108m7.221.926a1.156,1.156,0,0,0-1.113-.037h-.407l-.176,0-.987.013a2.3,2.3,0,0,0-1.485-.045c-.356.063-.423.3-.421.624.012,1.655.028,3.311,0,4.966-.011.6.29.662.769.657,1.56-.018,3.12-.031,4.679,0,.542.012.722-.142.707-.69-.034-1.24-.009-2.482-.009-3.724,0-1.653,0-1.653-1.556-1.771" transform="translate(-18.874 -41.264)" fill="#070708"/>
        <path id="Path_823600" data-name="Path 823600" d="M82.075,181.817l.24.107-.24.107v-.214" transform="translate(-18.879 -41.822)" fill="#272727"/>
        <path id="Path_823601" data-name="Path 823601" d="M81.6,124.923c3.705.028,7.411.082,11.116.065.889,0,1.042.329,1.039,1.13-.006,2.522-.517,4.986-.756,7.48-.121,1.267.025,2.55-.19,3.82-.491,2.905-.48,5.861-.821,8.778-.335,2.857-.535,5.72-.768,8.584-.121,1.478-.383,2.947-.379,4.44,0,.676-.3.943-1,.918-1.5-.055-3-.064-4.5-.018-.741.022-1.016-.243-1.086-.965-.182-1.891-.45-3.771-.5-5.677-.059-2.181-.48-4.331-.7-6.5-.141-1.361.034-2.74-.216-4.1-.533-2.9-.418-5.87-.832-8.774-.385-2.7-.428-5.425-.713-8.131a7.057,7.057,0,0,1,.028-.952l.292-.1" transform="translate(-18.695 -28.735)" fill="#da0033"/>
        <path id="Path_823602" data-name="Path 823602" d="M81.616,124.9l-.292.1c.042-.2.146-.211.292-.1" transform="translate(-18.706 -28.714)" fill="#272727"/>
        <path id="Path_823603" data-name="Path 823603" d="M88.562,182.962h.407l1.113.037c1.557.118,1.557.118,1.556,1.771,0,1.241-.025,2.483.009,3.724.015.547-.165.7-.707.69-1.559-.035-3.119-.022-4.679,0-.479.005-.78-.055-.769-.657.029-1.655.013-3.31,0-4.966,0-.323.064-.561.42-.624a4.356,4.356,0,0,0,1.485.045l.987-.013.089.027Z" transform="translate(-19.665 -42.079)" fill="#da0033"/>
        <path id="Path_823604" data-name="Path 823604" d="M87.525,182.949a4.37,4.37,0,0,1-1.485-.045,2.287,2.287,0,0,1,1.485.045" transform="translate(-19.791 -42.049)" fill="#272727"/>
        <path id="Path_823605" data-name="Path 823605" d="M91.12,182.971l-1.113-.037a1.156,1.156,0,0,1,1.113.037" transform="translate(-20.704 -42.05)" fill="#272727"/>
        <path id="Path_823606" data-name="Path 823606" d="M89.427,182.971,89.34,183l-.089-.027.176,0" transform="translate(-20.53 -42.088)" fill="#272727"/>
      </g>
    </g>
  </g>
</svg>
