<svg xmlns="http://www.w3.org/2000/svg" xmlns:xlink="http://www.w3.org/1999/xlink" width="503.023" height="543.646" viewBox="0 0 503.023 543.646">
  <defs>
    <linearGradient id="linear-gradient" x1="0.5" x2="0.5" y2="1" gradientUnits="objectBoundingBox">
      <stop offset="0" stop-color="#defff8"/>
      <stop offset="0.803" stop-color="#eaf5ff"/>
      <stop offset="1" stop-color="#f0feff"/>
    </linearGradient>
    <clipPath id="clip-path">
      <rect id="Rectangle_378215" data-name="Rectangle 378215" width="155" height="154.914" fill="none"/>
    </clipPath>
  </defs>
  <g id="Group_1074217" data-name="Group 1074217" transform="translate(8906 9479.755)">
    <g id="Group_1072963" data-name="Group 1072963" transform="translate(-8402.977 -8936.109) rotate(180)">
      <rect id="Rectangle_376022" data-name="Rectangle 376022" width="503.023" height="543.646" transform="translate(0)" fill="url(#linear-gradient)"/>
    </g>
    <g id="Group_1073935" data-name="Group 1073935" transform="translate(-8741 -9231.441)">
      <path id="Path_824447" data-name="Path 824447" d="M20,0H170a20,20,0,0,1,20,20V61a20,20,0,0,1-20,20H20A20,20,0,0,1,0,61V20A20,20,0,0,1,20,0Z" transform="translate(-126 -32)" fill="#ffae7e"/>
      <path id="Path_824448" data-name="Path 824448" d="M20,0H170a20,20,0,0,1,20,20V61a20,20,0,0,1-20,20H20A20,20,0,0,1,0,61V20A20,20,0,0,1,20,0Z" transform="translate(88 66)" fill="#f1d8ff"/>
      <path id="Path_824449" data-name="Path 824449" d="M20,0H170a20,20,0,0,1,20,20V61a20,20,0,0,1-20,20H20A20,20,0,0,1,0,61V20A20,20,0,0,1,20,0Z" transform="translate(-26 164)" fill="#ffae7e"/>
      <path id="Path_824450" data-name="Path 824450" d="M20,0H170a20,20,0,0,1,20,20V61a20,20,0,0,1-20,20H20A20,20,0,0,1,0,61V20A20,20,0,0,1,20,0Z" transform="translate(88 -32)" fill="#e6e7ee"/>
      <path id="Path_824451" data-name="Path 824451" d="M20,0H170a20,20,0,0,1,20,20V61a20,20,0,0,1-20,20H20A20,20,0,0,1,0,61V20A20,20,0,0,1,20,0Z" transform="translate(-126 66)" fill="#c1e29a"/>
      <path id="Path_824452" data-name="Path 824452" d="M3.359-4.008V0H1.016V-11.375H5.453a5.134,5.134,0,0,1,2.254.469A3.454,3.454,0,0,1,9.2-9.574a3.714,3.714,0,0,1,.523,1.965A3.266,3.266,0,0,1,8.582-4.973a4.767,4.767,0,0,1-3.168.965Zm0-1.9H5.453a2.059,2.059,0,0,0,1.418-.437,1.591,1.591,0,0,0,.488-1.25,1.876,1.876,0,0,0-.492-1.352,1.839,1.839,0,0,0-1.359-.531H3.359ZM16.25-.859A2.831,2.831,0,0,1,13.938.156a2.67,2.67,0,0,1-2.074-.781,3.335,3.335,0,0,1-.73-2.289V-8.453h2.258v5.467q0,1.322,1.2,1.322a1.63,1.63,0,0,0,1.578-.8V-8.453h2.266V0H16.313Zm5.969-7.594.07.977a2.951,2.951,0,0,1,2.43-1.133,2.453,2.453,0,0,1,2,.789,3.682,3.682,0,0,1,.672,2.359V0H25.133V-5.406a1.465,1.465,0,0,0-.312-1.043,1.4,1.4,0,0,0-1.039-.324,1.553,1.553,0,0,0-1.43.813V0H20.094V-8.453ZM31.8-10.531v2.078H33.25V-6.8H31.8v4.219a1.007,1.007,0,0,0,.18.672.9.9,0,0,0,.688.2,3.6,3.6,0,0,0,.664-.055V-.047a4.648,4.648,0,0,1-1.367.2,2.156,2.156,0,0,1-2.422-2.4V-6.8H28.313V-8.453h1.234v-2.078ZM33.922-4.3a5.013,5.013,0,0,1,.484-2.242A3.546,3.546,0,0,1,35.8-8.07a4.069,4.069,0,0,1,2.113-.539,3.849,3.849,0,0,1,2.793,1.047,4.2,4.2,0,0,1,1.207,2.844l.016.578A4.418,4.418,0,0,1,40.844-1.02,3.775,3.775,0,0,1,37.93.156a3.793,3.793,0,0,1-2.918-1.172A4.5,4.5,0,0,1,33.922-4.2Zm2.258.16A3.16,3.16,0,0,0,36.633-2.3a1.5,1.5,0,0,0,1.3.638,1.5,1.5,0,0,0,1.281-.63,3.457,3.457,0,0,0,.461-2.015,3.128,3.128,0,0,0-.461-1.831,1.5,1.5,0,0,0-1.3-.649,1.474,1.474,0,0,0-1.281.646A3.516,3.516,0,0,0,36.18-4.144Zm10.773-.145a5.094,5.094,0,0,1,.887-3.148,2.877,2.877,0,0,1,2.426-1.172,2.589,2.589,0,0,1,2.039.922V-12H54.57V0H52.531l-.109-.9A2.657,2.657,0,0,1,50.25.156,2.869,2.869,0,0,1,47.855-1.02,5.258,5.258,0,0,1,46.953-4.289Zm2.258.168A3.337,3.337,0,0,0,49.625-2.3a1.349,1.349,0,0,0,1.2.634A1.511,1.511,0,0,0,52.3-2.548V-5.889a1.489,1.489,0,0,0-1.461-.884Q49.211-6.773,49.211-4.121Zm11,4.277A4.15,4.15,0,0,1,57.184-.984a4.054,4.054,0,0,1-1.168-3.039v-.219a5.106,5.106,0,0,1,.492-2.277A3.612,3.612,0,0,1,57.9-8.066a3.914,3.914,0,0,1,2.059-.543,3.508,3.508,0,0,1,2.73,1.094,4.444,4.444,0,0,1,1,3.1v.922H58.3a2.1,2.1,0,0,0,.66,1.328,2,2,0,0,0,1.395.5A2.437,2.437,0,0,0,62.4-2.609l1.109,1.242A3.389,3.389,0,0,1,62.133-.246,4.511,4.511,0,0,1,60.211.156Zm-.258-6.945a1.411,1.411,0,0,0-1.09.455,2.357,2.357,0,0,0-.535,1.3h3.141v-.181a1.681,1.681,0,0,0-.406-1.165A1.456,1.456,0,0,0,59.953-6.789ZM69.57,0V-6.8H68.313V-8.453H69.57v-.719a2.918,2.918,0,0,1,.816-2.207,3.162,3.162,0,0,1,2.285-.785,5.278,5.278,0,0,1,1.148.156l-.023,1.75a2.878,2.878,0,0,0-.687-.07q-1.273,0-1.273,1.2v.68h1.68V-6.8h-1.68V0ZM79.75-.859A2.831,2.831,0,0,1,77.438.156a2.67,2.67,0,0,1-2.074-.781,3.335,3.335,0,0,1-.73-2.289V-8.453h2.258v5.467q0,1.322,1.2,1.322a1.63,1.63,0,0,0,1.578-.8V-8.453h2.266V0H79.813Zm8.469-1.477a.727.727,0,0,0-.41-.652,4.659,4.659,0,0,0-1.316-.426q-3.016-.633-3.016-2.562a2.323,2.323,0,0,1,.934-1.879,3.766,3.766,0,0,1,2.441-.754,4.053,4.053,0,0,1,2.574.758,2.388,2.388,0,0,1,.965,1.969H88.133a1.092,1.092,0,0,0-.312-.8A1.322,1.322,0,0,0,86.844-7a1.351,1.351,0,0,0-.883.258.814.814,0,0,0-.312.656A.7.7,0,0,0,86-5.48a3.657,3.657,0,0,0,1.2.4,9.8,9.8,0,0,1,1.422.379A2.336,2.336,0,0,1,90.414-2.43a2.2,2.2,0,0,1-.992,1.871,4.28,4.28,0,0,1-2.562.715,4.47,4.47,0,0,1-1.887-.379A3.166,3.166,0,0,1,83.68-1.262a2.414,2.414,0,0,1-.469-1.426h2.141a1.179,1.179,0,0,0,.445.922,1.766,1.766,0,0,0,1.109.32,1.635,1.635,0,0,0,.98-.246A.766.766,0,0,0,88.219-2.336ZM94.25,0H91.984V-8.453H94.25Zm-2.4-10.641a1.112,1.112,0,0,1,.34-.836,1.277,1.277,0,0,1,.926-.328,1.28,1.28,0,0,1,.922.328,1.105,1.105,0,0,1,.344.836,1.108,1.108,0,0,1-.348.844,1.283,1.283,0,0,1-.918.328A1.283,1.283,0,0,1,92.2-9.8,1.108,1.108,0,0,1,91.852-10.641ZM95.758-4.3a5.013,5.013,0,0,1,.484-2.242A3.546,3.546,0,0,1,97.637-8.07a4.069,4.069,0,0,1,2.113-.539,3.849,3.849,0,0,1,2.793,1.047,4.2,4.2,0,0,1,1.207,2.844l.016.578A4.418,4.418,0,0,1,102.68-1.02,3.775,3.775,0,0,1,99.766.156a3.793,3.793,0,0,1-2.918-1.172A4.5,4.5,0,0,1,95.758-4.2Zm2.258.16A3.16,3.16,0,0,0,98.469-2.3a1.5,1.5,0,0,0,1.3.638,1.5,1.5,0,0,0,1.281-.63,3.457,3.457,0,0,0,.461-2.015,3.128,3.128,0,0,0-.461-1.831,1.5,1.5,0,0,0-1.3-.649,1.474,1.474,0,0,0-1.281.646A3.516,3.516,0,0,0,98.016-4.144ZM100.2-12h2.461l-2.164,2.422H98.656Zm7.039,3.547.07.977a2.951,2.951,0,0,1,2.43-1.133,2.453,2.453,0,0,1,2,.789,3.682,3.682,0,0,1,.672,2.359V0h-2.258V-5.406a1.465,1.465,0,0,0-.312-1.043,1.4,1.4,0,0,0-1.039-.324,1.553,1.553,0,0,0-1.43.813V0h-2.258V-8.453Z" transform="translate(-87 14)"/>
      <path id="Path_824453" data-name="Path 824453" d="M3.359-4.008V0H1.016V-11.375H5.453a5.134,5.134,0,0,1,2.254.469A3.454,3.454,0,0,1,9.2-9.574a3.714,3.714,0,0,1,.523,1.965A3.266,3.266,0,0,1,8.582-4.973a4.767,4.767,0,0,1-3.168.965Zm0-1.9H5.453a2.059,2.059,0,0,0,1.418-.437,1.591,1.591,0,0,0,.488-1.25,1.876,1.876,0,0,0-.492-1.352,1.839,1.839,0,0,0-1.359-.531H3.359Zm12.578-.43a6.134,6.134,0,0,0-.812-.062,1.654,1.654,0,0,0-1.68.867V0H11.188V-8.453H13.32l.063,1.008a2.092,2.092,0,0,1,1.883-1.164,2.366,2.366,0,0,1,.7.1ZM20.766.156A4.15,4.15,0,0,1,17.738-.984,4.054,4.054,0,0,1,16.57-4.023v-.219a5.106,5.106,0,0,1,.492-2.277,3.612,3.612,0,0,1,1.395-1.547,3.914,3.914,0,0,1,2.059-.543,3.508,3.508,0,0,1,2.73,1.094,4.444,4.444,0,0,1,1,3.1v.922H18.859a2.1,2.1,0,0,0,.66,1.328,2,2,0,0,0,1.395.5,2.437,2.437,0,0,0,2.039-.945l1.109,1.242A3.389,3.389,0,0,1,22.688-.246,4.511,4.511,0,0,1,20.766.156Zm-.258-6.945a1.411,1.411,0,0,0-1.09.455,2.357,2.357,0,0,0-.535,1.3h3.141v-.181a1.681,1.681,0,0,0-.406-1.165A1.456,1.456,0,0,0,20.508-6.789ZM30.1-2.336a.727.727,0,0,0-.41-.652,4.659,4.659,0,0,0-1.316-.426q-3.016-.633-3.016-2.562a2.323,2.323,0,0,1,.934-1.879,3.766,3.766,0,0,1,2.441-.754,4.053,4.053,0,0,1,2.574.758,2.388,2.388,0,0,1,.965,1.969H30.016a1.092,1.092,0,0,0-.312-.8A1.322,1.322,0,0,0,28.727-7a1.351,1.351,0,0,0-.883.258.814.814,0,0,0-.312.656.7.7,0,0,0,.355.605,3.657,3.657,0,0,0,1.2.4,9.8,9.8,0,0,1,1.422.379A2.336,2.336,0,0,1,32.3-2.43,2.2,2.2,0,0,1,31.3-.559a4.28,4.28,0,0,1-2.562.715,4.47,4.47,0,0,1-1.887-.379,3.166,3.166,0,0,1-1.293-1.039,2.414,2.414,0,0,1-.469-1.426h2.141a1.179,1.179,0,0,0,.445.922,1.766,1.766,0,0,0,1.109.32,1.635,1.635,0,0,0,.98-.246A.766.766,0,0,0,30.1-2.336ZM36.133,0H33.867V-8.453h2.266Zm-2.4-10.641a1.112,1.112,0,0,1,.34-.836A1.277,1.277,0,0,1,35-11.8a1.28,1.28,0,0,1,.922.328,1.105,1.105,0,0,1,.344.836,1.108,1.108,0,0,1-.348.844A1.283,1.283,0,0,1,35-9.469a1.283,1.283,0,0,1-.918-.328A1.108,1.108,0,0,1,33.734-10.641ZM37.641-4.3a5.013,5.013,0,0,1,.484-2.242A3.546,3.546,0,0,1,39.52-8.07a4.069,4.069,0,0,1,2.113-.539,3.849,3.849,0,0,1,2.793,1.047,4.2,4.2,0,0,1,1.207,2.844l.016.578A4.418,4.418,0,0,1,44.563-1.02,3.775,3.775,0,0,1,41.648.156,3.793,3.793,0,0,1,38.73-1.016,4.5,4.5,0,0,1,37.641-4.2Zm2.258.16A3.16,3.16,0,0,0,40.352-2.3a1.5,1.5,0,0,0,1.3.638,1.5,1.5,0,0,0,1.281-.63,3.457,3.457,0,0,0,.461-2.015A3.128,3.128,0,0,0,42.93-6.14a1.5,1.5,0,0,0-1.3-.649,1.474,1.474,0,0,0-1.281.646A3.516,3.516,0,0,0,39.9-4.144ZM42.078-12h2.461L42.375-9.578H40.539Zm7.039,3.547.07.977a2.951,2.951,0,0,1,2.43-1.133,2.453,2.453,0,0,1,2,.789,3.682,3.682,0,0,1,.672,2.359V0H52.031V-5.406a1.465,1.465,0,0,0-.312-1.043,1.4,1.4,0,0,0-1.039-.324,1.553,1.553,0,0,0-1.43.813V0H46.992V-8.453ZM59.633-4.289a5.094,5.094,0,0,1,.887-3.148,2.877,2.877,0,0,1,2.426-1.172,2.589,2.589,0,0,1,2.039.922V-12H67.25V0H65.211L65.1-.9A2.657,2.657,0,0,1,62.93.156,2.869,2.869,0,0,1,60.535-1.02,5.258,5.258,0,0,1,59.633-4.289Zm2.258.168A3.337,3.337,0,0,0,62.3-2.3a1.349,1.349,0,0,0,1.2.634,1.511,1.511,0,0,0,1.477-.884V-5.889a1.489,1.489,0,0,0-1.461-.884Q61.891-6.773,61.891-4.121Zm11,4.277A4.15,4.15,0,0,1,69.863-.984,4.054,4.054,0,0,1,68.7-4.023v-.219a5.106,5.106,0,0,1,.492-2.277,3.612,3.612,0,0,1,1.395-1.547,3.914,3.914,0,0,1,2.059-.543,3.508,3.508,0,0,1,2.73,1.094,4.444,4.444,0,0,1,1,3.1v.922H70.984a2.1,2.1,0,0,0,.66,1.328,2,2,0,0,0,1.395.5,2.437,2.437,0,0,0,2.039-.945l1.109,1.242A3.389,3.389,0,0,1,74.813-.246,4.511,4.511,0,0,1,72.891.156Zm-.258-6.945a1.411,1.411,0,0,0-1.09.455,2.357,2.357,0,0,0-.535,1.3h3.141v-.181a1.681,1.681,0,0,0-.406-1.165A1.456,1.456,0,0,0,72.633-6.789ZM84.8-2.758l1.57-5.7h2.359L85.875,0H83.719L80.867-8.453h2.359ZM94.5,0a2.507,2.507,0,0,1-.227-.758,2.732,2.732,0,0,1-2.133.914,3,3,0,0,1-2.059-.719,2.312,2.312,0,0,1-.816-1.812,2.389,2.389,0,0,1,1-2.062,4.915,4.915,0,0,1,2.879-.727H94.18v-.484a1.393,1.393,0,0,0-.3-.937,1.183,1.183,0,0,0-.949-.352,1.345,1.345,0,0,0-.895.273.929.929,0,0,0-.324.75H89.453a2.268,2.268,0,0,1,.453-1.359,3,3,0,0,1,1.281-.98,4.669,4.669,0,0,1,1.859-.355,3.689,3.689,0,0,1,2.48.785,2.747,2.747,0,0,1,.918,2.207v3.664a4.041,4.041,0,0,0,.336,1.82V0ZM92.633-1.57a1.945,1.945,0,0,0,.922-.223,1.462,1.462,0,0,0,.625-.6V-3.844h-.844q-1.7,0-1.8,1.172l-.008.133a.9.9,0,0,0,.3.7A1.153,1.153,0,0,0,92.633-1.57Zm13.156-2.578A5.07,5.07,0,0,1,104.9-1.02,2.843,2.843,0,0,1,102.508.156a2.633,2.633,0,0,1-2.07-.891V3.25H98.18v-11.7h2.094l.078.828a2.654,2.654,0,0,1,2.141-.984,2.862,2.862,0,0,1,2.43,1.156,5.207,5.207,0,0,1,.867,3.188Zm-2.258-.164a3.327,3.327,0,0,0-.418-1.82,1.361,1.361,0,0,0-1.215-.641,1.478,1.478,0,0,0-1.461.813V-2.5a1.5,1.5,0,0,0,1.477.836Q103.531-1.664,103.531-4.312Zm3.3.008a5.013,5.013,0,0,1,.484-2.242,3.546,3.546,0,0,1,1.395-1.523,4.069,4.069,0,0,1,2.113-.539,3.849,3.849,0,0,1,2.793,1.047,4.2,4.2,0,0,1,1.207,2.844l.016.578a4.418,4.418,0,0,1-1.086,3.121A3.775,3.775,0,0,1,110.844.156a3.793,3.793,0,0,1-2.918-1.172,4.5,4.5,0,0,1-1.09-3.187Zm2.258.16a3.16,3.16,0,0,0,.453,1.843,1.5,1.5,0,0,0,1.3.638,1.5,1.5,0,0,0,1.281-.63,3.457,3.457,0,0,0,.461-2.015,3.128,3.128,0,0,0-.461-1.831,1.5,1.5,0,0,0-1.3-.649,1.474,1.474,0,0,0-1.281.646A3.516,3.516,0,0,0,109.094-4.144Zm11.891-2.192a6.134,6.134,0,0,0-.812-.062,1.654,1.654,0,0,0-1.68.867V0h-2.258V-8.453h2.133l.063,1.008a2.092,2.092,0,0,1,1.883-1.164,2.366,2.366,0,0,1,.7.1Z" transform="translate(123 112)"/>
      <path id="Path_824454" data-name="Path 824454" d="M6.914-2.984A1.2,1.2,0,0,0,6.445-4a6.148,6.148,0,0,0-1.687-.75,11.963,11.963,0,0,1-1.93-.777A3.153,3.153,0,0,1,.891-8.352,2.747,2.747,0,0,1,1.41-10,3.389,3.389,0,0,1,2.9-11.125a5.616,5.616,0,0,1,2.184-.406,5.112,5.112,0,0,1,2.172.441,3.458,3.458,0,0,1,1.48,1.246,3.261,3.261,0,0,1,.527,1.828H6.922A1.534,1.534,0,0,0,6.43-9.23a2.023,2.023,0,0,0-1.383-.434A2.162,2.162,0,0,0,3.711-9.3a1.146,1.146,0,0,0-.477.957,1.1,1.1,0,0,0,.559.93,6.311,6.311,0,0,0,1.645.7A7.106,7.106,0,0,1,8.352-5.219,2.972,2.972,0,0,1,9.266-3,2.737,2.737,0,0,1,8.148-.684a4.891,4.891,0,0,1-3.008.84A5.808,5.808,0,0,1,2.75-.324,3.783,3.783,0,0,1,1.105-1.641,3.371,3.371,0,0,1,.539-3.578H2.891q0,1.883,2.25,1.883a2.189,2.189,0,0,0,1.3-.34A1.106,1.106,0,0,0,6.914-2.984ZM10.352-4.3a5.013,5.013,0,0,1,.484-2.242A3.546,3.546,0,0,1,12.23-8.07a4.069,4.069,0,0,1,2.113-.539,3.849,3.849,0,0,1,2.793,1.047,4.2,4.2,0,0,1,1.207,2.844l.016.578A4.418,4.418,0,0,1,17.273-1.02,3.775,3.775,0,0,1,14.359.156a3.793,3.793,0,0,1-2.918-1.172A4.5,4.5,0,0,1,10.352-4.2Zm2.258.16A3.16,3.16,0,0,0,13.063-2.3a1.5,1.5,0,0,0,1.3.638,1.5,1.5,0,0,0,1.281-.63A3.457,3.457,0,0,0,16.1-4.309a3.128,3.128,0,0,0-.461-1.831,1.5,1.5,0,0,0-1.3-.649,1.474,1.474,0,0,0-1.281.646A3.516,3.516,0,0,0,12.609-4.144ZM22.133,0H19.867V-12h2.266Zm6.922-.859A2.831,2.831,0,0,1,26.742.156a2.67,2.67,0,0,1-2.074-.781,3.335,3.335,0,0,1-.73-2.289V-8.453H26.2v5.467q0,1.322,1.2,1.322a1.63,1.63,0,0,0,1.578-.8V-8.453h2.266V0H29.117ZM40.563-4.148A5.119,5.119,0,0,1,39.7-.98,2.872,2.872,0,0,1,37.273.156,2.639,2.639,0,0,1,35.078-.9l-.1.9H32.945V-12H35.2v4.3a2.571,2.571,0,0,1,2.055-.914,2.9,2.9,0,0,1,2.426,1.137,5.126,5.126,0,0,1,.879,3.2ZM38.3-4.312A3.363,3.363,0,0,0,37.9-6.184a1.374,1.374,0,0,0-1.211-.59,1.489,1.489,0,0,0-1.484.883v3.336a1.509,1.509,0,0,0,1.5.891,1.394,1.394,0,0,0,1.438-1.078A5.562,5.562,0,0,0,38.3-4.312ZM44.336,0H42.07V-8.453h2.266Zm-2.4-10.641a1.112,1.112,0,0,1,.34-.836A1.277,1.277,0,0,1,43.2-11.8a1.28,1.28,0,0,1,.922.328,1.105,1.105,0,0,1,.344.836,1.108,1.108,0,0,1-.348.844,1.283,1.283,0,0,1-.918.328,1.283,1.283,0,0,1-.918-.328A1.108,1.108,0,0,1,41.938-10.641ZM48.578,0H46.313V-12h2.266ZM52.82,0H50.555V-8.453H52.82Zm-2.4-10.641a1.112,1.112,0,0,1,.34-.836,1.277,1.277,0,0,1,.926-.328,1.28,1.28,0,0,1,.922.328,1.105,1.105,0,0,1,.344.836,1.108,1.108,0,0,1-.348.844,1.283,1.283,0,0,1-.918.328A1.283,1.283,0,0,1,50.77-9.8,1.108,1.108,0,0,1,50.422-10.641Zm3.906,6.352a5.094,5.094,0,0,1,.887-3.148,2.877,2.877,0,0,1,2.426-1.172,2.589,2.589,0,0,1,2.039.922V-12h2.266V0H59.906L59.8-.9A2.657,2.657,0,0,1,57.625.156,2.869,2.869,0,0,1,55.23-1.02,5.258,5.258,0,0,1,54.328-4.289Zm2.258.168A3.337,3.337,0,0,0,57-2.3a1.349,1.349,0,0,0,1.2.634,1.511,1.511,0,0,0,1.477-.884V-5.889a1.489,1.489,0,0,0-1.461-.884Q56.586-6.773,56.586-4.121ZM68.594,0a2.507,2.507,0,0,1-.227-.758,2.732,2.732,0,0,1-2.133.914,3,3,0,0,1-2.059-.719,2.312,2.312,0,0,1-.816-1.812,2.389,2.389,0,0,1,1-2.062,4.915,4.915,0,0,1,2.879-.727h1.039v-.484a1.393,1.393,0,0,0-.3-.937,1.183,1.183,0,0,0-.949-.352,1.345,1.345,0,0,0-.895.273.929.929,0,0,0-.324.75H63.547A2.268,2.268,0,0,1,64-7.273a3,3,0,0,1,1.281-.98,4.669,4.669,0,0,1,1.859-.355,3.689,3.689,0,0,1,2.48.785,2.747,2.747,0,0,1,.918,2.207v3.664a4.041,4.041,0,0,0,.336,1.82V0ZM66.727-1.57a1.945,1.945,0,0,0,.922-.223,1.462,1.462,0,0,0,.625-.6V-3.844H67.43q-1.7,0-1.8,1.172l-.008.133a.9.9,0,0,0,.3.7A1.153,1.153,0,0,0,66.727-1.57Zm5.2-2.719a5.094,5.094,0,0,1,.887-3.148,2.877,2.877,0,0,1,2.426-1.172,2.589,2.589,0,0,1,2.039.922V-12h2.266V0H77.5l-.109-.9A2.657,2.657,0,0,1,75.219.156,2.869,2.869,0,0,1,72.824-1.02,5.258,5.258,0,0,1,71.922-4.289Zm2.258.168A3.337,3.337,0,0,0,74.594-2.3a1.349,1.349,0,0,0,1.2.634,1.511,1.511,0,0,0,1.477-.884V-5.889a1.489,1.489,0,0,0-1.461-.884Q74.18-6.773,74.18-4.121Zm10.742-.168a5.094,5.094,0,0,1,.887-3.148,2.877,2.877,0,0,1,2.426-1.172,2.589,2.589,0,0,1,2.039.922V-12h2.266V0H90.5l-.109-.9A2.657,2.657,0,0,1,88.219.156,2.869,2.869,0,0,1,85.824-1.02,5.258,5.258,0,0,1,84.922-4.289Zm2.258.168A3.337,3.337,0,0,0,87.594-2.3a1.349,1.349,0,0,0,1.2.634,1.511,1.511,0,0,0,1.477-.884V-5.889a1.489,1.489,0,0,0-1.461-.884Q87.18-6.773,87.18-4.121Zm11,4.277A4.15,4.15,0,0,1,95.152-.984a4.054,4.054,0,0,1-1.168-3.039v-.219a5.106,5.106,0,0,1,.492-2.277,3.612,3.612,0,0,1,1.395-1.547,3.914,3.914,0,0,1,2.059-.543,3.508,3.508,0,0,1,2.73,1.094,4.444,4.444,0,0,1,1,3.1v.922H96.273a2.1,2.1,0,0,0,.66,1.328,2,2,0,0,0,1.395.5,2.437,2.437,0,0,0,2.039-.945l1.109,1.242A3.389,3.389,0,0,1,100.1-.246,4.511,4.511,0,0,1,98.18.156Zm-.258-6.945a1.411,1.411,0,0,0-1.09.455,2.357,2.357,0,0,0-.535,1.3h3.141v-.181a1.681,1.681,0,0,0-.406-1.165A1.456,1.456,0,0,0,97.922-6.789ZM105.32,0h-2.266V-12h2.266Zm10.742,0a2.507,2.507,0,0,1-.227-.758A2.732,2.732,0,0,1,113.7.156a3,3,0,0,1-2.059-.719,2.312,2.312,0,0,1-.816-1.812,2.389,2.389,0,0,1,1-2.062,4.915,4.915,0,0,1,2.879-.727h1.039v-.484a1.393,1.393,0,0,0-.3-.937,1.183,1.183,0,0,0-.949-.352,1.345,1.345,0,0,0-.895.273.929.929,0,0,0-.324.75h-2.258a2.268,2.268,0,0,1,.453-1.359,3,3,0,0,1,1.281-.98,4.669,4.669,0,0,1,1.859-.355,3.689,3.689,0,0,1,2.48.785,2.747,2.747,0,0,1,.918,2.207v3.664a4.041,4.041,0,0,0,.336,1.82V0ZM114.2-1.57a1.945,1.945,0,0,0,.922-.223,1.462,1.462,0,0,0,.625-.6V-3.844H114.9q-1.7,0-1.8,1.172l-.008.133a.9.9,0,0,0,.3.7A1.153,1.153,0,0,0,114.2-1.57Zm5.219-2.719a4.954,4.954,0,0,1,.926-3.133,3,3,0,0,1,2.5-1.187A2.631,2.631,0,0,1,125-7.656l.094-.8h2.047V-.281a3.613,3.613,0,0,1-.5,1.93,3.236,3.236,0,0,1-1.418,1.25,4.985,4.985,0,0,1-2.141.43,4.635,4.635,0,0,1-1.812-.371A3.217,3.217,0,0,1,119.93,2l1-1.375a2.645,2.645,0,0,0,2.047.945,1.936,1.936,0,0,0,1.4-.48,1.8,1.8,0,0,0,.5-1.363V-.727a2.612,2.612,0,0,1-2.055.883,2.992,2.992,0,0,1-2.465-1.191,4.953,4.953,0,0,1-.941-3.16Zm2.258.168a3.085,3.085,0,0,0,.461,1.8,1.466,1.466,0,0,0,1.266.653,1.568,1.568,0,0,0,1.477-.775V-6a1.564,1.564,0,0,0-1.461-.775,1.476,1.476,0,0,0-1.277.665A3.477,3.477,0,0,0,121.672-4.121ZM133.938-.859A2.831,2.831,0,0,1,131.625.156a2.67,2.67,0,0,1-2.074-.781,3.335,3.335,0,0,1-.73-2.289V-8.453h2.258v5.467q0,1.322,1.2,1.322a1.63,1.63,0,0,0,1.578-.8V-8.453h2.266V0H134ZM142.727,0a2.507,2.507,0,0,1-.227-.758,2.732,2.732,0,0,1-2.133.914,3,3,0,0,1-2.059-.719,2.312,2.312,0,0,1-.816-1.812,2.389,2.389,0,0,1,1-2.062,4.915,4.915,0,0,1,2.879-.727h1.039v-.484a1.393,1.393,0,0,0-.3-.937,1.183,1.183,0,0,0-.949-.352,1.345,1.345,0,0,0-.895.273.929.929,0,0,0-.324.75H137.68a2.268,2.268,0,0,1,.453-1.359,3,3,0,0,1,1.281-.98,4.669,4.669,0,0,1,1.859-.355,3.689,3.689,0,0,1,2.48.785,2.747,2.747,0,0,1,.918,2.207v3.664a4.041,4.041,0,0,0,.336,1.82V0Zm-1.867-1.57a1.945,1.945,0,0,0,.922-.223,1.462,1.462,0,0,0,.625-.6V-3.844h-.844q-1.7,0-1.8,1.172l-.008.133a.9.9,0,0,0,.3.7A1.153,1.153,0,0,0,140.859-1.57Z" transform="translate(-2 210)"/>
      <path id="Path_824455" data-name="Path 824455" d="M3.359-4.008V0H1.016V-11.375H5.453a5.134,5.134,0,0,1,2.254.469A3.454,3.454,0,0,1,9.2-9.574a3.714,3.714,0,0,1,.523,1.965A3.266,3.266,0,0,1,8.582-4.973a4.767,4.767,0,0,1-3.168.965Zm0-1.9H5.453a2.059,2.059,0,0,0,1.418-.437,1.591,1.591,0,0,0,.488-1.25,1.876,1.876,0,0,0-.492-1.352,1.839,1.839,0,0,0-1.359-.531H3.359ZM16.25-.859A2.831,2.831,0,0,1,13.938.156a2.67,2.67,0,0,1-2.074-.781,3.335,3.335,0,0,1-.73-2.289V-8.453h2.258v5.467q0,1.322,1.2,1.322a1.63,1.63,0,0,0,1.578-.8V-8.453h2.266V0H16.313Zm5.969-7.594.07.977a2.951,2.951,0,0,1,2.43-1.133,2.453,2.453,0,0,1,2,.789,3.682,3.682,0,0,1,.672,2.359V0H25.133V-5.406a1.465,1.465,0,0,0-.312-1.043,1.4,1.4,0,0,0-1.039-.324,1.553,1.553,0,0,0-1.43.813V0H20.094V-8.453ZM31.8-10.531v2.078H33.25V-6.8H31.8v4.219a1.007,1.007,0,0,0,.18.672.9.9,0,0,0,.688.2,3.6,3.6,0,0,0,.664-.055V-.047a4.648,4.648,0,0,1-1.367.2,2.156,2.156,0,0,1-2.422-2.4V-6.8H28.313V-8.453h1.234v-2.078ZM33.922-4.3a5.013,5.013,0,0,1,.484-2.242A3.546,3.546,0,0,1,35.8-8.07a4.069,4.069,0,0,1,2.113-.539,3.849,3.849,0,0,1,2.793,1.047,4.2,4.2,0,0,1,1.207,2.844l.016.578A4.418,4.418,0,0,1,40.844-1.02,3.775,3.775,0,0,1,37.93.156a3.793,3.793,0,0,1-2.918-1.172A4.5,4.5,0,0,1,33.922-4.2Zm2.258.16A3.16,3.16,0,0,0,36.633-2.3a1.5,1.5,0,0,0,1.3.638,1.5,1.5,0,0,0,1.281-.63,3.457,3.457,0,0,0,.461-2.015,3.128,3.128,0,0,0-.461-1.831,1.5,1.5,0,0,0-1.3-.649,1.474,1.474,0,0,0-1.281.646A3.516,3.516,0,0,0,36.18-4.144Zm10.773-.145a5.094,5.094,0,0,1,.887-3.148,2.877,2.877,0,0,1,2.426-1.172,2.589,2.589,0,0,1,2.039.922V-12H54.57V0H52.531l-.109-.9A2.657,2.657,0,0,1,50.25.156,2.869,2.869,0,0,1,47.855-1.02,5.258,5.258,0,0,1,46.953-4.289Zm2.258.168A3.337,3.337,0,0,0,49.625-2.3a1.349,1.349,0,0,0,1.2.634A1.511,1.511,0,0,0,52.3-2.548V-5.889a1.489,1.489,0,0,0-1.461-.884Q49.211-6.773,49.211-4.121Zm11,4.277A4.15,4.15,0,0,1,57.184-.984a4.054,4.054,0,0,1-1.168-3.039v-.219a5.106,5.106,0,0,1,.492-2.277A3.612,3.612,0,0,1,57.9-8.066a3.914,3.914,0,0,1,2.059-.543,3.508,3.508,0,0,1,2.73,1.094,4.444,4.444,0,0,1,1,3.1v.922H58.3a2.1,2.1,0,0,0,.66,1.328,2,2,0,0,0,1.395.5A2.437,2.437,0,0,0,62.4-2.609l1.109,1.242A3.389,3.389,0,0,1,62.133-.246,4.511,4.511,0,0,1,60.211.156Zm-.258-6.945a1.411,1.411,0,0,0-1.09.455,2.357,2.357,0,0,0-.535,1.3h3.141v-.181a1.681,1.681,0,0,0-.406-1.165A1.456,1.456,0,0,0,59.953-6.789ZM72.844.156A4.15,4.15,0,0,1,69.816-.984a4.054,4.054,0,0,1-1.168-3.039v-.219a5.106,5.106,0,0,1,.492-2.277,3.612,3.612,0,0,1,1.395-1.547,3.914,3.914,0,0,1,2.059-.543,3.508,3.508,0,0,1,2.73,1.094,4.444,4.444,0,0,1,1,3.1v.922H70.938a2.1,2.1,0,0,0,.66,1.328,2,2,0,0,0,1.395.5,2.437,2.437,0,0,0,2.039-.945l1.109,1.242A3.389,3.389,0,0,1,74.766-.246,4.511,4.511,0,0,1,72.844.156Zm-.258-6.945a1.411,1.411,0,0,0-1.09.455,2.357,2.357,0,0,0-.535,1.3H74.1v-.181A1.681,1.681,0,0,0,73.7-6.377,1.456,1.456,0,0,0,72.586-6.789ZM85.219-4.148A5.119,5.119,0,0,1,84.352-.98,2.872,2.872,0,0,1,81.93.156,2.639,2.639,0,0,1,79.734-.9l-.1.9H77.6V-12h2.258v4.3a2.571,2.571,0,0,1,2.055-.914A2.9,2.9,0,0,1,84.34-7.473a5.126,5.126,0,0,1,.879,3.2Zm-2.258-.164a3.363,3.363,0,0,0-.406-1.871,1.374,1.374,0,0,0-1.211-.59,1.489,1.489,0,0,0-1.484.883v3.336a1.509,1.509,0,0,0,1.5.891A1.394,1.394,0,0,0,82.8-2.742,5.562,5.562,0,0,0,82.961-4.312ZM91.672-.859A2.831,2.831,0,0,1,89.359.156a2.67,2.67,0,0,1-2.074-.781,3.335,3.335,0,0,1-.73-2.289V-8.453h2.258v5.467q0,1.322,1.2,1.322a1.63,1.63,0,0,0,1.578-.8V-8.453h2.266V0H91.734ZM97.945,0H95.68V-12h2.266Zm4.242,0H99.922V-12h2.266Zm4.242,0h-2.266V-8.453h2.266Zm-2.4-10.641a1.112,1.112,0,0,1,.34-.836,1.277,1.277,0,0,1,.926-.328,1.28,1.28,0,0,1,.922.328,1.105,1.105,0,0,1,.344.836,1.108,1.108,0,0,1-.348.844,1.283,1.283,0,0,1-.918.328,1.283,1.283,0,0,1-.918-.328A1.108,1.108,0,0,1,104.031-10.641ZM111.8-1.664a1.481,1.481,0,0,0,1.016-.344,1.2,1.2,0,0,0,.406-.914h2.117a2.9,2.9,0,0,1-.469,1.574,3.093,3.093,0,0,1-1.262,1.109,3.949,3.949,0,0,1-1.77.395A3.67,3.67,0,0,1,108.984-1a4.56,4.56,0,0,1-1.047-3.184v-.148a4.508,4.508,0,0,1,1.039-3.117,3.627,3.627,0,0,1,2.852-1.164,3.555,3.555,0,0,1,2.543.9,3.2,3.2,0,0,1,.973,2.4h-2.117a1.551,1.551,0,0,0-.406-1.072,1.354,1.354,0,0,0-1.031-.412,1.36,1.36,0,0,0-1.191.575,3.333,3.333,0,0,0-.4,1.866v.235a3.375,3.375,0,0,0,.4,1.878A1.377,1.377,0,0,0,111.8-1.664ZM119.016,0H116.75V-8.453h2.266Zm-2.4-10.641a1.112,1.112,0,0,1,.34-.836,1.277,1.277,0,0,1,.926-.328,1.28,1.28,0,0,1,.922.328,1.105,1.105,0,0,1,.344.836,1.108,1.108,0,0,1-.348.844,1.283,1.283,0,0,1-.918.328,1.283,1.283,0,0,1-.918-.328A1.108,1.108,0,0,1,116.617-10.641ZM120.523-4.3a5.013,5.013,0,0,1,.484-2.242A3.546,3.546,0,0,1,122.4-8.07a4.069,4.069,0,0,1,2.113-.539,3.849,3.849,0,0,1,2.793,1.047,4.2,4.2,0,0,1,1.207,2.844l.016.578a4.418,4.418,0,0,1-1.086,3.121A3.775,3.775,0,0,1,124.531.156a3.793,3.793,0,0,1-2.918-1.172,4.5,4.5,0,0,1-1.09-3.187Zm2.258.16a3.16,3.16,0,0,0,.453,1.843,1.5,1.5,0,0,0,1.3.638,1.5,1.5,0,0,0,1.281-.63,3.457,3.457,0,0,0,.461-2.015,3.128,3.128,0,0,0-.461-1.831,1.5,1.5,0,0,0-1.3-.649,1.474,1.474,0,0,0-1.281.646A3.516,3.516,0,0,0,122.781-4.144ZM124.961-12h2.461l-2.164,2.422h-1.836ZM132-8.453l.07.977a2.951,2.951,0,0,1,2.43-1.133,2.453,2.453,0,0,1,2,.789,3.682,3.682,0,0,1,.672,2.359V0h-2.258V-5.406a1.465,1.465,0,0,0-.312-1.043,1.4,1.4,0,0,0-1.039-.324,1.553,1.553,0,0,0-1.43.813V0h-2.258V-8.453Z" transform="translate(114 14)"/>
      <path id="Path_824456" data-name="Path 824456" d="M-41.793-4.008V0h-2.344V-11.375H-39.7a5.134,5.134,0,0,1,2.254.469,3.454,3.454,0,0,1,1.5,1.332,3.714,3.714,0,0,1,.523,1.965A3.266,3.266,0,0,1-36.57-4.973a4.767,4.767,0,0,1-3.168.965Zm0-1.9H-39.7a2.059,2.059,0,0,0,1.418-.437,1.591,1.591,0,0,0,.488-1.25,1.876,1.876,0,0,0-.492-1.352,1.839,1.839,0,0,0-1.359-.531h-2.148Zm12.578-.43a6.134,6.134,0,0,0-.812-.062,1.654,1.654,0,0,0-1.68.867V0h-2.258V-8.453h2.133l.063,1.008a2.092,2.092,0,0,1,1.883-1.164,2.366,2.366,0,0,1,.7.1Zm.453,2.031a5.013,5.013,0,0,1,.484-2.242A3.546,3.546,0,0,1-26.883-8.07a4.069,4.069,0,0,1,2.113-.539,3.849,3.849,0,0,1,2.793,1.047A4.2,4.2,0,0,1-20.77-4.719l.016.578A4.418,4.418,0,0,1-21.84-1.02,3.775,3.775,0,0,1-24.754.156a3.793,3.793,0,0,1-2.918-1.172A4.5,4.5,0,0,1-28.762-4.2Zm2.258.16A3.16,3.16,0,0,0-26.051-2.3a1.5,1.5,0,0,0,1.3.638,1.5,1.5,0,0,0,1.281-.63,3.457,3.457,0,0,0,.461-2.015,3.128,3.128,0,0,0-.461-1.831,1.5,1.5,0,0,0-1.3-.649,1.474,1.474,0,0,0-1.281.646A3.516,3.516,0,0,0-26.5-4.144Zm14.75,0a5.07,5.07,0,0,1-.887,3.129A2.843,2.843,0,0,1-15.035.156a2.633,2.633,0,0,1-2.07-.891V3.25h-2.258v-11.7h2.094l.078.828a2.654,2.654,0,0,1,2.141-.984,2.862,2.862,0,0,1,2.43,1.156,5.207,5.207,0,0,1,.867,3.188Zm-2.258-.164a3.327,3.327,0,0,0-.418-1.82,1.361,1.361,0,0,0-1.215-.641,1.478,1.478,0,0,0-1.461.813V-2.5a1.5,1.5,0,0,0,1.477.836Q-14.012-1.664-14.012-4.312ZM-7.973,0h-2.266V-8.453h2.266Zm-2.4-10.641a1.112,1.112,0,0,1,.34-.836,1.277,1.277,0,0,1,.926-.328,1.28,1.28,0,0,1,.922.328,1.105,1.105,0,0,1,.344.836,1.108,1.108,0,0,1-.348.844,1.283,1.283,0,0,1-.918.328,1.283,1.283,0,0,1-.918-.328A1.108,1.108,0,0,1-10.371-10.641ZM-2.223.156A4.15,4.15,0,0,1-5.25-.984,4.054,4.054,0,0,1-6.418-4.023v-.219A5.106,5.106,0,0,1-5.926-6.52,3.612,3.612,0,0,1-4.531-8.066a3.914,3.914,0,0,1,2.059-.543A3.508,3.508,0,0,1,.258-7.516a4.444,4.444,0,0,1,1,3.1v.922H-4.129a2.1,2.1,0,0,0,.66,1.328,2,2,0,0,0,1.395.5A2.437,2.437,0,0,0-.035-2.609L1.074-1.367A3.389,3.389,0,0,1-.3-.246,4.511,4.511,0,0,1-2.223.156ZM-2.48-6.789a1.411,1.411,0,0,0-1.09.455,2.357,2.357,0,0,0-.535,1.3H-.965v-.181a1.681,1.681,0,0,0-.406-1.165A1.456,1.456,0,0,0-2.48-6.789Zm4.664,2.5A5.094,5.094,0,0,1,3.07-7.437,2.877,2.877,0,0,1,5.5-8.609a2.589,2.589,0,0,1,2.039.922V-12H9.8V0H7.762L7.652-.9A2.657,2.657,0,0,1,5.48.156,2.869,2.869,0,0,1,3.086-1.02,5.258,5.258,0,0,1,2.184-4.289Zm2.258.168A3.337,3.337,0,0,0,4.855-2.3a1.349,1.349,0,0,0,1.2.634,1.511,1.511,0,0,0,1.477-.884V-5.889a1.489,1.489,0,0,0-1.461-.884Q4.441-6.773,4.441-4.121ZM16.449,0a2.507,2.507,0,0,1-.227-.758A2.732,2.732,0,0,1,14.09.156a3,3,0,0,1-2.059-.719,2.312,2.312,0,0,1-.816-1.812,2.389,2.389,0,0,1,1-2.062,4.915,4.915,0,0,1,2.879-.727h1.039v-.484a1.393,1.393,0,0,0-.3-.937,1.183,1.183,0,0,0-.949-.352,1.345,1.345,0,0,0-.895.273.929.929,0,0,0-.324.75H11.4a2.268,2.268,0,0,1,.453-1.359,3,3,0,0,1,1.281-.98A4.669,4.669,0,0,1,15-8.609a3.689,3.689,0,0,1,2.48.785,2.747,2.747,0,0,1,.918,2.207v3.664a4.041,4.041,0,0,0,.336,1.82V0ZM14.582-1.57a1.945,1.945,0,0,0,.922-.223,1.462,1.462,0,0,0,.625-.6V-3.844h-.844q-1.7,0-1.8,1.172l-.008.133a.9.9,0,0,0,.3.7A1.153,1.153,0,0,0,14.582-1.57Zm5.2-2.719a5.094,5.094,0,0,1,.887-3.148A2.877,2.877,0,0,1,23.09-8.609a2.589,2.589,0,0,1,2.039.922V-12h2.266V0H25.355l-.109-.9A2.657,2.657,0,0,1,23.074.156,2.869,2.869,0,0,1,20.68-1.02,5.258,5.258,0,0,1,19.777-4.289Zm2.258.168A3.337,3.337,0,0,0,22.449-2.3a1.349,1.349,0,0,0,1.2.634,1.511,1.511,0,0,0,1.477-.884V-5.889a1.489,1.489,0,0,0-1.461-.884Q22.035-6.773,22.035-4.121Zm11,4.277A4.15,4.15,0,0,1,30.008-.984,4.054,4.054,0,0,1,28.84-4.023v-.219a5.106,5.106,0,0,1,.492-2.277,3.612,3.612,0,0,1,1.395-1.547,3.914,3.914,0,0,1,2.059-.543,3.508,3.508,0,0,1,2.73,1.094,4.444,4.444,0,0,1,1,3.1v.922H31.129a2.1,2.1,0,0,0,.66,1.328,2,2,0,0,0,1.395.5,2.437,2.437,0,0,0,2.039-.945l1.109,1.242A3.389,3.389,0,0,1,34.957-.246,4.511,4.511,0,0,1,33.035.156Zm-.258-6.945a1.411,1.411,0,0,0-1.09.455,2.357,2.357,0,0,0-.535,1.3h3.141v-.181a1.681,1.681,0,0,0-.406-1.165A1.456,1.456,0,0,0,32.777-6.789Zm9.594,4.453a.727.727,0,0,0-.41-.652,4.659,4.659,0,0,0-1.316-.426q-3.016-.633-3.016-2.562a2.323,2.323,0,0,1,.934-1.879A3.766,3.766,0,0,1,41-8.609a4.053,4.053,0,0,1,2.574.758,2.388,2.388,0,0,1,.965,1.969H42.285a1.092,1.092,0,0,0-.312-.8A1.322,1.322,0,0,0,41-7a1.351,1.351,0,0,0-.883.258.814.814,0,0,0-.312.656.7.7,0,0,0,.355.605,3.657,3.657,0,0,0,1.2.4,9.8,9.8,0,0,1,1.422.379A2.336,2.336,0,0,1,44.566-2.43a2.2,2.2,0,0,1-.992,1.871,4.28,4.28,0,0,1-2.562.715,4.47,4.47,0,0,1-1.887-.379,3.166,3.166,0,0,1-1.293-1.039,2.414,2.414,0,0,1-.469-1.426H39.5a1.179,1.179,0,0,0,.445.922,1.766,1.766,0,0,0,1.109.32,1.635,1.635,0,0,0,.98-.246A.766.766,0,0,0,42.371-2.336ZM-54.3,18V11.2h-1.258V9.547H-54.3V8.828a2.918,2.918,0,0,1,.816-2.207A3.162,3.162,0,0,1-51.2,5.836a5.278,5.278,0,0,1,1.148.156l-.023,1.75a2.878,2.878,0,0,0-.687-.07q-1.273,0-1.273,1.2v.68h1.68V11.2h-1.68V18Zm7.555,0H-49V9.547h2.258ZM-47.41,6.117h2.461l-2.164,2.422h-1.836Zm7.188,9.547a.727.727,0,0,0-.41-.652,4.659,4.659,0,0,0-1.316-.426q-3.016-.633-3.016-2.562a2.323,2.323,0,0,1,.934-1.879,3.766,3.766,0,0,1,2.441-.754,4.053,4.053,0,0,1,2.574.758,2.388,2.388,0,0,1,.965,1.969h-2.258a1.092,1.092,0,0,0-.312-.8A1.322,1.322,0,0,0-41.6,11a1.351,1.351,0,0,0-.883.258.814.814,0,0,0-.312.656.7.7,0,0,0,.355.605,3.657,3.657,0,0,0,1.2.4,9.8,9.8,0,0,1,1.422.379,2.336,2.336,0,0,1,1.789,2.273,2.2,2.2,0,0,1-.992,1.871,4.28,4.28,0,0,1-2.562.715,4.47,4.47,0,0,1-1.887-.379,3.166,3.166,0,0,1-1.293-1.039,2.414,2.414,0,0,1-.469-1.426h2.141a1.179,1.179,0,0,0,.445.922,1.766,1.766,0,0,0,1.109.32,1.635,1.635,0,0,0,.98-.246A.766.766,0,0,0-40.223,15.664ZM-34.191,18h-2.266V9.547h2.266Zm-2.4-10.641a1.112,1.112,0,0,1,.34-.836,1.277,1.277,0,0,1,.926-.328,1.28,1.28,0,0,1,.922.328,1.105,1.105,0,0,1,.344.836,1.108,1.108,0,0,1-.348.844,1.283,1.283,0,0,1-.918.328,1.283,1.283,0,0,1-.918-.328A1.108,1.108,0,0,1-36.59,7.359Zm7.773,8.977a1.481,1.481,0,0,0,1.016-.344,1.2,1.2,0,0,0,.406-.914h2.117a2.9,2.9,0,0,1-.469,1.574,3.093,3.093,0,0,1-1.262,1.109,3.949,3.949,0,0,1-1.77.395A3.67,3.67,0,0,1-31.637,17a4.56,4.56,0,0,1-1.047-3.184v-.148a4.508,4.508,0,0,1,1.039-3.117,3.627,3.627,0,0,1,2.852-1.164,3.555,3.555,0,0,1,2.543.9,3.2,3.2,0,0,1,.973,2.4h-2.117a1.551,1.551,0,0,0-.406-1.072,1.354,1.354,0,0,0-1.031-.412,1.36,1.36,0,0,0-1.191.575,3.333,3.333,0,0,0-.4,1.866v.235a3.375,3.375,0,0,0,.4,1.878A1.377,1.377,0,0,0-28.816,16.336ZM-24.34,13.7a5.013,5.013,0,0,1,.484-2.242A3.546,3.546,0,0,1-22.461,9.93a4.069,4.069,0,0,1,2.113-.539,3.849,3.849,0,0,1,2.793,1.047,4.2,4.2,0,0,1,1.207,2.844l.016.578a4.418,4.418,0,0,1-1.086,3.121,3.775,3.775,0,0,1-2.914,1.176,3.793,3.793,0,0,1-2.918-1.172A4.5,4.5,0,0,1-24.34,13.8Zm2.258.16a3.16,3.16,0,0,0,.453,1.843,1.5,1.5,0,0,0,1.3.638,1.5,1.5,0,0,0,1.281-.63,3.457,3.457,0,0,0,.461-2.015,3.128,3.128,0,0,0-.461-1.831,1.5,1.5,0,0,0-1.3-.649,1.474,1.474,0,0,0-1.281.646A3.516,3.516,0,0,0-22.082,13.856Zm7.852,5.121h-1.68l4.188-12.352h1.68ZM-9.316,13.7a5.053,5.053,0,0,1,.887-3.148A2.9,2.9,0,0,1-6,9.391,2.6,2.6,0,0,1-3.832,10.43l.148-.883H-1.7v11.7H-3.965V17.273a2.6,2.6,0,0,1-2.047.883,2.878,2.878,0,0,1-2.406-1.172A5.3,5.3,0,0,1-9.316,13.7Zm2.258.16A3.315,3.315,0,0,0-6.633,15.7a1.363,1.363,0,0,0,1.2.634,1.518,1.518,0,0,0,1.469-.829v-3.5a1.506,1.506,0,0,0-1.453-.8,1.38,1.38,0,0,0-1.211.634A3.661,3.661,0,0,0-7.059,13.856Zm12.2,3.285a2.831,2.831,0,0,1-2.312,1.016A2.67,2.67,0,0,1,.75,17.375a3.335,3.335,0,0,1-.73-2.289V9.547H2.277v5.467q0,1.322,1.2,1.322a1.63,1.63,0,0,0,1.578-.8V9.547H7.324V18H5.2ZM11.465,18H9.207V9.547h2.258ZM10.8,6.117h2.461L11.1,8.539H9.262Zm4.727,3.43.07.945a2.971,2.971,0,0,1,2.43-1.1A2.255,2.255,0,0,1,20.27,10.68a2.9,2.9,0,0,1,2.539-1.289,2.521,2.521,0,0,1,2.047.8,3.681,3.681,0,0,1,.672,2.41V18H23.262V12.609a1.61,1.61,0,0,0-.281-1.051,1.246,1.246,0,0,0-.992-.332,1.409,1.409,0,0,0-1.406.969L20.59,18H18.332V12.617a1.59,1.59,0,0,0-.289-1.062,1.259,1.259,0,0,0-.984-.328,1.463,1.463,0,0,0-1.391.8V18H13.41V9.547ZM29.645,18H27.379V9.547h2.266Zm-2.4-10.641a1.112,1.112,0,0,1,.34-.836,1.465,1.465,0,0,1,1.848,0,1.193,1.193,0,0,1,0,1.68,1.448,1.448,0,0,1-1.836,0A1.108,1.108,0,0,1,27.246,7.359Zm7.773,8.977a1.481,1.481,0,0,0,1.016-.344,1.2,1.2,0,0,0,.406-.914h2.117a2.9,2.9,0,0,1-.469,1.574,3.093,3.093,0,0,1-1.262,1.109,3.949,3.949,0,0,1-1.77.395A3.67,3.67,0,0,1,32.2,17a4.56,4.56,0,0,1-1.047-3.184v-.148a4.508,4.508,0,0,1,1.039-3.117,3.627,3.627,0,0,1,2.852-1.164,3.555,3.555,0,0,1,2.543.9,3.2,3.2,0,0,1,.973,2.4H36.441a1.551,1.551,0,0,0-.406-1.072,1.51,1.51,0,0,0-2.223.163,3.333,3.333,0,0,0-.4,1.866v.235a3.375,3.375,0,0,0,.4,1.878A1.377,1.377,0,0,0,35.02,16.336ZM44.746,18a2.507,2.507,0,0,1-.227-.758,2.732,2.732,0,0,1-2.133.914,3,3,0,0,1-2.059-.719,2.312,2.312,0,0,1-.816-1.812,2.389,2.389,0,0,1,1-2.062,4.915,4.915,0,0,1,2.879-.727h1.039v-.484a1.393,1.393,0,0,0-.3-.937,1.183,1.183,0,0,0-.949-.352,1.345,1.345,0,0,0-.895.273.929.929,0,0,0-.324.75H39.7a2.268,2.268,0,0,1,.453-1.359,3,3,0,0,1,1.281-.98,4.669,4.669,0,0,1,1.859-.355,3.689,3.689,0,0,1,2.48.785,2.747,2.747,0,0,1,.918,2.207v3.664a4.041,4.041,0,0,0,.336,1.82V18Zm-1.867-1.57a1.945,1.945,0,0,0,.922-.223,1.462,1.462,0,0,0,.625-.6V14.156h-.844q-1.7,0-1.8,1.172l-.008.133a.9.9,0,0,0,.3.7A1.153,1.153,0,0,0,42.879,16.43ZM53,15.664a.727.727,0,0,0-.41-.652,4.659,4.659,0,0,0-1.316-.426q-3.016-.633-3.016-2.562a2.323,2.323,0,0,1,.934-1.879,3.766,3.766,0,0,1,2.441-.754,4.053,4.053,0,0,1,2.574.758,2.388,2.388,0,0,1,.965,1.969H52.918a1.092,1.092,0,0,0-.312-.8A1.322,1.322,0,0,0,51.629,11a1.351,1.351,0,0,0-.883.258.814.814,0,0,0-.312.656.7.7,0,0,0,.355.605,3.657,3.657,0,0,0,1.2.4,9.8,9.8,0,0,1,1.422.379A2.336,2.336,0,0,1,55.2,15.57a2.2,2.2,0,0,1-.992,1.871,4.28,4.28,0,0,1-2.562.715,4.47,4.47,0,0,1-1.887-.379,3.166,3.166,0,0,1-1.293-1.039A2.414,2.414,0,0,1,48,15.313h2.141a1.179,1.179,0,0,0,.445.922,1.766,1.766,0,0,0,1.109.32,1.635,1.635,0,0,0,.98-.246A.766.766,0,0,0,53,15.664Z" transform="translate(-31 103)"/>
    </g>
    <g id="Group_1073949" data-name="Group 1073949" transform="translate(-8732 -9453.004)" clip-path="url(#clip-path)">
      <path id="Path_823569" data-name="Path 823569" d="M107.954,110.332c1.344,2.4,2.755,4.649,4.07,6.954,2.91,5.1,5.913,10.155,8.879,15.227,1.021,1.747,2.093,3.467,3.05,5.248a11.1,11.1,0,0,1,1.5,5.617,11.747,11.747,0,0,1-7.812,10.874,12.369,12.369,0,0,1-4.106.648q-51.089.021-102.177-.011A11.307,11.307,0,0,1,.777,147.38a10.978,10.978,0,0,1,1.078-10.15,4.228,4.228,0,0,0,.977-2.078c.009-.4.506-.4.686-.738.645-1.225,1.38-2.4,2.079-3.6q.954-1.635,1.9-3.273c1.179-2.039,2.457-4.027,3.606-6.075,1.408-2.51,2.892-4.976,4.315-7.477,2.02-3.555,4.106-7.073,6.169-10.6a28.907,28.907,0,0,1,1.561-2.564c.382-.522.178-.733-.209-1.038C21.506,98.653,20,97.6,18.685,96.339c-1.594-1.521-3.18-3.062-4.622-4.741A59.142,59.142,0,0,1,5.8,79.053,55.879,55.879,0,0,1,1.45,66.295c-.393-1.8-.51-3.674-.769-5.508A55.373,55.373,0,0,1,.4,52.492a39.754,39.754,0,0,1,1.1-8.117,47.831,47.831,0,0,1,1.16-4.789A63.675,63.675,0,0,1,5.779,31.7a54.443,54.443,0,0,1,3.436-6.27,65.838,65.838,0,0,1,5.908-7.54,55.205,55.205,0,0,1,8.988-7.831,51.968,51.968,0,0,1,11.724-6.31A57.089,57.089,0,0,1,46.377.869,45.323,45.323,0,0,1,56.543.035a57.193,57.193,0,0,1,6.854.6c2.243.375,4.458.836,6.653,1.405A53.381,53.381,0,0,1,96.742,18.311a59.882,59.882,0,0,1,7.887,11.344,34.369,34.369,0,0,1,2.278,4.871.776.776,0,0,0,1.067.5,29.591,29.591,0,0,1,7.709-.946,42.355,42.355,0,0,1,14.6,2.51,33.637,33.637,0,0,1,8.761,4.838,44.437,44.437,0,0,1,5.3,4.59,31.591,31.591,0,0,1,3.918,4.987,37.841,37.841,0,0,1,4.336,8.309,63.268,63.268,0,0,1,1.713,6.636,31.114,31.114,0,0,1,.667,7.545,31.427,31.427,0,0,1-.72,5.965,43.022,43.022,0,0,1-3.248,10.092,38.422,38.422,0,0,1-14.373,15.716,37.7,37.7,0,0,1-4.713,2.416,42.977,42.977,0,0,1-9.713,2.85,41.177,41.177,0,0,1-8.356.475,21.2,21.2,0,0,1-3.865-.552,15.418,15.418,0,0,0-2.036-.131m7.521-73.837a.318.318,0,0,0-.5.008c-1.058.126-2.113.308-3.175.37a25.95,25.95,0,0,0-7.389,1.655,36.433,36.433,0,0,0-10.986,6.326A36.853,36.853,0,0,0,81.8,62.518c-.234.742-.753,1.535-.19,2.489,3.623,6.137,7.185,12.31,10.767,18.47Q98.694,94.341,105,105.209c.727,1.259,1.443,2.3,3.121,2.466,1.966.194,3.9.788,5.876.893a36.627,36.627,0,0,0,11.25-1.068,35.4,35.4,0,0,0,21.814-15.854,34.868,34.868,0,0,0,3.965-8.908,34.321,34.321,0,0,0,1.381-6.807,32.38,32.38,0,0,0,.03-5.291,41.853,41.853,0,0,0-1.205-7.654,34.433,34.433,0,0,0-5.5-11.507,34.882,34.882,0,0,0-14.389-11.69,35.976,35.976,0,0,0-15.871-3.295M11.741,55.039a37.394,37.394,0,0,0,.513,7.59,44.013,44.013,0,0,0,3.413,11.017,34.948,34.948,0,0,0,3.69,6.448,9.318,9.318,0,0,1,1.278,1.573c.933,2,2.624,3.38,4.106,4.922.955.994,2.087,1.82,3.02,2.833.954,1.035,1.386,1.059,2.049-.161.027-.051.065-.1.09-.15a88.581,88.581,0,0,1,4.341-7.724c2.348-3.808,4.461-7.748,6.81-11.555,2.166-3.51,4.128-7.145,6.168-10.732.633-1.112,1.249-2.24,1.871-3.353.762-1.363,1.6-2.7,2.4-4.054a26.461,26.461,0,0,1,1.905-3.141,12.858,12.858,0,0,1,2.93-2.756c.939-.616,2.143-.868,2.372-2.4a4.694,4.694,0,0,1,4.15-4,5.243,5.243,0,0,1,5.2,1.957,4.558,4.558,0,0,1,1.09,3.229c-.027.512-.2,1.085.384,1.5a13.759,13.759,0,0,1,3.8,4.612c1.9,3.338,3.837,6.652,5.766,9.972.124.212.2.541.533.494.308-.043.212-.386.274-.569a37.8,37.8,0,0,1,1.893-4.557,1.57,1.57,0,0,0-.022-1.617,4.353,4.353,0,0,1-.7-3.149c.7-2.619,2.244-4.7,5.932-4.43a1.673,1.673,0,0,0,1.515-.633,28.277,28.277,0,0,1,7.43-6.138c.72-.4.771-.885.471-1.576a45.222,45.222,0,0,0-9.694-14.4A43.273,43.273,0,0,0,65.449,12.434a49.014,49.014,0,0,0-7.941-1.064,43.987,43.987,0,0,0-8.208.474,38.392,38.392,0,0,0-10.617,2.9c-13.165,5.8-21.689,15.66-25.658,29.481-.489,1.7-.741,3.446-1.085,5.171a29.512,29.512,0,0,0-.2,5.638m50.692,97.41v.015q22.483,0,44.965,0c2.07,0,4.141,0,6.211-.02a8.975,8.975,0,0,0,6.459-2.409c3.066-2.954,3.931-6.993,2.024-10.516-2.534-4.68-5.288-9.24-7.977-13.835-1.57-2.684-3.13-5.375-4.73-8.044-.937-1.563-1.787-3.19-2.7-4.772-3.453-5.972-6.94-11.923-10.408-17.886-2.37-4.076-4.72-8.165-7.093-12.24Q83.976,73.8,78.748,64.87q-4.116-7.051-8.229-14.1a9.176,9.176,0,0,0-10.4-4.083,9.786,9.786,0,0,0-5.7,4.833c-2.675,4.672-5.387,9.324-8.094,13.978q-4.675,8.038-9.364,16.067c-2.923,5.034-5.823,10.081-8.74,15.118-3.277,5.658-6.574,11.3-9.842,16.968-2.745,4.757-5.616,9.44-8.3,14.235-2.108,3.768-4.381,7.443-6.509,11.2a8.164,8.164,0,0,0-.373,7.7,9.1,9.1,0,0,0,8.929,5.667h50.3M2.8,55.251a30.223,30.223,0,0,0,.171,3.484,55.826,55.826,0,0,0,.713,5.777A52.864,52.864,0,0,0,8.026,77.9,55.319,55.319,0,0,0,15.44,89.374a73.091,73.091,0,0,0,8.467,8.163c.59.51.936.443,1.313-.29.69-1.344,1.449-2.658,2.267-3.929.411-.637.343-1.018-.234-1.455a43.751,43.751,0,0,1-6.514-6.17,46.492,46.492,0,0,1-7.819-12.531A47.238,47.238,0,0,1,9.295,56.494a43.944,43.944,0,0,1,.677-8.93A44.714,44.714,0,0,1,16.36,30.746a50.42,50.42,0,0,1,9.364-10.757,45.084,45.084,0,0,1,8.4-5.894,44.239,44.239,0,0,1,19.08-5.171,48.029,48.029,0,0,1,13.527,1.282,48.94,48.94,0,0,1,7.476,2.5,42.67,42.67,0,0,1,12.646,8.109A46.993,46.993,0,0,1,93.7,28.484a34.122,34.122,0,0,1,4.837,9.042c.243.765.5.834,1.158.395a4.256,4.256,0,0,1,.617-.322,28.18,28.18,0,0,1,3.835-1.442c.508-.145.736-.409.492-.958-.365-.823-.663-1.678-1.05-2.49A53.457,53.457,0,0,0,89.22,14.385,51.584,51.584,0,0,0,73.34,5.425,49.85,49.85,0,0,0,63.608,3.16a50.094,50.094,0,0,0-7.08-.717c-2.519.006-5.022.295-7.527.522a46.364,46.364,0,0,0-7.215,1.427,50.951,50.951,0,0,0-8.634,3.216,57.806,57.806,0,0,0-9.836,5.917,42.827,42.827,0,0,0-7.729,7.4,43.832,43.832,0,0,0-4.433,6.108,57.372,57.372,0,0,0-3.581,6.748,59.817,59.817,0,0,0-2.777,7.381A58.7,58.7,0,0,0,2.8,55.251M63.689,41.789a2.375,2.375,0,0,0-2.46,1.433c-.112.187-.446.383-.272.569a.915.915,0,0,0,.772.186A4.522,4.522,0,0,1,63.595,44a21.509,21.509,0,0,0,2.787.411c.476,0,.571-.153.366-.559-.644-1.271-.975-2.064-3.058-2.058m22.034,7.689c.024-.292-.008-.3-.369-.217a3.254,3.254,0,0,0-2.043,2.625c0,.131-.057.311.114.373a.456.456,0,0,0,.527-.211c.435-.6.85-1.224,1.272-1.839.178-.26.355-.52.5-.732" transform="translate(0 0)" fill="#070708"/>
      <path id="Path_823570" data-name="Path 823570" d="M16.71,59.846a29.51,29.51,0,0,1,.2-5.638c.343-1.726.6-3.469,1.085-5.172,3.969-13.821,12.492-23.682,25.657-29.481a38.4,38.4,0,0,1,10.617-2.9,44,44,0,0,1,8.208-.475,49.161,49.161,0,0,1,7.941,1.064A43.283,43.283,0,0,1,91.7,28.906a45.241,45.241,0,0,1,9.694,14.4c.3.692.249,1.173-.471,1.576a28.28,28.28,0,0,0-7.43,6.138,1.674,1.674,0,0,1-1.516.633c-3.688-.267-5.235,1.81-5.931,4.429a4.352,4.352,0,0,0,.7,3.149,1.57,1.57,0,0,1,.022,1.617,37.8,37.8,0,0,0-1.893,4.557c-.063.182.033.525-.275.568-.336.047-.409-.282-.532-.494-1.928-3.32-3.868-6.634-5.766-9.972a13.76,13.76,0,0,0-3.8-4.612c-.582-.417-.411-.989-.385-1.5a4.558,4.558,0,0,0-1.09-3.23,5.246,5.246,0,0,0-5.2-1.957,4.694,4.694,0,0,0-4.15,4c-.23,1.528-1.434,1.781-2.372,2.4a12.861,12.861,0,0,0-2.93,2.756,26.544,26.544,0,0,0-1.905,3.14c-.792,1.357-1.634,2.691-2.4,4.055-.623,1.113-1.238,2.24-1.871,3.353-2.04,3.586-4,7.222-6.168,10.731-2.349,3.806-4.462,7.748-6.81,11.555-1.547,2.509-3.048,5.063-4.341,7.724-.025.052-.062.1-.089.15-.663,1.22-1.1,1.2-2.05.161-.933-1.012-2.065-1.838-3.02-2.832-1.481-1.542-3.173-2.921-4.106-4.922A9.265,9.265,0,0,0,24.326,84.9a34.945,34.945,0,0,1-3.689-6.448,43.986,43.986,0,0,1-3.414-11.017,37.491,37.491,0,0,1-.513-7.589m27.638-3.112c.371-3.653-3.059-7.642-7.708-7.48-4.13.143-6.975,3.319-7.157,7.46-.18,4.113,3.8,7.713,7.774,7.568a7.551,7.551,0,0,0,7.091-7.548m4.671-30.959c-2.444-.415-5.46,2.353-5.364,5.326a5.556,5.556,0,0,0,5.4,5.315,5.428,5.428,0,0,0,5.291-5.541,5.152,5.152,0,0,0-5.323-5.1M67.1,28.894a2.61,2.61,0,0,0-.595.095A10.555,10.555,0,0,0,60.5,34.906a.735.735,0,0,0,.088.733,1.216,1.216,0,0,0,2.258-.185,8.449,8.449,0,0,1,2.388-3.064,8.616,8.616,0,0,1,2.287-1.241,1.119,1.119,0,0,0,.8-1.372,1.048,1.048,0,0,0-1.223-.884M86.369,39.245a2.268,2.268,0,0,0-.9.1,11.479,11.479,0,0,0-5.631,5.2,1.29,1.29,0,0,0,.144,1.7c.768.614,1.431.451,1.976-.543a9.767,9.767,0,0,1,2.68-3.253A14.374,14.374,0,0,1,86.8,41.332a1.108,1.108,0,0,0,.7-1.337.9.9,0,0,0-1.125-.75M50.894,50.823A15.756,15.756,0,0,0,50.878,49a1.042,1.042,0,0,0-1.169-1.021c-.642.016-1.055.139-1.182.922a11.2,11.2,0,0,0,.57,5.715c.161.446.22.958.7,1.224a1.205,1.205,0,0,0,1.379-.12c.562-.406.4-1,.291-1.509a14.623,14.623,0,0,1-.573-3.389M34.2,76.157c.093-.536-.28-.83-.7-1.041-.694-.347-1.414-.641-2.118-.968a1.677,1.677,0,0,0-.944-.084c-.593.074-.8.562-1.037,1.02s.234.512.405.727a5.377,5.377,0,0,0,3.161,1.53c.743.192,1.247-.352,1.236-1.184m-1.457-34.29c1.256,0,1.582-.369,1.472-1.324A1.244,1.244,0,0,0,33.4,39.6a11.127,11.127,0,0,0-2.5-.941c-.646-.154-.891.315-1.247.677-.419.426-.053.733.156.97a7.1,7.1,0,0,0,2.935,1.563" transform="translate(-4.968 -4.806)" fill="#d5fff5"/>
      <path id="Path_823571" data-name="Path 823571" d="M63.457,172.105h-50.3a9.094,9.094,0,0,1-8.929-5.667,8.162,8.162,0,0,1,.372-7.7c2.129-3.757,4.4-7.432,6.509-11.2,2.682-4.794,5.553-9.477,8.3-14.234,3.268-5.663,6.564-11.31,9.841-16.968,2.918-5.037,5.818-10.084,8.74-15.118q4.669-8.041,9.364-16.067c2.706-4.655,5.418-9.306,8.094-13.978a9.783,9.783,0,0,1,5.7-4.834,9.176,9.176,0,0,1,10.4,4.084q4.126,7.045,8.229,14.1,5.217,8.936,10.436,17.871c2.373,4.075,4.723,8.163,7.093,12.24,3.467,5.963,6.955,11.914,10.408,17.886.915,1.582,1.766,3.209,2.7,4.772,1.6,2.668,3.159,5.359,4.73,8.044,2.688,4.595,5.442,9.155,7.976,13.834,1.907,3.523,1.043,7.562-2.024,10.517a8.975,8.975,0,0,1-6.459,2.409c-2.07.018-4.141.02-6.211.02q-22.483,0-44.965,0Zm1.511-8.532h47.671a7.4,7.4,0,0,0,.874-.014,1.316,1.316,0,0,0,1.125-1.961,22.24,22.24,0,0,0-1.283-2.447c-1.635-2.7-3.23-5.42-4.822-8.143-.824-1.41-1.552-2.889-2.416-4.259-1.481-2.343-2.838-4.757-4.256-7.134-2.146-3.6-4.136-7.284-6.227-10.912-2.543-4.414-5.125-8.806-7.687-13.21Q77.978,98.357,68.012,81.219c-.966-1.66-1.919-3.329-2.9-4.982-.495-.834-1.243-1.111-1.878-.715a2.753,2.753,0,0,0-.787.925c-2.043,3.217-3.884,6.554-5.8,9.844q-4.985,8.555-9.972,17.111-3.762,6.464-7.509,12.937c-2.207,3.8-4.393,7.607-6.647,11.377-.693,1.159-1.477,2.3-2.108,3.464-.571,1.05-1.116,2.221-1.726,3.233-1.969,3.262-3.78,6.614-5.771,9.86-.831,1.354-1.6,2.748-2.4,4.12-.947,1.625-1.912,3.239-2.845,4.872-.573,1-1.068,2.065-1.676,3.033-1.066,1.695-2.1,3.406-3.045,5.166-.59,1.1.1,1.95,1.349,2.143a19.978,19.978,0,0,0,3.171-.036q23.747.005,47.5,0" transform="translate(-1.024 -19.656)" fill="#da0033"/>
      <path id="Path_823572" data-name="Path 823572" d="M150.005,51.983a35.97,35.97,0,0,1,15.871,3.3,34.88,34.88,0,0,1,14.389,11.689,34.447,34.447,0,0,1,5.5,11.507,41.866,41.866,0,0,1,1.205,7.654,32.378,32.378,0,0,1-.03,5.291,34.369,34.369,0,0,1-1.381,6.807,34.846,34.846,0,0,1-3.966,8.908,35.4,35.4,0,0,1-21.814,15.854,36.623,36.623,0,0,1-11.249,1.068c-1.979-.1-3.91-.7-5.876-.893-1.679-.165-2.394-1.207-3.121-2.466q-6.286-10.881-12.624-21.732c-3.582-6.16-7.145-12.333-10.767-18.47-.563-.954-.045-1.747.19-2.489a36.853,36.853,0,0,1,11.624-17.665,36.453,36.453,0,0,1,10.985-6.326,25.96,25.96,0,0,1,7.39-1.655c1.062-.062,2.117-.244,3.175-.37l.5-.008m25.75,37.165.176-.023c.762-.07,1.038-.545,1.043-1.248a20.4,20.4,0,0,0-.166-2.159,26.332,26.332,0,0,0-1.454-6.626,25.8,25.8,0,0,0-10.158-12.757c-1.937-1.288-2.289-1.23-3.434.766q-3.537,6.169-7.084,12.333a.944.944,0,0,1-1.216.469,8.834,8.834,0,0,0-4.972.023.715.715,0,0,1-.994-.378c-.585-1.072-1.2-2.131-1.806-3.189-1.93-3.352-3.855-6.705-5.8-10.046-.575-.986-1.162-1.105-2.166-.487A25.98,25.98,0,0,0,127.4,77.558a24.676,24.676,0,0,0-2.251,9.772c-.026,1.684.388,1.867,1.784,1.875,5.071.029,10.142-.011,15.213-.026l.176.032a.51.51,0,0,1,.356.441,8.088,8.088,0,0,0,2.551,4.557.863.863,0,0,1,.178,1.273q-1.13,1.863-2.215,3.755c-1.8,3.123-3.6,6.244-5.371,9.385-.506.9-.342,1.418.481,1.912a25.976,25.976,0,0,0,11.108,3.428,21.472,21.472,0,0,0,5.847-.375,26.694,26.694,0,0,0,8.34-2.965c1.109-.625,1.213-1.07.588-2.2-.477-.865-.97-1.721-1.464-2.577-1.99-3.45-3.956-6.914-6-10.333-.359-.6-.31-.845.161-1.318a8.662,8.662,0,0,0,2.144-3.227c.2-.575-.068-1.471.8-1.769l.079.021.068-.045,15.086.022.067.032.064-.039.564-.041" transform="translate(-34.53 -15.489)" fill="gold"/>
      <path id="Path_823573" data-name="Path 823573" d="M3.986,56.288a58.666,58.666,0,0,1,2-14.094,59.7,59.7,0,0,1,2.777-7.381,57.372,57.372,0,0,1,3.581-6.748,43.889,43.889,0,0,1,4.433-6.108,42.827,42.827,0,0,1,7.729-7.4,57.761,57.761,0,0,1,9.836-5.917,50.951,50.951,0,0,1,8.634-3.216A46.38,46.38,0,0,1,50.187,4c2.5-.227,5.008-.517,7.527-.522a50.1,50.1,0,0,1,7.079.717,49.857,49.857,0,0,1,9.733,2.265,51.588,51.588,0,0,1,15.879,8.96,53.449,53.449,0,0,1,14.372,18.322c.387.812.685,1.667,1.05,2.49.244.55.015.814-.492.958a28.217,28.217,0,0,0-3.835,1.442,4.277,4.277,0,0,0-.616.322c-.661.44-.916.371-1.159-.394a34.122,34.122,0,0,0-4.837-9.042,46.959,46.959,0,0,0-6.846-7.672A42.671,42.671,0,0,0,75.4,13.739a48.939,48.939,0,0,0-7.476-2.5A48.027,48.027,0,0,0,54.393,9.961a44.236,44.236,0,0,0-19.079,5.171,45.038,45.038,0,0,0-8.4,5.894,50.37,50.37,0,0,0-9.364,10.757A44.714,44.714,0,0,0,11.158,48.6a43.894,43.894,0,0,0-.677,8.93A47.222,47.222,0,0,0,14.1,74.2,46.52,46.52,0,0,0,21.923,86.73a43.722,43.722,0,0,0,6.515,6.17c.576.437.644.818.234,1.455-.818,1.271-1.577,2.585-2.268,3.928-.376.734-.722.8-1.313.291a73.148,73.148,0,0,1-8.467-8.163A55.287,55.287,0,0,1,9.212,78.936,52.832,52.832,0,0,1,4.87,65.547a55.6,55.6,0,0,1-.714-5.776,30.223,30.223,0,0,1-.171-3.484" transform="translate(-1.185 -1.037)" fill="#272727"/>
      <path id="Path_823574" data-name="Path 823574" d="M89.541,59.512c2.083-.006,2.414.787,3.058,2.058.206.406.11.56-.366.56a21.754,21.754,0,0,1-2.787-.411,4.5,4.5,0,0,0-1.864-.019.916.916,0,0,1-.773-.186c-.175-.185.161-.381.272-.568a2.376,2.376,0,0,1,2.459-1.434" transform="translate(-25.851 -17.724)" fill="#f6f8fa"/>
      <path id="Path_823575" data-name="Path 823575" d="M121.079,70.366c-.144.211-.32.472-.5.732-.422.614-.837,1.234-1.272,1.839a.456.456,0,0,1-.527.211c-.171-.062-.117-.243-.114-.373a3.254,3.254,0,0,1,2.043-2.625c.362-.088.393-.075.369.217" transform="translate(-35.355 -20.888)" fill="#f6f8fa"/>
      <path id="Path_823576" data-name="Path 823576" d="M164.272,51.934l-.5.008a.318.318,0,0,1,.5-.008" transform="translate(-48.798 -15.439)" fill="#272727"/>
      <path id="Path_823577" data-name="Path 823577" d="M49.781,70.789a7.551,7.551,0,0,1-7.091,7.548c-3.972.145-7.954-3.455-7.774-7.568.181-4.141,3.026-7.317,7.157-7.46,4.65-.161,8.08,3.827,7.708,7.48m-7.71,5.074a5.1,5.1,0,0,0,5.42-4.883,4.945,4.945,0,0,0-5.306-5.215,5.058,5.058,0,0,0-.114,10.1" transform="translate(-10.402 -18.862)" fill="#070708"/>
      <path id="Path_823578" data-name="Path 823578" d="M60.469,29.849a5.152,5.152,0,0,1,5.322,5.1A5.427,5.427,0,0,1,60.5,40.49a5.556,5.556,0,0,1-5.4-5.315c-.1-2.972,2.92-5.74,5.364-5.326m2.844,5.29A2.763,2.763,0,0,0,60.4,32.134a2.963,2.963,0,0,0-.129,5.915,2.86,2.86,0,0,0,3.045-2.91" transform="translate(-16.419 -8.882)" fill="#070708"/>
      <path id="Path_823579" data-name="Path 823579" d="M85.67,34.305a1.049,1.049,0,0,1,1.223.885,1.119,1.119,0,0,1-.8,1.371A8.636,8.636,0,0,0,83.8,37.8a8.455,8.455,0,0,0-2.388,3.064,1.216,1.216,0,0,1-2.258.185.735.735,0,0,1-.088-.733A10.558,10.558,0,0,1,85.075,34.4a2.61,2.61,0,0,1,.595-.095" transform="translate(-23.542 -10.219)" fill="#070708"/>
      <path id="Path_823580" data-name="Path 823580" d="M113.069,49.047a.9.9,0,0,1,1.125.75,1.108,1.108,0,0,1-.7,1.337,14.438,14.438,0,0,0-2.155,1.122,9.76,9.76,0,0,0-2.681,3.253c-.545.995-1.208,1.156-1.976.543a1.289,1.289,0,0,1-.143-1.7,11.477,11.477,0,0,1,5.631-5.2,2.279,2.279,0,0,1,.9-.1" transform="translate(-31.669 -14.609)" fill="#070708"/>
      <path id="Path_823581" data-name="Path 823581" d="M64.35,64.341a14.648,14.648,0,0,0,.573,3.388c.11.512.272,1.1-.291,1.509a1.206,1.206,0,0,1-1.379.12c-.479-.266-.537-.778-.7-1.224a11.2,11.2,0,0,1-.57-5.715c.126-.783.54-.906,1.182-.922a1.042,1.042,0,0,1,1.17,1.021,15.772,15.772,0,0,1,.015,1.822" transform="translate(-18.426 -18.324)" fill="#070708"/>
      <path id="Path_823582" data-name="Path 823582" d="M39.572,100.733c.01.832-.494,1.377-1.237,1.185a5.37,5.37,0,0,1-3.16-1.531c-.171-.213-.632-.28-.406-.726s.445-.947,1.038-1.02a1.678,1.678,0,0,1,.944.083c.7.327,1.424.621,2.118.969.423.211.8.5.7,1.04" transform="translate(-10.342 -29.383)" fill="#070708"/>
      <path id="Path_823583" data-name="Path 823583" d="M38.167,51.415a7.1,7.1,0,0,1-2.935-1.563c-.209-.237-.575-.544-.156-.97.356-.362.6-.831,1.247-.677a11.127,11.127,0,0,1,2.5.941,1.244,1.244,0,0,1,.818.944c.11.955-.216,1.322-1.472,1.324" transform="translate(-10.394 -14.354)" fill="#070708"/>
      <path id="Path_823584" data-name="Path 823584" d="M68.916,167.554q-23.749,0-47.5,0a19.976,19.976,0,0,1-3.171.036c-1.249-.194-1.939-1.047-1.349-2.144.946-1.76,1.979-3.472,3.045-5.166.609-.968,1.1-2.03,1.676-3.033.933-1.633,1.9-3.248,2.845-4.872.8-1.372,1.566-2.767,2.4-4.12,1.992-3.246,3.8-6.6,5.771-9.86.611-1.012,1.154-2.183,1.726-3.234.63-1.158,1.415-2.3,2.108-3.463,2.254-3.769,4.44-7.58,6.647-11.377q3.758-6.466,7.509-12.937,4.98-8.558,9.972-17.11c1.918-3.291,3.758-6.627,5.8-9.844a2.731,2.731,0,0,1,.787-.925c.634-.4,1.383-.119,1.878.715.979,1.653,1.932,3.321,2.9,4.982q9.967,17.137,19.935,34.275c2.562,4.4,5.143,8.8,7.687,13.21,2.091,3.629,4.081,7.317,6.226,10.912,1.418,2.376,2.776,4.79,4.256,7.134.865,1.369,1.592,2.848,2.416,4.259,1.592,2.723,3.187,5.445,4.822,8.142a22.358,22.358,0,0,1,1.283,2.447,1.317,1.317,0,0,1-1.125,1.961,7.551,7.551,0,0,1-.874.014H68.916m-48.541-2.426.093.2.093-.2c.174,0,.349-.014.524-.014l92.7,0h1.667c-.371-.713-.68-1.342-1.02-1.954-.6-1.073-1.387-2.048-1.925-3.13-1.33-2.675-2.937-5.184-4.468-7.736-.8-1.341-1.521-2.731-2.358-4.058-.8-1.271-1.448-2.671-2.208-3.987-1.343-2.327-2.863-4.558-4.115-6.932-1.735-3.29-3.676-6.457-5.531-9.674-3.846-6.672-7.758-13.306-11.629-19.963Q75.132,95.513,68.086,83.338c-.208-.36-.311-.562-.677-.051-.784,1.092-1.321,2.32-2.03,3.453-.885,1.413-1.528,2.979-2.419,4.388-1.521,2.4-2.908,4.884-4.34,7.338-3.01,5.157-5.95,10.356-8.952,15.519-3.209,5.518-6.463,11.01-9.684,16.521-2.948,5.043-5.859,10.107-8.82,15.143-3.652,6.21-7.149,12.51-10.914,18.655-.177.289-.37.619.124.826" transform="translate(-4.972 -23.636)" fill="#070708"/>
      <path id="Path_823585" data-name="Path 823585" d="M146.077,94.894c-5.071.014-10.142.055-15.212.026-1.4-.008-1.81-.192-1.784-1.876a24.675,24.675,0,0,1,2.251-9.772,25.983,25.983,0,0,1,10.32-11.732c1-.619,1.591-.5,2.166.487,1.949,3.34,3.873,6.695,5.8,10.045.609,1.059,1.22,2.117,1.806,3.189a.716.716,0,0,0,.994.379,8.828,8.828,0,0,1,4.972-.024.943.943,0,0,0,1.216-.469q3.549-6.161,7.084-12.333c1.144-2,1.5-2.053,3.434-.765a25.8,25.8,0,0,1,10.158,12.757,26.287,26.287,0,0,1,1.453,6.626,20.193,20.193,0,0,1,.167,2.159c0,.7-.28,1.178-1.043,1.248l-.176.023-.564.041c-.048-.077-.091-.072-.131.007l-15.086-.022c-.062-.071-.11-.057-.147.025-.866.3-.594,1.193-.8,1.768a8.651,8.651,0,0,1-2.144,3.227c-.472.473-.521.717-.161,1.318,2.042,3.419,4.009,6.883,6,10.333.494.856.986,1.713,1.464,2.577.626,1.131.521,1.576-.588,2.2a26.648,26.648,0,0,1-8.339,2.965,21.5,21.5,0,0,1-5.848.376,25.985,25.985,0,0,1-11.107-3.428c-.823-.495-.987-1.012-.481-1.912,1.767-3.142,3.572-6.262,5.371-9.386q1.088-1.889,2.215-3.755a.863.863,0,0,0-.178-1.273,8.088,8.088,0,0,1-2.551-4.558.512.512,0,0,0-.356-.441c-.044-.091-.1-.108-.177-.032m-6.939-2.366c2.128,0,4.256-.027,6.384.017a.919.919,0,0,0,1.093-.8,8.57,8.57,0,0,1,2.56-4.284.777.777,0,0,0,.185-1.141c-.176-.266-.311-.559-.47-.837q-3.03-5.3-6.054-10.608c-.477-.842-.581-.913-1.373-.357a22.212,22.212,0,0,0-6.041,6.315,25.331,25.331,0,0,0-3.844,10.366c-.154,1.127,0,1.332,1.176,1.335,2.128.006,4.256,0,6.384,0m31.869,0c2.185,0,4.371-.014,6.556.01.614.006.976-.152.869-.833a36.567,36.567,0,0,0-.611-3.681,23.714,23.714,0,0,0-9.32-13.579c-.591-.425-.946-.3-1.256.279q-3.17,5.871-6.6,11.6a.607.607,0,0,0,.121.906,8.12,8.12,0,0,1,2.593,4.444,1.014,1.014,0,0,0,1.176.871c2.156-.036,4.313-.013,6.469-.014m-15.483,24.642c.321-.032.9-.093,1.475-.143a28.442,28.442,0,0,0,8.073-2.051c.54-.216.619-.493.315-.981-.6-.963-1.167-1.945-1.733-2.928-1.61-2.8-3.232-5.589-4.805-8.408a1.16,1.16,0,0,0-1.592-.657,7.26,7.26,0,0,1-4.209.125c-1.379-.4-1.354-.406-2.053.863-2.006,3.643-4.058,7.26-6.228,10.809-.386.632-.263.9.356,1.187a26.237,26.237,0,0,0,10.4,2.186m5.434-23.323a6.022,6.022,0,1,0-12.039-.044,6,6,0,0,0,6.181,5.915c3.047.035,6.081-2.692,5.857-5.871" transform="translate(-38.461 -21.203)" fill="#070708"/>
      <path id="Path_823586" data-name="Path 823586" d="M201.165,104.913l.176-.023-.176.023" transform="translate(-59.94 -31.253)" fill="#272727"/>
      <path id="Path_823587" data-name="Path 823587" d="M200.174,104.966c.039-.079.083-.084.131-.007l-.063.039Z" transform="translate(-59.644 -31.257)" fill="#272727"/>
      <path id="Path_823588" data-name="Path 823588" d="M178.477,104.965c.036-.081.084-.1.147-.025l-.068.046Z" transform="translate(-53.179 -31.255)" fill="#272727"/>
      <path id="Path_823589" data-name="Path 823589" d="M153.291,104.947c.074-.077.132-.059.177.032l-.177-.032" transform="translate(-45.675 -31.256)" fill="#272727"/>
      <path id="Path_823590" data-name="Path 823590" d="M43.112,76.907a5.058,5.058,0,0,1,.114-10.1,4.945,4.945,0,0,1,5.306,5.215,5.1,5.1,0,0,1-5.42,4.883" transform="translate(-11.443 -19.907)" fill="#f6f8fa"/>
      <path id="Path_823591" data-name="Path 823591" d="M64.347,36.126a2.888,2.888,0,1,1-5.775.027,2.831,2.831,0,0,1,2.859-3.033,2.763,2.763,0,0,1,2.916,3.005" transform="translate(-17.452 -9.869)" fill="#f6f8fa"/>
      <path id="Path_823592" data-name="Path 823592" d="M21.808,166.68c-.494-.207-.3-.537-.124-.826,3.764-6.144,7.261-12.445,10.913-18.655,2.961-5.035,5.872-10.1,8.82-15.142,3.221-5.511,6.476-11,9.684-16.522,3-5.162,5.941-10.361,8.952-15.518,1.433-2.454,2.819-4.934,4.341-7.338.891-1.408,1.534-2.974,2.419-4.388.709-1.132,1.245-2.36,2.029-3.453.366-.51.469-.309.677.051q7.055,12.17,14.117,24.338c3.87,6.657,7.783,13.291,11.629,19.963,1.855,3.217,3.8,6.384,5.531,9.674,1.252,2.374,2.772,4.6,4.115,6.932.759,1.316,1.405,2.715,2.207,3.987.837,1.328,1.554,2.718,2.359,4.058,1.53,2.552,3.137,5.06,4.468,7.736.538,1.083,1.329,2.057,1.925,3.13.34.612.649,1.241,1.02,1.954h-1.667l-92.7,0c-.175,0-.349.009-.524.014h-.187m42.216-13.851v.2c0,2.3-.029,4.6,0,6.9.015,1.409.179,1.569,1.608,1.6,2.272.041,4.545.033,6.818.045,1.53.008,1.964-.4,1.978-1.939.018-2.1,0-4.2.006-6.292,0-1.794-.38-2.215-2.17-2.2-2.208.022-4.416-.087-6.626.1-1.443.123-1.511.1-1.611,1.59m5.118-42.337v0c-2.331,0-4.663-.013-6.994.006-.946.008-1.323.4-1.325,1.261,0,.949.137,1.9.228,2.833.072.746.006,1.5.142,2.23a35.733,35.733,0,0,1,.643,5.693c.044,1.789.255,3.557.448,5.32.067.61-.174,1.208.055,1.789a3.284,3.284,0,0,1,.227,1.681,8.145,8.145,0,0,0,.174,2.765,29.408,29.408,0,0,1,.493,4.48c.14,2.464.663,4.9.578,7.376a1.622,1.622,0,0,0,1.559,1.483c2.448.008,4.9-.013,7.344.011,1.163.011,1.721-.559,1.732-1.555.026-2.372.531-4.7.579-7.065.029-1.454.34-2.887.385-4.353.029-.986.3-1.983.323-2.986.03-1.526.243-3.04.383-4.553q.249-2.7.475-5.4c.115-1.375.253-2.747.388-4.12.165-1.686.407-3.368.482-5.057.071-1.594-.247-1.839-1.847-1.841q-3.235,0-6.47,0" transform="translate(-6.404 -25.187)" fill="#f6f8fa"/>
      <path id="Path_823593" data-name="Path 823593" d="M21.941,201.546h.187l-.093.2-.093-.2" transform="translate(-6.538 -60.053)" fill="#272727"/>
      <path id="Path_823594" data-name="Path 823594" d="M140.176,93.8c-2.128,0-4.256,0-6.384,0-1.174,0-1.33-.207-1.176-1.335A25.33,25.33,0,0,1,136.46,82.1a22.214,22.214,0,0,1,6.041-6.315c.793-.555.9-.486,1.374.357,2.007,3.542,4.035,7.073,6.054,10.608.159.278.293.571.47.837a.777.777,0,0,1-.185,1.141,8.563,8.563,0,0,0-2.56,4.284.92.92,0,0,1-1.094.8c-2.127-.045-4.256-.017-6.384-.015" transform="translate(-39.5 -22.475)" fill="#272727"/>
      <path id="Path_823595" data-name="Path 823595" d="M184.343,93.82c-2.156,0-4.313-.022-6.469.013a1.013,1.013,0,0,1-1.176-.871,8.12,8.12,0,0,0-2.593-4.444.607.607,0,0,1-.121-.906q3.414-5.733,6.6-11.6c.31-.575.665-.7,1.256-.279a23.71,23.71,0,0,1,9.32,13.579A36.52,36.52,0,0,1,191.768,93c.107.682-.255.84-.869.833-2.185-.024-4.371-.009-6.556-.009" transform="translate(-51.797 -22.492)" fill="#272727"/>
      <path id="Path_823596" data-name="Path 823596" d="M162.088,130.215a26.221,26.221,0,0,1-10.4-2.185c-.619-.282-.743-.555-.357-1.187,2.17-3.548,4.222-7.166,6.228-10.809.7-1.269.674-1.263,2.053-.864a7.254,7.254,0,0,0,4.209-.124,1.16,1.16,0,0,1,1.592.657c1.573,2.819,3.195,5.61,4.805,8.408.566.984,1.135,1.965,1.733,2.928.3.489.225.766-.315.981a28.442,28.442,0,0,1-8.073,2.051c-.577.051-1.154.112-1.475.143" transform="translate(-45.026 -34.246)" fill="#272727"/>
      <path id="Path_823597" data-name="Path 823597" d="M169.378,100.845c.224,3.18-2.81,5.906-5.857,5.871a6,6,0,0,1-6.181-5.915,6.022,6.022,0,1,1,12.039.044" transform="translate(-46.881 -28.198)" fill="#272727"/>
      <path id="Path_823598" data-name="Path 823598" d="M85.834,121.511q3.235,0,6.47,0c1.6,0,1.918.246,1.847,1.841-.075,1.69-.318,3.371-.482,5.057-.134,1.372-.273,2.745-.388,4.12q-.225,2.7-.475,5.4c-.139,1.513-.352,3.026-.382,4.553-.02,1-.293,2-.324,2.986-.044,1.466-.355,2.9-.384,4.353-.048,2.368-.553,4.692-.58,7.064-.011,1-.569,1.566-1.731,1.556-2.448-.023-4.9,0-7.344-.011a1.622,1.622,0,0,1-1.559-1.483c.085-2.481-.438-4.912-.579-7.376a29.4,29.4,0,0,0-.493-4.48,8.167,8.167,0,0,1-.173-2.765,3.3,3.3,0,0,0-.227-1.68c-.229-.581.012-1.179-.055-1.789-.194-1.763-.4-3.531-.449-5.32a35.731,35.731,0,0,0-.642-5.693c-.136-.727-.069-1.484-.143-2.23-.091-.937-.229-1.884-.227-2.833,0-.865.378-1.253,1.325-1.261,2.331-.019,4.663-.006,6.994-.006v0m-5.379,2.4c-.133-.1-.227-.089-.265.09a6.322,6.322,0,0,0-.027.868c.26,2.467.3,4.947.65,7.414.377,2.648.272,5.354.758,8,.228,1.241.069,2.5.2,3.739.2,1.976.588,3.936.642,5.925.047,1.738.292,3.452.458,5.176.063.658.315.9.99.88,1.368-.042,2.739-.034,4.106.016.647.023.918-.22.916-.837,0-1.361.235-2.7.345-4.048.213-2.612.4-5.222.7-7.827.311-2.659.3-5.354.748-8,.2-1.158.063-2.328.173-3.483.218-2.274.684-4.52.689-6.82,0-.73-.138-1.034-.948-1.03-3.378.015-6.757-.034-10.135-.06" transform="translate(-23.097 -36.205)" fill="#070708"/>
      <path id="Path_823599" data-name="Path 823599" d="M82.069,181.094c.1-1.488.168-1.468,1.611-1.59,2.21-.187,4.418-.079,6.626-.1,1.79-.018,2.173.4,2.17,2.2,0,2.1.011,4.195-.007,6.292-.013,1.539-.447,1.947-1.978,1.94-2.272-.012-4.545,0-6.817-.045-1.429-.026-1.593-.186-1.608-1.6-.026-2.3,0-4.6,0-6.9l.219-.1-.219-.1m6.584.844a1.054,1.054,0,0,0-1.015-.034h-.371l-.16,0-.9.012a2.094,2.094,0,0,0-1.354-.041c-.325.058-.385.274-.384.569.011,1.509.025,3.019,0,4.527-.01.549.265.6.7.6,1.422-.016,2.845-.028,4.266,0,.494.011.659-.13.644-.629-.031-1.131-.008-2.263-.008-3.4,0-1.507,0-1.507-1.419-1.615" transform="translate(-24.449 -53.452)" fill="#070708"/>
      <path id="Path_823600" data-name="Path 823600" d="M82.075,181.817l.219.1-.219.1v-.2" transform="translate(-24.455 -54.175)" fill="#272727"/>
      <path id="Path_823601" data-name="Path 823601" d="M81.575,124.923c3.378.026,6.757.075,10.135.06.81,0,.95.3.948,1.03-.006,2.3-.471,4.546-.689,6.82-.11,1.155.022,2.325-.173,3.483-.448,2.649-.437,5.344-.748,8-.305,2.605-.488,5.215-.7,7.827-.11,1.348-.349,2.687-.345,4.048,0,.616-.27.86-.916.837-1.368-.05-2.739-.058-4.106-.016-.675.02-.927-.222-.99-.88-.166-1.724-.411-3.438-.458-5.176-.054-1.989-.438-3.949-.642-5.925-.128-1.24.031-2.5-.2-3.739-.486-2.645-.381-5.352-.758-8-.351-2.466-.39-4.947-.65-7.414a6.434,6.434,0,0,1,.026-.868l.266-.09" transform="translate(-24.216 -37.222)" fill="#da0033"/>
      <path id="Path_823602" data-name="Path 823602" d="M81.59,124.9l-.266.09c.039-.179.133-.192.266-.09" transform="translate(-24.232 -37.195)" fill="#272727"/>
      <path id="Path_823603" data-name="Path 823603" d="M88.291,182.96h.371l1.015.034c1.42.107,1.42.107,1.419,1.615,0,1.132-.022,2.264.008,3.4.014.5-.15.64-.644.629-1.422-.032-2.844-.02-4.266,0-.437,0-.711-.05-.7-.6.027-1.509.012-3.018,0-4.527,0-.295.058-.511.383-.569a3.972,3.972,0,0,0,1.354.041l.9-.012.081.025Z" transform="translate(-25.473 -54.508)" fill="#da0033"/>
      <path id="Path_823604" data-name="Path 823604" d="M87.394,182.936a3.984,3.984,0,0,1-1.354-.041,2.085,2.085,0,0,1,1.354.041" transform="translate(-25.637 -54.468)" fill="#272727"/>
      <path id="Path_823605" data-name="Path 823605" d="M91.022,182.957l-1.015-.034a1.054,1.054,0,0,1,1.015.034" transform="translate(-26.819 -54.47)" fill="#272727"/>
      <path id="Path_823606" data-name="Path 823606" d="M89.411,182.971l-.079.028-.081-.025.16,0" transform="translate(-26.593 -54.519)" fill="#272727"/>
    </g>
  </g>
</svg>
