<svg xmlns="http://www.w3.org/2000/svg" xmlns:xlink="http://www.w3.org/1999/xlink" width="190" height="190" viewBox="0 0 190 190">
  <defs>
    <clipPath id="clip-path">
      <rect id="Rectangle_378104" data-name="Rectangle 378104" width="190" height="190" transform="translate(1125 2521.23)" fill="#fff" stroke="#707070" stroke-width="1"/>
    </clipPath>
    <clipPath id="clip-path-2">
      <rect id="Rectangle_378276" data-name="Rectangle 378276" width="152.469" height="152.45" fill="none"/>
    </clipPath>
  </defs>
  <g id="Mask_Group_394" data-name="Mask Group 394" transform="translate(-1125 -2521.23)" clip-path="url(#clip-path)">
    <g id="Group_1074107" data-name="Group 1074107" transform="translate(1143.766 2540.005)">
      <g id="Group_1074106" data-name="Group 1074106" clip-path="url(#clip-path-2)">
        <path id="Path_824050" data-name="Path 824050" d="M120.608,139.058a17.841,17.841,0,0,1,.017-2.389c.285-2.062,1.36-3.3,3.6-3.3,8.255.016,16.51-.017,24.765.022a3.093,3.093,0,0,1,3.431,3.379q.089,6.19,0,12.382a3.023,3.023,0,0,1-3.307,3.262q-12.5.058-25,0c-2.385-.013-3.626-1.357-3.451-4.1.127-2-.655-2.572-2.411-3.154-7.8-2.586-12.238-8.122-13.334-16.239-.181-1.339-.34-1.875-1.867-1.852-3.677.054-4.492-.865-4.52-4.686-.008-1.107,0-1.85-1.463-2.108A28.336,28.336,0,0,1,76.623,105.9c-.067-.116-.225-.179-.5-.388a38.086,38.086,0,0,1-4.419,6.066,27.589,27.589,0,0,1-15.52,8.531c-1.659.292-2.366.808-2.285,2.667.144,3.348-.925,4.33-4.4,4.308-1.363-.008-1.763.264-1.961,1.751-1.119,8.409-5.719,14.043-13.926,16.5a2.068,2.068,0,0,0-1.789,2.417c.061,3.727-.956,4.683-4.577,4.685q-11.549.005-23.1,0c-3.087,0-4.115-1.044-4.127-4.139q-.021-5.358,0-10.716c.01-3.2,1.029-4.192,4.307-4.2q11.549-.01,23.1,0c3.286,0,4.321.91,4.406,4.149.037,1.418.215,1.821,1.688,1.129a12.647,12.647,0,0,0,7.556-9.644c.339-1.786-.253-1.933-1.726-1.919-6.191.06-12.382.03-18.574.024-3.946,0-4.958-1-4.967-4.883-.008-3.254-.015-6.509,0-9.763.018-3.409,1-4.431,4.345-4.441,6.35-.02,12.7-.051,19.05.024,1.64.02,2.2-.264,1.861-2.1-.954-5.215-4.1-8.335-8.849-10.161-.569.636-.309,1.288-.344,1.88-.167,2.825-1.159,3.879-3.952,3.89q-12.025.049-24.051,0c-2.857-.012-3.829-1.033-3.846-3.89q-.034-5.6,0-11.192c.015-2.661,1.077-3.948,3.628-3.971q12.263-.106,24.527,0c2.645.026,3.715,1.387,3.651,4.464-.032,1.56.3,2.192,2,2.726,8,2.521,12.643,8.094,13.709,16.43.2,1.538.559,1.948,2.07,1.93,3.609-.044,4.215.569,4.3,4.306.031,1.32.411,1.65,1.656,1.461C64.339,112.5,72.8,102.66,72.945,93.717c.024-1.439-.446-1.7-1.737-1.69-7.461.051-14.922.036-22.384.02-3.4-.008-4.422-1.007-4.431-4.355q-.029-11.43,0-22.861c.007-3.4,1.008-4.421,4.356-4.429,7.382-.019,14.765-.057,22.145.033,1.675.02,2.169-.411,2.031-2.105a22.354,22.354,0,0,0-17.279-19.69c-1.1-.262-1.691-.07-1.733,1.358-.115,3.926-.6,4.409-4.46,4.378-1.5-.012-1.714.495-1.893,1.86C46.438,54.768,41.7,60.373,33.452,62.854c-1.26.379-1.6.823-1.614,2.06-.048,4.262-.916,5.048-5.251,5.049q-10.954,0-21.908,0C1.026,69.955.026,68.946.023,65.319c0-3.413-.009-6.826,0-10.24.01-3.283.913-4.2,4.254-4.2q11.549-.027,23.1,0c3.444.006,4.367.914,4.5,4.3.017.456.068.91.116,1.524,5.04-1.854,8.177-5.057,9.106-10.376.325-1.859-.392-1.934-1.817-1.923-6.191.047-12.382.025-18.574.019-4.006,0-4.887-.882-4.893-4.854-.005-3.255-.02-6.509,0-9.763.024-3.309,1.141-4.456,4.415-4.469,6.429-.025,12.859-.05,19.288.024,1.5.017,1.816-.294,1.564-1.85a12.089,12.089,0,0,0-9.229-10.1,17.5,17.5,0,0,1-.018,2.387c-.292,2.064-1.376,3.287-3.618,3.282-8.176-.019-16.351.011-24.527-.019C1.208,19.048.057,17.888.033,15.415c-.04-3.969-.048-7.938,0-11.906C.066,1.191,1.243.034,3.6.025q12.263-.049,24.527,0c2.6.01,3.85,1.255,3.673,4.12-.125,2.023.692,2.549,2.431,3.13,7.794,2.6,12.229,8.14,13.314,16.258.181,1.355.369,1.863,1.878,1.842,3.672-.051,4.435.863,4.545,4.693.022.763-.377,1.591.963,2.014C68,36.212,68.867,36.853,76.319,46.973A29.856,29.856,0,0,1,87.446,35.567a26.737,26.737,0,0,1,9.3-3.34c1.323-.2,1.826-.621,1.808-2.084-.047-3.98.727-4.724,4.645-4.79,1.135-.019,1.531-.213,1.691-1.509,1.05-8.532,5.656-14.231,13.953-16.731A2.068,2.068,0,0,0,120.637,4.7c-.062-3.728.953-4.684,4.572-4.686q11.549-.005,23.1,0c3.094,0,4.12,1.038,4.132,4.133.014,3.651.02,7.3,0,10.954-.017,2.892-1.106,3.956-4.064,3.961q-11.787.021-23.575,0c-3.031,0-4.093-1-4.17-4.145-.035-1.408-.2-1.831-1.686-1.135a12.557,12.557,0,0,0-7.587,9.882c-.254,1.534.213,1.692,1.508,1.682,6.27-.049,12.541-.026,18.811-.02,3.948,0,4.968,1,4.979,4.868q.013,4.644,0,9.287c0,4.046-.861,4.931-4.814,4.936-6.191.008-12.383.044-18.573-.027-1.613-.019-2.22.221-1.877,2.087.959,5.212,4.083,8.353,8.868,10.147.56-.6.295-1.254.329-1.844.163-2.834,1.15-3.889,3.94-3.9q12.025-.049,24.051,0c2.861.011,3.841,1.033,3.859,3.878q.036,5.6,0,11.192c-.015,2.667-1.071,3.958-3.619,3.981q-12.263.11-24.527,0c-2.65-.026-3.726-1.39-3.659-4.458.034-1.562-.306-2.215-1.993-2.744-8.011-2.51-12.643-8.084-13.719-16.415-.2-1.53-.548-1.953-2.065-1.933-3.607.045-4.219-.573-4.306-4.3-.03-1.316-.407-1.653-1.654-1.467C88.24,39.9,79.889,49.51,79.519,58.484c-.069,1.677.472,1.955,1.966,1.941,7.3-.066,14.605-.037,21.908-.027,3.715.005,4.675.944,4.68,4.588q.017,11.311,0,22.622c-.007,3.4-1.009,4.428-4.352,4.437-7.382.019-14.764.056-22.145-.032-1.665-.02-2.178.394-2.037,2.1A22.336,22.336,0,0,0,96.815,113.8c1.093.265,1.695.086,1.737-1.35.116-3.934.6-4.368,4.455-4.4,1.2-.01,1.714-.155,1.883-1.6C105.9,97.8,110.658,92.1,119.009,89.607c1.463-.437,1.6-1.081,1.608-2.308.011-3.82,1.02-4.809,4.773-4.814q11.192-.014,22.384,0c3.667,0,4.664,1.006,4.668,4.631,0,3.493.015,6.986,0,10.478-.017,2.98-.979,3.963-4.007,3.973q-11.669.04-23.337,0c-3.531-.007-4.372-.879-4.5-4.532-.014-.379-.069-.756-.12-1.288-5.037,1.836-8.165,5.046-9.1,10.357-.325,1.836.349,1.95,1.8,1.939,6.35-.051,12.7-.034,19.05-.017,3.4.009,4.405,1.008,4.429,4.359.023,3.334.015,6.668,0,10-.014,3.616-1.085,4.715-4.646,4.724-6.35.015-12.7.042-19.05-.025-1.462-.015-1.844.233-1.579,1.832a12.177,12.177,0,0,0,9.232,10.133M10.518,57.251c-4.226-.221-4.226-.221-4.208,3.838a1.449,1.449,0,0,1,0,.236c-.261,1.608.318,2.187,2.032,2.144,4.733-.117,9.479-.213,14.2.029,2.554.131,3.219-.724,2.69-3.006.224-3.318.224-3.328-2.954-3.315-3.921.015-7.841.048-11.761.074m135.244.039-14.28-.043c-4.4-.216-4.4-.216-4.351,4.147a5.117,5.117,0,0,1,0,.71c-.135,1.047.335,1.35,1.351,1.342,5.45-.039,10.9-.015,16.35-.025.523,0,1.306.112,1.264-.669-.1-1.82.6-3.7-.33-5.462M25.235,91.93c-.311-1.019,1.3-2.91-1.271-2.9-4.481.01-8.962.06-13.443.093-4.226-.282-4.141-.28-4.25,3.823-.047,1.775.323,2.455,2.285,2.385,4.565-.162,9.14-.051,13.711-.051,3.189,0,3.189,0,2.969-3.345m120.523-2.761c-4.753-.286-9.508-.181-14.263-.053-4.408-.287-4.408-.287-4.363,4.123a5.2,5.2,0,0,1,0,.711c-.133,1.034.308,1.352,1.336,1.344,5.451-.041,10.9-.014,16.353-.028.508,0,1.315.174,1.275-.632-.091-1.821.592-3.7-.334-5.464M25.244,142.894q-.024-1.412-.049-2.825c-.469-.861-1.276-.406-1.9-.413-4.123-.048-8.248-.04-12.371-.019-4.846.024-4.79.036-4.664,4.816.036,1.376.491,1.752,1.806,1.736,4.757-.061,9.516-.024,14.274-.024,3.132,0,3.132,0,2.906-3.271M25.195,6.7c-.469-.861-1.276-.406-1.9-.414-4.124-.048-8.248-.04-12.371-.019-4.846.025-4.79.037-4.664,4.817.036,1.376.491,1.752,1.806,1.736,4.757-.061,9.516-.024,14.274-.024,3.132,0,3.132,0,2.906-3.271Q25.22,8.113,25.195,6.7m1.5,107.7c-4.4-.213-4.308-.211-4.393,4.164-.034,1.722.52,2.072,2.132,2.052,6.8-.089,13.613-.176,20.411.034,2.529.078,3.225-.712,2.727-3-.525-1.08,1.521-3.3-1.367-3.31-6.5-.028-13.007.033-19.51.057m82.406,0c-4.3-.223-4.19-.219-4.333,3.723-.069,1.894.322,2.553,2.392,2.507,6.716-.152,13.443-.195,20.156.014,2.536.079,3.234-.708,2.7-3-.459-1.1,1.5-3.273-1.32-3.294-6.531-.048-13.064.029-19.6.055M47.573,34.781c-.364-1,1.31-2.921-1.278-2.914-6.529.016-13.058.061-19.587.093-4.407-.283-4.317-.282-4.405,4.13-.034,1.693.463,2.088,2.1,2.064,6.717-.1,13.437-.04,20.156-.04,3.182,0,3.182,0,3.011-3.334m82.446-.008c-.308-1.023,1.312-2.915-1.279-2.907-6.542.02-13.084.062-19.626.1-4.318-.283-4.318-.283-4.3,3.93a1.223,1.223,0,0,1,0,.236c-.325,1.731.491,2.045,2.082,2.024,6.713-.089,13.427-.038,20.14-.038,3.2,0,3.2,0,2.985-3.342M101.433,82.416c.032-4.743.038-9.486.116-14.228.018-1.082-.225-1.517-1.422-1.512q-21.232.1-42.465.1c-1.661-.026-3.332.055-4.98-.108-1.584-.157-1.793.546-1.773,1.9.071,4.829.126,9.662-.019,14.487-.062,2.062.368,2.767,2.636,2.749,14.963-.118,29.928-.061,44.892-.061,3.224,0,3.224,0,3.015-3.331M136.589,12.8h4.994c4.828,0,4.771,0,4.645-4.837-.037-1.392-.522-1.738-1.818-1.719-4.2.063-8.4.012-12.6.028-4.963.018-4.915.026-4.723,4.951.049,1.254.434,1.636,1.659,1.6,2.613-.077,5.231-.023,7.846-.023m.051,126.837c-1.665,0-3.329-.009-4.993,0-4.644.029-4.558.033-4.577,4.635-.007,1.666.611,1.95,2.07,1.922,4.2-.08,8.4-.028,12.6-.028,4.525,0,4.461,0,4.484-4.52.008-1.523-.363-2.125-1.979-2.046-2.53.125-5.071.033-7.608.035" transform="translate(0 0)" fill="#090a0b"/>
        <path id="Path_824051" data-name="Path 824051" d="M121,140.02q21.233-.039,42.465-.1c1.2-.006,1.44.43,1.422,1.512-.078,4.742-.084,9.485-.116,14.228-8.964,0-17.928.038-26.891-.012C130,155.6,121.6,147.783,121,140.02" transform="translate(-63.338 -73.241)" fill="#ffd55e"/>
        <path id="Path_824052" data-name="Path 824052" d="M113.555,139.989c.605,7.763,9,15.582,16.881,15.626,8.963.05,17.927.012,26.891.012.21,3.331.21,3.331-3.015,3.331-14.964,0-29.929-.057-44.892.061-2.268.018-2.7-.686-2.636-2.749.145-4.825.09-9.659.019-14.487-.02-1.355.189-2.058,1.773-1.9,1.647.163,3.319.082,4.979.108" transform="translate(-55.894 -73.211)" fill="#ffbf51"/>
        <path id="Path_824053" data-name="Path 824053" d="M245.073,69.767c.217,3.342.217,3.342-2.985,3.342-6.714,0-13.428-.051-20.14.038-1.591.021-2.407-.293-2.082-2.024a1.308,1.308,0,0,0,0-.237c-.018-4.213-.018-4.213,4.3-3.93a5.941,5.941,0,0,0,5.77,2.868c5.04-.157,10.089-.053,15.134-.057" transform="translate(-115.054 -34.994)" fill="#569bd6"/>
        <path id="Path_824054" data-name="Path 824054" d="M72.069,69.775c.171,3.334.171,3.334-3.011,3.334-6.719,0-13.438-.056-20.156.04-1.64.023-2.136-.371-2.1-2.064.088-4.412,0-4.413,4.4-4.13.754,2.289,2.655,2.779,4.694,2.8,5.39.062,10.781.019,16.171.018" transform="translate(-24.497 -34.994)" fill="#569bd6"/>
        <path id="Path_824055" data-name="Path 824055" d="M245.092,243.24c.533,2.3-.165,3.083-2.7,3-6.713-.209-13.439-.166-20.155-.014-2.071.046-2.461-.613-2.392-2.507.143-3.942.038-3.946,4.333-3.723,1.205,2.766,3.717,3.166,6.245,3.22,4.888.1,9.781.023,14.671.019" transform="translate(-115.075 -125.59)" fill="#569bd6"/>
        <path id="Path_824056" data-name="Path 824056" d="M72.066,243.251c.5,2.285-.2,3.075-2.727,3-6.8-.21-13.608-.123-20.411-.034-1.612.021-2.166-.329-2.132-2.052.086-4.375-.007-4.377,4.394-4.164,1.087,2.962,3.738,3.138,6.214,3.212,4.883.148,9.774.041,14.662.04" transform="translate(-24.495 -125.592)" fill="#569bd6"/>
        <path id="Path_824057" data-name="Path 824057" d="M276.116,19.649c-2.616,0-5.233-.054-7.846.023-1.225.036-1.61-.347-1.659-1.6-.191-4.925-.239-4.933,4.723-4.951,4.2-.015,8.4.035,12.6-.028,1.3-.02,1.782.326,1.818,1.719.126,4.839.184,4.837-4.645,4.837h-4.993m-5.009-6.082c.982,1.511,1.9,2.351,3.23,2.577,3.3.558,6.617.168,9.927.221,1.023.016.98-.808,1-1.538.028-.912-.426-1.267-1.3-1.265-4.167.01-8.335,0-12.859,0" transform="translate(-139.528 -6.853)" fill="#4f90c7"/>
        <path id="Path_824058" data-name="Path 824058" d="M276.22,292.966c2.537,0,5.077.091,7.608-.034,1.616-.08,1.987.523,1.98,2.046-.024,4.52.04,4.52-4.485,4.52-4.2,0-8.4-.051-12.6.028-1.46.028-2.077-.257-2.071-1.922.019-4.6-.067-4.606,4.577-4.635,1.665-.01,3.329,0,4.993,0m-5,.458a4.493,4.493,0,0,0,3.683,2.7c3.072.191,6.162.088,9.245.113.969.008,1.171-.583,1.172-1.4,0-.795-.146-1.422-1.134-1.421-4.232,0-8.464,0-12.966,0" transform="translate(-139.58 -153.334)" fill="#4f90c7"/>
        <path id="Path_824059" data-name="Path 824059" d="M32.078,16.308c.225,3.27.225,3.271-2.907,3.271-4.758,0-9.517-.037-14.274.024-1.315.017-1.769-.359-1.806-1.736-.126-4.78-.183-4.792,4.663-4.816,4.124-.02,8.248-.029,12.371.019.627.007,1.433-.447,1.9.413-4.191,0-8.383,0-12.574.018-.51,0-1.26-.238-1.4.49-.113.582.467.978.952,1.235a8.3,8.3,0,0,0,4.058,1.117c3-.042,6.01-.026,9.015-.034" transform="translate(-6.834 -6.782)" fill="#4f8fc6"/>
        <path id="Path_824060" data-name="Path 824060" d="M32.078,296.174c.225,3.27.225,3.271-2.907,3.271-4.758,0-9.517-.038-14.274.024-1.314.017-1.769-.359-1.805-1.736-.126-4.78-.183-4.792,4.664-4.816,4.124-.02,8.248-.029,12.371.019.626.007,1.433-.447,1.9.413-4.191,0-8.383,0-12.574.018-.51,0-1.26-.238-1.4.49-.113.582.467.978.952,1.235a8.3,8.3,0,0,0,4.058,1.117c3-.042,6.01-.026,9.015-.034" transform="translate(-6.834 -153.28)" fill="#4f8fc6"/>
        <path id="Path_824061" data-name="Path 824061" d="M285.376,186.945c.926,1.768.244,3.643.334,5.465.04.806-.766.63-1.275.631-5.451.014-10.9-.013-16.353.029-1.028.008-1.47-.311-1.336-1.344a5.2,5.2,0,0,0,0-.711c-.045-4.409-.045-4.409,4.363-4.123.678,2.214,2.534,2.685,4.456,2.794,2.371.135,4.772-.134,7.131.081,2.315.21,2.99-.737,2.676-2.822" transform="translate(-139.619 -97.775)" fill="#559ad4"/>
        <path id="Path_824062" data-name="Path 824062" d="M32.118,189.708c.221,3.344.221,3.344-2.969,3.344-4.571,0-9.146-.111-13.711.052-1.961.07-2.332-.61-2.285-2.385.109-4.1.024-4.106,4.25-3.823a6.106,6.106,0,0,0,5.766,2.862c2.975-.162,5.965-.046,8.948-.05" transform="translate(-6.883 -97.777)" fill="#5599d3"/>
        <path id="Path_824063" data-name="Path 824063" d="M285.381,120.094c.929,1.767.233,3.641.33,5.462.042.782-.741.668-1.264.669-5.45.011-10.9-.013-16.35.025-1.016.008-1.487-.295-1.351-1.342a5.191,5.191,0,0,0,0-.711c-.047-4.362-.047-4.362,4.351-4.147.428,1.654,1.693,2.323,3.186,2.777,2.619.8,5.3.423,7.957.469,3.11.054,3.111.011,3.137-3.2" transform="translate(-139.618 -62.804)" fill="#5599d3"/>
        <path id="Path_824064" data-name="Path 824064" d="M32.1,123.3c.528,2.282-.137,3.137-2.69,3.006-4.723-.242-9.47-.145-14.2-.029-1.714.042-2.293-.537-2.031-2.145a1.448,1.448,0,0,0,0-.236c-.018-4.058-.018-4.058,4.208-3.838a7.462,7.462,0,0,0,6.909,3.269c2.6-.071,5.2-.023,7.805-.028" transform="translate(-6.863 -62.804)" fill="#5599d3"/>
        <path id="Path_824065" data-name="Path 824065" d="M76.894,243.257c-4.888,0-9.779.108-14.662-.04-2.477-.075-5.127-.251-6.214-3.212,6.5-.025,13.007-.085,19.51-.057,2.888.012.841,2.23,1.366,3.31" transform="translate(-29.323 -125.599)" fill="#6dade0"/>
        <path id="Path_824066" data-name="Path 824066" d="M249.859,243.248c-4.891,0-9.783.085-14.671-.019-2.528-.054-5.039-.454-6.245-3.22,6.532-.026,13.065-.1,19.6-.055,2.816.02.86,2.2,1.32,3.294" transform="translate(-119.842 -125.598)" fill="#6dade0"/>
        <path id="Path_824067" data-name="Path 824067" d="M76.909,69.785c-5.391,0-10.782.044-16.171-.018-2.039-.024-3.94-.514-4.694-2.8,6.53-.033,13.059-.077,19.588-.093,2.588-.007.914,1.914,1.278,2.914" transform="translate(-29.337 -35.004)" fill="#6dade0"/>
        <path id="Path_824068" data-name="Path 824068" d="M249.876,69.776c-5.045,0-10.094-.1-15.134.057a5.941,5.941,0,0,1-5.77-2.868q9.813-.051,19.626-.1c2.59-.008.97,1.885,1.279,2.907" transform="translate(-119.857 -35.003)" fill="#6dade0"/>
        <path id="Path_824069" data-name="Path 824069" d="M36.786,123.3c-2.6,0-5.205-.043-7.805.028a7.462,7.462,0,0,1-6.909-3.269c3.92-.025,7.841-.059,11.761-.074,3.178-.012,3.178,0,2.954,3.315" transform="translate(-11.553 -62.805)" fill="#6dade0"/>
        <path id="Path_824070" data-name="Path 824070" d="M290.189,120.172c-.026,3.214-.027,3.257-3.137,3.2-2.656-.046-5.338.327-7.957-.469-1.493-.454-2.758-1.123-3.186-2.777l14.28.043" transform="translate(-144.427 -62.883)" fill="#6dade0"/>
        <path id="Path_824071" data-name="Path 824071" d="M36.791,189.721c-2.983,0-5.973-.112-8.948.05a6.106,6.106,0,0,1-5.766-2.862c4.481-.033,8.962-.083,13.443-.093,2.576-.006.96,1.885,1.271,2.9" transform="translate(-11.556 -97.79)" fill="#6dade0"/>
        <path id="Path_824072" data-name="Path 824072" d="M290.2,186.918c.314,2.085-.361,3.032-2.676,2.822-2.359-.215-4.76.054-7.131-.081-1.922-.109-3.778-.581-4.456-2.794,4.755-.127,9.51-.233,14.263.053" transform="translate(-144.44 -97.748)" fill="#6dade0"/>
        <path id="Path_824073" data-name="Path 824073" d="M37.552,16.866c-3.005.008-6.01-.008-9.015.034a8.3,8.3,0,0,1-4.058-1.117c-.485-.257-1.066-.653-.952-1.235.141-.728.892-.488,1.4-.49,4.191-.02,8.383-.015,12.574-.018q.024,1.412.049,2.825" transform="translate(-12.308 -7.34)" fill="#6dade0"/>
        <path id="Path_824074" data-name="Path 824074" d="M37.552,296.732c-3.005.008-6.01-.008-9.015.034a8.3,8.3,0,0,1-4.058-1.117c-.485-.257-1.066-.653-.952-1.235.141-.728.892-.488,1.4-.49,4.191-.021,8.383-.015,12.574-.018q.024,1.412.049,2.825" transform="translate(-12.308 -153.839)" fill="#6dade0"/>
        <path id="Path_824075" data-name="Path 824075" d="M276.114,14.084c4.524,0,8.692.006,12.859,0,.874,0,1.328.353,1.3,1.265-.023.73.02,1.554-1,1.538-3.31-.053-6.632.337-9.927-.221-1.333-.226-2.248-1.066-3.23-2.577" transform="translate(-144.534 -7.37)" fill="#6dade0"/>
        <path id="Path_824076" data-name="Path 824076" d="M276.242,293.971c4.5,0,8.734,0,12.966,0,.987,0,1.135.626,1.134,1.421,0,.813-.2,1.4-1.172,1.4-3.083-.025-6.173.077-9.245-.113a4.493,4.493,0,0,1-3.683-2.7" transform="translate(-144.601 -153.88)" fill="#6dade0"/>
      </g>
    </g>
  </g>
</svg>
