<svg xmlns="http://www.w3.org/2000/svg" xmlns:xlink="http://www.w3.org/1999/xlink" width="109.992" height="121.333" viewBox="0 0 109.992 121.333">
  <defs>
    <clipPath id="clip-path">
      <rect id="Rectangle_378203" data-name="Rectangle 378203" width="94.87" height="83.109" fill="#fff"/>
    </clipPath>
  </defs>
  <g id="Group_1074211" data-name="Group 1074211" transform="translate(-917.869 -383.695)">
    <path id="Union_38" data-name="Union 38" d="M12825.9,11832.6l-37.685-21.453a17.367,17.367,0,0,1-8.747-14.938l-.262-43.365a17.358,17.358,0,0,1,8.563-15.041l37.423-21.909a17.356,17.356,0,0,1,17.31-.107l37.685,21.457a17.347,17.347,0,0,1,8.747,14.938l.266,43.362a17.362,17.362,0,0,1-8.566,15.042l-.161-.271.161.271-37.423,21.909a17.286,17.286,0,0,1-7.835,2.342c-.3.016-.609.024-.914.024A17.31,17.31,0,0,1,12825.9,11832.6Z" transform="translate(-11861.333 -11329.836)" fill="#264100"/>
    <g id="Group_1073930" data-name="Group 1073930" transform="translate(864 434)">
      <g id="Group_1073929" data-name="Group 1073929" transform="translate(60.796 -30.388)" clip-path="url(#clip-path)">
        <path id="Path_823500" data-name="Path 823500" d="M4.413,42.235c0-.17,0-.33,0-.49a36.661,36.661,0,0,1,3-15.624,37.462,37.462,0,0,1,8.677-12.38A36.628,36.628,0,0,1,34.4,4.227a36.431,36.431,0,0,1,11.229-.6A37.47,37.47,0,0,1,56.54,6.482a2.053,2.053,0,0,0,1.9-.019,43.989,43.989,0,0,0,8.666-5.5A3.363,3.363,0,0,1,71.755.9a44.179,44.179,0,0,0,7.4,4.829A44.336,44.336,0,0,0,91.195,9.953c.5.1,1.009.164,1.509.27a2.382,2.382,0,0,1,2.16,2.622,41.443,41.443,0,0,1-.463,7.184A44.423,44.423,0,0,1,91.1,31.26,39.732,39.732,0,0,1,82.048,44.1c-.875.824-1.78,1.619-2.705,2.388a2,2,0,0,0-.727,1.229A37.862,37.862,0,0,1,73.668,60.53a37.116,37.116,0,0,1-8.293,9.292,32.845,32.845,0,0,1-8.84,5.278c-.144.055-.278.141-.537.275.312.129.5.221.691.283a35.832,35.832,0,0,0,7.684,1.6A1.87,1.87,0,0,1,66.1,78.519a6.389,6.389,0,0,1,.379,1.421,2.621,2.621,0,0,1-3.3,3.1,67.4,67.4,0,0,1-12.224-3.579,2.02,2.02,0,0,0-1.333-.086A47.991,47.991,0,0,1,38.837,81.1,33.24,33.24,0,0,1,24.85,78.7,30.89,30.89,0,0,1,13.2,70.217,55.511,55.511,0,0,1,2.743,52C1.8,49.317.965,46.6.116,43.886c-.34-1.087.066-1.616,1.2-1.646,1-.027,2.01-.005,3.1-.005M92.686,12.486c-2.015-.49-3.98-.909-5.911-1.451A43.938,43.938,0,0,1,75.731,6.281C73.95,5.2,72.3,3.89,70.623,2.644a1.486,1.486,0,0,0-2.173-.051c-.158.12-.312.243-.465.368A39.909,39.909,0,0,1,61.671,7.2a47.23,47.23,0,0,1-14.664,5.016c-.539.091-.752.272-.745.828a43.485,43.485,0,0,0,1.613,11.939,39.665,39.665,0,0,0,9.351,16.339,40.136,40.136,0,0,0,11.821,8.744.816.816,0,0,0,.833.014c1.564-.881,3.183-1.674,4.694-2.636a41.429,41.429,0,0,0,9.1-8.225,38.115,38.115,0,0,0,5.944-9.914,38.78,38.78,0,0,0,3.055-13.444c.058-1.146.009-2.3.009-3.376M2.468,44.393c.046.205.075.379.124.546a78.279,78.279,0,0,0,5.85,14.627A43.565,43.565,0,0,0,16.3,70.394,33.1,33.1,0,0,0,21.531,74.6a27.581,27.581,0,0,0,12.732,4.222,38.107,38.107,0,0,0,9.919-.394c.9-.151,1.788-.337,2.681-.506a.863.863,0,0,0-.407-.351c-.557-.247-1.127-.467-1.676-.73A78.077,78.077,0,0,1,28.17,66.2c-.806-.679-1.578-1.4-2.339-2.132a.973.973,0,0,1-.194-1.3,1.045,1.045,0,0,1,1.311-.385,5.049,5.049,0,0,1,.544.236c4.537,2.2,9.05,4.445,13.617,6.579,3.371,1.575,6.811,3,10.221,4.494a4.07,4.07,0,0,0,.439.113c-.379-1.673-.658-3.256-1.1-4.793A27.386,27.386,0,0,0,39.331,53.412,44.2,44.2,0,0,0,28.28,48.1a75.427,75.427,0,0,0-18.5-3.35c-2.125-.145-4.253-.241-6.38-.355-.291-.016-.584,0-.936,0m22.64-21.983h-.688c-3.815,0-7.631.036-11.445-.018a1.729,1.729,0,0,0-1.83,1.016,34.435,34.435,0,0,0-4.41,13.856c-.067.8-.107,1.6-.161,2.422.153.015.248.033.343.033q7.506-.005,15.013-.016c.711,0,.707-.016.724-.73a66.343,66.343,0,0,1,1.754-13.73c.218-.921.454-1.838.7-2.833m-.334,17.268c.18.024.259.044.339.044q7.552,0,15.1,0c.467,0,.57-.166.569-.6q-.014-8.073.015-16.145c0-.43-.11-.561-.553-.558-2.988.019-5.976.011-8.963.009-1.188,0-2.377,0-3.565-.017-.3,0-.469.087-.52.387a3.447,3.447,0,0,1-.107.379A59.374,59.374,0,0,0,25.037,35c-.122,1.539-.176,3.084-.263,4.674m24.159,2.187v0c-1.832,0-3.665.016-5.5-.012-.434-.006-.519.136-.517.53.018,3.44.033,6.88.008,10.32a1.626,1.626,0,0,0,.585,1.262c1.411,1.428,2.805,2.876,4.148,4.367a1.3,1.3,0,0,0,1.077.517c2.443-.006,4.887.007,7.33.025.291,0,.445-.073.529-.37a59.715,59.715,0,0,0,2.1-12.422.753.753,0,0,0-.194-.517c-1.1-1.116-2.221-2.205-3.314-3.324a1.146,1.146,0,0,0-.909-.381c-1.783.016-3.566.007-5.349.007M40.758,5.581c-.927.313-1.773.53-2.56.877a13.989,13.989,0,0,0-5.735,5.013,38.09,38.09,0,0,0-3.576,6.519c-.317.714-.569,1.457-.864,2.219H40.758ZM58.677,58.819c.217.019.359.043.5.043q6.264,0,12.529,0a.73.73,0,0,0,.7-.414A35.355,35.355,0,0,0,76,49.825c.077-.258.118-.528.2-.908-.3.179-.5.3-.692.407-1.735.978-3.468,1.959-5.208,2.928a1.423,1.423,0,0,1-1.376.066,42.519,42.519,0,0,1-7.373-4.3c-.229-.174-.464-.338-.778-.565a68.647,68.647,0,0,1-2.1,11.365M13.195,20.181a.967.967,0,0,0,.175.056c4.029,0,8.057.008,12.086-.009a.626.626,0,0,0,.432-.348c.463-1.123.854-2.277,1.342-3.389a27.046,27.046,0,0,1,6.638-9.646,2.028,2.028,0,0,0,.247-.328A34.948,34.948,0,0,0,13.195,20.181m40.652,53.75A37.007,37.007,0,0,0,64.42,67.846a33.768,33.768,0,0,0,6.285-6.809c-.275-.013-.436-.028-.6-.028C66.3,61,62.484,61,58.672,60.964a.755.755,0,0,0-.865.618,35.1,35.1,0,0,1-4.3,8.95,1.047,1.047,0,0,0-.123.688c.122.86.285,1.713.458,2.711M24.889,41.879c0,.916.01,1.785,0,2.653-.005.33.145.441.447.526,1.346.379,2.7.748,4.022,1.2A43.378,43.378,0,0,1,40.208,51.4c.157.108.317.212.548.366V41.879Zm28.122-2.21c-.115-.17-.173-.263-.239-.352a45.632,45.632,0,0,1-4.849-8.069,44.019,44.019,0,0,1-2.769-8.414c-.076-.32-.194-.446-.524-.424a8.9,8.9,0,0,1-1.188,0c-.374-.025-.513.069-.512.485q.018,8.174-.007,16.348c0,.37.127.476.489.474,3.005-.013,6.011-.009,9.016-.013.171,0,.341-.023.583-.041M35.3,68.806l-.071.162c1.136.689,2.275,1.374,3.408,2.069a71.88,71.88,0,0,0,9.577,5.01,74.691,74.691,0,0,0,12.442,4.319c1,.227,2,.422,3,.608.573.106.784-.174.942-.979.113-.576-.239-.581-.614-.619a38.822,38.822,0,0,1-8.09-1.8,140.345,140.345,0,0,1-18.867-7.97c-.57-.281-1.153-.536-1.73-.8m9.355-48.582c-.094-.7-.232-1.343-.259-2-.084-1.968-.179-3.94-.161-5.909a2,2,0,0,1,1.645-1.973c.461-.122.935-.189,1.4-.286.767-.158,1.533-.319,2.324-.485A10.723,10.723,0,0,0,42.956,5.7V20.225Zm8.036,47.687A32.4,32.4,0,0,0,55.75,61h-6.07l3.015,6.912M22.641,41.9H6.611c-.094.35.013.474.35.5,1.744.113,3.5.171,5.227.393,3.021.386,6.029.877,9.042,1.328.51.076,1.018.173,1.546.264-.048-.878-.091-1.66-.136-2.48M49.627,6.351l-.047.116c.738.789,1.474,1.581,2.218,2.365a.266.266,0,0,0,.224.054c.88-.263,1.757-.537,2.634-.807,0-.068,0-.135,0-.2L49.627,6.351" transform="translate(0 0)" fill="#fff"/>
        <path id="Path_823501" data-name="Path 823501" d="M122.819,35.816c-.1-2.167-.007-2.281,1.717-2.679,1.075-.248,2.14-.542,3.212-.806a1.032,1.032,0,0,1,1.385.735,1,1,0,0,1-.824,1.248c-.963.285-1.932.56-2.914.767-.423.089-.474.262-.45.63a36.555,36.555,0,0,0,18.176,29.234c1.014.6,1.032.592,2.065-.011a36.525,36.525,0,0,0,9.794-8.228c.179-.216.363-.428.554-.632a1.074,1.074,0,0,1,1.537-.229,1.011,1.011,0,0,1,.058,1.568c-1.35,1.487-2.67,3.011-4.124,4.392a36.865,36.865,0,0,1-7.971,5.641,1.7,1.7,0,0,1-1.767.025,39.464,39.464,0,0,1-16.974-17.9,39.872,39.872,0,0,1-3.243-11.589c-.1-.85-.183-1.7-.232-2.166" transform="translate(-74.66 -19.627)" fill="#fff"/>
        <path id="Path_823502" data-name="Path 823502" d="M181.677,22.9A38.96,38.96,0,0,1,178,36.978c-.332.681-.871.943-1.424.7a1.113,1.113,0,0,1-.511-1.585,39.559,39.559,0,0,0,2.388-6.466,37.689,37.689,0,0,0,1.065-6.813c.021-.348-.076-.474-.424-.561a52.258,52.258,0,0,1-15.008-6.09c-1.162-.718-2.267-1.531-3.369-2.34a.593.593,0,0,0-.85,0,43.234,43.234,0,0,1-8.95,5.214,1.462,1.462,0,0,1-.985.064.962.962,0,0,1-.2-1.713,6.707,6.707,0,0,1,1.078-.6,45.731,45.731,0,0,0,8.62-5.3c.666-.526.991-.5,1.719.049a51.678,51.678,0,0,0,8.781,5.318,47.271,47.271,0,0,0,10.238,3.42c1.435.327,1.572.486,1.5,2.619" transform="translate(-90.778 -6.759)" fill="#fff"/>
        <path id="Path_823503" data-name="Path 823503" d="M175.285,33.111q-.221,4.933-.439,9.866a3.861,3.861,0,0,1-.573,2.16,2.837,2.837,0,0,1-2.977,1.084,2.766,2.766,0,0,1-2.1-2.415c-.133-1.756-.207-3.516-.3-5.274-.128-2.449-.221-4.9-.384-7.347a3.538,3.538,0,0,1,3.25-3.728,3.376,3.376,0,0,1,3.57,2.994c.081.88.014,1.773.014,2.661h-.062m-2.152,1.4h.1c0-1.216.021-2.433-.007-3.649a1.271,1.271,0,1,0-2.541.068c0,.214,0,.428.009.641q.255,4.9.515,9.8c.041.755.1,1.509.171,2.261.028.277.171.51.512.485.308-.022.6-.084.668-.456a5.179,5.179,0,0,0,.089-.634q.246-4.26.483-8.52" transform="translate(-102.456 -16.686)" fill="#fff"/>
        <path id="Path_823504" data-name="Path 823504" d="M171.267,82.858a3.917,3.917,0,0,1,3.931,3.869,3.812,3.812,0,0,1-3.759,3.8,4,4,0,0,1-3.96-3.755,3.807,3.807,0,0,1,3.788-3.911m1.767,3.914a1.763,1.763,0,0,0-1.719-1.8,1.672,1.672,0,0,0-1.681,1.652,1.763,1.763,0,0,0,1.756,1.767,1.6,1.6,0,0,0,1.644-1.615" transform="translate(-101.832 -50.38)" fill="#fff"/>
      </g>
    </g>
  </g>
</svg>
