<svg xmlns="http://www.w3.org/2000/svg" xmlns:xlink="http://www.w3.org/1999/xlink" width="505" height="485.06" viewBox="0 0 505 485.06">
  <defs>
    <linearGradient id="linear-gradient" x1="0.5" x2="0.5" y2="1" gradientUnits="objectBoundingBox">
      <stop offset="0" stop-color="#defff8"/>
      <stop offset="0.803" stop-color="#eaf5ff"/>
      <stop offset="1" stop-color="#f0feff"/>
    </linearGradient>
    <clipPath id="clip-path">
      <rect id="Rectangle_378254" data-name="Rectangle 378254" width="447.677" height="437.394" fill="none"/>
    </clipPath>
    <clipPath id="clip-path-2">
      <rect id="Rectangle_378255" data-name="Rectangle 378255" width="109.693" height="67.136" fill="none"/>
    </clipPath>
  </defs>
  <g id="Group_1074212" data-name="Group 1074212" transform="translate(4513.001 9069.06)">
    <g id="Group_1074028" data-name="Group 1074028" transform="translate(0 -31)">
      <g id="Group_1074026" data-name="Group 1074026" transform="translate(-4903.001 -11465.558)">
        <g id="Group_1072963" data-name="Group 1072963" transform="translate(895 2912.558) rotate(180)">
          <rect id="Rectangle_376022" data-name="Rectangle 376022" width="505" height="485.06" transform="translate(0 0)" fill="url(#linear-gradient)"/>
        </g>
        <g id="Group_1074004" data-name="Group 1074004" transform="translate(416.876 2451.236)">
          <g id="Group_1074003" data-name="Group 1074003" transform="translate(0 0)" clip-path="url(#clip-path)">
            <path id="Path_823640" data-name="Path 823640" d="M77.094,266.2a170.416,170.416,0,0,1,6.094-45.249A9.739,9.739,0,0,1,72.938,218.3a181.295,181.295,0,0,0,61.8,189.586,9.783,9.783,0,0,1,6-8.755A170.589,170.589,0,0,1,77.094,266.2" transform="translate(-19.7 -64.662)" fill="#d1d3d4"/>
            <path id="Path_823641" data-name="Path 823641" d="M544.119,216.529a9.692,9.692,0,0,1-9.819,4.25,170.709,170.709,0,0,1-57.545,177.738,9.776,9.776,0,0,1,6.224,8.578,181.334,181.334,0,0,0,61.139-190.566" transform="translate(-141.221 -64.139)" fill="#d1d3d4"/>
            <path id="Path_823642" data-name="Path 823642" d="M263.655,368.3c-79.449,0-144.086-64.637-144.086-144.086S184.206,80.134,263.655,80.134s144.086,64.637,144.086,144.085S343.1,368.3,263.655,368.3m0-281.818c-75.946,0-137.733,61.786-137.733,137.732s61.786,137.733,137.733,137.733,137.732-61.788,137.732-137.733S339.6,86.487,263.655,86.487" transform="translate(-35.418 -23.737)" fill="#d1d3d4"/>
            <path id="Path_823643" data-name="Path 823643" d="M566.535,204.758a9.785,9.785,0,1,1-9.785-9.785,9.786,9.786,0,0,1,9.785,9.785" transform="translate(-162.017 -57.753)" fill="#00aa87"/>
            <path id="Path_823644" data-name="Path 823644" d="M331.268,32.563a9.785,9.785,0,1,1-9.786-9.785,9.786,9.786,0,0,1,9.786,9.785" transform="translate(-92.328 -6.747)" fill="#0a62a5"/>
            <path id="Path_823645" data-name="Path 823645" d="M183.013,483.948a9.785,9.785,0,1,1-9.786-9.785,9.785,9.785,0,0,1,9.786,9.785" transform="translate(-48.414 -140.453)" fill="#00aab4"/>
            <path id="Path_823646" data-name="Path 823646" d="M91.52,204.758a9.785,9.785,0,1,1-9.786-9.785,9.786,9.786,0,0,1,9.786,9.785" transform="translate(-21.312 -57.753)" fill="#008cb4"/>
            <path id="Path_823647" data-name="Path 823647" d="M477.4,483.948a9.785,9.785,0,1,1-9.785-9.785,9.786,9.786,0,0,1,9.785,9.785" transform="translate(-135.615 -140.453)" fill="#64b44b"/>
            <path id="Path_823648" data-name="Path 823648" d="M244,34.339a9.736,9.736,0,0,1,1.742-5.566c-74.39,2.888-137.42,50.785-162.586,117.157a9.754,9.754,0,0,1,9.843,3.9C116.575,87.473,175.632,42.4,245.416,39.388A9.722,9.722,0,0,1,244,34.339" transform="translate(-24.632 -8.523)" fill="#d1d3d4"/>
            <path id="Path_823649" data-name="Path 823649" d="M337.127,28.9a9.756,9.756,0,0,1,.206,10.611c68.6,3.672,126.577,48,150.218,109.268a9.728,9.728,0,0,1,10.42-2.39C473.128,80.368,410.845,32.536,337.127,28.9" transform="translate(-99.861 -8.562)" fill="#d1d3d4"/>
            <path id="Path_823650" data-name="Path 823650" d="M376.14,488.951a170.467,170.467,0,0,1-187.69.217,9.779,9.779,0,0,1-6.508,8.387,181.039,181.039,0,0,0,200.5-.08,9.776,9.776,0,0,1-6.3-8.524" transform="translate(-53.893 -144.833)" fill="#d1d3d4"/>
            <path id="Path_823651" data-name="Path 823651" d="M193.646,459.295a1.587,1.587,0,0,1-1.293-2.508,1.633,1.633,0,0,1,2.244-.418,1.545,1.545,0,0,1,.405,2.172l-.061.086a1.587,1.587,0,0,1-1.3.668m4.385-6.107a1.588,1.588,0,0,1-1.286-2.52l.062-.086a1.589,1.589,0,0,1,2.574,1.862l-.062.085a1.586,1.586,0,0,1-1.289.658m4.385-6.106a1.588,1.588,0,0,1-1.294-2.509,1.633,1.633,0,0,1,2.245-.417,1.543,1.543,0,0,1,.405,2.171l-.061.087a1.586,1.586,0,0,1-1.3.668m4.385-6.107a1.588,1.588,0,0,1-1.287-2.519l.063-.085a1.588,1.588,0,1,1,2.574,1.861l-.062.086a1.588,1.588,0,0,1-1.289.657" transform="translate(-56.89 -129.656)" fill="#00aab4"/>
            <path id="Path_823652" data-name="Path 823652" d="M132.54,224.781a1.575,1.575,0,0,1-.479-.075l-.1-.032a1.588,1.588,0,1,1,.958-3.028l.1.032a1.588,1.588,0,0,1-.478,3.1m-7.172-2.256a1.586,1.586,0,0,1-.479-.075l-.1-.032a1.588,1.588,0,1,1,.957-3.028l.1.032a1.588,1.588,0,0,1-.479,3.1m-7.184-2.257a1.541,1.541,0,0,1-.457-.071l-.1-.031a1.588,1.588,0,0,1,.939-3.033,1.631,1.631,0,0,1,1.1,2,1.565,1.565,0,0,1-1.479,1.134m-7.158-2.256a1.6,1.6,0,0,1-.467-.069l-.1-.032a1.589,1.589,0,0,1,.932-3.038l.1.032a1.588,1.588,0,0,1-.464,3.107" transform="translate(-32.387 -63.627)" fill="#008cb4"/>
            <path id="Path_823653" data-name="Path 823653" d="M507.543,223.466a1.588,1.588,0,0,1-.479-3.1l.1-.032a1.588,1.588,0,0,1,.958,3.028l-.1.032a1.57,1.57,0,0,1-.479.074m7.245-2.32a1.616,1.616,0,0,1-1.548-1.092,1.543,1.543,0,0,1,.979-1.98l.1-.032a1.588,1.588,0,1,1,.967,3.025,1.622,1.622,0,0,1-.5.078m7.162-2.29a1.615,1.615,0,0,1-1.549-1.09,1.545,1.545,0,0,1,.98-1.98l.1-.032a1.589,1.589,0,0,1,.968,3.026,1.655,1.655,0,0,1-.5.077m7.16-2.29a1.613,1.613,0,0,1-1.548-1.091,1.544,1.544,0,0,1,.978-1.98l.1-.032a1.588,1.588,0,0,1,.967,3.026,1.632,1.632,0,0,1-.5.077" transform="translate(-149.87 -63.208)" fill="#00aa87"/>
            <path id="Path_823654" data-name="Path 823654" d="M452.05,461.732a1.589,1.589,0,0,1-1.289-.657l-.062-.086a1.589,1.589,0,0,1,2.574-1.862l.062.086a1.587,1.587,0,0,1-1.286,2.519m-4.428-6.074a1.586,1.586,0,0,1-1.288-.659l-.062-.085a1.589,1.589,0,0,1,2.575-1.862l.062.087a1.589,1.589,0,0,1-1.287,2.52m-4.428-6.077a1.587,1.587,0,0,1-1.281-.646l-.063-.086a1.589,1.589,0,1,1,2.56-1.883l.062.086a1.587,1.587,0,0,1-1.279,2.529m-4.428-6.074a1.588,1.588,0,0,1-1.289-.658l-.062-.086a1.588,1.588,0,1,1,2.575-1.86l.062.084a1.589,1.589,0,0,1-1.286,2.52" transform="translate(-129.478 -130.406)" fill="#64b44b"/>
            <path id="Path_823655" data-name="Path 823655" d="M324.933,83.694a1.544,1.544,0,0,1-1.588-1.536v-.106a1.588,1.588,0,0,1,3.176,0,1.634,1.634,0,0,1-1.588,1.641m0-7.464a1.588,1.588,0,0,1-1.588-1.589v-.106a1.588,1.588,0,0,1,3.176,0v.106a1.589,1.589,0,0,1-1.588,1.589m0-7.571a1.545,1.545,0,0,1-1.588-1.536v-.106a1.588,1.588,0,1,1,3.176,0,1.635,1.635,0,0,1-1.588,1.641m0-7.465a1.588,1.588,0,0,1-1.588-1.588V59.5a1.588,1.588,0,1,1,3.176,0v.106a1.589,1.589,0,0,1-1.588,1.588" transform="translate(-95.779 -17.154)" fill="#0a62a5"/>
            <path id="Path_823656" data-name="Path 823656" d="M310.216,107.457c.256-.151.507-.307.771-.448-.26.145-.517.292-.771.448" transform="translate(-91.89 -31.697)" fill="#d5da23"/>
            <path id="Path_823657" data-name="Path 823657" d="M500.63,236.08c.016.405.01.807,0,1.208.012-.4.008-.8,0-1.208" transform="translate(-148.293 -69.93)" fill="#1e415a"/>
            <path id="Path_823658" data-name="Path 823658" d="M311.311,106.9c.16-.089.324-.17.487-.255-.165.082-.326.169-.487.255" transform="translate(-92.214 -31.59)" fill="#1e415a"/>
            <path id="Path_823659" data-name="Path 823659" d="M500.609,235.552c.006.124.011.248.016.372-.006-.124-.009-.248-.016-.372" transform="translate(-148.287 -69.773)" fill="#1e415a"/>
            <path id="Path_823660" data-name="Path 823660" d="M233.341,223.372a110.511,110.511,0,0,0,51.927-38.107,110.78,110.78,0,0,1-21.315-48.279,21.254,21.254,0,0,1-.32-4.248,68.18,68.18,0,0,1-67.108,54.6,69.49,69.49,0,0,1-8.447-.527,21.1,21.1,0,0,1,5.338,1.866,110.757,110.757,0,0,1,39.925,34.7" transform="translate(-55.711 -39.319)" fill="#0082d2"/>
            <path id="Path_823661" data-name="Path 823661" d="M152.481,227.341a21.177,21.177,0,0,0,18.051,23.9,110.8,110.8,0,0,0,52.2-5.252,110.757,110.757,0,0,0-39.924-34.7,21.168,21.168,0,0,0-5.338-1.866c-.364-.044-.731-.082-1.094-.132a21.182,21.182,0,0,0-23.9,18.051" transform="translate(-45.106 -61.933)" fill="#008cb4"/>
            <path id="Path_823662" data-name="Path 823662" d="M220.109,409.575a21.167,21.167,0,0,0,28.308-9.78,112.225,112.225,0,0,0,5.769-14.307,110.868,110.868,0,0,0,5.367-37.029A110.745,110.745,0,0,0,214.3,375.682a21.147,21.147,0,0,0-3.608,4.808c-.121.258-.236.521-.36.776a21.179,21.179,0,0,0,9.78,28.308" transform="translate(-61.669 -103.218)" fill="#00aab4"/>
            <path id="Path_823663" data-name="Path 823663" d="M418.262,374.383a110.7,110.7,0,0,0-45.336-26.44,110.73,110.73,0,0,0,11.9,51.108,21.119,21.119,0,0,0,33.1,6.107c.266-.248.539-.485.8-.748.083-.084.159-.173.241-.258a21.17,21.17,0,0,0-.707-29.769" transform="translate(-110.464 -103.065)" fill="#64b44b"/>
            <path id="Path_823664" data-name="Path 823664" d="M326.173,185.164a110.352,110.352,0,0,0,52.267,37.406,110.862,110.862,0,0,1,26.324-27.113,112.027,112.027,0,0,1,13.078-8.184,21.241,21.241,0,0,1,3.8-1.569,68.189,68.189,0,0,1-72.761-46.936c-.681-2.094-1.255-4.228-1.731-6.371a21.222,21.222,0,0,1-.25,3.991,110.751,110.751,0,0,1-20.728,48.776" transform="translate(-96.616 -39.218)" fill="#00aae1"/>
            <path id="Path_823665" data-name="Path 823665" d="M299.491,143.274a110.875,110.875,0,0,0,17.573,33.309,110.759,110.759,0,0,0,20.728-48.776,21.154,21.154,0,0,0,.249-3.99c-.215-.967-.416-1.935-.588-2.9a21.163,21.163,0,0,0-30.363-15.221c-.163.085-.327.166-.487.255-.263.141-.514.3-.77.448a21.113,21.113,0,0,0-9.859,14.69q-.242,1.5-.545,2.97a21.254,21.254,0,0,0,.32,4.248,111.7,111.7,0,0,0,3.742,14.97" transform="translate(-87.508 -30.637)" fill="#0a62a5"/>
            <path id="Path_823666" data-name="Path 823666" d="M470.955,228.742c.007-.4.013-.8,0-1.208,0-.124-.01-.248-.015-.372-.041-.669-.106-1.342-.212-2.019a21.167,21.167,0,0,0-24.189-17.659c-.967.151-1.932.276-2.9.386a21.256,21.256,0,0,0-3.8,1.569,112.133,112.133,0,0,0-13.078,8.184,110.868,110.868,0,0,0-26.324,27.114,110.441,110.441,0,0,0,52.629,4.6,21.169,21.169,0,0,0,4.166-1.09c.837-.493,1.68-.973,2.532-1.427a21.154,21.154,0,0,0,11.192-18.074" transform="translate(-118.615 -61.384)" fill="#00aa87"/>
            <path id="Path_823667" data-name="Path 823667" d="M418.264,348.488a21.048,21.048,0,0,1,5.351,8.42,19.015,19.015,0,0,0-1-2.894,68.193,68.193,0,0,1,20.891-86.336c1.8-1.306,3.668-2.523,5.578-3.648a21.225,21.225,0,0,1-4.166,1.089,110.444,110.444,0,0,1-52.629-4.6,110.481,110.481,0,0,0-19.361,61.524,110.7,110.7,0,0,1,45.336,26.44" transform="translate(-110.466 -77.17)" fill="#00d2aa"/>
            <path id="Path_823668" data-name="Path 823668" d="M359.231,406.538a21.063,21.063,0,0,1-9.584-9.441,110.72,110.72,0,0,1-11.9-51.108,110.553,110.553,0,0,0-64.578.363,110.873,110.873,0,0,1-5.367,37.03,112.24,112.24,0,0,1-5.769,14.307,21.075,21.075,0,0,1-7.885,8.734,20.759,20.759,0,0,0,3.646-2.829,68.2,68.2,0,0,1,88.57-6.808,69.4,69.4,0,0,1,7.33,6.142,20.234,20.234,0,0,0,5.542,3.611" transform="translate(-75.28 -101.111)" fill="#8cd26e"/>
            <path id="Path_823669" data-name="Path 823669" d="M239.247,282.726a111.153,111.153,0,0,0-11.741-21.207,110.8,110.8,0,0,1-52.2,5.252,21.1,21.1,0,0,1-6.823-2.194h-.1a68.189,68.189,0,0,1,33.73,82.069,69.007,69.007,0,0,1-3.214,8.091,21.167,21.167,0,0,1,3.608-4.808,110.752,110.752,0,0,1,45.256-27.223,110.693,110.693,0,0,0-8.514-39.98" transform="translate(-49.877 -77.465)" fill="#00d7e1"/>
            <path id="Path_823670" data-name="Path 823670" d="M202.476,348.306a102.1,102.1,0,0,1-26.5-68.707c0-2.969.134-5.906.383-8.811a69.478,69.478,0,0,0-6.013-3.693,108.647,108.647,0,0,0,29.6,87.8,68.514,68.514,0,0,0,2.536-6.592" transform="translate(-50.244 -79.117)" fill="#d1d3d4"/>
            <path id="Path_823671" data-name="Path 823671" d="M462.484,269.731c-.89.646-1.757,1.311-2.607,1.991q.305,3.954.309,7.984A102.024,102.024,0,0,1,437,344.564a69.04,69.04,0,0,0,2.481,6.888,108.613,108.613,0,0,0,26.367-83.994c-1.141.728-2.267,1.479-3.361,2.273" transform="translate(-129.444 -79.224)" fill="#d1d3d4"/>
            <path id="Path_823672" data-name="Path 823672" d="M348.862,419.586c-.6-.436-1.211-.847-1.82-1.262a102.434,102.434,0,0,1-78.869,1.333,69.112,69.112,0,0,0-5.58,4.549,108.742,108.742,0,0,0,90.208-1.529c-1.277-1.077-2.591-2.111-3.94-3.091" transform="translate(-77.784 -123.913)" fill="#d1d3d4"/>
            <path id="Path_823673" data-name="Path 823673" d="M357.793,139.1c.153.472.326.932.488,1.4a102.87,102.87,0,0,1,62.836,45.957,69.135,69.135,0,0,0,7.256-.219,109.221,109.221,0,0,0-72.118-52.72c.44,1.878.941,3.747,1.537,5.584" transform="translate(-105.527 -39.549)" fill="#d1d3d4"/>
            <path id="Path_823674" data-name="Path 823674" d="M196.25,187.376a102.838,102.838,0,0,1,65.877-47.613,69.256,69.256,0,0,0,1.8-6.855,109.184,109.184,0,0,0-74.761,54.033,69.341,69.341,0,0,0,7.084.435" transform="translate(-56.033 -39.369)" fill="#d1d3d4"/>
            <path id="Path_823675" data-name="Path 823675" d="M205.96,57.37A53.717,53.717,0,1,1,152.243,3.652,53.717,53.717,0,0,1,205.96,57.37" transform="translate(-29.185 -1.082)" fill="#0082d2"/>
            <path id="Path_823676" data-name="Path 823676" d="M151.16,112.574a56.288,56.288,0,1,1,56.288-56.287,56.352,56.352,0,0,1-56.288,56.287m0-107.434a51.147,51.147,0,1,0,51.146,51.147A51.2,51.2,0,0,0,151.16,5.14" transform="translate(-28.102 0)" fill="#d1d3d4"/>
            <path id="Path_823677" data-name="Path 823677" d="M358.517,512.942a56.837,56.837,0,1,1-56.838-56.836,56.837,56.837,0,0,1,56.838,56.836" transform="translate(-72.525 -135.104)" fill="#8cd26e"/>
            <path id="Path_823678" data-name="Path 823678" d="M300.534,571.354A59.556,59.556,0,1,1,360.091,511.8a59.623,59.623,0,0,1-59.557,59.556m0-113.672A54.116,54.116,0,1,0,354.652,511.8a54.178,54.178,0,0,0-54.118-54.116" transform="translate(-71.381 -133.96)" fill="#d1d3d4"/>
            <path id="Path_823679" data-name="Path 823679" d="M588.938,341.636A51.838,51.838,0,1,1,537.1,289.8a51.839,51.839,0,0,1,51.838,51.839" transform="translate(-143.74 -85.841)" fill="#00d2aa"/>
            <path id="Path_823680" data-name="Path 823680" d="M536.055,394.912a54.32,54.32,0,1,1,54.318-54.32,54.382,54.382,0,0,1-54.318,54.32m0-103.678a49.359,49.359,0,1,0,49.357,49.358,49.414,49.414,0,0,0-49.357-49.358" transform="translate(-142.696 -84.797)" fill="#d1d3d4"/>
            <path id="Path_823681" data-name="Path 823681" d="M510.612,64.45a55.98,55.98,0,1,1-55.98-55.981,55.98,55.98,0,0,1,55.98,55.981" transform="translate(-118.085 -2.509)" fill="#00aae1"/>
            <path id="Path_823682" data-name="Path 823682" d="M453.5,121.983a58.66,58.66,0,1,1,58.659-58.66,58.726,58.726,0,0,1-58.659,58.66m0-111.962a53.3,53.3,0,1,0,53.3,53.3,53.362,53.362,0,0,0-53.3-53.3" transform="translate(-116.958 -1.381)" fill="#d1d3d4"/>
            <path id="Path_823683" data-name="Path 823683" d="M116.754,355.931A56.458,56.458,0,1,1,60.3,299.472a56.458,56.458,0,0,1,56.458,56.459" transform="translate(-1.137 -88.707)" fill="#00d7e1"/>
            <path id="Path_823684" data-name="Path 823684" d="M59.16,413.954a59.16,59.16,0,1,1,59.16-59.16,59.226,59.226,0,0,1-59.16,59.16m0-112.917a53.757,53.757,0,1,0,53.757,53.757A53.817,53.817,0,0,0,59.16,301.037" transform="translate(0 -87.57)" fill="#d1d3d4"/>
          </g>
        </g>
        <g id="Group_1074006" data-name="Group 1074006" transform="translate(591.594 2597.259)">
          <g id="Group_1074005" data-name="Group 1074005" transform="translate(0 0)" clip-path="url(#clip-path-2)">
            <path id="Path_823685" data-name="Path 823685" d="M8.953,56.618c-1.8,0-3.61.044-5.412-.015A3.378,3.378,0,0,1,.685,54.861a3.857,3.857,0,0,1-.574-3.069,3.493,3.493,0,0,0,.011-.748c.031-1.3.279-2.572.409-3.858.108-1.056.316-2.094.491-3.133.154-.917.4-1.832.644-2.737.369-1.355.724-2.717,1.17-4.046.405-1.207.882-2.394,1.4-3.556.674-1.5,1.388-2.987,2.153-4.444a49.837,49.837,0,0,1,3.083-5.111c.8-1.164,1.656-2.288,2.478-3.436a40.212,40.212,0,0,1,2.634-3.075c.744-.843,1.517-1.653,2.332-2.417a48.978,48.978,0,0,1,5.77-4.745c1.081-.742,2.141-1.539,3.245-2.238.855-.541,1.771-1.025,2.662-1.525,1.3-.73,2.654-1.351,3.987-2.006a40.972,40.972,0,0,1,3.9-1.489c1.83-.676,3.714-1.172,5.59-1.693A30.785,30.785,0,0,1,45.152.86C46.631.609,48.132.452,49.628.291A40.579,40.579,0,0,1,55.785.03c1.813.081,3.628.152,5.44.378a68.276,68.276,0,0,1,6.9,1.273,17.169,17.169,0,0,0,2.291.609,12.083,12.083,0,0,1,2.863.9c.755.263,1.54.554,2.294.869,1.947.811,3.808,1.786,5.692,2.719a48.937,48.937,0,0,1,5.16,3.258A46.7,46.7,0,0,1,94.1,16.5c1.163,1.195,2.265,2.452,3.312,3.759a66.468,66.468,0,0,1,4.12,5.8,53.113,53.113,0,0,1,4.634,9.309,62.423,62.423,0,0,1,2.036,6.528c.47,1.742.732,3.519,1.029,5.288a34.468,34.468,0,0,1,.369,3.559c.044.708.046,1.416.088,2.123a3.434,3.434,0,0,1-1.616,3.028,3.893,3.893,0,0,1-2.481.712c-3.555.031-7.112.07-10.665-.024a3.562,3.562,0,0,1-3.21-2.2,5.9,5.9,0,0,1-.469-1.974,41.76,41.76,0,0,0-.612-4.824A36.177,36.177,0,0,0,89.1,42.238a36.871,36.871,0,0,0-1.732-4.051,40.2,40.2,0,0,0-3.076-4.962,38.747,38.747,0,0,0-5.953-6.313,36.237,36.237,0,0,0-6.933-4.575,32.862,32.862,0,0,0-5.655-2.295,29.257,29.257,0,0,0-5.132-1.135c-1.339-.152-2.682-.317-4.037-.383a28.629,28.629,0,0,0-3.195-.052,30.914,30.914,0,0,0-4.607.475c-.751.162-1.529.2-2.276.376-.5.118-1,.285-1.5.42a35.031,35.031,0,0,0-5.428,2,31.647,31.647,0,0,0-4.107,2.212,41.042,41.042,0,0,0-4.489,3.365A35.619,35.619,0,0,0,24.35,35a42.744,42.744,0,0,0-4.107,8.327,28.067,28.067,0,0,0-1.152,4.421,34.144,34.144,0,0,0-.534,4.584c-.125,2.107-.95,3.5-3,4.114a4.961,4.961,0,0,1-1.355.166c-1.751.018-3.5.007-5.252.007M86.12,21.248c.132-.117.271-.228.4-.353,1.054-1.042,2.1-2.094,3.163-3.126.484-.469.507-.458.025-.889A53.608,53.608,0,0,0,79.8,9.8,49.476,49.476,0,0,0,66.766,4.836c-1.142-.257-2.286-.533-3.444-.684-.8-.1-1.625-.181-2.417-.319-1.3-.228-2.613-.091-3.907-.284-.237-.035-.391,0-.387.322.022,1.75.019,3.5.025,5.251q-.009,2.571-.018,5.142c0,.831,0,.826.806.87.227.012.452.1.677.094a19.439,19.439,0,0,1,4.145.482,36.419,36.419,0,0,1,5.525,1.437,40,40,0,0,1,13.823,8.134c.142.128.259.309.477.086q2.021-2.064,4.051-4.118M9.343,53.188v0c1.7,0,3.394-.025,5.089.014.547.012.68-.23.7-.683s.037-.879.079-1.32a39.769,39.769,0,0,1,1.453-7.6,39.063,39.063,0,0,1,8.515-15.222c.287-.318.306-.544-.007-.853Q21.4,23.8,17.645,20.055a1.345,1.345,0,0,0-.113-.114c-.194-.152-.34-.156-.531.057-.618.689-1.235,1.377-1.824,2.093A51.76,51.76,0,0,0,5.909,39.026a53.425,53.425,0,0,0-1.588,6.24c-.329,1.657-.48,3.344-.683,5.022a14.1,14.1,0,0,1-.176,2c-.17.646.1.9.79.9q2.545,0,5.09,0M53.18,9.3h0c0-1.751-.01-3.5.008-5.252,0-.372-.046-.54-.48-.513-.528.034-1.061.1-1.582.1a30.407,30.407,0,0,0-5.325.589,48.8,48.8,0,0,0-8.352,2.222A51.693,51.693,0,0,0,20.045,16.967c-.268.245-.31.39-.028.668q3.832,3.782,7.631,7.6c.259.261.4.221.637,0a39.317,39.317,0,0,1,8.768-5.985A38.658,38.658,0,0,1,52.72,15.117c.393-.018.469-.158.466-.511-.014-1.769-.006-3.537-.006-5.305m47.361,43.883v0h4.609c1.122,0,1.1,0,1.106-1.108S106.1,49.89,106,48.8a42.526,42.526,0,0,0-.966-5.615,50.689,50.689,0,0,0-3.688-10.578A48.028,48.028,0,0,0,98.08,26.79c-.685-1.034-1.4-2.052-2.151-3.038-.968-1.268-2.02-2.469-3.081-3.662-.271-.3-.449-.314-.729-.028-1.024,1.047-2.064,2.079-3.1,3.116L84.709,27.5c-.232.233-.465.431-.118.789A30.791,30.791,0,0,1,87.7,32.18a39.359,39.359,0,0,1,6.549,16.168,33.979,33.979,0,0,1,.45,3.972c.04.849.076.863.914.864h4.931" transform="translate(0 0)"/>
            <path id="Path_823686" data-name="Path 823686" d="M100.482,107.645c-4.42,0-8.84.011-13.259-.008a6.026,6.026,0,0,1-2.7-.717,7.216,7.216,0,0,1-3.591-4.092,7.466,7.466,0,0,1-.382-2.06,7.137,7.137,0,0,1,1.141-4.139c1.035-1.818,2.1-3.619,3.127-5.44.589-1.042,1.2-2.074,1.808-3.108,1-1.71,1.985-3.43,2.977-5.145,1.065-1.843,2.123-3.689,3.195-5.528.694-1.189,1.348-2.406,2.126-3.537a6.317,6.317,0,0,1,2.8-2.235,7.212,7.212,0,0,1,3.532-.512,6.469,6.469,0,0,1,5.026,2.9c1.185,1.78,2.2,3.662,3.284,5.508s2.126,3.68,3.187,5.521l5.558,9.638c.433.753.851,1.515,1.3,2.258a6.4,6.4,0,0,1,.846,2.268,6.923,6.923,0,0,1-.148,3.144,7.361,7.361,0,0,1-1.754,3.16,7.075,7.075,0,0,1-2.515,1.658,7.676,7.676,0,0,1-2.827.463q-6.364.005-12.728,0m0-2.438c.05,0,.1.012.151.012q6.4,0,12.8,0a5.321,5.321,0,0,0,1.252-.158,4.612,4.612,0,0,0,3.465-4.446,5.793,5.793,0,0,0-.866-2.886c-2.43-4.185-4.829-8.389-7.273-12.567a30.277,30.277,0,0,0-2.529-4.154c.072-.353-.2-.573-.344-.829-.869-1.52-1.72-3.052-2.65-4.535a4.726,4.726,0,0,0-7.675-.243,19.13,19.13,0,0,0-1.245,2.074q-3.522,6.066-7.03,12.141-1.648,2.852-3.283,5.712c-.353.619-.668,1.267-1.043,1.862a8.535,8.535,0,0,0-1.054,2.019,4.409,4.409,0,0,0,.342,3.468,4.455,4.455,0,0,0,3.99,2.527c2.625.062,5.253.018,7.879.015q2.558,0,5.114-.012" transform="translate(-45.892 -40.512)"/>
            <path id="Path_823687" data-name="Path 823687" d="M105.439,108.682a9.455,9.455,0,0,1,2.625-6.488,8.978,8.978,0,0,1,4.787-2.639,21.316,21.316,0,0,1,2.729-.246,8.467,8.467,0,0,1,2.5.551A6.624,6.624,0,0,1,120.45,101a8.267,8.267,0,0,1,2.243,2.25c.2.3.471.183.7.069,1.8-.9,3.661-1.692,5.5-2.508,2.972-1.316,5.964-2.586,8.92-3.939,1.426-.653,2.882-1.234,4.308-1.884a1.991,1.991,0,0,1,2.366.2,1.675,1.675,0,0,1-.612,2.712c-1.339.675-2.724,1.248-4.1,1.846-.925.4-1.862.782-2.769,1.22-2.7,1.3-5.485,2.41-8.21,3.656-1.351.617-2.714,1.209-4.094,1.757-.375.149-.454.339-.384.66a7.257,7.257,0,0,1,.205,1.933c-.21,3.961-1.957,6.98-5.627,8.632a9.443,9.443,0,0,1-12.68-5,7.868,7.868,0,0,1-.782-3.916m9.606-5.888a5.993,5.993,0,0,0-6.126,5.95,6.071,6.071,0,0,0,6.053,6.213,6.132,6.132,0,0,0,6.093-6.136,6.045,6.045,0,0,0-6.021-6.027" transform="translate(-60.089 -53.97)"/>
            <path id="Path_823688" data-name="Path 823688" d="M13.867,79.464q-2.545,0-5.089,0c-.685,0-.96-.258-.79-.9a14.1,14.1,0,0,0,.176-2c.2-1.678.354-3.365.683-5.022a53.513,53.513,0,0,1,1.588-6.24A51.76,51.76,0,0,1,19.7,48.368c.589-.716,1.206-1.4,1.824-2.093.191-.213.337-.209.532-.057a1.409,1.409,0,0,1,.113.114q3.76,3.736,7.525,7.468c.314.309.294.535.007.853a39.069,39.069,0,0,0-8.515,15.222,39.77,39.77,0,0,0-1.453,7.6c-.042.441-.06.88-.079,1.32s-.152.7-.7.683c-1.7-.039-3.393-.014-5.089-.014Z" transform="translate(-4.524 -26.277)" fill="#89c8fe"/>
            <path id="Path_823689" data-name="Path 823689" d="M79.447,13.982c0,1.769-.008,3.537.006,5.305,0,.352-.073.492-.465.511a38.658,38.658,0,0,0-15.668,4.133,39.317,39.317,0,0,0-8.767,5.985c-.242.218-.379.258-.638,0q-3.8-3.815-7.631-7.6c-.282-.279-.24-.423.028-.668a51.691,51.691,0,0,1,17.41-10.52,48.82,48.82,0,0,1,8.352-2.222A30.4,30.4,0,0,1,77.4,8.318c.521,0,1.054-.068,1.582-.1.434-.028.484.14.48.513-.018,1.751-.008,3.5-.008,5.252Z" transform="translate(-26.267 -4.681)" fill="#8cd26e"/>
            <path id="Path_823690" data-name="Path 823690" d="M212.39,79.489H207.46c-.837,0-.874-.015-.914-.864a33.991,33.991,0,0,0-.45-3.972,39.359,39.359,0,0,0-6.549-16.168A30.794,30.794,0,0,0,196.44,54.6c-.347-.359-.114-.556.118-.789l4.311-4.327c1.034-1.037,2.074-2.069,3.1-3.116.28-.286.458-.277.729.028,1.061,1.193,2.113,2.394,3.081,3.662.753.986,1.467,2,2.151,3.038a48.02,48.02,0,0,1,3.268,5.817,50.688,50.688,0,0,1,3.688,10.578,42.53,42.53,0,0,1,.966,5.615c.1,1.091.261,2.178.254,3.28s.016,1.108-1.106,1.108H212.39Z" transform="translate(-111.849 -26.305)" fill="#fd636f"/>
            <path id="Path_823691" data-name="Path 823691" d="M131.643,13.808c-.006-1.751,0-3.5-.025-5.251,0-.324.15-.357.387-.321,1.294.194,2.606.056,3.907.284.792.138,1.613.214,2.417.319,1.158.151,2.3.428,3.444.684a49.505,49.505,0,0,1,13.031,4.963,53.612,53.612,0,0,1,9.908,7.082c.481.431.459.42-.025.889-1.064,1.032-2.108,2.084-3.163,3.126-.126.124-.264.236-.4.353a12.325,12.325,0,0,1-2.565-1.873,46.256,46.256,0,0,0-7.547-4.988,44.571,44.571,0,0,0-16.794-4.962,8.891,8.891,0,0,1-2.58-.3" transform="translate(-75.008 -4.687)" fill="#ffe176"/>
            <path id="Path_823692" data-name="Path 823692" d="M131.652,21.207a8.891,8.891,0,0,0,2.58.3,44.57,44.57,0,0,1,16.794,4.962,46.254,46.254,0,0,1,7.547,4.988,12.327,12.327,0,0,0,2.565,1.873q-2.026,2.058-4.051,4.118c-.218.223-.335.042-.476-.086a40,40,0,0,0-13.823-8.135,36.539,36.539,0,0,0-5.525-1.437,19.467,19.467,0,0,0-4.145-.482c-.224.009-.45-.081-.677-.094-.806-.044-.808-.039-.806-.87q.007-2.572.018-5.142" transform="translate(-75.017 -12.086)" fill="#fecf63"/>
            <path id="Path_823693" data-name="Path 823693" d="M126.981,76.809a4.257,4.257,0,0,1,3.93,2.093c.93,1.483,1.781,3.015,2.65,4.535.147.256.416.477.344.829a30.31,30.31,0,0,1,2.529,4.154c2.444,4.178,4.843,8.382,7.273,12.567a5.8,5.8,0,0,1,.866,2.886,4.613,4.613,0,0,1-3.465,4.446,5.336,5.336,0,0,1-1.252.158q-6.4,0-12.8,0c-.05,0-.1-.008-.151-.012a10.005,10.005,0,0,0,.075-1.794c.182-.031.366-.057.547-.092a3.154,3.154,0,0,0,2.44-4.234,3.016,3.016,0,0,0-3.063-2.067c-.044-.369.076-.739,0-1.108A2.875,2.875,0,0,0,129.47,97.6a3.285,3.285,0,0,0,.3-1.537c.016-1.571.1-3.138.173-4.706.026-.576.011-1.152.053-1.73.1-1.332.128-2.67.145-4.006a2.734,2.734,0,0,0-1.894-2.629,6.221,6.221,0,0,0-1.262-.17q0-3.006,0-6.012" transform="translate(-72.317 -43.772)" fill="#fecf63"/>
            <path id="Path_823694" data-name="Path 823694" d="M103.766,76.8q0,3.006,0,6.012c-.226.012-.453.021-.679.038a2.7,2.7,0,0,0-2.422,2.56c-.036,1.532.069,3.062.139,4.592.09,1.984.106,3.972.163,5.957a3.818,3.818,0,0,0,.1.887,2.829,2.829,0,0,0,2.626,2.317c.077.369-.043.738,0,1.108a3.517,3.517,0,0,0-1.932.668,3.261,3.261,0,0,0-1.138,3.071,3.422,3.422,0,0,0,3.146,2.654,10,10,0,0,1-.075,1.794q-2.557.006-5.114.012c-2.627,0-5.254.046-7.88-.016a4.692,4.692,0,0,1-4.331-6,8.521,8.521,0,0,1,1.055-2.019c.375-.6.689-1.244,1.043-1.862q1.634-2.861,3.284-5.713,3.51-6.072,7.03-12.14a18.919,18.919,0,0,1,1.245-2.074,4.262,4.262,0,0,1,3.744-1.85" transform="translate(-49.102 -43.766)" fill="#ffe176"/>
            <path id="Path_823695" data-name="Path 823695" d="M122.9,107.14a2.828,2.828,0,0,1-2.625-2.317,3.794,3.794,0,0,1-.1-.887c-.056-1.986-.073-3.973-.163-5.957-.069-1.531-.174-3.06-.139-4.592a2.7,2.7,0,0,1,2.422-2.56c.226-.017.453-.025.68-.038a6.219,6.219,0,0,1,1.262.17,2.734,2.734,0,0,1,1.894,2.629c-.016,1.336-.049,2.674-.145,4.006-.042.579-.027,1.154-.052,1.73-.07,1.568-.158,3.135-.174,4.706a3.271,3.271,0,0,1-.3,1.536,2.876,2.876,0,0,1-2.566,1.574m.781-12.646c0-.076.011-.151.015-.227.055-1.034.055-1.027-.994-1.019-.3,0-.425.086-.416.413.027.955,0,1.91.082,2.864.055.649.032,1.3.058,1.954.055,1.391.126,2.782.173,4.173.02.567.041,1.135.074,1.7a.316.316,0,0,0,.377.327c.2-.022.26-.172.237-.36a5.075,5.075,0,0,1,.061-.932c.117-2.084.11-4.173.216-6.258.044-.878.074-1.757.117-2.636" transform="translate(-68.311 -51.739)"/>
            <path id="Path_823696" data-name="Path 823696" d="M122.842,137.775a3.423,3.423,0,0,1-3.146-2.654,3.264,3.264,0,0,1,1.139-3.071,3.519,3.519,0,0,1,1.932-.668,3.016,3.016,0,0,1,3.063,2.067,3.155,3.155,0,0,1-2.441,4.234c-.182.034-.365.061-.547.091m.757-3.2a.7.7,0,0,0-.732-.766.739.739,0,0,0-.773.748.863.863,0,0,0,.777.78.827.827,0,0,0,.728-.761" transform="translate(-68.178 -74.874)"/>
            <path id="Path_823697" data-name="Path 823697" d="M126.883,97.753c-.043.879-.073,1.758-.117,2.636-.106,2.085-.1,4.174-.216,6.258a5.074,5.074,0,0,0-.061.932c.023.188-.032.338-.237.36a.316.316,0,0,1-.377-.327c-.033-.566-.054-1.134-.074-1.7-.048-1.391-.119-2.782-.173-4.173-.025-.651,0-1.3-.058-1.954-.081-.954-.055-1.909-.082-2.864-.009-.327.119-.41.416-.413,1.048-.008,1.048-.015.994,1.019,0,.076-.01.151-.015.227" transform="translate(-71.514 -54.998)" fill="#fd636f"/>
            <path id="Path_823698" data-name="Path 823698" d="M126.858,137.786a.827.827,0,0,1-.728.761.863.863,0,0,1-.777-.78.739.739,0,0,1,.773-.748.7.7,0,0,1,.732.766" transform="translate(-71.437 -78.086)" fill="#fd636f"/>
          </g>
        </g>
        <path id="Path_824397" data-name="Path 824397" d="M5.88-4.685h-2.1V0H1.143V-12.8H5.9a5.375,5.375,0,0,1,3.5,1.011,3.488,3.488,0,0,1,1.23,2.856,3.937,3.937,0,0,1-.567,2.184A3.866,3.866,0,0,1,8.341-5.353L11.109-.123V0H8.279ZM3.779-6.82H5.906a2.178,2.178,0,0,0,1.538-.505,1.806,1.806,0,0,0,.545-1.393,1.933,1.933,0,0,0-.514-1.424A2.137,2.137,0,0,0,5.9-10.661H3.779ZM15.144,0H12.595V-9.51h2.549Zm-2.7-11.971a1.251,1.251,0,0,1,.382-.94,1.436,1.436,0,0,1,1.042-.369,1.44,1.44,0,0,1,1.037.369,1.244,1.244,0,0,1,.387.94,1.247,1.247,0,0,1-.391.949,1.443,1.443,0,0,1-1.033.369,1.443,1.443,0,0,1-1.033-.369A1.247,1.247,0,0,1,12.445-11.971ZM21.612.176a4.668,4.668,0,0,1-3.406-1.283,4.561,4.561,0,0,1-1.314-3.419v-.246a5.745,5.745,0,0,1,.554-2.562,4.064,4.064,0,0,1,1.569-1.74,4.4,4.4,0,0,1,2.316-.611A3.947,3.947,0,0,1,24.4-8.455a5,5,0,0,1,1.121,3.489v1.037H19.468a2.36,2.36,0,0,0,.743,1.494,2.245,2.245,0,0,0,1.569.563,2.742,2.742,0,0,0,2.294-1.063l1.248,1.4A3.813,3.813,0,0,1,23.774-.277,5.075,5.075,0,0,1,21.612.176Zm-.29-7.813a1.587,1.587,0,0,0-1.226.512,2.651,2.651,0,0,0-.6,1.466h3.533v-.2a1.891,1.891,0,0,0-.457-1.311A1.638,1.638,0,0,0,21.322-7.638Zm10.793,5.01a.818.818,0,0,0-.461-.734,5.241,5.241,0,0,0-1.481-.479Q26.78-4.553,26.78-6.724a2.613,2.613,0,0,1,1.05-2.114,4.237,4.237,0,0,1,2.747-.848,4.56,4.56,0,0,1,2.9.853,2.687,2.687,0,0,1,1.085,2.215h-2.54a1.229,1.229,0,0,0-.352-.9,1.488,1.488,0,0,0-1.1-.356,1.52,1.52,0,0,0-.993.29.916.916,0,0,0-.352.738.783.783,0,0,0,.4.681,4.114,4.114,0,0,0,1.349.448,11.019,11.019,0,0,1,1.6.426,2.628,2.628,0,0,1,2.013,2.558,2.481,2.481,0,0,1-1.116,2.1,4.815,4.815,0,0,1-2.883.8A5.029,5.029,0,0,1,28.463-.25a3.561,3.561,0,0,1-1.455-1.169,2.716,2.716,0,0,1-.527-1.6H28.89a1.326,1.326,0,0,0,.5,1.037,1.987,1.987,0,0,0,1.248.36,1.839,1.839,0,0,0,1.1-.277A.861.861,0,0,0,32.115-2.628Zm3.735-2.2A5.573,5.573,0,0,1,36.892-8.35,3.375,3.375,0,0,1,39.7-9.686a2.96,2.96,0,0,1,2.435,1.072l.105-.9h2.3V-.316a4.064,4.064,0,0,1-.567,2.171,3.641,3.641,0,0,1-1.6,1.406,5.608,5.608,0,0,1-2.408.483,5.215,5.215,0,0,1-2.039-.417,3.619,3.619,0,0,1-1.5-1.077L37.556.7a2.975,2.975,0,0,0,2.3,1.063,2.178,2.178,0,0,0,1.573-.541,2.027,2.027,0,0,0,.563-1.534v-.51a2.938,2.938,0,0,1-2.312.993,3.366,3.366,0,0,1-2.773-1.34A5.572,5.572,0,0,1,35.851-4.72Zm2.54.189a3.47,3.47,0,0,0,.519,2.029,1.65,1.65,0,0,0,1.424.735,1.764,1.764,0,0,0,1.661-.871V-6.749a1.76,1.76,0,0,0-1.644-.871,1.66,1.66,0,0,0-1.437.748A3.911,3.911,0,0,0,38.391-4.636ZM46.1-4.843a5.64,5.64,0,0,1,.545-2.522,3.989,3.989,0,0,1,1.569-1.714,4.577,4.577,0,0,1,2.377-.606,4.33,4.33,0,0,1,3.142,1.178,4.727,4.727,0,0,1,1.358,3.2l.018.65a4.97,4.97,0,0,1-1.222,3.511A4.247,4.247,0,0,1,50.607.176a4.268,4.268,0,0,1-3.283-1.318A5.058,5.058,0,0,1,46.1-4.729Zm2.54.18a3.555,3.555,0,0,0,.51,2.073,1.682,1.682,0,0,0,1.459.717,1.686,1.686,0,0,0,1.441-.709,3.89,3.89,0,0,0,.519-2.267,3.519,3.519,0,0,0-.519-2.06,1.686,1.686,0,0,0-1.459-.731,1.658,1.658,0,0,0-1.441.726A3.955,3.955,0,0,0,48.639-4.662Z" transform="translate(619.342 2684.38)"/>
        <path id="Path_823699" data-name="Path 823699" d="M-22.282,0H89.142c7.577,0,13.72,7.912,13.72,17.672S96.72,35.345,89.142,35.345H-22.282S-35.724,34.274-36,19.636-29.859,0-22.282,0Z" transform="translate(504.812 2492.541)" fill="#ffbf9a"/>
        <path id="Path_823703" data-name="Path 823703" d="M-21.975,0H91.937a14.3,14.3,0,0,1,14.026,14.56A14.3,14.3,0,0,1,91.937,29.12H-21.975S-35.718,28.238-36,16.178-29.722,0-21.975,0Z" transform="translate(611.257 2816.153)" fill="#ffbf9a"/>
        <path id="Path_823702" data-name="Path 823702" d="M-21.786,0H93.662c7.851,0,14.216,7.912,14.216,17.672s-6.365,17.672-14.216,17.672H-21.786S-35.714,34.274-36,19.636-29.637,0-21.786,0Z" transform="translate(438.185 2698.13)" fill="#ffbf9a"/>
        <path id="Path_823991" data-name="Path 823991" d="M-21.786,0H93.662c7.851,0,14.216,7.912,14.216,17.672s-6.365,17.672-14.216,17.672H-21.786S-35.714,34.274-36,19.636-29.637,0-21.786,0Z" transform="translate(775.122 2698.13)" fill="#ffbf9a"/>
        <path id="Path_823700" data-name="Path 823700" d="M15.027,0h121.96C145.281,0,152,7.912,152,17.672s-6.724,17.672-15.017,17.672H15.027S.313,34.274.009,19.636,6.733,0,15.027,0Z" transform="translate(832.105 2527.885) rotate(180)" fill="#ffbf9a"/>
        <path id="Path_824398" data-name="Path 824398" d="M1.016,0V-11.375H5a5.232,5.232,0,0,1,3.141.793,2.712,2.712,0,0,1,1.07,2.324,2.57,2.57,0,0,1-.43,1.473,2.482,2.482,0,0,1-1.2.934,2.4,2.4,0,0,1,1.379.883,2.61,2.61,0,0,1,.5,1.625A3,3,0,0,1,8.422-.859,4.713,4.713,0,0,1,5.438,0ZM3.359-4.953v3.07H5.367A1.938,1.938,0,0,0,6.66-2.277a1.353,1.353,0,0,0,.465-1.09A1.428,1.428,0,0,0,5.508-4.953Zm0-1.656H5.094q1.773-.031,1.773-1.414a1.307,1.307,0,0,0-.449-1.113A2.363,2.363,0,0,0,5-9.477H3.359ZM13.461,0H11.2V-8.453h2.266Zm-2.4-10.641a1.112,1.112,0,0,1,.34-.836,1.277,1.277,0,0,1,.926-.328,1.28,1.28,0,0,1,.922.328,1.105,1.105,0,0,1,.344.836,1.108,1.108,0,0,1-.348.844,1.283,1.283,0,0,1-.918.328A1.283,1.283,0,0,1,11.41-9.8,1.108,1.108,0,0,1,11.063-10.641ZM14.969-4.3a5.013,5.013,0,0,1,.484-2.242A3.546,3.546,0,0,1,16.848-8.07a4.069,4.069,0,0,1,2.113-.539,3.849,3.849,0,0,1,2.793,1.047,4.2,4.2,0,0,1,1.207,2.844l.016.578A4.418,4.418,0,0,1,21.891-1.02,3.775,3.775,0,0,1,18.977.156a3.793,3.793,0,0,1-2.918-1.172A4.5,4.5,0,0,1,14.969-4.2Zm2.258.16A3.16,3.16,0,0,0,17.68-2.3a1.5,1.5,0,0,0,1.3.638,1.5,1.5,0,0,0,1.281-.63,3.457,3.457,0,0,0,.461-2.015,3.128,3.128,0,0,0-.461-1.831,1.5,1.5,0,0,0-1.3-.649,1.474,1.474,0,0,0-1.281.646A3.516,3.516,0,0,0,17.227-4.144ZM26.75,0H24.484V-12H26.75Zm1.508-4.3a5.013,5.013,0,0,1,.484-2.242A3.546,3.546,0,0,1,30.137-8.07a4.069,4.069,0,0,1,2.113-.539,3.849,3.849,0,0,1,2.793,1.047A4.2,4.2,0,0,1,36.25-4.719l.016.578A4.418,4.418,0,0,1,35.18-1.02,3.775,3.775,0,0,1,32.266.156a3.793,3.793,0,0,1-2.918-1.172A4.5,4.5,0,0,1,28.258-4.2Zm2.258.16A3.16,3.16,0,0,0,30.969-2.3a1.5,1.5,0,0,0,1.3.638,1.5,1.5,0,0,0,1.281-.63,3.457,3.457,0,0,0,.461-2.015,3.128,3.128,0,0,0-.461-1.831,1.5,1.5,0,0,0-1.3-.649,1.474,1.474,0,0,0-1.281.646A3.516,3.516,0,0,0,30.516-4.144ZM32.7-12h2.461L32.992-9.578H31.156Zm4.633,7.711a4.954,4.954,0,0,1,.926-3.133,3,3,0,0,1,2.5-1.187,2.631,2.631,0,0,1,2.164.953l.094-.8h2.047V-.281a3.613,3.613,0,0,1-.5,1.93A3.236,3.236,0,0,1,43.133,2.9a4.985,4.985,0,0,1-2.141.43,4.635,4.635,0,0,1-1.812-.371A3.217,3.217,0,0,1,37.844,2l1-1.375a2.645,2.645,0,0,0,2.047.945,1.936,1.936,0,0,0,1.4-.48,1.8,1.8,0,0,0,.5-1.363V-.727a2.612,2.612,0,0,1-2.055.883A2.992,2.992,0,0,1,38.27-1.035a4.953,4.953,0,0,1-.941-3.16Zm2.258.168a3.085,3.085,0,0,0,.461,1.8,1.466,1.466,0,0,0,1.266.653,1.568,1.568,0,0,0,1.477-.775V-6a1.564,1.564,0,0,0-1.461-.775,1.476,1.476,0,0,0-1.277.665A3.477,3.477,0,0,0,39.586-4.121ZM49.172,0H46.906V-8.453h2.266Zm-2.4-10.641a1.112,1.112,0,0,1,.34-.836,1.277,1.277,0,0,1,.926-.328,1.28,1.28,0,0,1,.922.328,1.105,1.105,0,0,1,.344.836,1.108,1.108,0,0,1-.348.844,1.283,1.283,0,0,1-.918.328,1.283,1.283,0,0,1-.918-.328A1.108,1.108,0,0,1,46.773-10.641Zm7.773,8.977a1.481,1.481,0,0,0,1.016-.344,1.2,1.2,0,0,0,.406-.914h2.117a2.9,2.9,0,0,1-.469,1.574A3.093,3.093,0,0,1,56.355-.238a3.949,3.949,0,0,1-1.77.395A3.67,3.67,0,0,1,51.727-1,4.56,4.56,0,0,1,50.68-4.18v-.148a4.508,4.508,0,0,1,1.039-3.117A3.627,3.627,0,0,1,54.57-8.609a3.555,3.555,0,0,1,2.543.9,3.2,3.2,0,0,1,.973,2.4H55.969a1.551,1.551,0,0,0-.406-1.072,1.354,1.354,0,0,0-1.031-.412,1.36,1.36,0,0,0-1.191.575,3.333,3.333,0,0,0-.4,1.866v.235a3.375,3.375,0,0,0,.4,1.878A1.377,1.377,0,0,0,54.547-1.664ZM59.023-4.3a5.013,5.013,0,0,1,.484-2.242A3.546,3.546,0,0,1,60.9-8.07a4.069,4.069,0,0,1,2.113-.539,3.849,3.849,0,0,1,2.793,1.047,4.2,4.2,0,0,1,1.207,2.844l.016.578A4.418,4.418,0,0,1,65.945-1.02,3.775,3.775,0,0,1,63.031.156a3.793,3.793,0,0,1-2.918-1.172A4.5,4.5,0,0,1,59.023-4.2Zm2.258.16A3.16,3.16,0,0,0,61.734-2.3a1.5,1.5,0,0,0,1.3.638,1.5,1.5,0,0,0,1.281-.63,3.457,3.457,0,0,0,.461-2.015,3.128,3.128,0,0,0-.461-1.831,1.5,1.5,0,0,0-1.3-.649,1.474,1.474,0,0,0-1.281.646A3.516,3.516,0,0,0,61.281-4.144Z" transform="translate(724.001 2515.558)"/>
        <path id="Path_824399" data-name="Path 824399" d="M7.859-4.648h-4.5V0H1.016V-11.375H8.422v1.9H3.359v2.938h4.5ZM12.07,0H9.813V-8.453H12.07Zm-.664-11.883h2.461L11.7-9.461H9.867Zm7.188,9.547a.727.727,0,0,0-.41-.652,4.659,4.659,0,0,0-1.316-.426q-3.016-.633-3.016-2.562a2.323,2.323,0,0,1,.934-1.879,3.766,3.766,0,0,1,2.441-.754,4.053,4.053,0,0,1,2.574.758,2.388,2.388,0,0,1,.965,1.969H18.508a1.092,1.092,0,0,0-.312-.8A1.322,1.322,0,0,0,17.219-7a1.351,1.351,0,0,0-.883.258.814.814,0,0,0-.312.656.7.7,0,0,0,.355.605,3.657,3.657,0,0,0,1.2.4A9.8,9.8,0,0,1,19-4.7,2.336,2.336,0,0,1,20.789-2.43,2.2,2.2,0,0,1,19.8-.559a4.28,4.28,0,0,1-2.562.715,4.47,4.47,0,0,1-1.887-.379,3.166,3.166,0,0,1-1.293-1.039,2.414,2.414,0,0,1-.469-1.426h2.141a1.179,1.179,0,0,0,.445.922,1.766,1.766,0,0,0,1.109.32,1.635,1.635,0,0,0,.98-.246A.766.766,0,0,0,18.594-2.336ZM24.625,0H22.359V-8.453h2.266Zm-2.4-10.641a1.112,1.112,0,0,1,.34-.836,1.277,1.277,0,0,1,.926-.328,1.28,1.28,0,0,1,.922.328,1.105,1.105,0,0,1,.344.836,1.108,1.108,0,0,1-.348.844,1.283,1.283,0,0,1-.918.328,1.283,1.283,0,0,1-.918-.328A1.108,1.108,0,0,1,22.227-10.641ZM30-1.664a1.481,1.481,0,0,0,1.016-.344,1.2,1.2,0,0,0,.406-.914h2.117a2.9,2.9,0,0,1-.469,1.574A3.093,3.093,0,0,1,31.809-.238a3.949,3.949,0,0,1-1.77.395A3.67,3.67,0,0,1,27.18-1,4.56,4.56,0,0,1,26.133-4.18v-.148a4.508,4.508,0,0,1,1.039-3.117,3.627,3.627,0,0,1,2.852-1.164,3.555,3.555,0,0,1,2.543.9,3.2,3.2,0,0,1,.973,2.4H31.422a1.551,1.551,0,0,0-.406-1.072,1.354,1.354,0,0,0-1.031-.412,1.36,1.36,0,0,0-1.191.575,3.333,3.333,0,0,0-.4,1.866v.235a3.375,3.375,0,0,0,.4,1.878A1.377,1.377,0,0,0,30-1.664ZM34.477-4.3a5.013,5.013,0,0,1,.484-2.242A3.546,3.546,0,0,1,36.355-8.07a4.069,4.069,0,0,1,2.113-.539,3.849,3.849,0,0,1,2.793,1.047,4.2,4.2,0,0,1,1.207,2.844l.016.578A4.418,4.418,0,0,1,41.4-1.02,3.775,3.775,0,0,1,38.484.156a3.793,3.793,0,0,1-2.918-1.172A4.5,4.5,0,0,1,34.477-4.2Zm2.258.16A3.16,3.16,0,0,0,37.188-2.3a1.5,1.5,0,0,0,1.3.638,1.5,1.5,0,0,0,1.281-.63,3.457,3.457,0,0,0,.461-2.015,3.128,3.128,0,0,0-.461-1.831,1.5,1.5,0,0,0-1.3-.649,1.474,1.474,0,0,0-1.281.646A3.516,3.516,0,0,0,36.734-4.144Z" transform="translate(791.001 2718.558)"/>
        <path id="Path_824400" data-name="Path 824400" d="M10.344-5.43a6.853,6.853,0,0,1-.516,2.77A4.754,4.754,0,0,1,8.4-.773L10.289.711,8.8,2.031,6.375.086a5.126,5.126,0,0,1-.859.07,4.732,4.732,0,0,1-2.523-.68A4.515,4.515,0,0,1,1.273-2.465a6.67,6.67,0,0,1-.617-2.9V-5.93a6.831,6.831,0,0,1,.605-2.957,4.508,4.508,0,0,1,1.711-1.961A4.706,4.706,0,0,1,5.5-11.531a4.706,4.706,0,0,1,2.527.684A4.508,4.508,0,0,1,9.738-8.887a6.811,6.811,0,0,1,.605,2.949ZM7.969-5.945a4.787,4.787,0,0,0-.641-2.719A2.088,2.088,0,0,0,5.5-9.594a2.088,2.088,0,0,0-1.82.918,4.732,4.732,0,0,0-.648,2.691v.555a4.847,4.847,0,0,0,.641,2.7,2.082,2.082,0,0,0,1.844.961,2.064,2.064,0,0,0,1.813-.926,4.819,4.819,0,0,0,.641-2.7ZM16.977-.859A2.831,2.831,0,0,1,14.664.156,2.67,2.67,0,0,1,12.59-.625a3.335,3.335,0,0,1-.73-2.289V-8.453h2.258v5.467q0,1.322,1.2,1.322a1.63,1.63,0,0,0,1.578-.8V-8.453h2.266V0H17.039ZM23.3,0H21.047V-8.453H23.3Zm-.664-11.883H25.1L22.938-9.461H21.1Zm4.727,3.43.07.945a2.971,2.971,0,0,1,2.43-1.1A2.255,2.255,0,0,1,32.109-7.32a2.9,2.9,0,0,1,2.539-1.289,2.521,2.521,0,0,1,2.047.8,3.681,3.681,0,0,1,.672,2.41V0H35.1V-5.391a1.61,1.61,0,0,0-.281-1.051,1.246,1.246,0,0,0-.992-.332,1.409,1.409,0,0,0-1.406.969L32.43,0H30.172V-5.383a1.59,1.59,0,0,0-.289-1.062,1.259,1.259,0,0,0-.984-.328,1.463,1.463,0,0,0-1.391.8V0H25.25V-8.453ZM41.484,0H39.219V-8.453h2.266Zm-2.4-10.641a1.112,1.112,0,0,1,.34-.836,1.277,1.277,0,0,1,.926-.328,1.28,1.28,0,0,1,.922.328,1.105,1.105,0,0,1,.344.836,1.108,1.108,0,0,1-.348.844,1.283,1.283,0,0,1-.918.328,1.283,1.283,0,0,1-.918-.328A1.108,1.108,0,0,1,39.086-10.641Zm7.773,8.977a1.481,1.481,0,0,0,1.016-.344,1.2,1.2,0,0,0,.406-.914H50.4a2.9,2.9,0,0,1-.469,1.574A3.093,3.093,0,0,1,48.668-.238,3.949,3.949,0,0,1,46.9.156,3.67,3.67,0,0,1,44.039-1,4.56,4.56,0,0,1,42.992-4.18v-.148a4.508,4.508,0,0,1,1.039-3.117,3.627,3.627,0,0,1,2.852-1.164,3.555,3.555,0,0,1,2.543.9A3.2,3.2,0,0,1,50.4-5.3H48.281a1.551,1.551,0,0,0-.406-1.072,1.354,1.354,0,0,0-1.031-.412,1.36,1.36,0,0,0-1.191.575,3.333,3.333,0,0,0-.4,1.866v.235a3.375,3.375,0,0,0,.4,1.878A1.377,1.377,0,0,0,46.859-1.664ZM51.336-4.3a5.013,5.013,0,0,1,.484-2.242A3.546,3.546,0,0,1,53.215-8.07a4.069,4.069,0,0,1,2.113-.539,3.849,3.849,0,0,1,2.793,1.047,4.2,4.2,0,0,1,1.207,2.844l.016.578A4.418,4.418,0,0,1,58.258-1.02,3.775,3.775,0,0,1,55.344.156a3.793,3.793,0,0,1-2.918-1.172A4.5,4.5,0,0,1,51.336-4.2Zm2.258.16A3.16,3.16,0,0,0,54.047-2.3a1.5,1.5,0,0,0,1.3.638,1.5,1.5,0,0,0,1.281-.63,3.457,3.457,0,0,0,.461-2.015,3.128,3.128,0,0,0-.461-1.831,1.5,1.5,0,0,0-1.3-.649,1.474,1.474,0,0,0-1.281.646A3.516,3.516,0,0,0,53.594-4.144Z" transform="translate(616.091 2834.912)"/>
        <path id="Path_824401" data-name="Path 824401" d="M8.477-4.148A5.07,5.07,0,0,1,7.59-1.02,2.843,2.843,0,0,1,5.2.156a2.633,2.633,0,0,1-2.07-.891V3.25H.867v-11.7H2.961l.078.828A2.654,2.654,0,0,1,5.18-8.609a2.862,2.862,0,0,1,2.43,1.156,5.207,5.207,0,0,1,.867,3.188ZM6.219-4.312A3.327,3.327,0,0,0,5.8-6.133a1.361,1.361,0,0,0-1.215-.641,1.478,1.478,0,0,0-1.461.813V-2.5A1.5,1.5,0,0,0,4.6-1.664Q6.219-1.664,6.219-4.312Zm8.234,1.977a.727.727,0,0,0-.41-.652,4.659,4.659,0,0,0-1.316-.426Q9.711-4.047,9.711-5.977a2.323,2.323,0,0,1,.934-1.879,3.766,3.766,0,0,1,2.441-.754,4.053,4.053,0,0,1,2.574.758,2.388,2.388,0,0,1,.965,1.969H14.367a1.092,1.092,0,0,0-.312-.8A1.322,1.322,0,0,0,13.078-7a1.351,1.351,0,0,0-.883.258.814.814,0,0,0-.312.656.7.7,0,0,0,.355.605,3.657,3.657,0,0,0,1.2.4,9.8,9.8,0,0,1,1.422.379A2.336,2.336,0,0,1,16.648-2.43a2.2,2.2,0,0,1-.992,1.871,4.28,4.28,0,0,1-2.562.715,4.47,4.47,0,0,1-1.887-.379A3.166,3.166,0,0,1,9.914-1.262a2.414,2.414,0,0,1-.469-1.426h2.141a1.179,1.179,0,0,0,.445.922,1.766,1.766,0,0,0,1.109.32,1.635,1.635,0,0,0,.98-.246A.766.766,0,0,0,14.453-2.336ZM20.484,0H18.219V-8.453h2.266Zm-2.4-10.641a1.112,1.112,0,0,1,.34-.836,1.277,1.277,0,0,1,.926-.328,1.28,1.28,0,0,1,.922.328,1.105,1.105,0,0,1,.344.836,1.108,1.108,0,0,1-.348.844,1.283,1.283,0,0,1-.918.328,1.283,1.283,0,0,1-.918-.328A1.108,1.108,0,0,1,18.086-10.641Zm7.773,8.977a1.481,1.481,0,0,0,1.016-.344,1.2,1.2,0,0,0,.406-.914H29.4a2.9,2.9,0,0,1-.469,1.574A3.093,3.093,0,0,1,27.668-.238,3.949,3.949,0,0,1,25.9.156,3.67,3.67,0,0,1,23.039-1,4.56,4.56,0,0,1,21.992-4.18v-.148a4.508,4.508,0,0,1,1.039-3.117,3.627,3.627,0,0,1,2.852-1.164,3.555,3.555,0,0,1,2.543.9A3.2,3.2,0,0,1,29.4-5.3H27.281a1.551,1.551,0,0,0-.406-1.072,1.354,1.354,0,0,0-1.031-.412,1.36,1.36,0,0,0-1.191.575,3.333,3.333,0,0,0-.4,1.866v.235a3.375,3.375,0,0,0,.4,1.878A1.377,1.377,0,0,0,25.859-1.664ZM30.336-4.3a5.013,5.013,0,0,1,.484-2.242A3.546,3.546,0,0,1,32.215-8.07a4.069,4.069,0,0,1,2.113-.539,3.849,3.849,0,0,1,2.793,1.047,4.2,4.2,0,0,1,1.207,2.844l.016.578A4.418,4.418,0,0,1,37.258-1.02,3.775,3.775,0,0,1,34.344.156a3.793,3.793,0,0,1-2.918-1.172A4.5,4.5,0,0,1,30.336-4.2Zm2.258.16A3.16,3.16,0,0,0,33.047-2.3a1.5,1.5,0,0,0,1.3.638,1.5,1.5,0,0,0,1.281-.63,3.457,3.457,0,0,0,.461-2.015,3.128,3.128,0,0,0-.461-1.831,1.5,1.5,0,0,0-1.3-.649,1.474,1.474,0,0,0-1.281.646A3.516,3.516,0,0,0,32.594-4.144ZM40.281,0V-6.8H39.023V-8.453h1.258v-.391a3.17,3.17,0,0,1,.98-2.457,3.945,3.945,0,0,1,2.723-.863,9.031,9.031,0,0,1,2.563.461l-.328,1.867a10,10,0,0,0-1.187-.293,5.835,5.835,0,0,0-.906-.066q-1.578,0-1.578,1.4v.344h1.664V-6.8H42.547V0ZM47.6,0H45.336V-8.453H47.6Zm6.445-2.336a.727.727,0,0,0-.41-.652,4.659,4.659,0,0,0-1.316-.426Q49.3-4.047,49.3-5.977a2.323,2.323,0,0,1,.934-1.879,3.766,3.766,0,0,1,2.441-.754,4.053,4.053,0,0,1,2.574.758,2.388,2.388,0,0,1,.965,1.969H53.961a1.092,1.092,0,0,0-.312-.8A1.322,1.322,0,0,0,52.672-7a1.351,1.351,0,0,0-.883.258.814.814,0,0,0-.312.656.7.7,0,0,0,.355.605,3.657,3.657,0,0,0,1.2.4,9.8,9.8,0,0,1,1.422.379A2.336,2.336,0,0,1,56.242-2.43,2.2,2.2,0,0,1,55.25-.559a4.28,4.28,0,0,1-2.562.715A4.47,4.47,0,0,1,50.8-.223a3.166,3.166,0,0,1-1.293-1.039,2.414,2.414,0,0,1-.469-1.426H51.18a1.179,1.179,0,0,0,.445.922,1.766,1.766,0,0,0,1.109.32,1.635,1.635,0,0,0,.98-.246A.766.766,0,0,0,54.047-2.336ZM60.078,0H57.813V-8.453h2.266Zm-2.4-10.641a1.112,1.112,0,0,1,.34-.836,1.277,1.277,0,0,1,.926-.328,1.28,1.28,0,0,1,.922.328,1.105,1.105,0,0,1,.344.836,1.108,1.108,0,0,1-.348.844,1.283,1.283,0,0,1-.918.328,1.283,1.283,0,0,1-.918-.328A1.108,1.108,0,0,1,57.68-10.641ZM61.586-4.3a5.013,5.013,0,0,1,.484-2.242A3.546,3.546,0,0,1,63.465-8.07a4.069,4.069,0,0,1,2.113-.539,3.849,3.849,0,0,1,2.793,1.047,4.2,4.2,0,0,1,1.207,2.844l.016.578A4.418,4.418,0,0,1,68.508-1.02,3.775,3.775,0,0,1,65.594.156a3.793,3.793,0,0,1-2.918-1.172A4.5,4.5,0,0,1,61.586-4.2Zm2.258.16A3.16,3.16,0,0,0,64.3-2.3a1.5,1.5,0,0,0,1.3.638,1.5,1.5,0,0,0,1.281-.63,3.457,3.457,0,0,0,.461-2.015,3.128,3.128,0,0,0-.461-1.831,1.5,1.5,0,0,0-1.3-.649,1.474,1.474,0,0,0-1.281.646A3.516,3.516,0,0,0,63.844-4.144ZM73.367,0H71.1V-12h2.266Zm1.508-4.3a5.013,5.013,0,0,1,.484-2.242A3.546,3.546,0,0,1,76.754-8.07a4.069,4.069,0,0,1,2.113-.539A3.849,3.849,0,0,1,81.66-7.562a4.2,4.2,0,0,1,1.207,2.844l.016.578A4.418,4.418,0,0,1,81.8-1.02,3.775,3.775,0,0,1,78.883.156a3.793,3.793,0,0,1-2.918-1.172A4.5,4.5,0,0,1,74.875-4.2Zm2.258.16A3.16,3.16,0,0,0,77.586-2.3a1.5,1.5,0,0,0,1.3.638,1.5,1.5,0,0,0,1.281-.63,3.457,3.457,0,0,0,.461-2.015,3.128,3.128,0,0,0-.461-1.831,1.5,1.5,0,0,0-1.3-.649,1.474,1.474,0,0,0-1.281.646A3.516,3.516,0,0,0,77.133-4.144ZM79.313-12h2.461L79.609-9.578H77.773Zm4.633,7.711a4.954,4.954,0,0,1,.926-3.133,3,3,0,0,1,2.5-1.187,2.631,2.631,0,0,1,2.164.953l.094-.8h2.047V-.281a3.613,3.613,0,0,1-.5,1.93A3.236,3.236,0,0,1,89.75,2.9a4.985,4.985,0,0,1-2.141.43A4.635,4.635,0,0,1,85.8,2.957,3.217,3.217,0,0,1,84.461,2l1-1.375a2.645,2.645,0,0,0,2.047.945,1.936,1.936,0,0,0,1.4-.48,1.8,1.8,0,0,0,.5-1.363V-.727a2.612,2.612,0,0,1-2.055.883,2.992,2.992,0,0,1-2.465-1.191,4.953,4.953,0,0,1-.941-3.16Zm2.258.168a3.085,3.085,0,0,0,.461,1.8,1.466,1.466,0,0,0,1.266.653,1.568,1.568,0,0,0,1.477-.775V-6a1.564,1.564,0,0,0-1.461-.775,1.476,1.476,0,0,0-1.277.665A3.477,3.477,0,0,0,86.2-4.121ZM95.789,0H93.523V-8.453h2.266Zm-2.4-10.641a1.112,1.112,0,0,1,.34-.836,1.277,1.277,0,0,1,.926-.328,1.28,1.28,0,0,1,.922.328,1.105,1.105,0,0,1,.344.836,1.108,1.108,0,0,1-.348.844,1.283,1.283,0,0,1-.918.328,1.283,1.283,0,0,1-.918-.328A1.108,1.108,0,0,1,93.391-10.641Zm7.773,8.977a1.481,1.481,0,0,0,1.016-.344,1.2,1.2,0,0,0,.406-.914H104.7a2.9,2.9,0,0,1-.469,1.574,3.093,3.093,0,0,1-1.262,1.109,3.949,3.949,0,0,1-1.77.395A3.67,3.67,0,0,1,98.344-1,4.56,4.56,0,0,1,97.3-4.18v-.148a4.508,4.508,0,0,1,1.039-3.117,3.627,3.627,0,0,1,2.852-1.164,3.555,3.555,0,0,1,2.543.9,3.2,3.2,0,0,1,.973,2.4h-2.117a1.551,1.551,0,0,0-.406-1.072,1.354,1.354,0,0,0-1.031-.412,1.36,1.36,0,0,0-1.191.575,3.333,3.333,0,0,0-.4,1.866v.235a3.375,3.375,0,0,0,.4,1.878A1.377,1.377,0,0,0,101.164-1.664ZM105.641-4.3a5.013,5.013,0,0,1,.484-2.242A3.546,3.546,0,0,1,107.52-8.07a4.069,4.069,0,0,1,2.113-.539,3.849,3.849,0,0,1,2.793,1.047,4.2,4.2,0,0,1,1.207,2.844l.016.578a4.418,4.418,0,0,1-1.086,3.121A3.775,3.775,0,0,1,109.648.156a3.793,3.793,0,0,1-2.918-1.172,4.5,4.5,0,0,1-1.09-3.187Zm2.258.16a3.16,3.16,0,0,0,.453,1.843,1.5,1.5,0,0,0,1.3.638,1.5,1.5,0,0,0,1.281-.63,3.457,3.457,0,0,0,.461-2.015,3.128,3.128,0,0,0-.461-1.831,1.5,1.5,0,0,0-1.3-.649,1.474,1.474,0,0,0-1.281.646A3.516,3.516,0,0,0,107.9-4.144Z" transform="translate(414.81 2720.696)"/>
        <path id="Path_824402" data-name="Path 824402" d="M7.438-2.344H3.328L2.547,0H.055L4.289-11.375H6.461L10.719,0H8.227Zm-3.477-1.9H6.8L5.375-8.5Zm9.414-4.211.07.945a2.971,2.971,0,0,1,2.43-1.1A2.255,2.255,0,0,1,18.117-7.32a2.9,2.9,0,0,1,2.539-1.289,2.521,2.521,0,0,1,2.047.8,3.681,3.681,0,0,1,.672,2.41V0H21.109V-5.391a1.61,1.61,0,0,0-.281-1.051,1.246,1.246,0,0,0-.992-.332A1.409,1.409,0,0,0,18.43-5.8L18.438,0H16.18V-5.383a1.59,1.59,0,0,0-.289-1.062,1.259,1.259,0,0,0-.984-.328,1.463,1.463,0,0,0-1.391.8V0H11.258V-8.453Zm19.352,4.3A5.119,5.119,0,0,1,31.859-.98,2.872,2.872,0,0,1,29.438.156,2.639,2.639,0,0,1,27.242-.9l-.1.9H25.109V-12h2.258v4.3a2.571,2.571,0,0,1,2.055-.914,2.9,2.9,0,0,1,2.426,1.137,5.126,5.126,0,0,1,.879,3.2Zm-2.258-.164a3.363,3.363,0,0,0-.406-1.871,1.374,1.374,0,0,0-1.211-.59,1.489,1.489,0,0,0-1.484.883v3.336a1.509,1.509,0,0,0,1.5.891A1.394,1.394,0,0,0,30.3-2.742,5.562,5.562,0,0,0,30.469-4.312ZM36.5,0H34.234V-8.453H36.5ZM34.1-10.641a1.112,1.112,0,0,1,.34-.836,1.277,1.277,0,0,1,.926-.328,1.28,1.28,0,0,1,.922.328,1.105,1.105,0,0,1,.344.836,1.108,1.108,0,0,1-.348.844,1.283,1.283,0,0,1-.918.328,1.283,1.283,0,0,1-.918-.328A1.108,1.108,0,0,1,34.1-10.641ZM42.25.156A4.15,4.15,0,0,1,39.223-.984a4.054,4.054,0,0,1-1.168-3.039v-.219a5.106,5.106,0,0,1,.492-2.277,3.612,3.612,0,0,1,1.395-1.547A3.914,3.914,0,0,1,42-8.609a3.508,3.508,0,0,1,2.73,1.094,4.444,4.444,0,0,1,1,3.1v.922H40.344A2.1,2.1,0,0,0,41-2.164a2,2,0,0,0,1.395.5,2.437,2.437,0,0,0,2.039-.945l1.109,1.242A3.389,3.389,0,0,1,44.172-.246,4.511,4.511,0,0,1,42.25.156Zm-.258-6.945a1.411,1.411,0,0,0-1.09.455,2.357,2.357,0,0,0-.535,1.3h3.141v-.181A1.681,1.681,0,0,0,43.1-6.377,1.456,1.456,0,0,0,41.992-6.789Zm7.094-1.664.07.977a2.951,2.951,0,0,1,2.43-1.133,2.453,2.453,0,0,1,2,.789,3.682,3.682,0,0,1,.672,2.359V0H52V-5.406a1.465,1.465,0,0,0-.312-1.043,1.4,1.4,0,0,0-1.039-.324,1.553,1.553,0,0,0-1.43.813V0H46.961V-8.453Zm9.586-2.078v2.078h1.445V-6.8H58.672v4.219a1.007,1.007,0,0,0,.18.672.9.9,0,0,0,.688.2,3.6,3.6,0,0,0,.664-.055V-.047a4.648,4.648,0,0,1-1.367.2,2.156,2.156,0,0,1-2.422-2.4V-6.8H55.18V-8.453h1.234v-2.078ZM66.273,0a2.507,2.507,0,0,1-.227-.758,2.732,2.732,0,0,1-2.133.914,3,3,0,0,1-2.059-.719,2.312,2.312,0,0,1-.816-1.812,2.389,2.389,0,0,1,1-2.062,4.915,4.915,0,0,1,2.879-.727h1.039v-.484a1.393,1.393,0,0,0-.3-.937,1.183,1.183,0,0,0-.949-.352,1.345,1.345,0,0,0-.895.273.929.929,0,0,0-.324.75H61.227a2.268,2.268,0,0,1,.453-1.359,3,3,0,0,1,1.281-.98,4.669,4.669,0,0,1,1.859-.355,3.689,3.689,0,0,1,2.48.785,2.747,2.747,0,0,1,.918,2.207v3.664a4.041,4.041,0,0,0,.336,1.82V0ZM64.406-1.57a1.945,1.945,0,0,0,.922-.223,1.462,1.462,0,0,0,.625-.6V-3.844h-.844q-1.7,0-1.8,1.172l-.008.133a.9.9,0,0,0,.3.7A1.153,1.153,0,0,0,64.406-1.57ZM72.336,0H70.07V-12h2.266Z" transform="translate(499 2515.558)"/>
      </g>
    </g>
  </g>
</svg>
