<svg xmlns="http://www.w3.org/2000/svg" xmlns:xlink="http://www.w3.org/1999/xlink" width="505" height="78" viewBox="0 0 505 78">
  <defs>
    <linearGradient id="linear-gradient" x1="0.5" x2="0.5" y2="1" gradientUnits="objectBoundingBox">
      <stop offset="0" stop-color="#defff8"/>
      <stop offset="0.803" stop-color="#eaf5ff"/>
      <stop offset="1" stop-color="#f0feff"/>
    </linearGradient>
  </defs>
  <g id="Group_1074221" data-name="Group 1074221" transform="translate(-180 -6515)">
    <rect id="Rectangle_378230" data-name="Rectangle 378230" width="505" height="78" rx="20" transform="translate(180 6515)" fill="url(#linear-gradient)"/>
    <g id="Group_1073980" data-name="Group 1073980" transform="translate(189 6524)">
      <path id="Path_824469" data-name="Path 824469" d="M-58.755-3.9H-60.5L-61.179,0h-2.146l1.853-10.664,3.53.007a4.021,4.021,0,0,1,2.728.835A2.641,2.641,0,0,1-54.368-7.5a3.351,3.351,0,0,1-2.344,3.054l1.5,4.329V0H-57.5Zm-1.436-1.78,1.6.015a2.237,2.237,0,0,0,1.4-.458,1.812,1.812,0,0,0,.663-1.2,1.381,1.381,0,0,0-.227-1.113A1.352,1.352,0,0,0-57.8-8.877l-1.831-.007ZM-51.914,0h-2.08l1.377-7.925h2.08Zm-.461-9.939a1.032,1.032,0,0,1,.322-.813,1.134,1.134,0,0,1,.813-.322,1.139,1.139,0,0,1,.813.286,1.027,1.027,0,0,1,.359.776,1.061,1.061,0,0,1-.3.791,1.139,1.139,0,0,1-.831.352,1.158,1.158,0,0,1-.809-.278A1.023,1.023,0,0,1-52.375-9.939ZM-46.4.146a3.448,3.448,0,0,1-1.842-.509,3.086,3.086,0,0,1-1.2-1.377,3.838,3.838,0,0,1-.308-1.93l.022-.293a5.123,5.123,0,0,1,.674-2.124,4.07,4.07,0,0,1,1.45-1.49,3.588,3.588,0,0,1,1.963-.494,2.741,2.741,0,0,1,2.318,1.126,3.859,3.859,0,0,1,.6,2.776l-.117.9H-47.7a1.7,1.7,0,0,0,.374,1.23,1.426,1.426,0,0,0,1.1.476,2.534,2.534,0,0,0,1.978-.879l.945,1.172A2.939,2.939,0,0,1-44.59-.216,4.215,4.215,0,0,1-46.4.146Zm.659-6.511a1.468,1.468,0,0,0-1.014.359,3.153,3.153,0,0,0-.795,1.3h2.842l.044-.19a1.941,1.941,0,0,0,.007-.557,1.063,1.063,0,0,0-.359-.663A1.125,1.125,0,0,0-45.74-6.365Zm8.108,4.131q.117-.586-.813-.85l-.667-.168q-2.366-.652-2.3-2.3a2.276,2.276,0,0,1,.992-1.827,3.7,3.7,0,0,1,2.3-.692,3.315,3.315,0,0,1,2.168.71A2.341,2.341,0,0,1-35.1-5.508l-2.051-.007a.9.9,0,0,0-1.011-1.033,1.455,1.455,0,0,0-.839.242,1,1,0,0,0-.436.652q-.11.586.886.828l.293.066a5.892,5.892,0,0,1,1.545.553,2.332,2.332,0,0,1,.824.773,1.912,1.912,0,0,1,.267,1.106,2.111,2.111,0,0,1-.487,1.318,2.981,2.981,0,0,1-1.274.872,4.44,4.44,0,0,1-1.7.286,3.345,3.345,0,0,1-2.2-.758,2.444,2.444,0,0,1-.894-1.923l1.948.015a1.071,1.071,0,0,0,1.216,1.15,1.73,1.73,0,0,0,.941-.234A.926.926,0,0,0-37.632-2.234Zm3.354-1.736a5.483,5.483,0,0,1,1.2-2.985,3.039,3.039,0,0,1,2.465-1.124,2.222,2.222,0,0,1,1.89.916l.271-.769,1.9.007-1.3,7.654a3.734,3.734,0,0,1-1.348,2.5,4.192,4.192,0,0,1-2.812.894,3.908,3.908,0,0,1-1.567-.355,3.352,3.352,0,0,1-1.23-.934l1.025-1.26a2.2,2.2,0,0,0,1.729.9,2.03,2.03,0,0,0,1.377-.421A2.254,2.254,0,0,0-29.9-.212l.117-.476a2.577,2.577,0,0,1-1.941.835,2.276,2.276,0,0,1-1.838-.861,3.7,3.7,0,0,1-.747-2.2A7.4,7.4,0,0,1-34.277-3.97Zm2.029.869A1.894,1.894,0,0,0-31.959-2a1.012,1.012,0,0,0,.839.436,1.849,1.849,0,0,0,1.494-.719l.615-3.36a1.215,1.215,0,0,0-1.165-.719,1.62,1.62,0,0,0-1.34.638A3.338,3.338,0,0,0-32.2-3.966,7.7,7.7,0,0,0-32.249-3.1ZM-21.76-8.071a3.179,3.179,0,0,1,1.805.538A3.032,3.032,0,0,1-18.842-6.09a4.464,4.464,0,0,1,.253,2.04A4.822,4.822,0,0,1-19.9-.992,3.712,3.712,0,0,1-22.734.146a3.169,3.169,0,0,1-1.787-.531,3.02,3.02,0,0,1-1.113-1.432,4.366,4.366,0,0,1-.256-2.021,4.964,4.964,0,0,1,1.333-3.12A3.636,3.636,0,0,1-21.76-8.071Zm-2.087,4.983a1.829,1.829,0,0,0,.33,1.108,1.1,1.1,0,0,0,.886.421,1.605,1.605,0,0,0,1.494-.874,4.356,4.356,0,0,0,.505-2.373,1.989,1.989,0,0,0-.341-1.122,1.077,1.077,0,0,0-.89-.435,1.607,1.607,0,0,0-1.476.867A4.311,4.311,0,0,0-23.848-3.089ZM-9.712,0a2.138,2.138,0,0,1-.081-.718,2.684,2.684,0,0,1-2.021.864,2.432,2.432,0,0,1-1.725-.677,2.05,2.05,0,0,1-.641-1.637,2.369,2.369,0,0,1,1.088-1.989,4.937,4.937,0,0,1,2.78-.692l.967.015.1-.476a1.654,1.654,0,0,0,.022-.461.793.793,0,0,0-.26-.538.9.9,0,0,0-.59-.2,1.261,1.261,0,0,0-.82.238,1.154,1.154,0,0,0-.432.729l-2.073.007a2.3,2.3,0,0,1,1.044-1.842A4.042,4.042,0,0,1-9.9-8.071a2.922,2.922,0,0,1,2.109.8,2.346,2.346,0,0,1,.637,1.989l-.608,3.794-.037.469a2.261,2.261,0,0,0,.125.879L-7.683,0ZM-11.3-1.458a1.891,1.891,0,0,0,1.56-.776l.256-1.37-.718-.007a2.005,2.005,0,0,0-1.648.7,1.211,1.211,0,0,0-.227.593.7.7,0,0,0,.165.626A.835.835,0,0,0-11.3-1.458Zm8.174-6.475-.168.9A2.918,2.918,0,0,1-.974-8.071a2.23,2.23,0,0,1,1.216.337,1.574,1.574,0,0,1,.652.872A3.052,3.052,0,0,1,3.354-8.071,1.993,1.993,0,0,1,5-7.324a3.067,3.067,0,0,1,.465,2.095l-.015.183L4.607,0H2.534l.842-5.067A3.664,3.664,0,0,0,3.4-5.573a.785.785,0,0,0-.879-.792,1.744,1.744,0,0,0-1.458.909l-.022.169L.117,0H-1.948l.842-5.046a3.655,3.655,0,0,0,.022-.505.784.784,0,0,0-.872-.8,1.75,1.75,0,0,0-1.414.74L-4.358,0H-6.423l1.37-7.925ZM13.865-3.94a5.682,5.682,0,0,1-1.143,3A2.843,2.843,0,0,1,10.334.154,2.21,2.21,0,0,1,8.43-.857L8.13,0H6.248L8.2-11.25h2.073L9.47-7.2A2.469,2.469,0,0,1,11.4-8.071a2.236,2.236,0,0,1,1.805.824,3.647,3.647,0,0,1,.7,2.238A8.562,8.562,0,0,1,13.865-3.94Zm-2.051-.154a6.144,6.144,0,0,0,.044-.97q-.081-1.278-1.055-1.3a1.719,1.719,0,0,0-1.516.83L8.716-2.376A1.179,1.179,0,0,0,9.9-1.553q1.523.044,1.868-2.219ZM16.692,0h-2.08l1.377-7.925h2.08ZM16.23-9.939a1.032,1.032,0,0,1,.322-.813,1.134,1.134,0,0,1,.813-.322,1.139,1.139,0,0,1,.813.286,1.027,1.027,0,0,1,.359.776,1.061,1.061,0,0,1-.3.791,1.139,1.139,0,0,1-.831.352,1.158,1.158,0,0,1-.809-.278A1.023,1.023,0,0,1,16.23-9.939ZM22.207.146a3.448,3.448,0,0,1-1.842-.509,3.086,3.086,0,0,1-1.2-1.377,3.838,3.838,0,0,1-.308-1.93l.022-.293a5.123,5.123,0,0,1,.674-2.124,4.07,4.07,0,0,1,1.45-1.49,3.588,3.588,0,0,1,1.963-.494,2.741,2.741,0,0,1,2.318,1.126,3.859,3.859,0,0,1,.6,2.776l-.117.9H20.911a1.7,1.7,0,0,0,.374,1.23,1.426,1.426,0,0,0,1.1.476,2.534,2.534,0,0,0,1.978-.879l.945,1.172A2.939,2.939,0,0,1,24.016-.216,4.215,4.215,0,0,1,22.207.146Zm.659-6.511a1.468,1.468,0,0,0-1.014.359,3.153,3.153,0,0,0-.795,1.3H23.9l.044-.19a1.941,1.941,0,0,0,.007-.557,1.063,1.063,0,0,0-.359-.663A1.125,1.125,0,0,0,22.866-6.365Zm6.782-1.567-.176.938A2.852,2.852,0,0,1,31.78-8.071a1.9,1.9,0,0,1,1.655.82,3.305,3.305,0,0,1,.388,2.212L32.988,0H30.923l.85-5.061a2.37,2.37,0,0,0,.015-.52.839.839,0,0,0-.937-.769,1.778,1.778,0,0,0-1.458.754L28.4,0H26.338l1.377-7.925ZM38.8-9.873l-.344,1.948h1.318L39.5-6.372H38.181L37.507-2.4a1.009,1.009,0,0,0,.059.571q.1.2.5.212.117.007.63-.037L38.547-.037a3.474,3.474,0,0,1-1.187.168,1.861,1.861,0,0,1-1.516-.637,2.3,2.3,0,0,1-.41-1.685l.681-4.182H35l.271-1.553h1.121l.337-1.948ZM44.18,0A2.138,2.138,0,0,1,44.1-.718a2.684,2.684,0,0,1-2.021.864,2.432,2.432,0,0,1-1.725-.677,2.05,2.05,0,0,1-.641-1.637A2.369,2.369,0,0,1,40.8-4.156a4.937,4.937,0,0,1,2.78-.692l.967.015.1-.476a1.654,1.654,0,0,0,.022-.461.793.793,0,0,0-.26-.538.9.9,0,0,0-.59-.2,1.261,1.261,0,0,0-.82.238,1.154,1.154,0,0,0-.432.729L40.5-5.537a2.3,2.3,0,0,1,1.044-1.842,4.042,4.042,0,0,1,2.45-.692,2.922,2.922,0,0,1,2.109.8,2.346,2.346,0,0,1,.637,1.989l-.608,3.794-.037.469a2.261,2.261,0,0,0,.125.879L46.208,0ZM42.59-1.458a1.891,1.891,0,0,0,1.56-.776l.256-1.37-.718-.007a2.005,2.005,0,0,0-1.648.7,1.211,1.211,0,0,0-.227.593.7.7,0,0,0,.165.626A.835.835,0,0,0,42.59-1.458ZM49.651,0h-2.08l1.956-11.25H51.6ZM62.585-5.464H56.221l.308-1.729h6.365Zm-.549,3.171H55.671l.308-1.729h6.365Z" transform="translate(137 35)"/>
      <path id="Path_824470" data-name="Path 824470" d="M2.959-3.757,2.3,0H.154L2.007-10.664l3.735.007A3.737,3.737,0,0,1,8.459-9.7a2.975,2.975,0,0,1,.864,2.5,3.367,3.367,0,0,1-1.307,2.5A4.757,4.757,0,0,1,4.98-3.75Zm.3-1.78,1.787.015a2.26,2.26,0,0,0,1.436-.447,1.8,1.8,0,0,0,.681-1.208,1.543,1.543,0,0,0-.245-1.216,1.329,1.329,0,0,0-1.051-.483L3.845-8.884ZM14.9-5.94a4.264,4.264,0,0,0-.7-.073,2,2,0,0,0-1.75.828L11.543,0H9.478l1.377-7.925L12.8-7.932l-.19.967a2.179,2.179,0,0,1,1.846-1.121,3.013,3.013,0,0,1,.718.1Zm4.226-2.131a3.179,3.179,0,0,1,1.805.538A3.032,3.032,0,0,1,22.05-6.09,4.464,4.464,0,0,1,22.3-4.05,4.822,4.822,0,0,1,20.988-.992,3.712,3.712,0,0,1,18.157.146,3.169,3.169,0,0,1,16.37-.385a3.02,3.02,0,0,1-1.113-1.432A4.366,4.366,0,0,1,15-3.838a4.964,4.964,0,0,1,1.333-3.12A3.636,3.636,0,0,1,19.131-8.071ZM17.043-3.089a1.829,1.829,0,0,0,.33,1.108,1.1,1.1,0,0,0,.886.421,1.605,1.605,0,0,0,1.494-.874,4.356,4.356,0,0,0,.505-2.373,1.989,1.989,0,0,0-.341-1.122,1.077,1.077,0,0,0-.89-.435,1.607,1.607,0,0,0-1.476.867A4.311,4.311,0,0,0,17.043-3.089ZM30.513-3.94a5.682,5.682,0,0,1-1.143,3A2.843,2.843,0,0,1,26.982.154a2.21,2.21,0,0,1-1.9-1.011l-.3.857H22.9l1.948-11.25h2.073l-.8,4.05a2.469,2.469,0,0,1,1.934-.872,2.236,2.236,0,0,1,1.805.824,3.647,3.647,0,0,1,.7,2.238A8.562,8.562,0,0,1,30.513-3.94Zm-2.051-.154a6.144,6.144,0,0,0,.044-.97q-.081-1.278-1.055-1.3a1.719,1.719,0,0,0-1.516.83l-.571,3.159a1.179,1.179,0,0,0,1.187.823q1.523.044,1.868-2.219ZM35.742,0a2.138,2.138,0,0,1-.081-.718A2.684,2.684,0,0,1,33.64.146a2.432,2.432,0,0,1-1.725-.677,2.05,2.05,0,0,1-.641-1.637,2.369,2.369,0,0,1,1.088-1.989,4.937,4.937,0,0,1,2.78-.692l.967.015.1-.476a1.654,1.654,0,0,0,.022-.461.793.793,0,0,0-.26-.538.9.9,0,0,0-.59-.2,1.261,1.261,0,0,0-.82.238,1.154,1.154,0,0,0-.432.729l-2.073.007A2.3,2.3,0,0,1,33.1-7.379a4.042,4.042,0,0,1,2.45-.692,2.922,2.922,0,0,1,2.109.8A2.346,2.346,0,0,1,38.3-5.281L37.69-1.487l-.037.469a2.261,2.261,0,0,0,.125.879L37.771,0ZM34.153-1.458a1.891,1.891,0,0,0,1.56-.776l.256-1.37-.718-.007a2.005,2.005,0,0,0-1.648.7,1.211,1.211,0,0,0-.227.593.7.7,0,0,0,.165.626A.835.835,0,0,0,34.153-1.458Zm12.5-2.483a5.682,5.682,0,0,1-1.143,3A2.843,2.843,0,0,1,43.118.154a2.21,2.21,0,0,1-1.9-1.011l-.3.857H39.031l1.948-11.25h2.073l-.8,4.05a2.469,2.469,0,0,1,1.934-.872,2.236,2.236,0,0,1,1.805.824,3.647,3.647,0,0,1,.7,2.238A8.562,8.562,0,0,1,46.648-3.94ZM44.6-4.095a6.144,6.144,0,0,0,.044-.97q-.081-1.278-1.055-1.3a1.719,1.719,0,0,0-1.516.83L41.5-2.376a1.179,1.179,0,0,0,1.187.823q1.523.044,1.868-2.219ZM49.475,0H47.4l1.377-7.925h2.08Zm-.461-9.939a1.032,1.032,0,0,1,.322-.813,1.134,1.134,0,0,1,.813-.322,1.139,1.139,0,0,1,.813.286,1.027,1.027,0,0,1,.359.776,1.061,1.061,0,0,1-.3.791,1.139,1.139,0,0,1-.831.352,1.158,1.158,0,0,1-.809-.278A1.023,1.023,0,0,1,49.014-9.939ZM53.408,0h-2.08l1.956-11.25h2.073Zm3.933,0h-2.08l1.377-7.925h2.08ZM56.88-9.939a1.032,1.032,0,0,1,.322-.813,1.134,1.134,0,0,1,.813-.322,1.139,1.139,0,0,1,.813.286,1.027,1.027,0,0,1,.359.776,1.061,1.061,0,0,1-.3.791,1.139,1.139,0,0,1-.831.352,1.158,1.158,0,0,1-.809-.278A1.023,1.023,0,0,1,56.88-9.939Zm6.145,1.86a2.255,2.255,0,0,1,1.787.886l.776-4.058h2.073L65.713,0H63.867l.117-.85a2.565,2.565,0,0,1-2.065,1,2.281,2.281,0,0,1-1.3-.388,2.444,2.444,0,0,1-.861-1.095,4.41,4.41,0,0,1-.333-1.593,6,6,0,0,1,.022-.894l.044-.33a6.344,6.344,0,0,1,.677-2.139,3.531,3.531,0,0,1,1.23-1.37A2.9,2.9,0,0,1,63.025-8.079Zm-1.5,4.263a5.932,5.932,0,0,0-.037.938q.073,1.289,1.04,1.311a1.768,1.768,0,0,0,1.516-.82l.564-3.149a1.17,1.17,0,0,0-1.143-.82,1.505,1.505,0,0,0-1.256.582A3.915,3.915,0,0,0,61.523-3.816ZM71.946,0a2.138,2.138,0,0,1-.081-.718,2.684,2.684,0,0,1-2.021.864,2.432,2.432,0,0,1-1.725-.677,2.05,2.05,0,0,1-.641-1.637,2.369,2.369,0,0,1,1.088-1.989,4.937,4.937,0,0,1,2.78-.692l.967.015.1-.476a1.654,1.654,0,0,0,.022-.461.793.793,0,0,0-.26-.538.9.9,0,0,0-.59-.2,1.261,1.261,0,0,0-.82.238,1.154,1.154,0,0,0-.432.729l-2.073.007a2.3,2.3,0,0,1,1.044-1.842,4.042,4.042,0,0,1,2.45-.692,2.922,2.922,0,0,1,2.109.8A2.346,2.346,0,0,1,74.5-5.281l-.608,3.794-.037.469a2.261,2.261,0,0,0,.125.879L73.975,0ZM70.356-1.458a1.891,1.891,0,0,0,1.56-.776l.256-1.37-.718-.007a2.005,2.005,0,0,0-1.648.7,1.211,1.211,0,0,0-.227.593.7.7,0,0,0,.165.626A.835.835,0,0,0,70.356-1.458Zm8.811-6.621a2.255,2.255,0,0,1,1.787.886l.776-4.058H83.8L81.855,0H80.01l.117-.85a2.565,2.565,0,0,1-2.065,1,2.281,2.281,0,0,1-1.3-.388A2.444,2.444,0,0,1,75.9-1.329a4.41,4.41,0,0,1-.333-1.593,6,6,0,0,1,.022-.894l.044-.33a6.344,6.344,0,0,1,.677-2.139,3.531,3.531,0,0,1,1.23-1.37A2.9,2.9,0,0,1,79.167-8.079Zm-1.5,4.263a5.932,5.932,0,0,0-.037.938q.073,1.289,1.04,1.311a1.768,1.768,0,0,0,1.516-.82l.564-3.149a1.17,1.17,0,0,0-1.143-.82,1.505,1.505,0,0,0-1.256.582A3.915,3.915,0,0,0,77.666-3.816ZM91.018-5.574l1.663-2.351H95L92.131-3.94,93.735,0H91.641l-.974-2.476L88.916,0H86.58l2.988-4.146L88.037-7.925h2.095ZM107.2-3.56A3.988,3.988,0,0,1,106.45-1.6,4.1,4.1,0,0,1,104.81-.289a5,5,0,0,1-2.183.436,3.69,3.69,0,0,1-1.838-.487,3.228,3.228,0,0,1-1.234-1.348,4.98,4.98,0,0,1-.509-2.032,9.969,9.969,0,0,1,.187-2.241,7.1,7.1,0,0,1,.85-2.38,5.312,5.312,0,0,1,1.454-1.648,4.386,4.386,0,0,1,2.71-.82,3.6,3.6,0,0,1,2.626,1.022,4.11,4.11,0,0,1,1.066,2.758L105.8-7.039a2.241,2.241,0,0,0-.4-1.479,1.643,1.643,0,0,0-1.252-.5,2.174,2.174,0,0,0-1.805.784,4.713,4.713,0,0,0-.948,2.4,13.271,13.271,0,0,0-.205,2.292,2.282,2.282,0,0,0,.432,1.425,1.446,1.446,0,0,0,1.106.48,2.209,2.209,0,0,0,1.571-.465,2.461,2.461,0,0,0,.78-1.439Zm5.3-4.512a3.179,3.179,0,0,1,1.805.538,3.032,3.032,0,0,1,1.113,1.443,4.464,4.464,0,0,1,.253,2.04,4.822,4.822,0,0,1-1.315,3.058A3.712,3.712,0,0,1,111.533.146a3.169,3.169,0,0,1-1.787-.531,3.02,3.02,0,0,1-1.113-1.432,4.366,4.366,0,0,1-.256-2.021,4.964,4.964,0,0,1,1.333-3.12A3.636,3.636,0,0,1,112.507-8.071ZM110.42-3.089a1.829,1.829,0,0,0,.33,1.108,1.1,1.1,0,0,0,.886.421,1.605,1.605,0,0,0,1.494-.874,4.356,4.356,0,0,0,.505-2.373,1.989,1.989,0,0,0-.341-1.122,1.077,1.077,0,0,0-.89-.435,1.607,1.607,0,0,0-1.476.867A4.311,4.311,0,0,0,110.42-3.089Zm9.119-4.844-.176.938a2.852,2.852,0,0,1,2.307-1.077,1.9,1.9,0,0,1,1.655.82,3.305,3.305,0,0,1,.388,2.212L122.878,0h-2.065l.85-5.061a2.37,2.37,0,0,0,.015-.52.839.839,0,0,0-.937-.769,1.778,1.778,0,0,0-1.458.754L118.293,0h-2.065L117.6-7.925Zm9.551,5.7q.117-.586-.813-.85l-.667-.168q-2.366-.652-2.3-2.3a2.276,2.276,0,0,1,.992-1.827,3.7,3.7,0,0,1,2.3-.692,3.315,3.315,0,0,1,2.168.71,2.341,2.341,0,0,1,.842,1.853l-2.051-.007a.9.9,0,0,0-1.011-1.033,1.455,1.455,0,0,0-.839.242,1,1,0,0,0-.436.652q-.11.586.886.828l.293.066A5.892,5.892,0,0,1,130-4.208a2.332,2.332,0,0,1,.824.773,1.912,1.912,0,0,1,.267,1.106,2.111,2.111,0,0,1-.487,1.318,2.981,2.981,0,0,1-1.274.872,4.44,4.44,0,0,1-1.7.286,3.345,3.345,0,0,1-2.2-.758,2.444,2.444,0,0,1-.894-1.923l1.948.015a1.071,1.071,0,0,0,1.216,1.15,1.73,1.73,0,0,0,.941-.234A.926.926,0,0,0,129.089-2.234Zm6.724,2.38a3.448,3.448,0,0,1-1.842-.509,3.086,3.086,0,0,1-1.2-1.377,3.838,3.838,0,0,1-.308-1.93l.022-.293a5.123,5.123,0,0,1,.674-2.124,4.07,4.07,0,0,1,1.45-1.49,3.588,3.588,0,0,1,1.963-.494,2.741,2.741,0,0,1,2.318,1.126,3.859,3.859,0,0,1,.6,2.776l-.117.9h-4.856a1.7,1.7,0,0,0,.374,1.23,1.426,1.426,0,0,0,1.1.476,2.534,2.534,0,0,0,1.978-.879l.945,1.172a2.939,2.939,0,0,1-1.289,1.051A4.215,4.215,0,0,1,135.813.146Zm.659-6.511a1.468,1.468,0,0,0-1.014.359,3.153,3.153,0,0,0-.795,1.3H137.5l.044-.19a1.941,1.941,0,0,0,.007-.557,1.063,1.063,0,0,0-.359-.663A1.125,1.125,0,0,0,136.472-6.365Zm6.987,4.812a1.357,1.357,0,0,0,.952-.311,1.53,1.53,0,0,0,.5-.868l1.941-.007a2.847,2.847,0,0,1-.524,1.5,3.182,3.182,0,0,1-1.26,1.04,3.606,3.606,0,0,1-1.659.352,2.928,2.928,0,0,1-2.285-1,3.717,3.717,0,0,1-.813-2.593l.022-.4.007-.081a4.954,4.954,0,0,1,1.3-3.065,3.526,3.526,0,0,1,2.732-1.088A2.857,2.857,0,0,1,146.5-7.2a3.091,3.091,0,0,1,.773,2.23h-1.926a1.622,1.622,0,0,0-.278-1,1.057,1.057,0,0,0-.835-.4q-1.479-.044-1.794,2.161a7.3,7.3,0,0,0-.081,1.348Q142.434-1.575,143.459-1.553Zm9.1.732a2.736,2.736,0,0,1-2.183.967,2.036,2.036,0,0,1-1.729-.82,3,3,0,0,1-.454-2.124l.857-5.127h2.065l-.872,5.155a2.039,2.039,0,0,0-.007.455.753.753,0,0,0,.813.755,1.888,1.888,0,0,0,1.589-.741l.989-5.624h2.08L154.329,0H152.4Zm7.075.967a3.448,3.448,0,0,1-1.842-.509,3.086,3.086,0,0,1-1.2-1.377,3.838,3.838,0,0,1-.308-1.93l.022-.293a5.123,5.123,0,0,1,.674-2.124,4.07,4.07,0,0,1,1.45-1.49,3.588,3.588,0,0,1,1.963-.494,2.741,2.741,0,0,1,2.318,1.126,3.859,3.859,0,0,1,.6,2.776l-.117.9h-4.856a1.7,1.7,0,0,0,.374,1.23,1.426,1.426,0,0,0,1.1.476,2.534,2.534,0,0,0,1.978-.879l.945,1.172A2.939,2.939,0,0,1,161.44-.216,4.215,4.215,0,0,1,159.631.146Zm.659-6.511a1.468,1.468,0,0,0-1.014.359,3.153,3.153,0,0,0-.795,1.3h2.842l.044-.19a1.941,1.941,0,0,0,.007-.557,1.063,1.063,0,0,0-.359-.663A1.125,1.125,0,0,0,160.291-6.365Zm6.782-1.567-.176.938A2.852,2.852,0,0,1,169.2-8.071a1.9,1.9,0,0,1,1.655.82,3.305,3.305,0,0,1,.388,2.212L170.413,0h-2.065l.85-5.061a2.37,2.37,0,0,0,.015-.52.839.839,0,0,0-.937-.769,1.778,1.778,0,0,0-1.458.754L165.828,0h-2.065l1.377-7.925Zm8.43,6.379a1.357,1.357,0,0,0,.952-.311,1.53,1.53,0,0,0,.5-.868l1.941-.007a2.847,2.847,0,0,1-.524,1.5,3.182,3.182,0,0,1-1.26,1.04,3.606,3.606,0,0,1-1.659.352,2.928,2.928,0,0,1-2.285-1,3.717,3.717,0,0,1-.813-2.593l.022-.4.007-.081a4.954,4.954,0,0,1,1.3-3.065,3.526,3.526,0,0,1,2.732-1.088,2.857,2.857,0,0,1,2.128.875,3.091,3.091,0,0,1,.773,2.23h-1.926a1.622,1.622,0,0,0-.278-1,1.057,1.057,0,0,0-.835-.4Q174.8-6.409,174.485-4.2a7.3,7.3,0,0,0-.081,1.348Q174.478-1.575,175.5-1.553ZM181.875,0h-2.08l1.377-7.925h2.08Zm-.461-9.939a1.032,1.032,0,0,1,.322-.813,1.134,1.134,0,0,1,.813-.322,1.139,1.139,0,0,1,.813.286,1.027,1.027,0,0,1,.359.776,1.061,1.061,0,0,1-.3.791,1.139,1.139,0,0,1-.831.352,1.158,1.158,0,0,1-.809-.278A1.023,1.023,0,0,1,181.414-9.939ZM188.21,0a2.138,2.138,0,0,1-.081-.718,2.684,2.684,0,0,1-2.021.864,2.432,2.432,0,0,1-1.725-.677,2.05,2.05,0,0,1-.641-1.637,2.369,2.369,0,0,1,1.088-1.989,4.937,4.937,0,0,1,2.78-.692l.967.015.1-.476a1.654,1.654,0,0,0,.022-.461.793.793,0,0,0-.26-.538.9.9,0,0,0-.59-.2,1.261,1.261,0,0,0-.82.238,1.154,1.154,0,0,0-.432.729l-2.073.007a2.3,2.3,0,0,1,1.044-1.842,4.042,4.042,0,0,1,2.45-.692,2.922,2.922,0,0,1,2.109.8,2.346,2.346,0,0,1,.637,1.989l-.608,3.794-.037.469a2.261,2.261,0,0,0,.125.879L190.239,0Zm-1.589-1.458a1.891,1.891,0,0,0,1.56-.776l.256-1.37-.718-.007a2.005,2.005,0,0,0-1.648.7,1.211,1.211,0,0,0-.227.593.7.7,0,0,0,.165.626A.835.835,0,0,0,186.621-1.458Zm9.47-.776q.117-.586-.813-.85l-.667-.168q-2.366-.652-2.3-2.3a2.276,2.276,0,0,1,.992-1.827,3.7,3.7,0,0,1,2.3-.692,3.315,3.315,0,0,1,2.168.71,2.341,2.341,0,0,1,.842,1.853l-2.051-.007a.9.9,0,0,0-1.011-1.033,1.455,1.455,0,0,0-.839.242,1,1,0,0,0-.436.652q-.11.586.886.828l.293.066a5.892,5.892,0,0,1,1.545.553,2.332,2.332,0,0,1,.824.773,1.912,1.912,0,0,1,.267,1.106,2.111,2.111,0,0,1-.487,1.318,2.981,2.981,0,0,1-1.274.872,4.44,4.44,0,0,1-1.7.286,3.345,3.345,0,0,1-2.2-.758,2.444,2.444,0,0,1-.894-1.923l1.948.015a1.071,1.071,0,0,0,1.216,1.15,1.73,1.73,0,0,0,.941-.234A.926.926,0,0,0,196.091-2.234Z" transform="translate(209 35)"/>
    </g>
  </g>
</svg>
