<svg xmlns="http://www.w3.org/2000/svg" xmlns:xlink="http://www.w3.org/1999/xlink" width="190" height="179" viewBox="0 0 190 179">
  <defs>
    <clipPath id="clip-path">
      <rect id="Rectangle_378300" data-name="Rectangle 378300" width="160.075" height="153.867" fill="none"/>
    </clipPath>
  </defs>
  <g id="Group_1074219" data-name="Group 1074219" transform="translate(-181.849 -4125.811)">
    <ellipse id="Ellipse_5842" data-name="Ellipse 5842" cx="86" cy="89.5" rx="86" ry="89.5" transform="translate(181.849 4125.811)" fill="#ffae7e"/>
    <g id="Group_1074174" data-name="Group 1074174" transform="translate(211.773 4139.8)" clip-path="url(#clip-path)">
      <path id="Path_824163" data-name="Path 824163" d="M127.206,36.283c.591.084.77-.38,1.084-.62,3.2-2.447,6.65-1.9,8.739,1.577,13.108,21.813,26.134,43.677,39.29,65.462,2.366,3.917.541,10.277-6.1,10.18-10.8-.158-21.612-.041-32.418-.04q-21.739,0-43.477-.011c-5-.011-8.073-2.969-7.539-7.191a21.524,21.524,0,0,1,.909-3.117c-2.981,0-5.873.021-8.766-.006-2.836-.026-3.722-.935-3.758-3.752-.061-4.772-.073-4.739-4.419-6.36a21.387,21.387,0,0,1-4.76-2.177c-2.1-1.456-3.363-.885-4.976.853-3.663,3.947-3.833,3.852-7.643.038-2.959-2.962-5.887-5.957-8.893-8.871-1.683-1.631-1.659-3.1-.014-4.711,1.248-1.223,3.081-2.4,3.388-3.867.269-1.282-1.3-2.9-1.921-4.429-.789-1.922-1.523-3.875-2.132-5.86-.342-1.116-.809-1.671-2.052-1.54a29.554,29.554,0,0,1-3.264.022c-3.095-.021-3.759-.614-3.782-3.611q-.055-7.037,0-14.074c.022-3.018.594-3.573,3.5-3.646,4.928-.124,4.887-.14,6.625-4.643a42.352,42.352,0,0,1,2.605-5.663,2,2,0,0,0-.491-2.948c-5.589-5.184-4.529-4.977.094-9.644q3.8-3.836,7.64-7.63c2.055-2.03,3.015-2.027,5.04-.069,1.2,1.162,2.267,2.968,3.662,3.276,1.19.263,2.73-1.273,4.171-1.878A50.594,50.594,0,0,1,73.388,9.17c1.361-.382,1.868-.938,1.809-2.4C74.882-.983,75.735.055,82.1.038,85.783.027,89.472.126,93.154,0c2.373-.078,3.752,1.041,3.392,3.214-.718,4.329,1.011,6.342,5.171,7.111a15.84,15.84,0,0,1,5.184,2.4c1.293.8,1.968.507,2.922-.491,4.879-5.1,4.68-4.987,9.647.1q3.861,3.951,7.825,7.8c1.658,1.6,1.707,3.082.051,4.71-1.243,1.222-3.063,2.411-3.362,3.874-.264,1.291,1.242,2.929,1.925,4.433.473,1.042.876,2.115,1.3,3.137m4.939,2.683c-.684,1.024-1.123,1.624-1.5,2.259Q116.862,64.217,103.1,87.215q-5.277,8.814-10.533,17.641c-1.27,2.145-.893,2.767,1.6,2.854.334.012.67,0,1,0h73.846c.586,0,1.172,0,1.758-.019,1.428-.05,1.7-.938,1.3-2.058a13.19,13.19,0,0,0-1.26-2.158q-13.187-22.022-26.374-44.043C140.41,52.711,136.367,46,132.145,38.966M101,80.757c-23.427,9.985-42.016-4.576-46.651-19.8-5.26-17.28,4.479-36.056,21.936-41.28a31.749,31.749,0,0,1,28.832,4.806c8.717,6.245,13.038,15.037,13.895,26.194,1.33-2.2,2.219-3.9,3.331-5.442a5.412,5.412,0,0,0,.646-5.384,42.117,42.117,0,0,0-4.427-9.509c-.917-1.425-1.128-2.754.139-4.086,1.205-1.267,3.475-2.726,3.31-3.8-.228-1.483-2.3-2.684-3.58-4-.233-.24-.485-.462-.722-.7-3.087-3.078-3.119-3.11-6.167-.04-1.3,1.311-2.62,2.172-4.4,1.016a40.423,40.423,0,0,0-13.342-5.548c-1.63-.365-2.093-1.4-2.362-2.816-.328-1.735,1.017-4.135-.715-5.08-1.425-.779-3.6-.19-5.441-.206-.335,0-.67,0-1,0-4.051,0-4.183.006-4.01,4.077.1,2.392-.56,3.833-3.025,4.3A35.7,35.7,0,0,0,64.836,18.63a2.983,2.983,0,0,1-4.073-.427c-1.185-1.112-2.139-3.293-3.621-3.048-1.368.226-2.465,2.091-3.679,3.237-.183.173-.351.36-.529.537-3.488,3.484-3.527,3.522-.079,7.122,1.227,1.281,1.556,2.456.552,3.992A37.384,37.384,0,0,0,47.971,43.15,2.976,2.976,0,0,1,44.995,45.7c-1.686.141-3.985-.906-4.9.606-.786,1.3-.216,3.42-.244,5.177-.006.335,0,.67,0,1,0,4.282,0,4.342,4.346,4.3,1.888-.018,3.373.379,3.778,2.43a38.159,38.159,0,0,0,5.535,13.341,2.709,2.709,0,0,1-.268,3.437c-1.09,1.487-3.8,2.329-3.3,4.219.426,1.616,2.511,2.794,3.863,4.166.118.119.237.237.355.356,2.984,2.987,3.058,3.058,6.068-.064,1.709-1.773,3.242-1.946,5.257-.554a31.465,31.465,0,0,0,8.84,4.079c5.578,1.695,5.622,1.7,5.863,7.555.055,1.326.465,1.745,1.757,1.706,2.51-.077,5.026-.058,7.538-.006a2.288,2.288,0,0,0,2.266-1.2C94.73,91.219,97.742,86.21,101,80.757M85.739,79.011c14.208.418,27.929-11.318,28.039-27.72a27.855,27.855,0,1,0-55.708-.316,27.707,27.707,0,0,0,27.67,28.036" transform="translate(-17.232 0)" fill="#0e0b0a"/>
      <path id="Path_824164" data-name="Path 824164" d="M74.322,222.379c9.908-2.677,19.544-5.246,29.159-7.891,6.574-1.809,12.482.638,14.652,6.184a10.974,10.974,0,0,1-7.254,14.747c-7.906,2.318-15.9,4.319-23.865,6.445-8.684,2.319-17.393,4.549-26.05,6.966a19.11,19.11,0,0,1-14.759-1.65q-8.373-4.483-16.813-8.843a13.924,13.924,0,0,0-11.162-.83c-.983.322-1.462.6-1.64,1.765-.514,3.368-1.822,4.405-5.208,4.453-2.427.034-4.861.063-7.285-.053-2.549-.122-4.056-1.616-4.064-4.14Q-.03,218.3.028,197.06a4.006,4.006,0,0,1,4.223-4.281c2.426-.091,4.858.013,7.287-.043,2.627-.06,4.385,1.08,4.9,3.668.266,1.328.771,1.295,1.776.865,2.754-1.179,5.5-2.379,8.31-3.422a16.69,16.69,0,0,1,14.909,1.214c8.425,4.931,16.78,9.987,25.312,14.724,4.942,2.743,7.62,6.572,7.575,12.594m-9.853,5.062c2.87-.738,4.261-2.744,4.606-5.544a6.6,6.6,0,0,0-3.557-6.909Q51.9,207.023,38.249,199.119a10.045,10.045,0,0,0-8.468-.923c-4.088,1.407-8.061,3.144-12.094,4.712a1.575,1.575,0,0,0-1.036,1.754q.03,13.194,0,26.387c0,1.168.113,1.6,1.535,1.191,5-1.434,9.759-.482,14.278,1.907q7.855,4.153,15.682,8.36a14.627,14.627,0,0,0,12.06,1.255c3.4-1.114,6.919-1.833,10.378-2.757q19.067-5.09,38.127-10.209c3.825-1.031,5.831-4.106,4.976-7.461-.844-3.313-4.119-5.007-7.955-4.115-.406.094-.823.148-1.226.256-9.328,2.5-18.672,4.955-27.968,7.572-1.856.522-3.895.538-5.48,2.138-4.438,4.479-9.742,5.074-15.285,1.9-4.563-2.613-9.072-5.319-13.655-7.9-2.012-1.132-2.849-2.507-1.648-4.686a3.76,3.76,0,0,1,4.177.221c4.533,2.734,9.128,5.368,13.722,8,1.912,1.1,3.9,1.894,6.1.715m-59.4-9.5v16.581c0,4.169,0,4.062,4.23,4.179,1.9.052,2.374-.483,2.36-2.368-.093-11.472-.047-22.944-.047-34.417,0-4.142,0-4.029-4.261-4.163-1.909-.06-2.369.488-2.329,2.352.127,5.943.048,11.89.048,17.836" transform="translate(0 -95.745)" fill="#0c0c0c"/>
      <path id="Path_824165" data-name="Path 824165" d="M188.647,77.47c4.223,7.029,8.266,13.744,12.294,20.468q13.193,22.017,26.374,44.043a13.188,13.188,0,0,1,1.26,2.158c.4,1.12.127,2.008-1.3,2.058-.585.021-1.172.019-1.757.019H151.671c-.335,0-.67.01-1,0-2.493-.088-2.87-.709-1.6-2.854q5.235-8.84,10.533-17.641,13.767-23,27.544-45.989c.381-.635.82-1.235,1.5-2.259m.591,53.81c3.628-1.06,5.045-2.767,5.259-6.038q.912-13.882,1.926-27.758c.364-4.951-2.534-8.373-7.153-8.731-4.583-.355-8.856,2.792-8.424,8.143.746,9.245,1.23,18.513,1.757,27.774.185,3.258,1.5,5.592,4.908,6.566-4.534,1.843-6.369,4.725-5.551,8.484a7.076,7.076,0,0,0,6.849,5.208,6.952,6.952,0,0,0,6.588-6.4c.262-3.4-2.093-6.17-6.159-7.248" transform="translate(-73.734 -38.503)" fill="#f0413a"/>
      <path id="Path_824166" data-name="Path 824166" d="M105.953,85.579c-3.262,5.453-6.274,10.462-9.252,15.491a2.288,2.288,0,0,1-2.266,1.2c-2.512-.053-5.027-.071-7.538.006-1.291.04-1.7-.38-1.756-1.706-.241-5.855-.285-5.86-5.864-7.555a31.468,31.468,0,0,1-8.84-4.079c-2.016-1.392-3.548-1.219-5.257.554-3.01,3.122-3.083,3.051-6.068.064-.118-.119-.237-.236-.355-.356-1.352-1.372-3.438-2.55-3.863-4.166-.5-1.89,2.209-2.731,3.3-4.219a2.709,2.709,0,0,0,.268-3.437,38.15,38.15,0,0,1-5.535-13.341c-.406-2.051-1.891-2.448-3.778-2.429-4.346.041-4.346-.019-4.346-4.3,0-.335,0-.67,0-1,.028-1.757-.542-3.877.244-5.177.913-1.513,3.213-.465,4.9-.606a2.975,2.975,0,0,0,2.976-2.547,37.385,37.385,0,0,1,5.436-13.107c1-1.536.675-2.711-.552-3.992-3.448-3.6-3.409-3.638.079-7.122.178-.178.346-.365.528-.537,1.214-1.146,2.312-3.011,3.68-3.237,1.482-.245,2.436,1.937,3.621,3.048a2.984,2.984,0,0,0,4.074.427A35.7,35.7,0,0,1,82.2,18.28c2.465-.471,3.127-1.912,3.025-4.3C85.05,9.905,85.183,9.9,89.233,9.9c.335,0,.671,0,1.005,0,1.842.016,4.015-.573,5.441.206,1.731.946.387,3.345.715,5.08.269,1.421.732,2.451,2.362,2.816A40.42,40.42,0,0,1,112.1,23.551c1.776,1.156,3.094.3,4.4-1.016,3.049-3.07,3.08-3.039,6.167.04.237.236.489.458.722.7,1.283,1.319,3.351,2.52,3.58,4,.165,1.072-2.1,2.532-3.31,3.8-1.267,1.332-1.056,2.66-.139,4.086a42.1,42.1,0,0,1,4.427,9.509,5.412,5.412,0,0,1-.646,5.384c-1.112,1.542-2,3.244-3.331,5.442-.857-11.157-5.178-19.95-13.9-26.194a31.748,31.748,0,0,0-28.831-4.806c-17.457,5.225-27.2,24-21.936,41.281C63.937,81,82.525,95.564,105.953,85.579" transform="translate(-22.18 -4.822)" fill="#c1e29a"/>
      <path id="Path_824167" data-name="Path 824167" d="M108.858,101.967a27.89,27.89,0,0,1,.192-55.779A28.078,28.078,0,0,1,136.9,74.247c-.11,16.4-13.831,28.138-28.039,27.72m24.814-27.83a24.716,24.716,0,0,0-49.433.037,24.716,24.716,0,0,0,49.433-.037" transform="translate(-40.351 -22.956)" fill="#fec813"/>
      <path id="Path_824168" data-name="Path 824168" d="M56.919,223.454c-1.2,2.179-.364,3.555,1.648,4.686,4.583,2.577,9.092,5.283,13.655,7.9,5.542,3.173,10.847,2.578,15.285-1.9,1.585-1.6,3.624-1.615,5.48-2.138,9.3-2.616,18.64-5.067,27.968-7.571.4-.108.819-.162,1.226-.257,3.836-.891,7.112.8,7.955,4.115.855,3.355-1.151,6.43-4.976,7.461q-19.055,5.134-38.127,10.209c-3.459.923-6.983,1.643-10.378,2.757a14.627,14.627,0,0,1-12.06-1.255q-7.82-4.218-15.682-8.36c-4.52-2.39-9.281-3.341-14.279-1.907-1.422.408-1.537-.023-1.534-1.191q.034-13.194,0-26.387a1.577,1.577,0,0,1,1.037-1.754c4.033-1.567,8.007-3.3,12.094-4.711a10.045,10.045,0,0,1,8.468.923q13.662,7.885,27.269,15.868a6.6,6.6,0,0,1,3.557,6.909c-.345,2.8-1.736,4.805-4.606,5.544a79.471,79.471,0,0,1-12.8-6.578c-2.589-1.515-5.161-3.06-7.77-4.54a2.756,2.756,0,0,0-3.277.151c-.683.555-1.21,1.269-.16,2.03" transform="translate(-16.452 -100.695)" fill="#fac9ad"/>
      <path id="Path_824169" data-name="Path 824169" d="M10.037,222.993c0-5.945.079-11.893-.048-17.836-.04-1.865.42-2.412,2.329-2.352,4.258.133,4.261.021,4.261,4.163,0,11.472-.046,22.945.047,34.417.015,1.885-.464,2.42-2.36,2.368-4.227-.117-4.23-.01-4.23-4.179V222.993" transform="translate(-4.964 -100.794)" fill="#7816c2"/>
      <path id="Path_824170" data-name="Path 824170" d="M79.866,241.443c-1.05-.761-.523-1.474.16-2.03a2.756,2.756,0,0,1,3.277-.151c2.609,1.48,5.181,3.025,7.77,4.54a79.476,79.476,0,0,0,12.8,6.578c-2.2,1.179-4.191.381-6.1-.715-4.594-2.633-9.189-5.266-13.722-8a3.759,3.759,0,0,0-4.177-.221" transform="translate(-39.399 -118.684)" fill="#f0b294"/>
      <path id="Path_824171" data-name="Path 824171" d="M221.311,142.4c4.066,1.078,6.42,3.849,6.16,7.247a6.954,6.954,0,0,1-6.588,6.4,7.078,7.078,0,0,1-6.85-5.208c-.818-3.76,1.017-6.641,5.551-8.484-3.408-.973-4.722-3.307-4.907-6.566-.527-9.262-1.012-18.529-1.757-27.774-.432-5.352,3.842-8.5,8.424-8.143,4.619.358,7.517,3.779,7.153,8.73q-1.021,13.875-1.925,27.758c-.215,3.271-1.632,4.978-5.26,6.038m-3.305-32.759c.19,2.544.364,4.789.523,7.036.428,6.073.82,12.148,1.309,18.216.061.757-.425,2.236.939,2.121,1.219-.1.627-1.5.734-2.324.182-1.4.243-2.822.341-4.236.53-7.654,1.094-15.306,1.553-22.965.1-1.71-.981-2.557-2.7-2.544-1.66.013-2.744.621-2.7,2.486.021.834,0,1.669,0,2.209m1.029,38.914c-.045,1.764.642,2.283,1.656,2.3a1.451,1.451,0,0,0,1.582-1.531,1.472,1.472,0,0,0-1.685-1.653c-.939.035-1.541.484-1.554.884" transform="translate(-105.808 -49.626)" fill="#110a04"/>
      <path id="Path_824172" data-name="Path 824172" d="M136.687,77.37A24.716,24.716,0,1,1,112,52.692a24.64,24.64,0,0,1,24.69,24.678m-5.133-.02a19.378,19.378,0,0,0-19.563-19.536,19.609,19.609,0,1,0,.059,39.218,19.53,19.53,0,0,0,19.5-19.682" transform="translate(-43.366 -26.188)" fill="#100d02"/>
      <path id="Path_824173" data-name="Path 824173" d="M223.055,114.681c0-.54.017-1.375,0-2.209-.046-1.865,1.038-2.474,2.7-2.486,1.723-.013,2.806.834,2.7,2.544-.459,7.659-1.023,15.311-1.553,22.965-.1,1.413-.159,2.833-.341,4.236-.107.826.486,2.221-.734,2.324-1.363.116-.877-1.365-.938-2.121-.489-6.068-.881-12.144-1.309-18.216-.158-2.246-.333-4.492-.523-7.036" transform="translate(-110.858 -54.664)" fill="#fec813"/>
      <path id="Path_824174" data-name="Path 824174" d="M225.1,195.812c.013-.4.616-.849,1.554-.884a1.472,1.472,0,0,1,1.685,1.653,1.451,1.451,0,0,1-1.582,1.531c-1.015-.017-1.7-.537-1.656-2.3" transform="translate(-111.878 -96.88)" fill="#fdc713"/>
      <path id="Path_824175" data-name="Path 824175" d="M136.555,82.411a19.53,19.53,0,0,1-19.5,19.682,19.609,19.609,0,1,1-.059-39.217,19.377,19.377,0,0,1,19.563,19.535m-23.893,5.1c-1.779.063-2.723.647-2.893,2.029-.246,2,1.15,3.076,2.615,3.9,1.1.623,2.126,1.04,2.371,2.538a2.134,2.134,0,0,0,2.264,1.635,2.094,2.094,0,0,0,2.272-1.61c.185-1.626,1.316-2.119,2.408-2.873a6.815,6.815,0,0,0,3.089-6.941,7.214,7.214,0,0,0-4.838-5.9c-1.135-.448-2.339-.085-3.474-.324-1.238-.261-2.2-.958-2.1-2.393.1-1.4.99-1.991,2.358-2.073a4.012,4.012,0,0,1,3.39,1.209,2.235,2.235,0,0,0,3.528-.07,2.4,2.4,0,0,0-.067-3.588,8.355,8.355,0,0,0-2.34-1.84c-.936-.475-1.677-.841-1.853-2.063s-1.144-1.725-2.4-1.731a2.082,2.082,0,0,0-2.358,1.793c-.146,1.33-1,1.727-1.925,2.3a7.263,7.263,0,0,0,1.77,13.157,11.721,11.721,0,0,0,3.207.416,2.117,2.117,0,0,1,.248,4.2c-1.256.218-2.527.3-3.533-.712-.611-.617-1.235-1.141-1.741-1.065" transform="translate(-48.367 -31.25)" fill="#fba400"/>
      <path id="Path_824176" data-name="Path 824176" d="M124.451,92c.506-.076,1.13.448,1.741,1.065,1.006,1.016,2.277.93,3.533.712a2.117,2.117,0,0,0-.248-4.2,11.721,11.721,0,0,1-3.207-.416A7.263,7.263,0,0,1,124.5,76c.924-.577,1.78-.973,1.925-2.3a2.082,2.082,0,0,1,2.358-1.793c1.255.007,2.224.511,2.4,1.731s.917,1.588,1.853,2.063a8.355,8.355,0,0,1,2.34,1.84,2.4,2.4,0,0,1,.067,3.588,2.235,2.235,0,0,1-3.528.07,4.012,4.012,0,0,0-3.39-1.209c-1.368.081-2.261.669-2.358,2.073-.1,1.435.86,2.132,2.1,2.393,1.135.239,2.339-.124,3.474.324a7.214,7.214,0,0,1,4.838,5.9,6.815,6.815,0,0,1-3.089,6.941c-1.092.753-2.223,1.247-2.408,2.873a2.094,2.094,0,0,1-2.271,1.61,2.134,2.134,0,0,1-2.264-1.635c-.244-1.5-1.268-1.915-2.371-2.538-1.464-.827-2.861-1.9-2.615-3.9.17-1.381,1.114-1.966,2.893-2.029" transform="translate(-60.155 -35.739)" fill="#100c02"/>
    </g>
  </g>
</svg>
