<svg xmlns="http://www.w3.org/2000/svg" xmlns:xlink="http://www.w3.org/1999/xlink" width="820" height="352.313" viewBox="0 0 820 352.313">
  <defs>
    <linearGradient id="linear-gradient" x1="0.5" x2="0.5" y2="1" gradientUnits="objectBoundingBox">
      <stop offset="0" stop-color="#defff8"/>
      <stop offset="0.803" stop-color="#eaf5ff"/>
      <stop offset="1" stop-color="#f0feff"/>
    </linearGradient>
    <clipPath id="clip-path">
      <rect id="Rectangle_378214" data-name="Rectangle 378214" width="101.901" height="95.038" fill="none"/>
    </clipPath>
  </defs>
  <g id="Group_1074214" data-name="Group 1074214" transform="translate(-390 -1267.688)">
    <g id="Group_1073941" data-name="Group 1073941">
      <g id="Group_1073936" data-name="Group 1073936">
        <g id="Group_1072963" data-name="Group 1072963" transform="translate(1535 2584.667) rotate(180)">
          <rect id="Rectangle_376022" data-name="Rectangle 376022" width="820" height="352.313" transform="translate(325 964.667)" fill="url(#linear-gradient)"/>
        </g>
        <g id="Group_1073935" data-name="Group 1073935" transform="translate(0 -53)">
          <path id="Path_824422" data-name="Path 824422" d="M20,0H190a20,20,0,0,1,20,20V253a20,20,0,0,1-20,20H20A20,20,0,0,1,0,253V20A20,20,0,0,1,20,0Z" transform="translate(475 1362)" fill="#ffae7e"/>
          <g id="Group_1073934" data-name="Group 1073934">
            <path id="Path_823505" data-name="Path 823505" d="M0,0V105" transform="translate(685 1503.508) rotate(-90)" fill="none" stroke="#615504" stroke-width="2"/>
            <path id="Path_823507" data-name="Path 823507" d="M0,0V52.5" transform="translate(737.5 1399) rotate(-90)" fill="none" stroke="#615504" stroke-width="2"/>
            <path id="Path_823508" data-name="Path 823508" d="M0,0V52.5" transform="translate(737.5 1608) rotate(-90)" fill="none" stroke="#615504" stroke-width="2"/>
            <path id="Path_823506" data-name="Path 823506" d="M0,0V208.668" transform="translate(737.5 1607.332) rotate(180)" fill="none" stroke="#615504" stroke-width="2"/>
          </g>
          <path id="Path_824423" data-name="Path 824423" d="M8,0H329a8,8,0,0,1,8,8V46a8,8,0,0,1-8,8H8a8,8,0,0,1-8-8V8A8,8,0,0,1,8,0Z" transform="translate(788 1371.5)" fill="#c1e29a"/>
          <path id="Path_824424" data-name="Path 824424" d="M8,0H329a8,8,0,0,1,8,8V46a8,8,0,0,1-8,8H8a8,8,0,0,1-8-8V8A8,8,0,0,1,8,0Z" transform="translate(788 1471.832)" fill="#c1e29a"/>
          <path id="Path_824425" data-name="Path 824425" d="M8,0H329a8,8,0,0,1,8,8V46a8,8,0,0,1-8,8H8a8,8,0,0,1-8-8V8A8,8,0,0,1,8,0Z" transform="translate(788 1581)" fill="#c1e29a"/>
          <path id="Path_824426" data-name="Path 824426" d="M-111.668-4.93h-4.5v3.047h5.281V0h-7.625V-11.375h7.609v1.9h-5.266v2.711h4.5Zm6.586,2.594a.727.727,0,0,0-.41-.652,4.659,4.659,0,0,0-1.316-.426q-3.016-.633-3.016-2.562a2.323,2.323,0,0,1,.934-1.879,3.766,3.766,0,0,1,2.441-.754,4.053,4.053,0,0,1,2.574.758,2.388,2.388,0,0,1,.965,1.969h-2.258a1.092,1.092,0,0,0-.312-.8A1.322,1.322,0,0,0-106.457-7a1.351,1.351,0,0,0-.883.258.814.814,0,0,0-.312.656.7.7,0,0,0,.355.605,3.657,3.657,0,0,0,1.2.4,9.8,9.8,0,0,1,1.422.379,2.336,2.336,0,0,1,1.789,2.273,2.2,2.2,0,0,1-.992,1.871,4.28,4.28,0,0,1-2.562.715,4.47,4.47,0,0,1-1.887-.379,3.166,3.166,0,0,1-1.293-1.039,2.414,2.414,0,0,1-.469-1.426h2.141a1.179,1.179,0,0,0,.445.922,1.766,1.766,0,0,0,1.109.32,1.635,1.635,0,0,0,.98-.246A.766.766,0,0,0-105.082-2.336Zm6.352-8.2v2.078h1.445V-6.8H-98.73v4.219a1.007,1.007,0,0,0,.18.672.9.9,0,0,0,.688.2,3.6,3.6,0,0,0,.664-.055V-.047a4.648,4.648,0,0,1-1.367.2,2.156,2.156,0,0,1-2.422-2.4V-6.8h-1.234V-8.453h1.234v-2.078Zm7.453,4.2A6.134,6.134,0,0,0-92.09-6.4a1.654,1.654,0,0,0-1.68.867V0h-2.258V-8.453h2.133l.063,1.008a2.092,2.092,0,0,1,1.883-1.164,2.366,2.366,0,0,1,.7.1Zm6.148,5.477A2.831,2.831,0,0,1-87.441.156a2.67,2.67,0,0,1-2.074-.781,3.335,3.335,0,0,1-.73-2.289V-8.453h2.258v5.467q0,1.322,1.2,1.322a1.63,1.63,0,0,0,1.578-.8V-8.453h2.266V0h-2.125Zm7.406-.8a1.481,1.481,0,0,0,1.016-.344,1.2,1.2,0,0,0,.406-.914h2.117a2.9,2.9,0,0,1-.469,1.574A3.093,3.093,0,0,1-75.914-.238a3.949,3.949,0,0,1-1.77.395A3.67,3.67,0,0,1-80.543-1,4.56,4.56,0,0,1-81.59-4.18v-.148a4.508,4.508,0,0,1,1.039-3.117A3.627,3.627,0,0,1-77.7-8.609a3.555,3.555,0,0,1,2.543.9,3.2,3.2,0,0,1,.973,2.4H-76.3a1.551,1.551,0,0,0-.406-1.072,1.354,1.354,0,0,0-1.031-.412,1.36,1.36,0,0,0-1.191.575,3.333,3.333,0,0,0-.4,1.866v.235a3.375,3.375,0,0,0,.4,1.878A1.377,1.377,0,0,0-77.723-1.664Zm7.531-8.867v2.078h1.445V-6.8h-1.445v4.219a1.007,1.007,0,0,0,.18.672.9.9,0,0,0,.688.2,3.6,3.6,0,0,0,.664-.055V-.047a4.648,4.648,0,0,1-1.367.2,2.156,2.156,0,0,1-2.422-2.4V-6.8h-1.234V-8.453h1.234v-2.078Zm7.766,9.672A2.831,2.831,0,0,1-64.738.156a2.67,2.67,0,0,1-2.074-.781,3.335,3.335,0,0,1-.73-2.289V-8.453h2.258v5.467q0,1.322,1.2,1.322a1.63,1.63,0,0,0,1.578-.8V-8.453h2.266V0h-2.125Zm8.641-5.477A6.134,6.134,0,0,0-54.6-6.4a1.654,1.654,0,0,0-1.68.867V0h-2.258V-8.453H-56.4l.063,1.008a2.092,2.092,0,0,1,1.883-1.164,2.366,2.366,0,0,1,.7.1ZM-48.035,0a2.507,2.507,0,0,1-.227-.758,2.732,2.732,0,0,1-2.133.914,3,3,0,0,1-2.059-.719,2.312,2.312,0,0,1-.816-1.812,2.389,2.389,0,0,1,1-2.062,4.915,4.915,0,0,1,2.879-.727h1.039v-.484a1.393,1.393,0,0,0-.3-.937,1.183,1.183,0,0,0-.949-.352,1.345,1.345,0,0,0-.895.273.929.929,0,0,0-.324.75h-2.258a2.268,2.268,0,0,1,.453-1.359,3,3,0,0,1,1.281-.98,4.669,4.669,0,0,1,1.859-.355,3.689,3.689,0,0,1,2.48.785,2.747,2.747,0,0,1,.918,2.207v3.664a4.041,4.041,0,0,0,.336,1.82V0ZM-49.9-1.57a1.945,1.945,0,0,0,.922-.223,1.462,1.462,0,0,0,.625-.6V-3.844H-49.2q-1.7,0-1.8,1.172l-.008.133a.9.9,0,0,0,.3.7A1.153,1.153,0,0,0-49.9-1.57Zm9.18-2.734a5.053,5.053,0,0,1,.887-3.148A2.9,2.9,0,0,1-37.4-8.609,2.6,2.6,0,0,1-35.238-7.57l.148-.883h1.984V3.25h-2.266V-.727a2.6,2.6,0,0,1-2.047.883,2.878,2.878,0,0,1-2.406-1.172A5.3,5.3,0,0,1-40.723-4.3Zm2.258.16A3.314,3.314,0,0,0-38.039-2.3a1.363,1.363,0,0,0,1.2.634,1.518,1.518,0,0,0,1.469-.829v-3.5a1.506,1.506,0,0,0-1.453-.8,1.38,1.38,0,0,0-1.211.634A3.661,3.661,0,0,0-38.465-4.144Zm12.2,3.285A2.831,2.831,0,0,1-28.582.156a2.67,2.67,0,0,1-2.074-.781,3.335,3.335,0,0,1-.73-2.289V-8.453h2.258v5.467q0,1.322,1.2,1.322a1.63,1.63,0,0,0,1.578-.8V-8.453h2.266V0h-2.125ZM-19.941,0H-22.2V-8.453h2.258Zm-.664-11.883h2.461l-2.164,2.422h-1.836Zm4.727,3.43.07.945a2.971,2.971,0,0,1,2.43-1.1A2.255,2.255,0,0,1-11.137-7.32,2.9,2.9,0,0,1-8.6-8.609a2.521,2.521,0,0,1,2.047.8A3.681,3.681,0,0,1-5.879-5.4V0H-8.145V-5.391a1.61,1.61,0,0,0-.281-1.051,1.246,1.246,0,0,0-.992-.332,1.409,1.409,0,0,0-1.406.969l.008,5.8h-2.258V-5.383a1.59,1.59,0,0,0-.289-1.062,1.259,1.259,0,0,0-.984-.328,1.463,1.463,0,0,0-1.391.8V0H-18V-8.453ZM-1.762,0H-4.027V-8.453h2.266Zm-2.4-10.641a1.112,1.112,0,0,1,.34-.836,1.277,1.277,0,0,1,.926-.328,1.28,1.28,0,0,1,.922.328,1.105,1.105,0,0,1,.344.836,1.108,1.108,0,0,1-.348.844,1.283,1.283,0,0,1-.918.328A1.283,1.283,0,0,1-3.812-9.8,1.108,1.108,0,0,1-4.16-10.641ZM3.613-1.664a1.481,1.481,0,0,0,1.016-.344,1.2,1.2,0,0,0,.406-.914H7.152a2.9,2.9,0,0,1-.469,1.574A3.093,3.093,0,0,1,5.422-.238a3.949,3.949,0,0,1-1.77.395A3.67,3.67,0,0,1,.793-1,4.56,4.56,0,0,1-.254-4.18v-.148A4.508,4.508,0,0,1,.785-7.445,3.627,3.627,0,0,1,3.637-8.609a3.555,3.555,0,0,1,2.543.9,3.2,3.2,0,0,1,.973,2.4H5.035a1.551,1.551,0,0,0-.406-1.072A1.354,1.354,0,0,0,3.6-6.789a1.36,1.36,0,0,0-1.191.575A3.333,3.333,0,0,0,2-4.348v.235a3.375,3.375,0,0,0,.4,1.878A1.377,1.377,0,0,0,3.613-1.664ZM13.34,0a2.507,2.507,0,0,1-.227-.758A2.732,2.732,0,0,1,10.98.156,3,3,0,0,1,8.922-.562a2.312,2.312,0,0,1-.816-1.812,2.389,2.389,0,0,1,1-2.062,4.915,4.915,0,0,1,2.879-.727H13.02v-.484a1.393,1.393,0,0,0-.3-.937,1.183,1.183,0,0,0-.949-.352,1.345,1.345,0,0,0-.895.273.929.929,0,0,0-.324.75H8.293a2.268,2.268,0,0,1,.453-1.359,3,3,0,0,1,1.281-.98,4.669,4.669,0,0,1,1.859-.355,3.689,3.689,0,0,1,2.48.785,2.747,2.747,0,0,1,.918,2.207v3.664a4.041,4.041,0,0,0,.336,1.82V0ZM11.473-1.57a1.945,1.945,0,0,0,.922-.223,1.462,1.462,0,0,0,.625-.6V-3.844h-.844q-1.7,0-1.8,1.172l-.008.133a.9.9,0,0,0,.3.7A1.153,1.153,0,0,0,11.473-1.57Zm9.18-2.719a5.094,5.094,0,0,1,.887-3.148,2.877,2.877,0,0,1,2.426-1.172A2.589,2.589,0,0,1,26-7.687V-12H28.27V0H26.23l-.109-.9A2.657,2.657,0,0,1,23.949.156,2.869,2.869,0,0,1,21.555-1.02,5.258,5.258,0,0,1,20.652-4.289Zm2.258.168A3.337,3.337,0,0,0,23.324-2.3a1.349,1.349,0,0,0,1.2.634A1.511,1.511,0,0,0,26-2.548V-5.889a1.489,1.489,0,0,0-1.461-.884Q22.91-6.773,22.91-4.121Zm11,4.277A4.15,4.15,0,0,1,30.883-.984a4.054,4.054,0,0,1-1.168-3.039v-.219a5.106,5.106,0,0,1,.492-2.277A3.612,3.612,0,0,1,31.6-8.066a3.914,3.914,0,0,1,2.059-.543,3.508,3.508,0,0,1,2.73,1.094,4.444,4.444,0,0,1,1,3.1v.922H32a2.1,2.1,0,0,0,.66,1.328,2,2,0,0,0,1.395.5A2.437,2.437,0,0,0,36.1-2.609l1.109,1.242A3.389,3.389,0,0,1,35.832-.246,4.511,4.511,0,0,1,33.91.156Zm-.258-6.945a1.411,1.411,0,0,0-1.09.455,2.357,2.357,0,0,0-.535,1.3h3.141v-.181a1.681,1.681,0,0,0-.406-1.165A1.456,1.456,0,0,0,33.652-6.789ZM47.23-2.336a.727.727,0,0,0-.41-.652A4.659,4.659,0,0,0,45.5-3.414q-3.016-.633-3.016-2.562a2.323,2.323,0,0,1,.934-1.879,3.766,3.766,0,0,1,2.441-.754,4.053,4.053,0,0,1,2.574.758A2.388,2.388,0,0,1,49.4-5.883H47.145a1.092,1.092,0,0,0-.312-.8A1.322,1.322,0,0,0,45.855-7a1.351,1.351,0,0,0-.883.258.814.814,0,0,0-.312.656.7.7,0,0,0,.355.605,3.657,3.657,0,0,0,1.2.4,9.8,9.8,0,0,1,1.422.379A2.336,2.336,0,0,1,49.426-2.43a2.2,2.2,0,0,1-.992,1.871,4.28,4.28,0,0,1-2.562.715,4.47,4.47,0,0,1-1.887-.379,3.166,3.166,0,0,1-1.293-1.039,2.414,2.414,0,0,1-.469-1.426h2.141a1.179,1.179,0,0,0,.445.922,1.766,1.766,0,0,0,1.109.32,1.635,1.635,0,0,0,.98-.246A.766.766,0,0,0,47.23-2.336ZM55.941-.859A2.831,2.831,0,0,1,53.629.156a2.67,2.67,0,0,1-2.074-.781,3.335,3.335,0,0,1-.73-2.289V-8.453h2.258v5.467q0,1.322,1.2,1.322a1.63,1.63,0,0,0,1.578-.8V-8.453h2.266V0H56ZM64.41-2.336A.727.727,0,0,0,64-2.988a4.659,4.659,0,0,0-1.316-.426q-3.016-.633-3.016-2.562A2.323,2.323,0,0,1,60.6-7.855a3.766,3.766,0,0,1,2.441-.754,4.053,4.053,0,0,1,2.574.758,2.388,2.388,0,0,1,.965,1.969H64.324a1.092,1.092,0,0,0-.312-.8A1.322,1.322,0,0,0,63.035-7a1.351,1.351,0,0,0-.883.258.814.814,0,0,0-.312.656.7.7,0,0,0,.355.605,3.657,3.657,0,0,0,1.2.4,9.8,9.8,0,0,1,1.422.379A2.336,2.336,0,0,1,66.605-2.43a2.2,2.2,0,0,1-.992,1.871,4.28,4.28,0,0,1-2.562.715,4.47,4.47,0,0,1-1.887-.379,3.166,3.166,0,0,1-1.293-1.039A2.414,2.414,0,0,1,59.4-2.687h2.141a1.179,1.179,0,0,0,.445.922,1.766,1.766,0,0,0,1.109.32,1.635,1.635,0,0,0,.98-.246A.766.766,0,0,0,64.41-2.336Zm6.352-8.2v2.078h1.445V-6.8H70.762v4.219a1.007,1.007,0,0,0,.18.672.9.9,0,0,0,.688.2,3.6,3.6,0,0,0,.664-.055V-.047a4.648,4.648,0,0,1-1.367.2,2.156,2.156,0,0,1-2.422-2.4V-6.8H67.27V-8.453H68.5v-2.078ZM78.363,0a2.507,2.507,0,0,1-.227-.758A2.732,2.732,0,0,1,76,.156a3,3,0,0,1-2.059-.719,2.312,2.312,0,0,1-.816-1.812,2.389,2.389,0,0,1,1-2.062A4.915,4.915,0,0,1,77-5.164h1.039v-.484a1.393,1.393,0,0,0-.3-.937,1.183,1.183,0,0,0-.949-.352,1.345,1.345,0,0,0-.895.273.929.929,0,0,0-.324.75H73.316a2.268,2.268,0,0,1,.453-1.359,3,3,0,0,1,1.281-.98,4.669,4.669,0,0,1,1.859-.355,3.689,3.689,0,0,1,2.48.785,2.747,2.747,0,0,1,.918,2.207v3.664a4.041,4.041,0,0,0,.336,1.82V0ZM76.5-1.57a1.945,1.945,0,0,0,.922-.223,1.462,1.462,0,0,0,.625-.6V-3.844H77.2q-1.7,0-1.8,1.172l-.008.133a.9.9,0,0,0,.3.7A1.153,1.153,0,0,0,76.5-1.57Zm7.625-6.883.07.977a2.951,2.951,0,0,1,2.43-1.133,2.453,2.453,0,0,1,2,.789,3.682,3.682,0,0,1,.672,2.359V0H87.035V-5.406a1.465,1.465,0,0,0-.312-1.043,1.4,1.4,0,0,0-1.039-.324,1.553,1.553,0,0,0-1.43.813V0H82V-8.453Zm10.4,6.789a1.481,1.481,0,0,0,1.016-.344,1.2,1.2,0,0,0,.406-.914h2.117a2.9,2.9,0,0,1-.469,1.574A3.093,3.093,0,0,1,96.328-.238a3.949,3.949,0,0,1-1.77.395A3.67,3.67,0,0,1,91.7-1,4.56,4.56,0,0,1,90.652-4.18v-.148a4.508,4.508,0,0,1,1.039-3.117,3.627,3.627,0,0,1,2.852-1.164,3.555,3.555,0,0,1,2.543.9,3.2,3.2,0,0,1,.973,2.4H95.941a1.551,1.551,0,0,0-.406-1.072A1.354,1.354,0,0,0,94.5-6.789a1.36,1.36,0,0,0-1.191.575,3.333,3.333,0,0,0-.4,1.866v.235a3.375,3.375,0,0,0,.4,1.878A1.377,1.377,0,0,0,94.52-1.664ZM101.73,0H99.465V-8.453h2.266Zm-2.4-10.641a1.112,1.112,0,0,1,.34-.836,1.277,1.277,0,0,1,.926-.328,1.28,1.28,0,0,1,.922.328,1.105,1.105,0,0,1,.344.836,1.108,1.108,0,0,1-.348.844,1.283,1.283,0,0,1-.918.328A1.283,1.283,0,0,1,99.68-9.8,1.108,1.108,0,0,1,99.332-10.641ZM108.488,0a2.507,2.507,0,0,1-.227-.758,2.732,2.732,0,0,1-2.133.914,3,3,0,0,1-2.059-.719,2.312,2.312,0,0,1-.816-1.812,2.389,2.389,0,0,1,1-2.062,4.915,4.915,0,0,1,2.879-.727h1.039v-.484a1.393,1.393,0,0,0-.3-.937,1.183,1.183,0,0,0-.949-.352,1.345,1.345,0,0,0-.895.273.929.929,0,0,0-.324.75h-2.258a2.268,2.268,0,0,1,.453-1.359,3,3,0,0,1,1.281-.98,4.669,4.669,0,0,1,1.859-.355,3.689,3.689,0,0,1,2.48.785,2.747,2.747,0,0,1,.918,2.207v3.664a4.041,4.041,0,0,0,.336,1.82V0Zm-1.867-1.57a1.945,1.945,0,0,0,.922-.223,1.462,1.462,0,0,0,.625-.6V-3.844h-.844q-1.7,0-1.8,1.172l-.008.133a.9.9,0,0,0,.3.7A1.153,1.153,0,0,0,106.621-1.57Zm10.125-.766a.727.727,0,0,0-.41-.652,4.659,4.659,0,0,0-1.316-.426Q112-4.047,112-5.977a2.323,2.323,0,0,1,.934-1.879,3.766,3.766,0,0,1,2.441-.754,4.053,4.053,0,0,1,2.574.758,2.388,2.388,0,0,1,.965,1.969H116.66a1.092,1.092,0,0,0-.312-.8A1.322,1.322,0,0,0,115.371-7a1.351,1.351,0,0,0-.883.258.814.814,0,0,0-.312.656.7.7,0,0,0,.355.605,3.657,3.657,0,0,0,1.2.4,9.8,9.8,0,0,1,1.422.379,2.336,2.336,0,0,1,1.789,2.273,2.2,2.2,0,0,1-.992,1.871,4.28,4.28,0,0,1-2.562.715A4.47,4.47,0,0,1,113.5-.223a3.166,3.166,0,0,1-1.293-1.039,2.414,2.414,0,0,1-.469-1.426h2.141a1.179,1.179,0,0,0,.445.922,1.766,1.766,0,0,0,1.109.32,1.635,1.635,0,0,0,.98-.246A.766.766,0,0,0,116.746-2.336Z" transform="translate(951 1404)"/>
          <path id="Path_824427" data-name="Path 824427" d="M-125.387-3.789A4.025,4.025,0,0,1-126.742-.9,4.76,4.76,0,0,1-129.965.156a4.281,4.281,0,0,1-3.441-1.473,6.038,6.038,0,0,1-1.254-4.043v-.7a6.819,6.819,0,0,1,.578-2.891,4.332,4.332,0,0,1,1.652-1.918,4.629,4.629,0,0,1,2.5-.668,4.637,4.637,0,0,1,3.172,1.055,4.326,4.326,0,0,1,1.391,2.961h-2.344a2.376,2.376,0,0,0-.613-1.6,2.271,2.271,0,0,0-1.605-.5,1.991,1.991,0,0,0-1.754.84,4.707,4.707,0,0,0-.6,2.605V-5.3a5.038,5.038,0,0,0,.559,2.7,1.954,1.954,0,0,0,1.762.852,2.314,2.314,0,0,0,1.621-.5,2.241,2.241,0,0,0,.613-1.535Zm1.039-.516a5.013,5.013,0,0,1,.484-2.242,3.546,3.546,0,0,1,1.395-1.523,4.069,4.069,0,0,1,2.113-.539,3.849,3.849,0,0,1,2.793,1.047,4.2,4.2,0,0,1,1.207,2.844l.016.578a4.418,4.418,0,0,1-1.086,3.121A3.775,3.775,0,0,1-120.34.156a3.793,3.793,0,0,1-2.918-1.172,4.5,4.5,0,0,1-1.09-3.187Zm2.258.16a3.16,3.16,0,0,0,.453,1.843,1.5,1.5,0,0,0,1.3.638,1.5,1.5,0,0,0,1.281-.63,3.457,3.457,0,0,0,.461-2.015,3.128,3.128,0,0,0-.461-1.831,1.5,1.5,0,0,0-1.3-.649,1.474,1.474,0,0,0-1.281.646A3.516,3.516,0,0,0-122.09-4.144Zm11.031,4.3a4.15,4.15,0,0,1-3.027-1.141,4.054,4.054,0,0,1-1.168-3.039v-.219a5.106,5.106,0,0,1,.492-2.277,3.612,3.612,0,0,1,1.395-1.547,3.914,3.914,0,0,1,2.059-.543,3.508,3.508,0,0,1,2.73,1.094,4.444,4.444,0,0,1,1,3.1v.922h-5.383a2.1,2.1,0,0,0,.66,1.328,2,2,0,0,0,1.395.5,2.437,2.437,0,0,0,2.039-.945l1.109,1.242a3.389,3.389,0,0,1-1.375,1.121A4.511,4.511,0,0,1-111.059.156Zm-.258-6.945a1.411,1.411,0,0,0-1.09.455,2.357,2.357,0,0,0-.535,1.3h3.141v-.181a1.681,1.681,0,0,0-.406-1.165A1.456,1.456,0,0,0-111.316-6.789ZM-105.754,0V-6.8h-1.258V-8.453h1.258v-.391a3.17,3.17,0,0,1,.98-2.457,3.945,3.945,0,0,1,2.723-.863,9.031,9.031,0,0,1,2.563.461l-.328,1.867A10,10,0,0,0-101-10.129a5.835,5.835,0,0,0-.906-.066q-1.578,0-1.578,1.4v.344h1.664V-6.8h-1.664V0Zm7.32,0H-100.7V-8.453h2.266Zm5.383-1.664a1.481,1.481,0,0,0,1.016-.344,1.2,1.2,0,0,0,.406-.914h2.117a2.9,2.9,0,0,1-.469,1.574A3.093,3.093,0,0,1-91.242-.238a3.949,3.949,0,0,1-1.77.395A3.67,3.67,0,0,1-95.871-1,4.56,4.56,0,0,1-96.918-4.18v-.148a4.508,4.508,0,0,1,1.039-3.117,3.627,3.627,0,0,1,2.852-1.164,3.555,3.555,0,0,1,2.543.9,3.2,3.2,0,0,1,.973,2.4h-2.117a1.551,1.551,0,0,0-.406-1.072,1.354,1.354,0,0,0-1.031-.412,1.36,1.36,0,0,0-1.191.575,3.333,3.333,0,0,0-.4,1.866v.235a3.375,3.375,0,0,0,.4,1.878A1.377,1.377,0,0,0-93.051-1.664ZM-85.84,0h-2.266V-8.453h2.266Zm-2.4-10.641a1.112,1.112,0,0,1,.34-.836,1.277,1.277,0,0,1,.926-.328,1.28,1.28,0,0,1,.922.328,1.105,1.105,0,0,1,.344.836,1.108,1.108,0,0,1-.348.844,1.283,1.283,0,0,1-.918.328,1.283,1.283,0,0,1-.918-.328A1.108,1.108,0,0,1-88.238-10.641ZM-80.09.156A4.15,4.15,0,0,1-83.117-.984a4.054,4.054,0,0,1-1.168-3.039v-.219a5.106,5.106,0,0,1,.492-2.277A3.612,3.612,0,0,1-82.4-8.066a3.914,3.914,0,0,1,2.059-.543,3.508,3.508,0,0,1,2.73,1.094,4.444,4.444,0,0,1,1,3.1v.922H-82a2.1,2.1,0,0,0,.66,1.328,2,2,0,0,0,1.395.5A2.437,2.437,0,0,0-77.9-2.609l1.109,1.242A3.389,3.389,0,0,1-78.168-.246,4.511,4.511,0,0,1-80.09.156Zm-.258-6.945a1.411,1.411,0,0,0-1.09.455,2.357,2.357,0,0,0-.535,1.3h3.141v-.181a1.681,1.681,0,0,0-.406-1.165A1.456,1.456,0,0,0-80.348-6.789Zm7.094-1.664.07.977a2.951,2.951,0,0,1,2.43-1.133,2.453,2.453,0,0,1,2,.789,3.682,3.682,0,0,1,.672,2.359V0H-70.34V-5.406a1.465,1.465,0,0,0-.312-1.043,1.4,1.4,0,0,0-1.039-.324,1.553,1.553,0,0,0-1.43.813V0h-2.258V-8.453Zm9.586-2.078v2.078h1.445V-6.8h-1.445v4.219a1.007,1.007,0,0,0,.18.672.9.9,0,0,0,.688.2,3.6,3.6,0,0,0,.664-.055V-.047a4.648,4.648,0,0,1-1.367.2,2.156,2.156,0,0,1-2.422-2.4V-6.8H-67.16V-8.453h1.234v-2.078ZM-57.074.156A4.15,4.15,0,0,1-60.1-.984,4.054,4.054,0,0,1-61.27-4.023v-.219a5.106,5.106,0,0,1,.492-2.277,3.612,3.612,0,0,1,1.395-1.547,3.914,3.914,0,0,1,2.059-.543,3.508,3.508,0,0,1,2.73,1.094,4.444,4.444,0,0,1,1,3.1v.922H-58.98a2.1,2.1,0,0,0,.66,1.328,2,2,0,0,0,1.395.5,2.437,2.437,0,0,0,2.039-.945l1.109,1.242A3.389,3.389,0,0,1-55.152-.246,4.511,4.511,0,0,1-57.074.156Zm-.258-6.945a1.411,1.411,0,0,0-1.09.455,2.357,2.357,0,0,0-.535,1.3h3.141v-.181a1.681,1.681,0,0,0-.406-1.165A1.456,1.456,0,0,0-57.332-6.789Zm8.648,2.5A5.094,5.094,0,0,1-47.8-7.437a2.877,2.877,0,0,1,2.426-1.172,2.589,2.589,0,0,1,2.039.922V-12h2.266V0h-2.039l-.109-.9A2.657,2.657,0,0,1-45.387.156,2.869,2.869,0,0,1-47.781-1.02,5.258,5.258,0,0,1-48.684-4.289Zm2.258.168A3.337,3.337,0,0,0-46.012-2.3a1.349,1.349,0,0,0,1.2.634,1.511,1.511,0,0,0,1.477-.884V-5.889a1.489,1.489,0,0,0-1.461-.884Q-46.426-6.773-46.426-4.121Zm11,4.277A4.15,4.15,0,0,1-38.453-.984a4.054,4.054,0,0,1-1.168-3.039v-.219a5.106,5.106,0,0,1,.492-2.277,3.612,3.612,0,0,1,1.395-1.547,3.914,3.914,0,0,1,2.059-.543,3.508,3.508,0,0,1,2.73,1.094,4.444,4.444,0,0,1,1,3.1v.922h-5.383a2.1,2.1,0,0,0,.66,1.328,2,2,0,0,0,1.395.5,2.437,2.437,0,0,0,2.039-.945l1.109,1.242A3.389,3.389,0,0,1-33.5-.246,4.511,4.511,0,0,1-35.426.156Zm-.258-6.945a1.411,1.411,0,0,0-1.09.455,2.357,2.357,0,0,0-.535,1.3h3.141v-.181a1.681,1.681,0,0,0-.406-1.165A1.456,1.456,0,0,0-35.684-6.789Zm16.609,2.641a5.07,5.07,0,0,1-.887,3.129A2.843,2.843,0,0,1-22.355.156a2.633,2.633,0,0,1-2.07-.891V3.25h-2.258v-11.7h2.094l.078.828a2.654,2.654,0,0,1,2.141-.984,2.862,2.862,0,0,1,2.43,1.156,5.207,5.207,0,0,1,.867,3.188Zm-2.258-.164a3.327,3.327,0,0,0-.418-1.82,1.361,1.361,0,0,0-1.215-.641,1.478,1.478,0,0,0-1.461.813V-2.5a1.5,1.5,0,0,0,1.477.836Q-21.332-1.664-21.332-4.312ZM-12.777,0A2.507,2.507,0,0,1-13-.758a2.732,2.732,0,0,1-2.133.914A3,3,0,0,1-17.2-.562a2.312,2.312,0,0,1-.816-1.812,2.389,2.389,0,0,1,1-2.062,4.915,4.915,0,0,1,2.879-.727H-13.1v-.484a1.393,1.393,0,0,0-.3-.937,1.183,1.183,0,0,0-.949-.352,1.345,1.345,0,0,0-.895.273.929.929,0,0,0-.324.75h-2.258a2.268,2.268,0,0,1,.453-1.359,3,3,0,0,1,1.281-.98,4.669,4.669,0,0,1,1.859-.355,3.689,3.689,0,0,1,2.48.785,2.747,2.747,0,0,1,.918,2.207v3.664A4.041,4.041,0,0,0-10.5-.133V0Zm-1.867-1.57a1.945,1.945,0,0,0,.922-.223,1.462,1.462,0,0,0,.625-.6V-3.844h-.844q-1.7,0-1.8,1.172l-.008.133a.9.9,0,0,0,.3.7A1.153,1.153,0,0,0-14.645-1.57Zm10.3-4.766A6.134,6.134,0,0,0-5.16-6.4a1.654,1.654,0,0,0-1.68.867V0H-9.1V-8.453h2.133L-6.9-7.445A2.092,2.092,0,0,1-5.02-8.609a2.366,2.366,0,0,1,.7.1Zm4.18-4.2v2.078H1.277V-6.8H-.168v4.219a1.007,1.007,0,0,0,.18.672A.9.9,0,0,0,.7-1.7a3.6,3.6,0,0,0,.664-.055V-.047A4.648,4.648,0,0,1,0,.156a2.156,2.156,0,0,1-2.422-2.4V-6.8H-3.66V-8.453h1.234v-2.078ZM4.918,0H2.652V-8.453H4.918ZM2.52-10.641a1.112,1.112,0,0,1,.34-.836,1.277,1.277,0,0,1,.926-.328,1.28,1.28,0,0,1,.922.328,1.105,1.105,0,0,1,.344.836A1.108,1.108,0,0,1,4.7-9.8a1.283,1.283,0,0,1-.918.328A1.283,1.283,0,0,1,2.867-9.8,1.108,1.108,0,0,1,2.52-10.641Zm7.773,8.977a1.481,1.481,0,0,0,1.016-.344,1.2,1.2,0,0,0,.406-.914h2.117a2.9,2.9,0,0,1-.469,1.574A3.093,3.093,0,0,1,12.1-.238a3.949,3.949,0,0,1-1.77.395A3.67,3.67,0,0,1,7.473-1,4.56,4.56,0,0,1,6.426-4.18v-.148A4.508,4.508,0,0,1,7.465-7.445a3.627,3.627,0,0,1,2.852-1.164,3.555,3.555,0,0,1,2.543.9,3.2,3.2,0,0,1,.973,2.4H11.715a1.551,1.551,0,0,0-.406-1.072,1.354,1.354,0,0,0-1.031-.412,1.36,1.36,0,0,0-1.191.575,3.333,3.333,0,0,0-.4,1.866v.235a3.375,3.375,0,0,0,.4,1.878A1.377,1.377,0,0,0,10.293-1.664ZM17.5,0H15.238V-8.453H17.5Zm-2.4-10.641a1.112,1.112,0,0,1,.34-.836,1.277,1.277,0,0,1,.926-.328,1.28,1.28,0,0,1,.922.328,1.105,1.105,0,0,1,.344.836,1.108,1.108,0,0,1-.348.844,1.283,1.283,0,0,1-.918.328,1.283,1.283,0,0,1-.918-.328A1.108,1.108,0,0,1,15.105-10.641ZM19.012-4.3A5.013,5.013,0,0,1,19.5-6.547,3.546,3.546,0,0,1,20.891-8.07,4.069,4.069,0,0,1,23-8.609,3.849,3.849,0,0,1,25.8-7.562,4.2,4.2,0,0,1,27-4.719l.016.578A4.418,4.418,0,0,1,25.934-1.02,3.775,3.775,0,0,1,23.02.156,3.793,3.793,0,0,1,20.1-1.016,4.5,4.5,0,0,1,19.012-4.2Zm2.258.16A3.16,3.16,0,0,0,21.723-2.3a1.5,1.5,0,0,0,1.3.638,1.5,1.5,0,0,0,1.281-.63,3.457,3.457,0,0,0,.461-2.015A3.128,3.128,0,0,0,24.3-6.14,1.5,1.5,0,0,0,23-6.789a1.474,1.474,0,0,0-1.281.646A3.516,3.516,0,0,0,21.27-4.144ZM23.449-12H25.91L23.746-9.578H21.91Zm7.039,3.547.07.977a2.951,2.951,0,0,1,2.43-1.133,2.453,2.453,0,0,1,2,.789,3.682,3.682,0,0,1,.672,2.359V0H33.4V-5.406a1.465,1.465,0,0,0-.312-1.043,1.4,1.4,0,0,0-1.039-.324,1.553,1.553,0,0,0-1.43.813V0H28.363V-8.453ZM41-4.3a5.013,5.013,0,0,1,.484-2.242A3.546,3.546,0,0,1,42.883-8.07,4.069,4.069,0,0,1,45-8.609a3.849,3.849,0,0,1,2.793,1.047A4.2,4.2,0,0,1,49-4.719l.016.578A4.418,4.418,0,0,1,47.926-1.02,3.775,3.775,0,0,1,45.012.156a3.793,3.793,0,0,1-2.918-1.172A4.5,4.5,0,0,1,41-4.2Zm2.258.16A3.16,3.16,0,0,0,43.715-2.3a1.5,1.5,0,0,0,1.3.638,1.5,1.5,0,0,0,1.281-.63,3.457,3.457,0,0,0,.461-2.015,3.128,3.128,0,0,0-.461-1.831A1.5,1.5,0,0,0,45-6.789a1.474,1.474,0,0,0-1.281.646A3.516,3.516,0,0,0,43.262-4.144Zm10.656,2.48a1.481,1.481,0,0,0,1.016-.344,1.2,1.2,0,0,0,.406-.914h2.117a2.9,2.9,0,0,1-.469,1.574A3.093,3.093,0,0,1,55.727-.238a3.949,3.949,0,0,1-1.77.395A3.67,3.67,0,0,1,51.1-1,4.56,4.56,0,0,1,50.051-4.18v-.148A4.508,4.508,0,0,1,51.09-7.445a3.627,3.627,0,0,1,2.852-1.164,3.555,3.555,0,0,1,2.543.9,3.2,3.2,0,0,1,.973,2.4H55.34a1.551,1.551,0,0,0-.406-1.072A1.354,1.354,0,0,0,53.9-6.789a1.36,1.36,0,0,0-1.191.575,3.333,3.333,0,0,0-.4,1.866v.235a3.375,3.375,0,0,0,.4,1.878A1.377,1.377,0,0,0,53.918-1.664Zm7.531-8.867v2.078h1.445V-6.8H61.449v4.219a1.007,1.007,0,0,0,.18.672.9.9,0,0,0,.688.2,3.6,3.6,0,0,0,.664-.055V-.047a4.648,4.648,0,0,1-1.367.2,2.156,2.156,0,0,1-2.422-2.4V-6.8H57.957V-8.453h1.234v-2.078ZM69.051,0a2.507,2.507,0,0,1-.227-.758,2.732,2.732,0,0,1-2.133.914,3,3,0,0,1-2.059-.719,2.312,2.312,0,0,1-.816-1.812,2.389,2.389,0,0,1,1-2.062,4.915,4.915,0,0,1,2.879-.727H68.73v-.484a1.393,1.393,0,0,0-.3-.937,1.183,1.183,0,0,0-.949-.352,1.345,1.345,0,0,0-.895.273.929.929,0,0,0-.324.75H64a2.268,2.268,0,0,1,.453-1.359,3,3,0,0,1,1.281-.98A4.669,4.669,0,0,1,67.6-8.609a3.689,3.689,0,0,1,2.48.785A2.747,2.747,0,0,1,71-5.617v3.664a4.041,4.041,0,0,0,.336,1.82V0ZM67.184-1.57a1.945,1.945,0,0,0,.922-.223,1.462,1.462,0,0,0,.625-.6V-3.844h-.844q-1.7,0-1.8,1.172l-.008.133a.9.9,0,0,0,.3.7A1.153,1.153,0,0,0,67.184-1.57Zm7.625-6.883.07.977a2.951,2.951,0,0,1,2.43-1.133,2.453,2.453,0,0,1,2,.789,3.682,3.682,0,0,1,.672,2.359V0H77.723V-5.406a1.465,1.465,0,0,0-.312-1.043,1.4,1.4,0,0,0-1.039-.324,1.553,1.553,0,0,0-1.43.813V0H72.684V-8.453ZM81.34-4.3a5.013,5.013,0,0,1,.484-2.242A3.546,3.546,0,0,1,83.219-8.07a4.069,4.069,0,0,1,2.113-.539,3.849,3.849,0,0,1,2.793,1.047,4.2,4.2,0,0,1,1.207,2.844l.016.578A4.418,4.418,0,0,1,88.262-1.02,3.775,3.775,0,0,1,85.348.156,3.793,3.793,0,0,1,82.43-1.016,4.5,4.5,0,0,1,81.34-4.2Zm2.258.16A3.16,3.16,0,0,0,84.051-2.3a1.5,1.5,0,0,0,1.3.638,1.5,1.5,0,0,0,1.281-.63,3.457,3.457,0,0,0,.461-2.015,3.128,3.128,0,0,0-.461-1.831,1.5,1.5,0,0,0-1.3-.649,1.474,1.474,0,0,0-1.281.646A3.516,3.516,0,0,0,83.6-4.144ZM93.121,0H90.855V-12h2.266Zm2.57.977h-1.68L98.2-11.375h1.68ZM105.855,0a2.507,2.507,0,0,1-.227-.758A2.732,2.732,0,0,1,103.5.156a3,3,0,0,1-2.059-.719,2.312,2.312,0,0,1-.816-1.812,2.389,2.389,0,0,1,1-2.062,4.915,4.915,0,0,1,2.879-.727h1.039v-.484a1.393,1.393,0,0,0-.3-.937,1.183,1.183,0,0,0-.949-.352,1.345,1.345,0,0,0-.895.273.929.929,0,0,0-.324.75h-2.258a2.268,2.268,0,0,1,.453-1.359,3,3,0,0,1,1.281-.98,4.669,4.669,0,0,1,1.859-.355,3.689,3.689,0,0,1,2.48.785,2.747,2.747,0,0,1,.918,2.207v3.664a4.041,4.041,0,0,0,.336,1.82V0Zm-1.867-1.57a1.945,1.945,0,0,0,.922-.223,1.462,1.462,0,0,0,.625-.6V-3.844h-.844q-1.7,0-1.8,1.172l-.008.133a.9.9,0,0,0,.3.7A1.153,1.153,0,0,0,103.988-1.57Zm5.219-2.719a4.954,4.954,0,0,1,.926-3.133,3,3,0,0,1,2.5-1.187,2.631,2.631,0,0,1,2.164.953l.094-.8h2.047V-.281a3.613,3.613,0,0,1-.5,1.93,3.236,3.236,0,0,1-1.418,1.25,4.985,4.985,0,0,1-2.141.43,4.635,4.635,0,0,1-1.812-.371A3.217,3.217,0,0,1,109.723,2l1-1.375a2.645,2.645,0,0,0,2.047.945,1.936,1.936,0,0,0,1.4-.48,1.8,1.8,0,0,0,.5-1.363V-.727a2.612,2.612,0,0,1-2.055.883,2.992,2.992,0,0,1-2.465-1.191,4.953,4.953,0,0,1-.941-3.16Zm2.258.168a3.085,3.085,0,0,0,.461,1.8,1.466,1.466,0,0,0,1.266.653,1.568,1.568,0,0,0,1.477-.775V-6a1.564,1.564,0,0,0-1.461-.775,1.476,1.476,0,0,0-1.277.665A3.477,3.477,0,0,0,111.465-4.121ZM123.73-.859A2.831,2.831,0,0,1,121.418.156a2.67,2.67,0,0,1-2.074-.781,3.335,3.335,0,0,1-.73-2.289V-8.453h2.258v5.467q0,1.322,1.2,1.322a1.63,1.63,0,0,0,1.578-.8V-8.453h2.266V0h-2.125ZM132.52,0a2.507,2.507,0,0,1-.227-.758,2.732,2.732,0,0,1-2.133.914A3,3,0,0,1,128.1-.562a2.312,2.312,0,0,1-.816-1.812,2.389,2.389,0,0,1,1-2.062,4.915,4.915,0,0,1,2.879-.727H132.2v-.484a1.393,1.393,0,0,0-.3-.937,1.183,1.183,0,0,0-.949-.352,1.345,1.345,0,0,0-.895.273.929.929,0,0,0-.324.75h-2.258a2.268,2.268,0,0,1,.453-1.359,3,3,0,0,1,1.281-.98,4.669,4.669,0,0,1,1.859-.355,3.689,3.689,0,0,1,2.48.785,2.747,2.747,0,0,1,.918,2.207v3.664a4.041,4.041,0,0,0,.336,1.82V0Zm-1.867-1.57a1.945,1.945,0,0,0,.922-.223,1.462,1.462,0,0,0,.625-.6V-3.844h-.844q-1.7,0-1.8,1.172l-.008.133a.9.9,0,0,0,.3.7A1.153,1.153,0,0,0,130.652-1.57Z" transform="translate(951 1504.332)"/>
          <path id="Path_824428" data-name="Path 824428" d="M-107.824-4.164h-1.867V0h-2.344V-11.375h4.227a4.778,4.778,0,0,1,3.109.9,3.1,3.1,0,0,1,1.094,2.539,3.5,3.5,0,0,1-.5,1.941,3.437,3.437,0,0,1-1.527,1.238l2.461,4.648V0h-2.516Zm-1.867-1.9h1.891a1.936,1.936,0,0,0,1.367-.449,1.606,1.606,0,0,0,.484-1.238,1.719,1.719,0,0,0-.457-1.266,1.9,1.9,0,0,0-1.4-.461h-1.883ZM-98.082.156a4.15,4.15,0,0,1-3.027-1.141,4.054,4.054,0,0,1-1.168-3.039v-.219a5.106,5.106,0,0,1,.492-2.277,3.612,3.612,0,0,1,1.395-1.547,3.914,3.914,0,0,1,2.059-.543A3.508,3.508,0,0,1-95.6-7.516a4.444,4.444,0,0,1,1,3.1v.922h-5.383a2.1,2.1,0,0,0,.66,1.328,2,2,0,0,0,1.395.5,2.437,2.437,0,0,0,2.039-.945l1.109,1.242A3.389,3.389,0,0,1-96.16-.246,4.511,4.511,0,0,1-98.082.156Zm-.258-6.945a1.411,1.411,0,0,0-1.09.455,2.357,2.357,0,0,0-.535,1.3h3.141v-.181a1.681,1.681,0,0,0-.406-1.165A1.456,1.456,0,0,0-98.34-6.789Zm4.688,2.5a4.954,4.954,0,0,1,.926-3.133,3,3,0,0,1,2.5-1.187,2.631,2.631,0,0,1,2.164.953l.094-.8h2.047V-.281a3.613,3.613,0,0,1-.5,1.93A3.236,3.236,0,0,1-87.848,2.9a4.985,4.985,0,0,1-2.141.43A4.635,4.635,0,0,1-91.8,2.957,3.217,3.217,0,0,1-93.137,2l1-1.375a2.645,2.645,0,0,0,2.047.945,1.936,1.936,0,0,0,1.4-.48,1.8,1.8,0,0,0,.5-1.363V-.727a2.612,2.612,0,0,1-2.055.883,2.992,2.992,0,0,1-2.465-1.191,4.953,4.953,0,0,1-.941-3.16Zm2.258.168a3.085,3.085,0,0,0,.461,1.8,1.466,1.466,0,0,0,1.266.653,1.568,1.568,0,0,0,1.477-.775V-6a1.564,1.564,0,0,0-1.461-.775,1.476,1.476,0,0,0-1.277.665A3.477,3.477,0,0,0-91.395-4.121ZM-81.809,0h-2.266V-12h2.266Zm6.758,0a2.507,2.507,0,0,1-.227-.758A2.732,2.732,0,0,1-77.41.156a3,3,0,0,1-2.059-.719,2.312,2.312,0,0,1-.816-1.812,2.389,2.389,0,0,1,1-2.062,4.915,4.915,0,0,1,2.879-.727h1.039v-.484a1.393,1.393,0,0,0-.3-.937,1.183,1.183,0,0,0-.949-.352,1.345,1.345,0,0,0-.895.273.929.929,0,0,0-.324.75H-80.1a2.268,2.268,0,0,1,.453-1.359,3,3,0,0,1,1.281-.98A4.669,4.669,0,0,1-76.5-8.609a3.689,3.689,0,0,1,2.48.785,2.747,2.747,0,0,1,.918,2.207v3.664a4.041,4.041,0,0,0,.336,1.82V0Zm-1.867-1.57A1.945,1.945,0,0,0-76-1.793a1.462,1.462,0,0,0,.625-.6V-3.844h-.844q-1.7,0-1.8,1.172l-.008.133a.9.9,0,0,0,.3.7A1.153,1.153,0,0,0-76.918-1.57Zm7.664-6.883.07.945a2.971,2.971,0,0,1,2.43-1.1A2.255,2.255,0,0,1-64.512-7.32a2.9,2.9,0,0,1,2.539-1.289,2.521,2.521,0,0,1,2.047.8,3.681,3.681,0,0,1,.672,2.41V0H-61.52V-5.391A1.61,1.61,0,0,0-61.8-6.441a1.246,1.246,0,0,0-.992-.332A1.409,1.409,0,0,0-64.2-5.8l.008,5.8h-2.258V-5.383a1.59,1.59,0,0,0-.289-1.062,1.259,1.259,0,0,0-.984-.328,1.463,1.463,0,0,0-1.391.8V0h-2.258V-8.453ZM-53.629.156A4.15,4.15,0,0,1-56.656-.984a4.054,4.054,0,0,1-1.168-3.039v-.219a5.106,5.106,0,0,1,.492-2.277,3.612,3.612,0,0,1,1.395-1.547,3.914,3.914,0,0,1,2.059-.543,3.508,3.508,0,0,1,2.73,1.094,4.444,4.444,0,0,1,1,3.1v.922h-5.383a2.1,2.1,0,0,0,.66,1.328,2,2,0,0,0,1.395.5,2.437,2.437,0,0,0,2.039-.945l1.109,1.242A3.389,3.389,0,0,1-51.707-.246,4.511,4.511,0,0,1-53.629.156Zm-.258-6.945a1.411,1.411,0,0,0-1.09.455,2.357,2.357,0,0,0-.535,1.3h3.141v-.181a1.681,1.681,0,0,0-.406-1.165A1.456,1.456,0,0,0-53.887-6.789Zm7.094-1.664.07.977a2.951,2.951,0,0,1,2.43-1.133,2.453,2.453,0,0,1,2,.789,3.682,3.682,0,0,1,.672,2.359V0h-2.258V-5.406a1.465,1.465,0,0,0-.312-1.043,1.4,1.4,0,0,0-1.039-.324,1.553,1.553,0,0,0-1.43.813V0h-2.258V-8.453Zm9.586-2.078v2.078h1.445V-6.8h-1.445v4.219a1.007,1.007,0,0,0,.18.672.9.9,0,0,0,.688.2,3.6,3.6,0,0,0,.664-.055V-.047a4.648,4.648,0,0,1-1.367.2,2.156,2.156,0,0,1-2.422-2.4V-6.8H-40.7V-8.453h1.234v-2.078ZM-29.605,0a2.507,2.507,0,0,1-.227-.758,2.732,2.732,0,0,1-2.133.914,3,3,0,0,1-2.059-.719,2.312,2.312,0,0,1-.816-1.812,2.389,2.389,0,0,1,1-2.062,4.915,4.915,0,0,1,2.879-.727h1.039v-.484a1.393,1.393,0,0,0-.3-.937,1.183,1.183,0,0,0-.949-.352,1.345,1.345,0,0,0-.895.273.929.929,0,0,0-.324.75h-2.258A2.268,2.268,0,0,1-34.2-7.273a3,3,0,0,1,1.281-.98,4.669,4.669,0,0,1,1.859-.355,3.689,3.689,0,0,1,2.48.785,2.747,2.747,0,0,1,.918,2.207v3.664a4.041,4.041,0,0,0,.336,1.82V0Zm-1.867-1.57a1.945,1.945,0,0,0,.922-.223,1.462,1.462,0,0,0,.625-.6V-3.844h-.844q-1.7,0-1.8,1.172l-.008.133a.9.9,0,0,0,.3.7A1.153,1.153,0,0,0-31.473-1.57Zm9.063-.094a1.481,1.481,0,0,0,1.016-.344,1.2,1.2,0,0,0,.406-.914h2.117a2.9,2.9,0,0,1-.469,1.574A3.093,3.093,0,0,1-20.6-.238a3.949,3.949,0,0,1-1.77.395A3.67,3.67,0,0,1-25.23-1,4.56,4.56,0,0,1-26.277-4.18v-.148a4.508,4.508,0,0,1,1.039-3.117,3.627,3.627,0,0,1,2.852-1.164,3.555,3.555,0,0,1,2.543.9,3.2,3.2,0,0,1,.973,2.4h-2.117a1.551,1.551,0,0,0-.406-1.072,1.354,1.354,0,0,0-1.031-.412,1.36,1.36,0,0,0-1.191.575,3.333,3.333,0,0,0-.4,1.866v.235a3.375,3.375,0,0,0,.4,1.878A1.377,1.377,0,0,0-22.41-1.664ZM-15.2,0h-2.266V-8.453H-15.2Zm-2.4-10.641a1.112,1.112,0,0,1,.34-.836,1.277,1.277,0,0,1,.926-.328,1.28,1.28,0,0,1,.922.328,1.105,1.105,0,0,1,.344.836,1.108,1.108,0,0,1-.348.844,1.283,1.283,0,0,1-.918.328A1.283,1.283,0,0,1-17.25-9.8,1.108,1.108,0,0,1-17.6-10.641ZM-13.691-4.3a5.013,5.013,0,0,1,.484-2.242A3.546,3.546,0,0,1-11.812-8.07,4.069,4.069,0,0,1-9.7-8.609,3.849,3.849,0,0,1-6.906-7.562,4.2,4.2,0,0,1-5.7-4.719l.016.578A4.418,4.418,0,0,1-6.77-1.02,3.775,3.775,0,0,1-9.684.156,3.793,3.793,0,0,1-12.6-1.016,4.5,4.5,0,0,1-13.691-4.2Zm2.258.16A3.16,3.16,0,0,0-10.98-2.3a1.5,1.5,0,0,0,1.3.638A1.5,1.5,0,0,0-8.4-2.294a3.457,3.457,0,0,0,.461-2.015A3.128,3.128,0,0,0-8.4-6.14a1.5,1.5,0,0,0-1.3-.649,1.474,1.474,0,0,0-1.281.646A3.516,3.516,0,0,0-11.434-4.144Zm9.219-4.309.07.977A2.951,2.951,0,0,1,.285-8.609a2.453,2.453,0,0,1,2,.789,3.682,3.682,0,0,1,.672,2.359V0H.7V-5.406A1.465,1.465,0,0,0,.387-6.449,1.4,1.4,0,0,0-.652-6.773a1.553,1.553,0,0,0-1.43.813V0H-4.34V-8.453ZM8.559.156A4.15,4.15,0,0,1,5.531-.984,4.054,4.054,0,0,1,4.363-4.023v-.219A5.106,5.106,0,0,1,4.855-6.52,3.612,3.612,0,0,1,6.25-8.066a3.914,3.914,0,0,1,2.059-.543,3.508,3.508,0,0,1,2.73,1.094,4.444,4.444,0,0,1,1,3.1v.922H6.652a2.1,2.1,0,0,0,.66,1.328,2,2,0,0,0,1.395.5,2.437,2.437,0,0,0,2.039-.945l1.109,1.242A3.389,3.389,0,0,1,10.48-.246,4.511,4.511,0,0,1,8.559.156ZM8.3-6.789a1.411,1.411,0,0,0-1.09.455,2.357,2.357,0,0,0-.535,1.3H9.816v-.181A1.681,1.681,0,0,0,9.41-6.377,1.456,1.456,0,0,0,8.3-6.789Zm9.594,4.453a.727.727,0,0,0-.41-.652,4.659,4.659,0,0,0-1.316-.426q-3.016-.633-3.016-2.562a2.323,2.323,0,0,1,.934-1.879,3.766,3.766,0,0,1,2.441-.754,4.053,4.053,0,0,1,2.574.758,2.388,2.388,0,0,1,.965,1.969H17.809a1.092,1.092,0,0,0-.312-.8A1.322,1.322,0,0,0,16.52-7a1.351,1.351,0,0,0-.883.258.814.814,0,0,0-.312.656.7.7,0,0,0,.355.605,3.657,3.657,0,0,0,1.2.4A9.8,9.8,0,0,1,18.3-4.7,2.336,2.336,0,0,1,20.09-2.43,2.2,2.2,0,0,1,19.1-.559a4.28,4.28,0,0,1-2.562.715,4.47,4.47,0,0,1-1.887-.379,3.166,3.166,0,0,1-1.293-1.039,2.414,2.414,0,0,1-.469-1.426h2.141a1.179,1.179,0,0,0,.445.922,1.766,1.766,0,0,0,1.109.32,1.635,1.635,0,0,0,.98-.246A.766.766,0,0,0,17.895-2.336ZM30.426,0A2.507,2.507,0,0,1,30.2-.758a2.732,2.732,0,0,1-2.133.914,3,3,0,0,1-2.059-.719,2.312,2.312,0,0,1-.816-1.812,2.389,2.389,0,0,1,1-2.062,4.915,4.915,0,0,1,2.879-.727h1.039v-.484a1.393,1.393,0,0,0-.3-.937,1.183,1.183,0,0,0-.949-.352,1.345,1.345,0,0,0-.895.273.929.929,0,0,0-.324.75H25.379a2.268,2.268,0,0,1,.453-1.359,3,3,0,0,1,1.281-.98,4.669,4.669,0,0,1,1.859-.355,3.689,3.689,0,0,1,2.48.785,2.747,2.747,0,0,1,.918,2.207v3.664a4.041,4.041,0,0,0,.336,1.82V0ZM28.559-1.57a1.945,1.945,0,0,0,.922-.223,1.462,1.462,0,0,0,.625-.6V-3.844h-.844q-1.7,0-1.8,1.172l-.008.133a.9.9,0,0,0,.3.7A1.153,1.153,0,0,0,28.559-1.57Zm7.664-6.883.07.945a2.971,2.971,0,0,1,2.43-1.1A2.255,2.255,0,0,1,40.965-7.32,2.9,2.9,0,0,1,43.5-8.609a2.521,2.521,0,0,1,2.047.8,3.681,3.681,0,0,1,.672,2.41V0H43.957V-5.391a1.61,1.61,0,0,0-.281-1.051,1.246,1.246,0,0,0-.992-.332,1.409,1.409,0,0,0-1.406.969L41.285,0H39.027V-5.383a1.59,1.59,0,0,0-.289-1.062,1.259,1.259,0,0,0-.984-.328,1.463,1.463,0,0,0-1.391.8V0H34.105V-8.453Zm19.352,4.3A5.119,5.119,0,0,1,54.707-.98,2.872,2.872,0,0,1,52.285.156,2.639,2.639,0,0,1,50.09-.9l-.1.9H47.957V-12h2.258v4.3a2.571,2.571,0,0,1,2.055-.914A2.9,2.9,0,0,1,54.7-7.473a5.126,5.126,0,0,1,.879,3.2Zm-2.258-.164a3.363,3.363,0,0,0-.406-1.871,1.374,1.374,0,0,0-1.211-.59,1.489,1.489,0,0,0-1.484.883v3.336a1.509,1.509,0,0,0,1.5.891,1.394,1.394,0,0,0,1.438-1.078A5.562,5.562,0,0,0,53.316-4.312ZM59.348,0H57.082V-8.453h2.266Zm-2.4-10.641a1.112,1.112,0,0,1,.34-.836,1.277,1.277,0,0,1,.926-.328,1.28,1.28,0,0,1,.922.328,1.105,1.105,0,0,1,.344.836,1.108,1.108,0,0,1-.348.844,1.283,1.283,0,0,1-.918.328A1.283,1.283,0,0,1,57.3-9.8,1.108,1.108,0,0,1,56.949-10.641ZM65.1.156A4.15,4.15,0,0,1,62.07-.984,4.054,4.054,0,0,1,60.9-4.023v-.219a5.106,5.106,0,0,1,.492-2.277,3.612,3.612,0,0,1,1.395-1.547,3.914,3.914,0,0,1,2.059-.543,3.508,3.508,0,0,1,2.73,1.094,4.444,4.444,0,0,1,1,3.1v.922H63.191a2.1,2.1,0,0,0,.66,1.328,2,2,0,0,0,1.395.5,2.437,2.437,0,0,0,2.039-.945l1.109,1.242A3.389,3.389,0,0,1,67.02-.246,4.511,4.511,0,0,1,65.1.156ZM64.84-6.789a1.411,1.411,0,0,0-1.09.455,2.357,2.357,0,0,0-.535,1.3h3.141v-.181a1.681,1.681,0,0,0-.406-1.165A1.456,1.456,0,0,0,64.84-6.789Zm7.094-1.664.07.977a2.951,2.951,0,0,1,2.43-1.133,2.453,2.453,0,0,1,2,.789,3.682,3.682,0,0,1,.672,2.359V0H74.848V-5.406a1.465,1.465,0,0,0-.312-1.043A1.4,1.4,0,0,0,73.5-6.773a1.553,1.553,0,0,0-1.43.813V0H69.809V-8.453Zm9.586-2.078v2.078h1.445V-6.8H81.52v4.219a1.007,1.007,0,0,0,.18.672.9.9,0,0,0,.688.2,3.6,3.6,0,0,0,.664-.055V-.047a4.648,4.648,0,0,1-1.367.2,2.156,2.156,0,0,1-2.422-2.4V-6.8H78.027V-8.453h1.234v-2.078ZM89.121,0a2.507,2.507,0,0,1-.227-.758,2.732,2.732,0,0,1-2.133.914A3,3,0,0,1,84.7-.562a2.312,2.312,0,0,1-.816-1.812,2.389,2.389,0,0,1,1-2.062,4.915,4.915,0,0,1,2.879-.727H88.8v-.484a1.393,1.393,0,0,0-.3-.937,1.183,1.183,0,0,0-.949-.352,1.345,1.345,0,0,0-.895.273.929.929,0,0,0-.324.75H84.074a2.268,2.268,0,0,1,.453-1.359,3,3,0,0,1,1.281-.98,4.669,4.669,0,0,1,1.859-.355,3.689,3.689,0,0,1,2.48.785,2.747,2.747,0,0,1,.918,2.207v3.664A4.041,4.041,0,0,0,91.4-.133V0ZM87.254-1.57a1.945,1.945,0,0,0,.922-.223,1.462,1.462,0,0,0,.625-.6V-3.844h-.844q-1.7,0-1.8,1.172l-.008.133a.9.9,0,0,0,.3.7A1.153,1.153,0,0,0,87.254-1.57ZM95.184,0H92.918V-12h2.266Zm5.75.156A4.15,4.15,0,0,1,97.906-.984a4.054,4.054,0,0,1-1.168-3.039v-.219A5.106,5.106,0,0,1,97.23-6.52a3.612,3.612,0,0,1,1.395-1.547,3.914,3.914,0,0,1,2.059-.543,3.508,3.508,0,0,1,2.73,1.094,4.444,4.444,0,0,1,1,3.1v.922H99.027a2.1,2.1,0,0,0,.66,1.328,2,2,0,0,0,1.395.5,2.437,2.437,0,0,0,2.039-.945l1.109,1.242a3.389,3.389,0,0,1-1.375,1.121A4.511,4.511,0,0,1,100.934.156Zm-.258-6.945a1.411,1.411,0,0,0-1.09.455,2.357,2.357,0,0,0-.535,1.3h3.141v-.181a1.681,1.681,0,0,0-.406-1.165A1.456,1.456,0,0,0,100.676-6.789Zm9.594,4.453a.727.727,0,0,0-.41-.652,4.659,4.659,0,0,0-1.316-.426q-3.016-.633-3.016-2.562a2.323,2.323,0,0,1,.934-1.879,3.766,3.766,0,0,1,2.441-.754,4.053,4.053,0,0,1,2.574.758,2.388,2.388,0,0,1,.965,1.969h-2.258a1.092,1.092,0,0,0-.312-.8A1.322,1.322,0,0,0,108.895-7a1.351,1.351,0,0,0-.883.258.814.814,0,0,0-.312.656.7.7,0,0,0,.355.605,3.657,3.657,0,0,0,1.2.4,9.8,9.8,0,0,1,1.422.379,2.336,2.336,0,0,1,1.789,2.273,2.2,2.2,0,0,1-.992,1.871,4.28,4.28,0,0,1-2.562.715,4.47,4.47,0,0,1-1.887-.379,3.166,3.166,0,0,1-1.293-1.039,2.414,2.414,0,0,1-.469-1.426H107.4a1.179,1.179,0,0,0,.445.922,1.766,1.766,0,0,0,1.109.32,1.635,1.635,0,0,0,.98-.246A.766.766,0,0,0,110.27-2.336Z" transform="translate(951 1613.5)"/>
          <path id="Path_824429" data-name="Path 824429" d="M3.508,0H1.164V-11.375H3.508Zm4.1-8.453.07.977a2.951,2.951,0,0,1,2.43-1.133,2.453,2.453,0,0,1,2,.789,3.682,3.682,0,0,1,.672,2.359V0H10.523V-5.406a1.465,1.465,0,0,0-.312-1.043,1.4,1.4,0,0,0-1.039-.324,1.553,1.553,0,0,0-1.43.813V0H5.484V-8.453ZM19.07-2.336a.727.727,0,0,0-.41-.652,4.659,4.659,0,0,0-1.316-.426q-3.016-.633-3.016-2.562a2.323,2.323,0,0,1,.934-1.879A3.766,3.766,0,0,1,17.7-8.609a4.053,4.053,0,0,1,2.574.758,2.388,2.388,0,0,1,.965,1.969H18.984a1.092,1.092,0,0,0-.312-.8A1.322,1.322,0,0,0,17.7-7a1.351,1.351,0,0,0-.883.258.814.814,0,0,0-.312.656.7.7,0,0,0,.355.605,3.657,3.657,0,0,0,1.2.4,9.8,9.8,0,0,1,1.422.379A2.336,2.336,0,0,1,21.266-2.43a2.2,2.2,0,0,1-.992,1.871,4.28,4.28,0,0,1-2.562.715,4.47,4.47,0,0,1-1.887-.379,3.166,3.166,0,0,1-1.293-1.039,2.414,2.414,0,0,1-.469-1.426H16.2a1.179,1.179,0,0,0,.445.922,1.766,1.766,0,0,0,1.109.32,1.635,1.635,0,0,0,.98-.246A.766.766,0,0,0,19.07-2.336ZM27.781-.859A2.831,2.831,0,0,1,25.469.156a2.67,2.67,0,0,1-2.074-.781,3.335,3.335,0,0,1-.73-2.289V-8.453h2.258v5.467q0,1.322,1.2,1.322a1.63,1.63,0,0,0,1.578-.8V-8.453h2.266V0H27.844Zm6.008-7.594.07.945a2.971,2.971,0,0,1,2.43-1.1A2.255,2.255,0,0,1,38.531-7.32,2.9,2.9,0,0,1,41.07-8.609a2.521,2.521,0,0,1,2.047.8,3.681,3.681,0,0,1,.672,2.41V0H41.523V-5.391a1.61,1.61,0,0,0-.281-1.051,1.246,1.246,0,0,0-.992-.332,1.409,1.409,0,0,0-1.406.969L38.852,0H36.594V-5.383A1.59,1.59,0,0,0,36.3-6.445a1.259,1.259,0,0,0-.984-.328,1.463,1.463,0,0,0-1.391.8V0H31.672V-8.453ZM45.172-4.3a5.013,5.013,0,0,1,.484-2.242A3.546,3.546,0,0,1,47.051-8.07a4.069,4.069,0,0,1,2.113-.539,3.849,3.849,0,0,1,2.793,1.047,4.2,4.2,0,0,1,1.207,2.844l.016.578A4.418,4.418,0,0,1,52.094-1.02,3.775,3.775,0,0,1,49.18.156a3.793,3.793,0,0,1-2.918-1.172A4.5,4.5,0,0,1,45.172-4.2Zm2.258.16A3.16,3.16,0,0,0,47.883-2.3a1.5,1.5,0,0,0,1.3.638,1.5,1.5,0,0,0,1.281-.63,3.457,3.457,0,0,0,.461-2.015,3.128,3.128,0,0,0-.461-1.831,1.5,1.5,0,0,0-1.3-.649,1.474,1.474,0,0,0-1.281.646A3.516,3.516,0,0,0,47.43-4.144ZM59.148-2.336a.727.727,0,0,0-.41-.652,4.659,4.659,0,0,0-1.316-.426q-3.016-.633-3.016-2.562a2.323,2.323,0,0,1,.934-1.879,3.766,3.766,0,0,1,2.441-.754,4.053,4.053,0,0,1,2.574.758,2.388,2.388,0,0,1,.965,1.969H59.063a1.092,1.092,0,0,0-.312-.8A1.322,1.322,0,0,0,57.773-7a1.351,1.351,0,0,0-.883.258.814.814,0,0,0-.312.656.7.7,0,0,0,.355.605,3.657,3.657,0,0,0,1.2.4,9.8,9.8,0,0,1,1.422.379A2.336,2.336,0,0,1,61.344-2.43a2.2,2.2,0,0,1-.992,1.871,4.28,4.28,0,0,1-2.562.715A4.47,4.47,0,0,1,55.9-.223a3.166,3.166,0,0,1-1.293-1.039,2.414,2.414,0,0,1-.469-1.426h2.141a1.179,1.179,0,0,0,.445.922,1.766,1.766,0,0,0,1.109.32,1.635,1.635,0,0,0,.98-.246A.766.766,0,0,0,59.148-2.336ZM66.43-4.289a5.094,5.094,0,0,1,.887-3.148,2.877,2.877,0,0,1,2.426-1.172,2.589,2.589,0,0,1,2.039.922V-12h2.266V0H72.008L71.9-.9A2.657,2.657,0,0,1,69.727.156,2.869,2.869,0,0,1,67.332-1.02,5.258,5.258,0,0,1,66.43-4.289Zm2.258.168A3.337,3.337,0,0,0,69.1-2.3a1.349,1.349,0,0,0,1.2.634,1.511,1.511,0,0,0,1.477-.884V-5.889a1.489,1.489,0,0,0-1.461-.884Q68.688-6.773,68.688-4.121Zm11,4.277A4.15,4.15,0,0,1,76.66-.984a4.054,4.054,0,0,1-1.168-3.039v-.219a5.106,5.106,0,0,1,.492-2.277,3.612,3.612,0,0,1,1.395-1.547,3.914,3.914,0,0,1,2.059-.543,3.508,3.508,0,0,1,2.73,1.094,4.444,4.444,0,0,1,1,3.1v.922H77.781a2.1,2.1,0,0,0,.66,1.328,2,2,0,0,0,1.395.5,2.437,2.437,0,0,0,2.039-.945l1.109,1.242A3.389,3.389,0,0,1,81.609-.246,4.511,4.511,0,0,1,79.688.156ZM79.43-6.789a1.411,1.411,0,0,0-1.09.455,2.357,2.357,0,0,0-.535,1.3h3.141v-.181a1.681,1.681,0,0,0-.406-1.165A1.456,1.456,0,0,0,79.43-6.789ZM90.547-8.453l.07.945a2.971,2.971,0,0,1,2.43-1.1A2.255,2.255,0,0,1,95.289-7.32a2.9,2.9,0,0,1,2.539-1.289,2.521,2.521,0,0,1,2.047.8,3.681,3.681,0,0,1,.672,2.41V0H98.281V-5.391A1.61,1.61,0,0,0,98-6.441a1.246,1.246,0,0,0-.992-.332A1.409,1.409,0,0,0,95.6-5.8L95.609,0H93.352V-5.383a1.59,1.59,0,0,0-.289-1.062,1.259,1.259,0,0,0-.984-.328,1.463,1.463,0,0,0-1.391.8V0H88.43V-8.453ZM101.93-4.3a5.013,5.013,0,0,1,.484-2.242,3.546,3.546,0,0,1,1.395-1.523,4.069,4.069,0,0,1,2.113-.539,3.849,3.849,0,0,1,2.793,1.047,4.2,4.2,0,0,1,1.207,2.844l.016.578a4.418,4.418,0,0,1-1.086,3.121A3.775,3.775,0,0,1,105.938.156a3.793,3.793,0,0,1-2.918-1.172A4.5,4.5,0,0,1,101.93-4.2Zm2.258.16a3.16,3.16,0,0,0,.453,1.843,1.5,1.5,0,0,0,1.3.638,1.5,1.5,0,0,0,1.281-.63,3.457,3.457,0,0,0,.461-2.015,3.128,3.128,0,0,0-.461-1.831,1.5,1.5,0,0,0-1.3-.649,1.474,1.474,0,0,0-1.281.646A3.516,3.516,0,0,0,104.188-4.144Zm6.789-.145a5.094,5.094,0,0,1,.887-3.148,2.877,2.877,0,0,1,2.426-1.172,2.589,2.589,0,0,1,2.039.922V-12h2.266V0h-2.039l-.109-.9A2.657,2.657,0,0,1,114.273.156a2.869,2.869,0,0,1-2.395-1.176A5.258,5.258,0,0,1,110.977-4.289Zm2.258.168a3.337,3.337,0,0,0,.414,1.823,1.349,1.349,0,0,0,1.2.634,1.511,1.511,0,0,0,1.477-.884V-5.889a1.489,1.489,0,0,0-1.461-.884Q113.234-6.773,113.234-4.121Zm11,4.277a4.15,4.15,0,0,1-3.027-1.141,4.054,4.054,0,0,1-1.168-3.039v-.219a5.106,5.106,0,0,1,.492-2.277,3.612,3.612,0,0,1,1.395-1.547,3.914,3.914,0,0,1,2.059-.543,3.508,3.508,0,0,1,2.73,1.094,4.444,4.444,0,0,1,1,3.1v.922h-5.383a2.1,2.1,0,0,0,.66,1.328,2,2,0,0,0,1.395.5,2.437,2.437,0,0,0,2.039-.945l1.109,1.242a3.389,3.389,0,0,1-1.375,1.121A4.511,4.511,0,0,1,124.234.156Zm-.258-6.945a1.411,1.411,0,0,0-1.09.455,2.357,2.357,0,0,0-.535,1.3h3.141v-.181a1.681,1.681,0,0,0-.406-1.165A1.456,1.456,0,0,0,123.977-6.789ZM131.375,0h-2.266V-12h2.266Zm1.508-4.3a5.013,5.013,0,0,1,.484-2.242,3.546,3.546,0,0,1,1.395-1.523,4.069,4.069,0,0,1,2.113-.539,3.849,3.849,0,0,1,2.793,1.047,4.2,4.2,0,0,1,1.207,2.844l.016.578A4.418,4.418,0,0,1,139.8-1.02,3.775,3.775,0,0,1,136.891.156a3.793,3.793,0,0,1-2.918-1.172,4.5,4.5,0,0,1-1.09-3.187Zm2.258.16a3.16,3.16,0,0,0,.453,1.843,1.5,1.5,0,0,0,1.3.638,1.5,1.5,0,0,0,1.281-.63,3.457,3.457,0,0,0,.461-2.015,3.128,3.128,0,0,0-.461-1.831,1.5,1.5,0,0,0-1.3-.649,1.474,1.474,0,0,0-1.281.646A3.516,3.516,0,0,0,135.141-4.144Zm11.719,1.808a.727.727,0,0,0-.41-.652,4.659,4.659,0,0,0-1.316-.426q-3.016-.633-3.016-2.562a2.323,2.323,0,0,1,.934-1.879,3.766,3.766,0,0,1,2.441-.754,4.053,4.053,0,0,1,2.574.758,2.388,2.388,0,0,1,.965,1.969h-2.258a1.092,1.092,0,0,0-.312-.8A1.322,1.322,0,0,0,145.484-7a1.351,1.351,0,0,0-.883.258.814.814,0,0,0-.312.656.7.7,0,0,0,.355.605,3.657,3.657,0,0,0,1.2.4,9.8,9.8,0,0,1,1.422.379,2.336,2.336,0,0,1,1.789,2.273,2.205,2.205,0,0,1-.992,1.871A4.28,4.28,0,0,1,145.5.156a4.47,4.47,0,0,1-1.887-.379,3.166,3.166,0,0,1-1.293-1.039,2.414,2.414,0,0,1-.469-1.426h2.141a1.179,1.179,0,0,0,.445.922,1.766,1.766,0,0,0,1.109.32,1.635,1.635,0,0,0,.98-.246A.766.766,0,0,0,146.859-2.336Z" transform="translate(505 1550)"/>
          <g id="Group_1073947" data-name="Group 1073947" transform="translate(526.433 1430.664)">
            <g id="Group_1073946" data-name="Group 1073946" clip-path="url(#clip-path)">
              <path id="Path_823510" data-name="Path 823510" d="M17.918,3.858a33.633,33.633,0,0,1,4.844-.013,1.731,1.731,0,0,0,1.883,1.435l37.361.007a4.763,4.763,0,0,0,1.466.02l4.914,0a1.1,1.1,0,0,0,.55.037.485.485,0,0,1,.423.569c-.014.22-.017.447-.27.516-1.062.29-1.31,1.087-1.31,2.052q0,11.612,0,23.225a1.913,1.913,0,0,0,.941,1.838,1.536,1.536,0,0,1,.026,2.518,1.849,1.849,0,0,0-.955,1.638.049.049,0,0,0-.006.08q0,11.911-.008,23.823a1.867,1.867,0,0,0,.946,1.781,1.485,1.485,0,0,1,.109,2.4,2.438,2.438,0,0,0-1.061,2.351c.016,6.847.009,13.693.013,20.54,0,.994.018,1.988.027,2.982-.007.01-.023.024-.021.028a.361.361,0,0,0,.04.053,1.644,1.644,0,0,0,1.14,1.249.528.528,0,0,1,.4.548c-.009.323-.091.544-.424.621l-.044-.01-.03.033-5.089.027c-.03-.047-.059-.04-.085,0l-.709,0c-.028-.045-.057-.048-.088,0-.481,0-.962-.013-1.443-.013q-24.259,0-48.518,0c-1.558,0-3.117.03-4.675.042a.613.613,0,0,1-.7-.532.577.577,0,0,1,.562-.711c1.233-.2,1.612-.822,1.616-2.086.01-3.815,0-7.631,0-11.446s-.01-7.629,0-11.444A1.893,1.893,0,0,0,8.49,66.029a1.393,1.393,0,0,1-.927-1.285,1.416,1.416,0,0,1,.907-1.46,1.97,1.97,0,0,0,1.28-2.117c-.026-3.118-.009-6.236-.01-9.354,0-4.528-.01-9.056,0-13.583A1.893,1.893,0,0,0,8.485,36.2a1.189,1.189,0,0,1-.178-.088,1.455,1.455,0,0,1-.647-1.776c.241-.7.905-.869,1.445-1.2.075-.045.187.01.237-.125a3.882,3.882,0,0,0,.4-1.361Q9.73,20.062,9.737,8.469A1.8,1.8,0,0,0,8.207,6.5c-.334-.022-.681-.172-.645-.6a.6.6,0,0,1,.688-.594c.038.036.068.028.093-.015l.212,0a.341.341,0,0,0,.381,0h6.882c.03.044.059.043.087,0l.316-.005c.064.066.121.046.175-.015a2.058,2.058,0,0,0,.6-.122,1.748,1.748,0,0,0,.919-1.287M37.51,70.907l.094.005.615.018.173,0a16.728,16.728,0,0,0,4.3-.409A19.827,19.827,0,0,0,50.5,67.161a3.2,3.2,0,0,1,2.009-.591c2.62-.022,5.24,0,7.86-.008a1.487,1.487,0,0,0,.909-2.779,1.7,1.7,0,0,0-.93-.208c-1.708,0-3.416,0-5.124,0-.157,0-.374.078-.459-.076-.108-.2.113-.318.22-.453a20.212,20.212,0,0,0,2.487-3.94,25.64,25.64,0,0,0,1.454-3.8,1.592,1.592,0,0,0-.346-1.882,6.361,6.361,0,0,0-.572-.383c.023-.73.146-1.451.133-2.19-.009-.525.193-1.057.157-1.6.035-.1.13-.076.2-.1a1.44,1.44,0,0,0,1.012-1.415,12.124,12.124,0,0,0-.635-3.794,21.146,21.146,0,0,0-3.916-7.525c-.1-.131-.361-.24-.24-.434.1-.155.338-.066.515-.066,1.741,0,3.483.009,5.224,0,.738,0,1.485-.508,1.525-1.082.066-.927-.028-1.422-.909-1.773a2.292,2.292,0,0,0-.858-.133c-2.455,0-4.91-.031-7.364.019a4.112,4.112,0,0,1-2.616-.788,19.078,19.078,0,0,0-7.054-3.042A25.768,25.768,0,0,0,39,28.553a17.652,17.652,0,0,0-2.173.076,18.913,18.913,0,0,0-2.67.357,21.334,21.334,0,0,0-8.172,3.685,1.309,1.309,0,0,1-.83.261c-1.476-.014-2.952-.006-4.428-.006-1.41,0-2.82-.011-4.229,0a1.482,1.482,0,0,0-1.454,2,1.552,1.552,0,0,0,1.53.98c1.725.01,3.45,0,5.174.011.188,0,.4-.069.521.04Q12.2,49.809,22.338,63.577h-.663c-1.742,0-3.483-.005-5.225,0a1.574,1.574,0,0,0-1.515,1.209,1.593,1.593,0,0,0,.771,1.556,2.129,2.129,0,0,0,1.059.218c2.753,0,5.506,0,8.259-.013a1.8,1.8,0,0,1,1.106.353c.512.365,1.035.718,1.576,1.038a20.712,20.712,0,0,0,9.8,2.964" transform="translate(-4.533 -2.261)" fill="#e86672"/>
              <path id="Path_823511" data-name="Path 823511" d="M190.671,132.01a2.583,2.583,0,0,0-1.205-.2c-1.176.014-2.352.007-3.528.009a1.732,1.732,0,0,0-1.981-1.536q-8.183.008-16.366.026l-.19-.075a3.754,3.754,0,0,0-1.378-3.488.963.963,0,0,1-.163-.3c0-.036-.006-.073-.009-.109.009-.448.026-.9.027-1.343q0-6.791.007-13.582c0-.4-.218-.934.06-1.181s.825-.091,1.253-.093c1.625-.008,3.25,0,4.875-.019a1.57,1.57,0,0,0,1.454-1.219,1.488,1.488,0,0,0-.661-1.5,1.854,1.854,0,0,0-1.092-.267H166.3c-.271,0-.572.036-.487-.4.051-.022.085-.051.049-.111a17.942,17.942,0,0,0-.021-2.083l.038-.3c.3-.381.624-.743.891-1.145a4.743,4.743,0,0,0,.544-3.44,3.679,3.679,0,0,0-1.068-1.969,1.372,1.372,0,0,1-.4-.611,1.047,1.047,0,0,0,.016-.615c.006-1.9.016-3.809.014-5.713,0-1.142-.022-2.284-.035-3.425.009-.012.027-.028.024-.036a.48.48,0,0,0-.04-.074c.034-.344.3-.192.46-.192q7.41-.007,14.82,0,5.47,0,10.941-.011a1.474,1.474,0,0,0,1.5-2.118c-.3-.756-.984-.9-1.725-.9q-12.655.013-25.311.019a.074.074,0,0,0-.121,0c-.192-.023-.418.062-.544-.171,0-.069,0-.138.006-.207l.011-.195c0-.036.005-.072.008-.109,0-2.917.05-5.834-.028-8.751,0-.035.009-.07.014-.1a1.179,1.179,0,0,1,.321-.435,4.529,4.529,0,0,0-.028-6.277.945.945,0,0,1-.306-.757.266.266,0,0,0,.02-.3,15.5,15.5,0,0,0-.054-2.522c-.034-.193.049-.381.252-.31a2.88,2.88,0,0,0,1.022.02c5.085.007,10.17.019,15.255.008,3.743-.008,7.486.069,11.229-.048a2.974,2.974,0,0,0,1.09.015c.9.059,1.808,0,2.712-.014.056.071.111.068.165,0a2.812,2.812,0,0,1,.929.173c-.746.362-1.238.795-1.167,1.6-.011.007-.032.015-.031.021a.376.376,0,0,0,.02.067l-.006.625-.021.036.022.036q0,7.921,0,15.843a14.256,14.256,0,0,0,.053,1.785,1.378,1.378,0,0,0,.622,1c.735.522.8.881.145,1.474a1.87,1.87,0,0,0-.79,1.409c-.012.006-.034.014-.033.019a.385.385,0,0,0,.019.069q0,.461-.009.923l-.022.036.022.036q0,4.744-.009,9.488c0,2.4-.009,4.8,0,7.2a2.045,2.045,0,0,0,.706,1.859c.766.562.766.943.022,1.56a1.689,1.689,0,0,0-.7,1.3.247.247,0,0,0-.011.279q-.006,2.51-.012,5.02c0,4.093,0,8.185-.009,12.278a2.031,2.031,0,0,0,1.094,2.1c.06.029.094.092.034.206h-.852c-.055-.074-.113-.08-.175-.009-1.661-.072-3.323,0-4.984,0a.131.131,0,0,0-.195.014,1.569,1.569,0,0,0-1.513,1.7m-5.41-21.868v0c.547,0,1.094,0,1.64,0,1.773,0,3.545,0,5.318-.022a1.4,1.4,0,0,0,1.457-1.267,1.466,1.466,0,0,0-1.258-1.665,4.713,4.713,0,0,0-.692-.045q-6.486,0-12.972,0a3.262,3.262,0,0,0-.789.071,1.4,1.4,0,0,0-1.123,1.6,1.438,1.438,0,0,0,1.263,1.3,5.776,5.776,0,0,0,.744.031q3.206,0,6.412,0" transform="translate(-99.579 -38.35)" fill="#80cded"/>
              <path id="Path_823512" data-name="Path 823512" d="M66.262,36.24c.078,2.917.026,5.834.028,8.751-.062.032-.068.068-.008.108,0,.065-.008.13-.011.2a.123.123,0,0,0-.006.207c.126.232.351.149.544.171l.121,0q12.655-.008,25.311-.02c.74,0,1.427.146,1.725.9a1.474,1.474,0,0,1-1.5,2.118q-5.47.016-10.941.011-7.41,0-14.82,0c-.159,0-.427-.152-.46.192-.008.012-.025.028-.022.037a.454.454,0,0,0,.038.073c.012,1.142.034,2.284.035,3.426,0,1.9-.009,3.809-.014,5.713-.484.192-.012.409-.016.614a1.371,1.371,0,0,0,.4.611,3.678,3.678,0,0,1,1.068,1.969,4.742,4.742,0,0,1-.544,3.44c-.266.4-.592.765-.891,1.145-.129.084-.107.187-.038.3a17.933,17.933,0,0,1,.021,2.082l-.049.111c-.085.435.216.4.487.4H72.2a1.854,1.854,0,0,1,1.092.267,1.488,1.488,0,0,1,.661,1.5,1.57,1.57,0,0,1-1.454,1.219c-1.625.021-3.25.01-4.875.019-.428,0-.962-.165-1.253.093s-.059.777-.06,1.181q-.016,6.791-.007,13.582c0,.447-.018.9-.027,1.342-.057.042-.055.078.009.109a.963.963,0,0,0,.163.3,3.754,3.754,0,0,1,1.378,3.488c.023.125.106.1.19.075q8.183-.014,16.366-.027a1.733,1.733,0,0,1,1.981,1.537,1.8,1.8,0,0,1-1.795,1.568c-.361.028-.736-.091-1.114-.091q-39.552.008-79.1.005a5.167,5.167,0,0,1-2.07-.272A3.7,3.7,0,0,1,.028,91.509a3.127,3.127,0,0,1,1.239-2.843c.265-.195.515-.445.772-.669.163.006.2-.131.234-.238.02-.058-.059-.091-.127-.068,0-.067-.008-.135-.011-.2a.368.368,0,0,0-.019-.5c0-.066,0-.132,0-.2a.807.807,0,0,0,0-.8V79.83c.107-.067.105-.135,0-.2.008-.082.022-.164.022-.246q0-6.416-.008-12.832a.7.7,0,0,0-.289-.619,4.378,4.378,0,0,1-.3-6.9,1.744,1.744,0,0,0,.605-1.478q-.013-10.146,0-20.294a1.633,1.633,0,0,0-.572-1.4,4.07,4.07,0,0,1-1.53-3.569,4.466,4.466,0,0,1,1.76-3.3.7.7,0,0,0,.334-.616c-.007-.48,0-.961,0-1.442q0-9.475,0-18.951a1.56,1.56,0,0,1,0-.248,1.141,1.141,0,0,0-.56-1.217A3.477,3.477,0,0,1,1.357.858,3.378,3.378,0,0,1,3.643.031C6.28,0,8.917-.022,11.552.03A1.663,1.663,0,0,1,13.385,1.6a1.749,1.749,0,0,1-.919,1.287,2.051,2.051,0,0,1-.6.122l-.175.015-.316,0a.063.063,0,0,0-.087,0H4.4a.522.522,0,0,0-.381,0l-.212,0-.094.015a.6.6,0,0,0-.688.594c-.036.43.312.579.645.6A1.8,1.8,0,0,1,5.2,6.207q0,11.593.008,23.186a3.892,3.892,0,0,1-.4,1.361c-.049.135-.162.08-.236.125-.54.327-1.2.494-1.445,1.2a1.456,1.456,0,0,0,.647,1.777,1.229,1.229,0,0,0,.178.088,1.892,1.892,0,0,1,1.259,2.027c-.015,4.528,0,9.056,0,13.583,0,3.118-.016,6.236.01,9.354a1.969,1.969,0,0,1-1.28,2.117,1.416,1.416,0,0,0-.907,1.46,1.394,1.394,0,0,0,.927,1.285,1.893,1.893,0,0,1,1.253,1.984c-.014,3.815,0,7.629,0,11.444s.007,7.631,0,11.446c0,1.264-.383,1.887-1.616,2.086a.577.577,0,0,0-.562.711.613.613,0,0,0,.7.532c1.558-.012,3.117-.042,4.675-.042q24.259,0,48.518,0c.481,0,.962.008,1.443.013l.044.02.045-.016.709,0,.044.015.042-.018,5.088-.026c.039.038.061.023.074-.023.333-.077.415-.3.424-.621a.528.528,0,0,0-.4-.548A1.642,1.642,0,0,1,63.3,89.475c.006-.01.02-.023.018-.029a.368.368,0,0,0-.038-.052c-.01-.994-.027-1.988-.027-2.982,0-6.847,0-13.693-.013-20.54A2.438,2.438,0,0,1,64.3,63.521a1.485,1.485,0,0,0-.109-2.4,1.867,1.867,0,0,1-.946-1.781q.011-11.911.008-23.822c.01-.007.029-.016.028-.02a.39.39,0,0,0-.022-.06,1.849,1.849,0,0,1,.955-1.638,1.536,1.536,0,0,0-.026-2.518,1.912,1.912,0,0,1-.941-1.838q.008-11.612,0-23.225c0-.965.248-1.762,1.31-2.052.253-.069.257-.3.271-.516a.486.486,0,0,0-.423-.569.545.545,0,0,0-.55-.037l-4.913,0a5.217,5.217,0,0,0-1.467-.02L20.112,3.019a1.731,1.731,0,0,1-1.883-1.435C18.718.249,19.063.01,20.506.01q21.745,0,43.49,0a4,4,0,0,1,3.577,2.121,3.856,3.856,0,0,1-.687,3.948c-.23.241-.6.383-.641.779a.25.25,0,0,0,0,.247l-.029.274c-.034.026-.088.045-.1.077-.02.071.022.115.1.121a2.353,2.353,0,0,1,.022.8c-.208.216-.236.424.03.617q0,6.3.008,12.6c-.091,0-.155.04-.142.138a.118.118,0,0,0,.138.1l.007.641c-.006.022-.011.043-.016.064l.058-.017c.761,0,1.523.009,2.284.009l30.152-.009a3.117,3.117,0,0,1,2.927,2.07,2.994,2.994,0,0,1-.7,3.195.746.746,0,0,0-.234.608q.008,7.712-.006,15.423a2.3,2.3,0,0,0,.482,1.58,3.666,3.666,0,0,1-.275,4.535.821.821,0,0,0-.215.633q.01,8.159.006,16.318a1.156,1.156,0,0,0,.357.826,3.8,3.8,0,0,1-.07,4.692,1.1,1.1,0,0,0-.279.8q0,7.96-.016,15.92a.731.731,0,0,0,.241.56,3.021,3.021,0,0,1,.666,3.356,3.091,3.091,0,0,1-2.914,1.922c-2.073.019-4.146,0-6.219,0a1.7,1.7,0,0,1-1.422-1.289,1.57,1.57,0,0,1,1.513-1.7l.2-.014c1.662,0,3.323-.074,4.984,0l.175.009h.853c.06-.113.026-.177-.034-.206a2.031,2.031,0,0,1-1.094-2.1c.01-4.092.006-8.185.009-12.278q0-2.51.012-5.02a.194.194,0,0,0,.011-.279,1.689,1.689,0,0,1,.7-1.3c.744-.617.744-1-.022-1.56a2.044,2.044,0,0,1-.706-1.858c-.008-2.4,0-4.8,0-7.2q0-4.744.009-9.488l.036-.015-.036-.057q0-.461.009-.922c.012-.006.035-.014.034-.018a.435.435,0,0,0-.02-.07,1.87,1.87,0,0,1,.79-1.409c.651-.593.59-.952-.145-1.474a1.376,1.376,0,0,1-.622-1,14.255,14.255,0,0,1-.053-1.785q0-7.922,0-15.843l.036-.015-.037-.057q0-.313.006-.625c.012-.006.035-.015.034-.019a.483.483,0,0,0-.023-.069c-.07-.8.421-1.234,1.167-1.6a2.792,2.792,0,0,0-.929-.173l-.165,0c-.9.012-1.808.073-2.712.014a2.985,2.985,0,0,0-1.09-.015c-3.743.117-7.486.04-11.229.048-5.085.012-10.17,0-15.255-.008a2.88,2.88,0,0,1-1.022-.02c-.2-.071-.286.117-.252.31a15.506,15.506,0,0,1,.054,2.522c-.224.087-.216.189-.02.3a.946.946,0,0,0,.306.758A4.529,4.529,0,0,1,66.6,35.7a1.177,1.177,0,0,0-.321.435c-.068.027-.068.062-.014.105" transform="translate(0 0)" fill="#060607"/>
              <path id="Path_823513" data-name="Path 823513" d="M5.11,215.322a.807.807,0,0,1,0,.8.73.73,0,0,1,0-.8" transform="translate(-2.998 -129.322)" fill="#49424e"/>
              <path id="Path_823514" data-name="Path 823514" d="M165.64,21.573c-.266-.194-.237-.4-.029-.617a.857.857,0,0,1,.029.617" transform="translate(-99.368 -12.586)" fill="#49424e"/>
              <path id="Path_823515" data-name="Path 823515" d="M5.114,217.815a.367.367,0,0,1,.019.5.3.3,0,0,1-.019-.5" transform="translate(-2.998 -130.82)" fill="#49424e"/>
              <path id="Path_823516" data-name="Path 823516" d="M5.184,219.549c.069-.022.147.011.127.069-.036.107-.071.244-.234.238,0-.116-.082-.258.106-.307" transform="translate(-3.038 -131.857)" fill="#49424e"/>
              <path id="Path_823517" data-name="Path 823517" d="M5.127,199.374c.106.066.109.133,0,.2-.143-.066-.144-.133,0-.2" transform="translate(-3.015 -119.744)" fill="#49424e"/>
              <path id="Path_823518" data-name="Path 823518" d="M165.728,54.292a.118.118,0,0,1-.138-.1c-.013-.1.051-.137.142-.138a.231.231,0,0,1,0,.234" transform="translate(-99.453 -32.467)" fill="#49424e"/>
              <path id="Path_823519" data-name="Path 823519" d="M165.644,18.666c-.076-.006-.118-.05-.1-.121.009-.032.064-.052.1-.077q.153.1,0,.2" transform="translate(-99.424 -11.092)" fill="#49424e"/>
              <path id="Path_823520" data-name="Path 823520" d="M165.816,17.411a.252.252,0,0,1,0-.247c.17.08.2.163,0,.247" transform="translate(-99.569 -10.309)" fill="#49424e"/>
              <path id="Path_823521" data-name="Path 823521" d="M165.973,56.3l-.059.017.016-.064.037.01Z" transform="translate(-99.648 -33.783)" fill="#49424e"/>
              <path id="Path_823522" data-name="Path 823522" d="M77.512,91.035c.036.545-.166,1.077-.157,1.6.012.739-.111,1.46-.133,2.19-1.18-.026-1.616.3-1.972,1.513A18.09,18.09,0,0,1,58.4,109.646a16.3,16.3,0,0,1-4.086-.22A19.258,19.258,0,0,1,48,106.9,18.2,18.2,0,0,1,41.119,99a17.137,17.137,0,0,1-1.578-6.966,18.338,18.338,0,0,1,1.1-6.82,17.84,17.84,0,0,1,3.442-5.7A18.035,18.035,0,0,1,53.675,73.8a26.062,26.062,0,0,1,3.255-.437c.035.042.066.038.093-.008l.3-.01c.03.046.059.04.086,0h.316a3.382,3.382,0,0,0,.975.055c.543.015,1.073.133,1.607.2a17,17,0,0,1,4.108,1.036,18,18,0,0,1,8.149,6.433,17.32,17.32,0,0,1,3.17,8.3,1.633,1.633,0,0,0,1.774,1.663M45.4,90.107c-.066.007-.131.016-.2.02a2,2,0,0,0-2.029,1.65,4.354,4.354,0,0,0,.121,1.87,13.646,13.646,0,0,0,1.594,4.891A13.8,13.8,0,0,0,50.2,104.1a1.633,1.633,0,0,0,1.276.1c.857-.209,1.237-.887,1.626-1.564q1.632-2.84,3.253-5.685a.358.358,0,0,1,.468-.2,4.126,4.126,0,0,0,1.668.01c.389-.086.522.038.689.332,1.161,2.041,2.319,4.084,3.516,6.1a1.913,1.913,0,0,0,2.92.681A12.611,12.611,0,0,0,67.8,102.16a14.345,14.345,0,0,0,3.982-6.79,18.091,18.091,0,0,0,.457-2.434c.173-1.59-.212-2.592-1.907-2.823l-.024-.036-.027.033c-2.421.009-4.842.015-7.263.03a.463.463,0,0,1-.526-.38,2.82,2.82,0,0,0-.633-1.211c-.352-.367-.27-.658-.04-1.05,1.172-2,2.338-4,3.461-6.026a1.983,1.983,0,0,0-.748-2.724,11.5,11.5,0,0,0-3.151-1.229,14.653,14.653,0,0,0-4.781-.44,14.99,14.99,0,0,0-5.8,1.724,1.828,1.828,0,0,0-.755.832,1.945,1.945,0,0,0,.169,1.965q1.735,3.01,3.48,6.014a.673.673,0,0,1-.067.9,3.894,3.894,0,0,0-.709,1.245.513.513,0,0,1-.547.381q-3.457-.02-6.914-.032c-.02-.046-.04-.043-.059,0" transform="translate(-23.746 -44.051)" fill="#ffd767"/>
              <path id="Path_823523" data-name="Path 823523" d="M69.374,86.5A1.633,1.633,0,0,1,67.6,84.842a17.327,17.327,0,0,0-3.17-8.3,18,18,0,0,0-8.149-6.433,16.975,16.975,0,0,0-4.108-1.036c-.534-.068-1.064-.186-1.607-.2a1.772,1.772,0,0,0-.975-.055h-.315a.057.057,0,0,0-.086,0l-.3.01c-.035-.039-.066-.036-.093.008a26.052,26.052,0,0,0-3.255.437,18.035,18.035,0,0,0-9.594,5.707,17.85,17.85,0,0,0-3.442,5.7,18.33,18.33,0,0,0-1.1,6.82,17.13,17.13,0,0,0,1.577,6.966,18.2,18.2,0,0,0,6.882,7.9,19.266,19.266,0,0,0,6.313,2.527,16.3,16.3,0,0,0,4.086.22A18.091,18.091,0,0,0,67.112,91.809c.355-1.208.792-1.539,1.972-1.513a6.5,6.5,0,0,1,.572.383A1.592,1.592,0,0,1,70,92.561a25.719,25.719,0,0,1-1.454,3.8A20.21,20.21,0,0,1,66.06,100.3c-.107.135-.329.257-.22.454.085.153.3.075.459.075,1.708,0,3.416,0,5.124,0a1.7,1.7,0,0,1,.93.208,1.487,1.487,0,0,1-.909,2.778c-2.62,0-5.24-.014-7.86.008a3.2,3.2,0,0,0-2.009.591,19.824,19.824,0,0,1-7.806,3.363,16.744,16.744,0,0,1-4.3.409.109.109,0,0,0-.174,0l-.615-.018c-.029-.042-.06-.048-.094-.006a20.713,20.713,0,0,1-9.8-2.964c-.541-.321-1.064-.674-1.576-1.038a1.8,1.8,0,0,0-1.106-.353c-2.753.016-5.507.009-8.26.013a2.122,2.122,0,0,1-1.059-.218,1.592,1.592,0,0,1-.771-1.556,1.574,1.574,0,0,1,1.515-1.209c1.741-.009,3.483,0,5.224,0h.663Q23.26,87.031,33.343,73.223c-.123-.109-.333-.039-.52-.04-1.725-.009-3.45,0-5.175-.011a1.552,1.552,0,0,1-1.53-.98,1.483,1.483,0,0,1,1.453-2c1.41-.015,2.82,0,4.229,0,1.476,0,2.952-.007,4.429.006a1.309,1.309,0,0,0,.83-.26,21.329,21.329,0,0,1,8.172-3.685,18.915,18.915,0,0,1,2.67-.357,17.584,17.584,0,0,1,2.173-.075,25.778,25.778,0,0,1,4.189.558,19.094,19.094,0,0,1,7.054,3.042,4.113,4.113,0,0,0,2.616.788c2.454-.05,4.909-.015,7.364-.019a2.3,2.3,0,0,1,.858.132c.881.352.975.847.909,1.773-.041.573-.788,1.078-1.525,1.082-1.741.008-3.483,0-5.224,0-.177,0-.419-.089-.515.066-.121.194.136.3.24.435a21.128,21.128,0,0,1,3.916,7.524,12.114,12.114,0,0,1,.635,3.794A1.441,1.441,0,0,1,69.577,86.4c-.073.026-.168,0-.2.1" transform="translate(-15.609 -39.521)" fill="#060607"/>
              <path id="Path_823524" data-name="Path 823524" d="M143.9,7.515a5.217,5.217,0,0,1,1.467.02,4.768,4.768,0,0,1-1.467-.02" transform="translate(-86.424 -4.488)" fill="#49424e"/>
              <path id="Path_823525" data-name="Path 823525" d="M159.87,7.55a.545.545,0,0,1,.551.037,1.1,1.1,0,0,1-.551-.037" transform="translate(-96.018 -4.501)" fill="#49424e"/>
              <path id="Path_823526" data-name="Path 823526" d="M10.07,7.526a.52.52,0,0,1,.381,0,.341.341,0,0,1-.381,0" transform="translate(-6.048 -4.499)" fill="#49424e"/>
              <path id="Path_823527" data-name="Path 823527" d="M84.343,171.868a.11.11,0,0,1,.174,0l-.174,0" transform="translate(-50.656 -103.199)" fill="#49424e"/>
              <path id="Path_823528" data-name="Path 823528" d="M29.264,7.542l.175-.015c-.054.061-.111.08-.175.015" transform="translate(-17.576 -4.521)" fill="#49424e"/>
              <path id="Path_823529" data-name="Path 823529" d="M158.346,88.74a.375.375,0,0,1,.022.06s-.018.014-.028.02a.05.05,0,0,1,.006-.08" transform="translate(-95.088 -53.297)" fill="#49424e"/>
              <path id="Path_823530" data-name="Path 823530" d="M82.567,171.828c.034-.042.065-.036.094.005l-.094-.005" transform="translate(-49.59 -103.183)" fill="#49424e"/>
              <path id="Path_823531" data-name="Path 823531" d="M28.255,7.553a.062.062,0,0,1,.087,0c-.028.044-.057.046-.087,0" transform="translate(-16.97 -4.525)" fill="#49424e"/>
              <path id="Path_823532" data-name="Path 823532" d="M9.305,7.6,9.4,7.586c-.026.043-.056.051-.094.015" transform="translate(-5.589 -4.556)" fill="#49424e"/>
              <path id="Path_823533" data-name="Path 823533" d="M158.4,223.822a.318.318,0,0,1,.038.053c0,.005-.012.019-.018.029a.459.459,0,0,1-.041-.053s.014-.019.021-.028" transform="translate(-95.122 -134.428)" fill="#49424e"/>
              <path id="Path_823534" data-name="Path 823534" d="M146.216,230.152l-.045.016-.043-.019c.031-.045.06-.042.088,0" transform="translate(-87.765 -138.208)" fill="#49424e"/>
              <path id="Path_823535" data-name="Path 823535" d="M148.209,230.153l-.042.018-.044-.015c.027-.043.056-.051.086,0" transform="translate(-88.963 -138.21)" fill="#49424e"/>
              <path id="Path_823536" data-name="Path 823536" d="M161.152,230.062c-.013.046-.036.061-.074.023l.03-.033Z" transform="translate(-96.743 -138.169)" fill="#49424e"/>
              <path id="Path_823537" data-name="Path 823537" d="M201.862,175.229q-3.206,0-6.412,0a5.776,5.776,0,0,1-.744-.031,1.438,1.438,0,0,1-1.263-1.3,1.4,1.4,0,0,1,1.123-1.6,3.262,3.262,0,0,1,.789-.071q6.486,0,12.972,0a4.713,4.713,0,0,1,.692.045,1.466,1.466,0,0,1,1.258,1.665,1.4,1.4,0,0,1-1.457,1.267c-1.773.027-3.545.018-5.318.022-.547,0-1.094,0-1.64,0Z" transform="translate(-116.18 -103.437)" fill="#060607"/>
              <path id="Path_823538" data-name="Path 823538" d="M235.326,63.808a2.985,2.985,0,0,1,1.09.015,2.959,2.959,0,0,1-1.09-.015" transform="translate(-141.337 -38.297)" fill="#49424e"/>
              <path id="Path_823539" data-name="Path 823539" d="M165.609,146.133c0-.2-.468-.423.016-.615a1.047,1.047,0,0,1-.016.615" transform="translate(-99.343 -87.398)" fill="#49424e"/>
              <path id="Path_823540" data-name="Path 823540" d="M165.685,71.316c-.2-.114-.2-.216.02-.3a.266.266,0,0,1-.02.3" transform="translate(-99.422 -42.65)" fill="#49424e"/>
              <path id="Path_823541" data-name="Path 823541" d="M165.823,165.292c-.068-.109-.091-.213.038-.3l-.038.3" transform="translate(-99.56 -99.096)" fill="#49424e"/>
              <path id="Path_823542" data-name="Path 823542" d="M244.581,180.439a.194.194,0,0,1-.011.279.248.248,0,0,1,.011-.279" transform="translate(-146.866 -108.372)" fill="#49424e"/>
              <path id="Path_823543" data-name="Path 823543" d="M245,230.138l-.175-.009c.062-.072.121-.065.175.009" transform="translate(-147.042 -138.185)" fill="#49424e"/>
              <path id="Path_823544" data-name="Path 823544" d="M232.053,230.154l-.2.014a.132.132,0,0,1,.2-.014" transform="translate(-139.254 -138.208)" fill="#49424e"/>
              <path id="Path_823545" data-name="Path 823545" d="M170,230.123c-.084.027-.167.05-.19-.075l.19.075" transform="translate(-101.987 -138.167)" fill="#49424e"/>
              <path id="Path_823546" data-name="Path 823546" d="M165.832,113.614a.123.123,0,0,1,.006-.207c0,.069,0,.138-.006.207" transform="translate(-99.566 -68.112)" fill="#49424e"/>
              <path id="Path_823547" data-name="Path 823547" d="M244.845,63.871l.165,0c-.054.071-.109.074-.165,0" transform="translate(-147.054 -38.359)" fill="#49424e"/>
              <path id="Path_823548" data-name="Path 823548" d="M165.845,90.579c-.054-.043-.054-.078.014-.105,0,.035-.009.07-.014.105" transform="translate(-99.583 -54.339)" fill="#49424e"/>
              <path id="Path_823549" data-name="Path 823549" d="M165.836,171.064l.049-.111c.036.06,0,.089-.049.111" transform="translate(-99.601 -102.674)" fill="#49424e"/>
              <path id="Path_823550" data-name="Path 823550" d="M244.585,70.083l.037.057-.036.016-.022-.036Z" transform="translate(-146.885 -42.092)" fill="#49424e"/>
              <path id="Path_823551" data-name="Path 823551" d="M244.588,126.647l.036.058-.036.015-.022-.037Z" transform="translate(-146.886 -76.064)" fill="#49424e"/>
              <path id="Path_823552" data-name="Path 823552" d="M244.615,68.3a.437.437,0,0,1,.023.069s-.022.013-.034.019a.384.384,0,0,1-.02-.068c0-.005.02-.014.031-.02" transform="translate(-146.897 -41.019)" fill="#49424e"/>
              <path id="Path_823553" data-name="Path 823553" d="M244.629,124.117a.447.447,0,0,1,.02.07s-.022.012-.034.018a.5.5,0,0,1-.019-.069c0-.005.022-.013.033-.019" transform="translate(-146.904 -74.545)" fill="#49424e"/>
              <path id="Path_823554" data-name="Path 823554" d="M165.892,112.756c-.06-.041-.054-.077.008-.108,0,.036-.005.072-.008.108" transform="translate(-99.609 -67.656)" fill="#49424e"/>
              <path id="Path_823555" data-name="Path 823555" d="M165.876,220.405c-.064-.031-.067-.068-.01-.109l.01.109" transform="translate(-99.595 -132.31)" fill="#49424e"/>
              <path id="Path_823556" data-name="Path 823556" d="M165.845,122.472a.458.458,0,0,1-.038-.073c0-.009.014-.025.022-.037a.481.481,0,0,1,.04.075c0,.008-.015.024-.024.036" transform="translate(-99.584 -73.49)" fill="#49424e"/>
              <path id="Path_823557" data-name="Path 823557" d="M167.4,114.3l-.121,0a.075.075,0,0,1,.121,0" transform="translate(-100.465 -68.633)" fill="#49424e"/>
              <path id="Path_823558" data-name="Path 823558" d="M75.684,95.658c1.7.231,2.08,1.233,1.907,2.823a18.018,18.018,0,0,1-.457,2.434,14.345,14.345,0,0,1-3.982,6.79,12.614,12.614,0,0,1-2.183,1.718,1.913,1.913,0,0,1-2.92-.681c-1.2-2.02-2.354-4.064-3.516-6.1-.167-.294-.3-.418-.689-.332a4.128,4.128,0,0,1-1.669-.009.358.358,0,0,0-.468.2q-1.622,2.845-3.253,5.685c-.389.677-.77,1.355-1.626,1.564a1.633,1.633,0,0,1-1.276-.1,13.805,13.805,0,0,1-5.319-5.562,13.649,13.649,0,0,1-1.594-4.891,4.349,4.349,0,0,1-.121-1.87,2,2,0,0,1,2.029-1.65c.066,0,.132-.013.2-.02l.03.018.029-.019q3.457.015,6.914.032a.513.513,0,0,0,.547-.38,3.9,3.9,0,0,1,.709-1.246.673.673,0,0,0,.067-.895q-1.753-3-3.48-6.015a1.945,1.945,0,0,1-.169-1.965,1.826,1.826,0,0,1,.754-.832,14.99,14.99,0,0,1,5.8-1.724,14.663,14.663,0,0,1,4.781.439,11.477,11.477,0,0,1,3.151,1.229,1.982,1.982,0,0,1,.748,2.724c-1.123,2.025-2.289,4.028-3.461,6.026-.23.391-.312.683.041,1.049a2.829,2.829,0,0,1,.633,1.211.462.462,0,0,0,.526.38c2.421-.016,4.842-.021,7.263-.03l.024.018ZM54.947,98.672v0H52.065c-.28,0-.47.012-.389.416A12.553,12.553,0,0,0,55.607,106c.331.3.49.268.691-.123a47.12,47.12,0,0,1,2.764-4.764.547.547,0,0,0-.01-.721,4.446,4.446,0,0,1-.808-1.416c-.076-.266-.217-.316-.465-.313-.944.012-1.888.005-2.833.005m16.333,0v0c-.945,0-1.891.009-2.835-.006-.286,0-.474.067-.569.354a4.236,4.236,0,0,1-.791,1.368.454.454,0,0,0-.067.589c1.038,1.6,1.954,3.27,2.842,4.955.2.383.371.361.665.087a12.523,12.523,0,0,0,3.9-6.882c.074-.374,0-.472-.363-.466-.928.014-1.857,0-2.786,0M63.065,85.629a12,12,0,0,0-3.932.7c-.312.1-.439.2-.232.549.959,1.6,1.932,3.2,2.753,4.884a.5.5,0,0,0,.641.31,4.025,4.025,0,0,1,1.578-.027.492.492,0,0,0,.612-.333c.29-.594.607-1.175.935-1.749.592-1.033,1.2-2.058,1.8-3.084.131-.222.228-.411-.132-.518a13.035,13.035,0,0,0-4.028-.736M60.972,97.353a2.053,2.053,0,0,0,2.077,2.013,2.2,2.2,0,0,0,2.109-2.3,2.079,2.079,0,0,0-2.056-2,2.221,2.221,0,0,0-2.13,2.287" transform="translate(-29.096 -49.596)" fill="#060607"/>
              <path id="Path_823559" data-name="Path 823559" d="M85.083,73.283a1.769,1.769,0,0,1,.975.055,3.4,3.4,0,0,1-.975-.055" transform="translate(-51.101 -43.989)" fill="#49424e"/>
              <path id="Path_823560" data-name="Path 823560" d="M54.267,115.259l-.029.019-.03-.018c.019-.044.039-.047.059,0" transform="translate(-32.557 -69.205)" fill="#e86672"/>
              <path id="Path_823561" data-name="Path 823561" d="M84.078,73.323a.057.057,0,0,1,.086,0c-.027.043-.056.05-.086,0" transform="translate(-50.497 -44.025)" fill="#49424e"/>
              <path id="Path_823562" data-name="Path 823562" d="M83.084,73.346c.028-.044.059-.047.093-.008-.028.046-.059.05-.093.008" transform="translate(-49.9 -44.03)" fill="#49424e"/>
              <path id="Path_823563" data-name="Path 823563" d="M116.569,115.274l-.026.016-.024-.018.027-.033Z" transform="translate(-69.981 -69.212)" fill="#e86672"/>
              <path id="Path_823564" data-name="Path 823564" d="M59.776,122.868c.945,0,1.889.007,2.833,0,.247,0,.389.047.465.313a4.445,4.445,0,0,0,.807,1.416.547.547,0,0,1,.01.721,47.094,47.094,0,0,0-2.764,4.764c-.2.391-.361.427-.691.123a12.549,12.549,0,0,1-3.932-6.912c-.081-.4.109-.416.389-.416q1.441,0,2.883,0Z" transform="translate(-33.925 -73.791)" fill="#49424e"/>
              <path id="Path_823565" data-name="Path 823565" d="M99.089,122.869c.929,0,1.857.009,2.786,0,.362-.005.437.092.363.466a12.522,12.522,0,0,1-3.9,6.882c-.294.274-.464.3-.666-.087-.888-1.686-1.8-3.356-2.842-4.956a.454.454,0,0,1,.068-.589,4.243,4.243,0,0,0,.791-1.368c.094-.287.282-.358.569-.354.945.015,1.89.006,2.835.006Z" transform="translate(-56.905 -73.789)" fill="#49424e"/>
              <path id="Path_823566" data-name="Path 823566" d="M78.636,90.215a13.023,13.023,0,0,1,4.028.736c.36.107.263.3.132.518-.6,1.026-1.212,2.051-1.8,3.084-.329.574-.646,1.155-.935,1.749a.492.492,0,0,1-.612.333,4.017,4.017,0,0,0-1.578.027.5.5,0,0,1-.642-.31c-.821-1.682-1.793-3.28-2.753-4.884-.207-.346-.08-.447.232-.549a11.994,11.994,0,0,1,3.932-.7" transform="translate(-44.667 -54.182)" fill="#49424e"/>
              <path id="Path_823567" data-name="Path 823567" d="M79.791,116.135a2.221,2.221,0,0,1,2.13-2.287,2.079,2.079,0,0,1,2.056,2,2.2,2.2,0,0,1-2.109,2.3,2.053,2.053,0,0,1-2.077-2.013" transform="translate(-47.916 -68.377)" fill="#49424e"/>
            </g>
          </g>
        </g>
      </g>
    </g>
  </g>
</svg>
