<svg xmlns="http://www.w3.org/2000/svg" xmlns:xlink="http://www.w3.org/1999/xlink" width="190" height="190" viewBox="0 0 190 190">
  <defs>
    <clipPath id="clip-path">
      <rect id="Rectangle_377557" data-name="Rectangle 377557" width="190" height="190" transform="translate(1125 2520.721)" fill="#fff" stroke="#707070" stroke-width="1"/>
    </clipPath>
    <clipPath id="clip-path-2">
      <rect id="Rectangle_378270" data-name="Rectangle 378270" width="190" height="136.479" fill="none"/>
    </clipPath>
  </defs>
  <g id="Mask_Group_345" data-name="Mask Group 345" transform="translate(-1125 -2520.721)" clip-path="url(#clip-path)">
    <g id="Group_1074101" data-name="Group 1074101" transform="translate(1125 2545.541)">
      <g id="Group_1074100" data-name="Group 1074100" clip-path="url(#clip-path-2)">
        <path id="Path_824007" data-name="Path 824007" d="M63.086,145.4c-11.569,4.027-22.374,2.355-32.552-4.55a35.365,35.365,0,0,1-8.661-8.369c-5.727-7.943-10.967-16.241-16.4-24.4-.164-.246-.278-.525-.535-1.019a32.007,32.007,0,0,1,16.7-1.764c10.965,1.841,19.709,7.483,26.1,17.069q6.9,10.348,13.793,20.706l1.549,2.325" transform="translate(-2.438 -51.761)" fill="#3d9924"/>
        <path id="Path_824008" data-name="Path 824008" d="M48.523,147.587a37.71,37.71,0,0,1-21.422-7,37.288,37.288,0,0,1-9.1-8.8c-4.134-5.734-8.07-11.734-11.876-17.537q-2.272-3.464-4.559-6.918a6.492,6.492,0,0,1-.419-.758c-.059-.121-.128-.259-.213-.423L0,104.368l1.888-.7a33.618,33.618,0,0,1,17.607-1.848,39.635,39.635,0,0,1,27.286,17.833q4.768,7.146,9.526,14.3l7.085,10.639-2.161.753a38.5,38.5,0,0,1-12.707,2.241M5.14,106.315q1.983,2.99,3.946,5.994c3.785,5.771,7.7,11.737,11.787,17.408a33.664,33.664,0,0,0,8.219,7.938c9.247,6.274,18.683,7.931,28.776,5.04l-4.512-6.776q-4.759-7.15-9.524-14.3a36.215,36.215,0,0,0-24.924-16.3,29.514,29.514,0,0,0-13.768,1" transform="translate(0 -50.03)" fill="#151007"/>
        <path id="Path_824009" data-name="Path 824009" d="M43.228,5.42c8.931,9.17,19.533,16.986,22.507,30.543,2.431,11.077,1.137,21.588-4.423,31.516a20.844,20.844,0,0,1-1.2,1.725c-10.7-9.7-21.173-19.333-23.272-34.746C35.5,24.669,37.82,12.879,43.228,5.42" transform="translate(-17.998 -2.675)" fill="#3d9924"/>
        <path id="Path_824010" data-name="Path 824010" d="M58.674,69.188,57.19,67.842c-10.634-9.64-21.63-19.607-23.838-35.82-1.444-10.6,1.254-22.787,6.713-30.317L41.3,0,42.77,1.509c1.63,1.673,3.352,3.336,5.019,4.945C55.365,13.767,63.2,21.33,65.74,32.909a45.305,45.305,0,0,1-4.608,32.762,12.248,12.248,0,0,1-.918,1.354c-.128.171-.258.345-.385.526ZM41.774,5.541c-4.172,6.895-6.13,17.037-4.91,26C38.8,45.747,48.4,55.06,58.08,63.864c5.225-9.371,6.6-19.249,4.2-30.2C59.966,23.137,52.855,16.272,45.327,9c-1.171-1.13-2.37-2.288-3.552-3.463" transform="translate(-16.27 0)" fill="#151007"/>
        <path id="Path_824011" data-name="Path 824011" d="M109.633,33.916A38.352,38.352,0,0,1,148.27,75.427c-.912,12.1-6.526,21.563-16.256,28.615a6.429,6.429,0,0,0-3.039,5.929c.1,2.273-.027,4.556.033,6.832.075,2.883-.765,5.339-3.229,6.99-.995.667-.774,1.549-.832,2.443-.2,3.01.443,6.051-.455,9.04a6.72,6.72,0,0,1-3.656,4.591c-2.005.809-2.528,2.188-3.039,4.009-1.12,3.992-4.587,6.139-8.9,5.782a7.949,7.949,0,0,1-7.269-7.145,2.058,2.058,0,0,0-1.494-1.975c-3.636-1.448-5.228-4.287-5.348-8.07-.043-1.349-.076-2.7,0-4.048.139-2.325-.058-4.324-2.213-5.955-1.659-1.256-1.941-3.468-1.962-5.541-.023-2.362-.138-4.733.028-7.083.188-2.669-.938-4.4-3.06-5.9A37.4,37.4,0,0,1,72.06,80.285,38.811,38.811,0,0,1,102.453,34.57a57.445,57.445,0,0,1,7.18-.654m.158,88.053v-.036c3.793,0,7.591.116,11.378-.035,3.2-.128,4.649-1.787,4.725-5.024a61.056,61.056,0,0,0-.022-6.573c-.343-4.042,1.368-6.732,4.573-9.151,11.444-8.635,16.45-20.156,14.227-34.438a34.909,34.909,0,0,0-43.152-28.523c-13.543,3.441-22.405,12.24-25.866,25.661-3.478,13.484-.092,25.872,10.667,34.7,8.651,7.1,7.53,8.349,7.692,17.652,0,.085,0,.169,0,.253.015,4.085,1.272,5.414,5.41,5.5,3.455.07,6.913.015,10.369.015m.2,3.287c-1.517,0-3.037-.067-4.549.015-2.408.131-5.707-1.1-6.976.485-1.2,1.5-.394,4.667-.357,7.1a4.841,4.841,0,0,0,5.108,5.024q6.571.07,13.144,0a5.147,5.147,0,0,0,5.4-5.131c.114-1.932-.053-3.88.052-5.812.072-1.342-.392-1.741-1.714-1.709-3.369.082-6.74.027-10.111.027m-.178,15.95c-1.178,0-2.359.057-3.533-.014-1.7-.1-1.834.684-1.277,2a5.188,5.188,0,0,0,9.486.458c.737-1.466.842-2.611-1.4-2.458-1.088.075-2.186.013-3.28.014" transform="translate(-35.166 -16.739)" fill="#11100e"/>
        <path id="Path_824012" data-name="Path 824012" d="M265.129,69.426c4.632,0,9.265-.041,13.9.026,1.258.018,1.811-.214,2.189-1.61,1.388-5.118,6.277-6.376,10.066-2.7,1.994,1.934,3.972,3.889,5.883,5.9a5.66,5.66,0,0,1,.1,8.132c-2.007,2.157-4.093,4.245-6.237,6.266-3.646,3.437-8.538,2.106-9.718-2.774-.4-1.671-1.118-1.815-2.492-1.809-9.18.041-18.36.029-27.54.017-3.862-.005-6.362-2.178-6.447-5.551-.088-3.485,2.43-5.848,6.4-5.889,4.632-.048,9.264-.011,13.9-.012m1.893,8.389c5.136,0,10.272.019,15.408-.01,1.994-.011,3.216.384,2.141,2.778a2.252,2.252,0,0,0,.942,3.078,2.586,2.586,0,0,0,3.245-.469c2.02-2.027,4.08-4.016,6.072-6.07a2.429,2.429,0,0,0,.217-3.616c-2.129-2.268-4.356-4.448-6.6-6.6a2.125,2.125,0,0,0-2.765-.349,2.466,2.466,0,0,0-1.251,2.768c.5,3.371.44,3.441-2.974,3.449-1.263,0-2.526,0-3.789,0q-13.261,0-26.522.008c-2.561.006-3.915,1.761-2.8,3.583a3.4,3.4,0,0,0,3.264,1.471c5.136-.04,10.272-.016,15.408-.015" transform="translate(-120.83 -31.106)" fill="#0f1111"/>
        <path id="Path_824013" data-name="Path 824013" d="M265.086,191.9c4.717,0,9.433-.028,14.149.02,1.143.012,1.606-.185,1.933-1.5,1.322-5.314,6.224-6.6,10.157-2.787,1.934,1.876,3.857,3.767,5.714,5.719a5.763,5.763,0,0,1,0,8.517c-1.981,2.065-3.983,4.116-6.069,6.074-3.506,3.292-8.376,1.977-9.629-2.7-.455-1.7-1.218-1.933-2.754-1.921-9.18.072-18.36.06-27.54.02-3.106-.014-5.279-1.563-6.008-4.061a5.823,5.823,0,0,1,2.111-6.285,6,6,0,0,1,3.787-1.105c4.716.028,9.432.011,14.149.011m1.471,8.114c5.22,0,10.44-.021,15.66.009,2.505.014,2.881.556,2.3,2.955a2.6,2.6,0,0,0,.949,3.126,2.278,2.278,0,0,0,3.172-.4c2.109-2.055,4.208-4.122,6.254-6.239a2.414,2.414,0,0,0,.068-3.616c-2.082-2.2-4.249-4.319-6.42-6.432a2.485,2.485,0,0,0-3.052-.3,2.379,2.379,0,0,0-1.033,2.859c.608,2.87.535,2.981-2.3,2.983q-15.155.012-30.311,0c-1.926,0-3.714.333-3.768,2.659-.054,2.376,1.784,2.417,3.576,2.405,4.967-.034,9.935-.012,14.9-.011" transform="translate(-120.821 -91.515)" fill="#0f1111"/>
        <path id="Path_824014" data-name="Path 824014" d="M264.821,130.772c4.8,0,9.606-.023,14.409.017,1.118.009,1.617-.13,1.937-1.492,1.282-5.455,6.234-6.756,10.274-2.823,1.932,1.881,3.861,3.767,5.7,5.733a5.723,5.723,0,0,1-.009,8.341c-1.96,2.087-3.978,4.127-6.067,6.084-3.668,3.437-8.535,2.124-9.747-2.721-.411-1.64-1.012-2-2.615-1.98-9.268.091-18.537.052-27.806.04-3.643-.005-6.061-2.267-6.057-5.607s2.416-5.576,6.075-5.587c4.634-.014,9.268,0,13.9,0m1.963,8.13h15.662c2,0,3.148.53,2.125,2.869a2.329,2.329,0,0,0,.923,3.1,2.455,2.455,0,0,0,3.226-.416c2.1-2.057,4.227-4.1,6.247-6.241a2.5,2.5,0,0,0,.018-3.656c-2.078-2.2-4.246-4.318-6.433-6.41a2.372,2.372,0,0,0-3.032-.294,2.442,2.442,0,0,0-1.05,2.86c.59,2.958.474,3.124-2.5,3.126q-15.157.013-30.313-.005c-1.831,0-3.559.253-3.57,2.519s1.693,2.565,3.537,2.555c5.052-.026,10.1-.009,15.157-.009" transform="translate(-120.838 -61.295)" fill="#0a0c0d"/>
        <path id="Path_824015" data-name="Path 824015" d="M223.565,12.622c-.073.711-.309,1.592-.779,1.571-2.971-.129-2.326,3.782-4.749,4.125-.593.084-1.5-.347-1.472-.746.183-3.022-3.983-2.245-4.143-4.867-.033-.537.289-1.3.622-1.265,3.086.284,2.28-4.034,4.969-4.13.513-.018,1.354.072,1.337.438-.134,2.955,3.532,2.674,4.214,4.874" transform="translate(-104.836 -3.607)" fill="#68c5ee"/>
        <path id="Path_824016" data-name="Path 824016" d="M200.444,252.7a8.472,8.472,0,0,0,6.166-5.4c1.256,2.527,2.762,4.554,5.993,5.3-2.961,1.157-5.051,2.707-5.862,5.923-1.2-2.931-2.829-4.865-6.3-5.828" transform="translate(-98.925 -122.054)" fill="#fabf40"/>
        <path id="Path_824017" data-name="Path 824017" d="M54.559,190.93a5.962,5.962,0,0,0,4.434-4.022,5.887,5.887,0,0,0,4.072,3.924c-1.809.908-3.281,1.821-3.964,4.153a6.3,6.3,0,0,0-4.541-4.055" transform="translate(-26.927 -92.245)" fill="#e55976"/>
        <path id="Path_824018" data-name="Path 824018" d="M370.956,177.206c-.126,1.408-.828,2.193-2.066,2.247a2.013,2.013,0,0,1-2.235-2.161,1.907,1.907,0,0,1,2.03-2.066,2.049,2.049,0,0,1,2.271,1.98" transform="translate(-180.956 -86.479)" fill="#8eb742"/>
        <path id="Path_824019" data-name="Path 824019" d="M299.608,37.234c1.354-.015,2.237.558,2.324,1.865a1.965,1.965,0,0,1-2.107,2.28,1.919,1.919,0,0,1-2.13-2.009,1.9,1.9,0,0,1,1.913-2.136" transform="translate(-146.921 -18.376)" fill="#fabf40"/>
        <path id="Path_824020" data-name="Path 824020" d="M112.8,125.065c-3.457,0-6.914.056-10.369-.015-4.138-.084-5.4-1.413-5.41-5.5,0-.085,0-.169,0-.253-.163-9.3.959-10.552-7.693-17.652-10.758-8.829-14.145-21.217-10.667-34.7,3.462-13.42,12.323-22.22,25.867-25.661a34.909,34.909,0,0,1,43.152,28.524c2.223,14.281-2.783,25.8-14.226,34.438-3.2,2.418-4.916,5.109-4.573,9.15a61.062,61.062,0,0,1,.022,6.573c-.075,3.237-1.522,4.9-4.725,5.024-3.787.151-7.585.035-11.378.035v.036M97.132,53.433c-2.051.071-5.294,2.536-6.381,4.756-1.067,2.176-.457,4.073,1.034,5.81.48.56,1.147,1.078.714,1.971-.906,1.868-1.162,4.37-4.221,4.065a3.3,3.3,0,0,0-2.619,1.334c-2.168,2.278-1.551,5.121-1.1,7.677.377,2.129,2.291,3.1,4.526,3.39,2.719.349,4.208,3.86,2.64,5.939-2.255,2.99-2.038,5.053.835,7.937,3.062,3.074,4.977,3.295,8.1.931,1.908-1.442,5.6.065,5.942,2.427.549,3.762,1.985,5,5.86,5.042,4.554.053,6.077-1.073,6.735-4.98a3.973,3.973,0,0,1,5.968-2.364c2.963,2.2,5.048,1.95,7.953-.963,2.926-2.935,3.173-4.975.962-7.938a3.984,3.984,0,0,1,2.36-6.028c3.9-.712,5.161-2.286,5.146-6.417-.014-3.887-1.364-5.5-5.133-6.151-2.523-.433-3.952-4.012-2.406-6.026,2.241-2.919,2.005-5.027-.888-7.93-2.941-2.95-5.049-3.227-7.942-1.041a3.911,3.911,0,0,1-6.039-2.489c-.615-3.646-2.492-5.061-6.612-4.988-3.719.066-5.472,1.568-5.953,5.1-.345,2.535-3.981,4.04-6.02,2.444a6.668,6.668,0,0,0-3.465-1.508" transform="translate(-38.173 -19.835)" fill="#f6b833"/>
        <path id="Path_824021" data-name="Path 824021" d="M135.877,213.955c3.371,0,6.742.055,10.111-.027,1.322-.032,1.786.368,1.714,1.71-.1,1.933.063,3.88-.052,5.812a5.147,5.147,0,0,1-5.4,5.131c-4.381.037-8.763.044-13.144,0A4.841,4.841,0,0,1,124,221.553c-.037-2.432-.846-5.6.357-7.1,1.268-1.581,4.568-.354,6.976-.485,1.512-.082,3.032-.015,4.549-.015" transform="translate(-61.048 -105.438)" fill="#e4eef8"/>
        <path id="Path_824022" data-name="Path 824022" d="M142.423,245.728c1.093,0,2.191.061,3.28-.014,2.238-.153,2.133.992,1.4,2.458a5.187,5.187,0,0,1-9.486-.458c-.558-1.315-.422-2.1,1.277-2,1.174.07,2.355.014,3.533.013" transform="translate(-67.771 -121.261)" fill="#5397d2"/>
        <path id="Path_824023" data-name="Path 824023" d="M270.07,80.9c-5.136,0-10.272-.024-15.408.016a3.4,3.4,0,0,1-3.264-1.471c-1.118-1.822.235-3.577,2.8-3.583q13.261-.028,26.522-.008c1.263,0,2.526,0,3.789,0,3.414-.007,3.473-.078,2.974-3.449a2.466,2.466,0,0,1,1.251-2.768,2.124,2.124,0,0,1,2.765.349c2.243,2.157,4.47,4.336,6.6,6.6a2.429,2.429,0,0,1-.217,3.616c-1.992,2.055-4.051,4.043-6.072,6.071a2.585,2.585,0,0,1-3.245.469,2.251,2.251,0,0,1-.942-3.077c1.075-2.394-.147-2.79-2.141-2.778-5.136.028-10.272.01-15.408.009" transform="translate(-123.878 -34.19)" fill="#60c1ea"/>
        <path id="Path_824024" data-name="Path 824024" d="M269.744,203.233c-4.967,0-9.935-.022-14.9.011-1.792.012-3.63-.029-3.576-2.405.054-2.326,1.842-2.663,3.768-2.659q15.155.024,30.311,0c2.836,0,2.91-.113,2.3-2.983a2.379,2.379,0,0,1,1.033-2.859,2.484,2.484,0,0,1,3.052.3c2.17,2.114,4.337,4.234,6.419,6.433a2.414,2.414,0,0,1-.068,3.615c-2.046,2.118-4.145,4.184-6.254,6.239a2.278,2.278,0,0,1-3.173.4,2.6,2.6,0,0,1-.949-3.126c.579-2.4.2-2.941-2.3-2.955-5.22-.029-10.44-.009-15.661-.009" transform="translate(-124.007 -94.738)" fill="#60c1ea"/>
        <path id="Path_824025" data-name="Path 824025" d="M269.947,142.066c-5.052,0-10.1-.017-15.157.009-1.844.01-3.548-.3-3.537-2.555s1.739-2.523,3.57-2.519q15.156.027,30.313.006c2.97,0,3.086-.169,2.5-3.127a2.442,2.442,0,0,1,1.05-2.86,2.372,2.372,0,0,1,3.032.294c2.187,2.092,4.355,4.21,6.433,6.41a2.5,2.5,0,0,1-.018,3.656c-2.02,2.14-4.142,4.183-6.247,6.241a2.456,2.456,0,0,1-3.226.416,2.329,2.329,0,0,1-.923-3.1c1.023-2.339-.128-2.869-2.125-2.868H269.947" transform="translate(-124.001 -64.459)" fill="#60c1ea"/>
        <path id="Path_824026" data-name="Path 824026" d="M103.729,60.453a6.668,6.668,0,0,1,3.465,1.508c2.039,1.6,5.675.092,6.02-2.444.481-3.532,2.234-5.034,5.953-5.1,4.12-.073,6,1.343,6.612,4.988a3.91,3.91,0,0,0,6.039,2.489c2.893-2.185,5-1.909,7.942,1.041,2.893,2.9,3.129,5.01.888,7.93-1.546,2.014-.117,5.593,2.406,6.026,3.769.646,5.119,2.264,5.133,6.151.015,4.132-1.247,5.706-5.146,6.417a3.984,3.984,0,0,0-2.36,6.028c2.211,2.963,1.964,5-.962,7.938-2.9,2.913-4.99,3.165-7.953.963a3.973,3.973,0,0,0-5.968,2.364c-.658,3.906-2.181,5.033-6.734,4.98-3.876-.045-5.312-1.281-5.86-5.042-.344-2.362-4.034-3.869-5.942-2.427-3.127,2.363-5.042,2.143-8.1-.931-2.873-2.885-3.09-4.947-.835-7.937,1.568-2.079.078-5.589-2.64-5.939-2.235-.287-4.149-1.261-4.526-3.39-.453-2.555-1.071-5.4,1.1-7.677a3.3,3.3,0,0,1,2.619-1.334c3.059.3,3.316-2.2,4.221-4.065.433-.893-.234-1.411-.715-1.971-1.491-1.738-2.1-3.634-1.033-5.81,1.088-2.219,4.331-4.684,6.381-4.756m35.143,6.83a6.056,6.056,0,0,0-2.657-3.154c-.987-.74-1.923-.187-2.687.586a4.738,4.738,0,0,1-3.057,1.624c-3.226.2-7.581-3.168-7.944-6.44-.307-2.763-2.195-1.951-3.734-2.073-1.7-.136-2.524.686-2.469,2.382a4.26,4.26,0,0,1-1.005,3.28c-2.325,2.475-7.464,3.1-10.127,1.022-1.785-1.391-2.692-.215-3.82.845-1.19,1.117-1.706,2.1-.478,3.649a6.92,6.92,0,0,1-4.747,11.11c-2.306.283-2.031,1.769-2.082,3.286-.055,1.626.276,2.989,2.272,2.834,4.3-.336,4.416,3.327,5.777,5.854,1.068,1.984.456,3.564-.981,4.99-1.379,1.368-1.231,2.518.156,3.852,1.347,1.3,2.552,2.365,4.207.562,2.907-3.167,5.541-.415,8.242.382,2.156.636,2.645,2.353,2.6,4.375-.044,1.754.964,2.389,2.594,2.262,1.484-.115,3.349.606,3.573-1.987.111-1.291.117-2.7,1.187-3.764,2.532-2.509,7.285-3.016,10.1-.9,1.632,1.228,2.6.327,3.655-.757,1.021-1.05,2.02-1.893.729-3.6-3.478-4.608-.956-10.533,4.705-11.23,1.38-.17,2.035-.845,1.88-2.134-.164-1.364.861-3.761-1.246-3.789-4.264-.057-5.452-2.759-6.637-5.983-.689-1.874-.647-3.4.7-4.882a3.9,3.9,0,0,0,1.3-2.2" transform="translate(-44.771 -26.855)" fill="#151007"/>
        <path id="Path_824027" data-name="Path 824027" d="M142.132,70.586a3.894,3.894,0,0,1-1.3,2.2c-1.342,1.484-1.384,3.008-.7,4.882,1.185,3.225,2.373,5.927,6.637,5.983,2.107.028,1.083,2.425,1.246,3.789.155,1.288-.5,1.964-1.88,2.134-5.661.7-8.183,6.622-4.705,11.23,1.291,1.711.292,2.554-.729,3.6-1.054,1.085-2.023,1.985-3.655.757-2.813-2.117-7.565-1.609-10.1.9-1.07,1.061-1.076,2.472-1.187,3.764-.223,2.594-2.089,1.872-3.573,1.987-1.63.127-2.638-.508-2.594-2.262.05-2.022-.439-3.739-2.6-4.375-2.7-.8-5.336-3.549-8.242-.382-1.655,1.8-2.86.733-4.207-.562-1.388-1.334-1.535-2.484-.157-3.852,1.437-1.426,2.048-3.005.981-4.99-1.36-2.527-1.472-6.19-5.777-5.854-2,.155-2.326-1.208-2.272-2.834.051-1.518-.224-3,2.082-3.286a6.92,6.92,0,0,0,4.747-11.11c-1.228-1.551-.712-2.532.478-3.649,1.128-1.06,2.035-2.236,3.82-.845,2.664,2.077,7.8,1.454,10.127-1.022a4.261,4.261,0,0,0,1.006-3.28c-.056-1.7.767-2.517,2.468-2.382,1.539.123,3.427-.69,3.734,2.074.363,3.271,4.718,6.638,7.944,6.44a4.738,4.738,0,0,0,3.057-1.624c.765-.773,1.7-1.326,2.688-.586a6.058,6.058,0,0,1,2.656,3.154m-33.793,15.87a14.33,14.33,0,0,0,14.268,14.536A14.62,14.62,0,0,0,137.26,86.457a14.78,14.78,0,0,0-14.4-14.583,14.443,14.443,0,0,0-14.522,14.581" transform="translate(-48.031 -30.158)" fill="#f08a50"/>
        <path id="Path_824028" data-name="Path 824028" d="M119.078,96.948A14.442,14.442,0,0,1,133.6,82.366,14.78,14.78,0,0,1,148,96.949a14.621,14.621,0,0,1-14.653,14.535,14.33,14.33,0,0,1-14.268-14.536M133.506,85.8a11.072,11.072,0,0,0-11.294,11.048,11.19,11.19,0,0,0,11.323,11.327,11.05,11.05,0,0,0,11.1-11.231A10.921,10.921,0,0,0,133.506,85.8" transform="translate(-58.769 -40.65)" fill="#151007"/>
        <path id="Path_824029" data-name="Path 824029" d="M136.559,89.147a10.921,10.921,0,0,1,11.132,11.144,11.05,11.05,0,0,1-11.1,11.231,11.19,11.19,0,0,1-11.323-11.327,11.072,11.072,0,0,1,11.294-11.048" transform="translate(-61.822 -43.997)" fill="#f8b933"/>
      </g>
    </g>
  </g>
</svg>
