<svg xmlns="http://www.w3.org/2000/svg" xmlns:xlink="http://www.w3.org/1999/xlink" width="190" height="190" viewBox="0 0 190 190">
  <defs>
    <clipPath id="clip-path">
      <rect id="Rectangle_378090" data-name="Rectangle 378090" width="190" height="190" transform="translate(1125 2520.811)" fill="#fff" stroke="#707070" stroke-width="1"/>
    </clipPath>
    <clipPath id="clip-path-2">
      <rect id="Rectangle_378271" data-name="Rectangle 378271" width="169.632" height="139.648" fill="none"/>
    </clipPath>
  </defs>
  <g id="Mask_Group_392" data-name="Mask Group 392" transform="translate(-1125 -2520.811)" clip-path="url(#clip-path)">
    <g id="Group_1074103" data-name="Group 1074103" transform="translate(1137.911 2544.129)">
      <g id="Group_1074102" data-name="Group 1074102" clip-path="url(#clip-path-2)">
        <path id="Path_824030" data-name="Path 824030" d="M84.439,139.587c-20,0-40-.043-59.988,0A22.386,22.386,0,0,1,2.84,127.406,22.93,22.93,0,0,1,4.582,102.6L65.337,11.407a22.306,22.306,0,0,1,38.793-.222Q134.818,57,165.327,102.9a23.245,23.245,0,0,1-8.183,34.085,24.169,24.169,0,0,1-11.292,2.537H84.446" transform="translate(0 0)" fill="#040405"/>
        <path id="Path_824031" data-name="Path 824031" d="M82.589,125.486c-19.877,0-39.753-.043-59.622,0a11.378,11.378,0,0,1-11.421-5.524,11.737,11.737,0,0,1,1.362-12.948Q43.114,61.8,73.209,16.459a10.483,10.483,0,0,1,19.289.057q30.153,45.292,60.246,90.591a11.715,11.715,0,0,1,1.267,12.955,10.705,10.705,0,0,1-10.4,5.431q-30.525-.036-61.049,0" transform="translate(1.994 1.976)" fill="#ffd100"/>
        <path id="Path_824032" data-name="Path 824032" d="M73.812,100.721A39.174,39.174,0,0,1,59.32,98.158c-1.375-.557-1.386-.661-.646-1.918q4.51-7.655,8.986-15.331c.353-.6.686-.938,1.449-.736a17.327,17.327,0,0,0,8.433-.118c.607-.14,1.032-.209,1.424.485q4.522,8,9.146,15.945c.524.9.375,1.234-.559,1.6a36.78,36.78,0,0,1-13.741,2.634" transform="translate(11.373 15.63)" fill="#040405"/>
        <path id="Path_824033" data-name="Path 824033" d="M102.475,72.483c-1.308,0-2.534,0-3.76,0-5.113.016-10.226.016-15.339.063a1.291,1.291,0,0,1-1.5-1.064,17.288,17.288,0,0,0-4.22-7.169.953.953,0,0,1-.185-1.374c3.081-5.255,6.122-10.534,9.178-15.805.2-.347.42-.684.623-1.016,6.9,3.262,15.79,18.7,15.205,26.365" transform="translate(15.101 9.014)" fill="#040405"/>
        <path id="Path_824034" data-name="Path 824034" d="M43.51,71.4c-.567-7.614,8.32-23.068,15.186-26.316.7,1.216,1.417,2.447,2.126,3.681,2.522,4.384,5.034,8.773,7.576,13.145.312.537.392.891-.094,1.389a18.634,18.634,0,0,0-4.38,7.358,1.491,1.491,0,0,1-1.066.861c-6.3.018-12.6-.032-18.906-.069-.122,0-.244-.026-.44-.049" transform="translate(8.5 8.812)" fill="#040405"/>
        <path id="Path_824035" data-name="Path 824035" d="M72.5,80.668a9.651,9.651,0,0,1-9.711-9.733c.078-5.239,4.5-9.666,9.525-9.537,5.788.151,9.8,4.269,9.7,9.946a9.361,9.361,0,0,1-9.51,9.325" transform="translate(12.272 12)" fill="#040405"/>
      </g>
    </g>
  </g>
</svg>
