<svg xmlns="http://www.w3.org/2000/svg" xmlns:xlink="http://www.w3.org/1999/xlink" width="820" height="598.646" viewBox="0 0 820 598.646">
  <defs>
    <linearGradient id="linear-gradient" x1="0.5" x2="0.5" y2="1" gradientUnits="objectBoundingBox">
      <stop offset="0" stop-color="#defff8"/>
      <stop offset="0.803" stop-color="#eaf5ff"/>
      <stop offset="1" stop-color="#f0feff"/>
    </linearGradient>
    <clipPath id="clip-path">
      <rect id="Rectangle_378254" data-name="Rectangle 378254" width="564.231" height="551.271" fill="none"/>
    </clipPath>
    <clipPath id="clip-path-2">
      <rect id="Rectangle_378255" data-name="Rectangle 378255" width="138.252" height="84.615" fill="none"/>
    </clipPath>
  </defs>
  <g id="Group_1074211" data-name="Group 1074211" transform="translate(-390 -2427.498)">
    <g id="Group_1074007" data-name="Group 1074007">
      <g id="Group_1072963" data-name="Group 1072963" transform="translate(1515 3990.811) rotate(180)">
        <rect id="Rectangle_376022" data-name="Rectangle 376022" width="820" height="598.646" transform="translate(305 964.667)" fill="url(#linear-gradient)"/>
      </g>
      <g id="Group_1074004" data-name="Group 1074004" transform="translate(517.521 2444.811)">
        <g id="Group_1074003" data-name="Group 1074003" transform="translate(0)" clip-path="url(#clip-path)">
          <path id="Path_823640" data-name="Path 823640" d="M79.851,278.676a214.783,214.783,0,0,1,7.681-57.029A12.275,12.275,0,0,1,74.612,218.3a228.495,228.495,0,0,0,77.9,238.945,12.33,12.33,0,0,1,7.565-11.035,215,215,0,0,1-80.221-167.53" transform="translate(-7.514 -24.663)" fill="#d1d3d4"/>
          <path id="Path_823641" data-name="Path 823641" d="M561.657,216.529a12.215,12.215,0,0,1-12.375,5.357A215.154,215.154,0,0,1,476.756,445.9a12.322,12.322,0,0,1,7.844,10.811,228.545,228.545,0,0,0,77.057-240.18" transform="translate(-53.864 -24.463)" fill="#d1d3d4"/>
          <path id="Path_823642" data-name="Path 823642" d="M301.168,443.331c-100.133,0-181.6-81.465-181.6-181.6s81.466-181.6,181.6-181.6,181.6,81.465,181.6,181.6-81.466,181.6-181.6,181.6m0-355.19c-95.719,0-173.592,77.872-173.592,173.591s77.872,173.592,173.592,173.592S474.759,357.45,474.759,261.732,396.886,88.141,301.168,88.141" transform="translate(-13.509 -9.054)" fill="#d1d3d4"/>
          <path id="Path_823643" data-name="Path 823643" d="M571.63,207.306A12.333,12.333,0,1,1,559.3,194.973a12.334,12.334,0,0,1,12.333,12.333" transform="translate(-61.796 -22.028)" fill="#00aa87"/>
          <path id="Path_823644" data-name="Path 823644" d="M336.363,35.111A12.333,12.333,0,1,1,324.03,22.778a12.334,12.334,0,0,1,12.333,12.333" transform="translate(-35.215 -2.573)" fill="#0a62a5"/>
          <path id="Path_823645" data-name="Path 823645" d="M188.108,486.5a12.333,12.333,0,1,1-12.333-12.333A12.333,12.333,0,0,1,188.108,486.5" transform="translate(-18.466 -53.571)" fill="#00aab4"/>
          <path id="Path_823646" data-name="Path 823646" d="M96.615,207.306a12.333,12.333,0,1,1-12.334-12.333,12.334,12.334,0,0,1,12.334,12.333" transform="translate(-8.129 -22.028)" fill="#008cb4"/>
          <path id="Path_823647" data-name="Path 823647" d="M482.5,486.5a12.333,12.333,0,1,1-12.333-12.333A12.333,12.333,0,0,1,482.5,486.5" transform="translate(-51.725 -53.571)" fill="#64b44b"/>
          <path id="Path_823648" data-name="Path 823648" d="M285.878,35.788a12.271,12.271,0,0,1,2.2-7.015c-93.757,3.639-173.2,64.007-204.915,147.659a12.294,12.294,0,0,1,12.406,4.919c29.711-78.6,104.144-135.4,192.1-139.2a12.253,12.253,0,0,1-1.782-6.363" transform="translate(-9.395 -3.251)" fill="#d1d3d4"/>
          <path id="Path_823649" data-name="Path 823649" d="M337.127,28.9a12.3,12.3,0,0,1,.259,13.374c86.461,4.628,159.532,60.5,189.328,137.716a12.261,12.261,0,0,1,13.133-3.012C508.536,93.767,430.037,33.482,337.127,28.9" transform="translate(-38.088 -3.266)" fill="#d1d3d4"/>
          <path id="Path_823650" data-name="Path 823650" d="M426.7,488.951a214.848,214.848,0,0,1-236.555.273,12.325,12.325,0,0,1-8.2,10.571,228.173,228.173,0,0,0,252.7-.1,12.321,12.321,0,0,1-7.941-10.744" transform="translate(-20.556 -55.241)" fill="#d1d3d4"/>
          <path id="Path_823651" data-name="Path 823651" d="M194.059,464.914a2,2,0,0,1-1.629-3.16,2.058,2.058,0,0,1,2.829-.527,1.947,1.947,0,0,1,.511,2.737l-.077.108a2,2,0,0,1-1.633.842m5.526-7.7a2,2,0,0,1-1.621-3.176l.078-.108a2,2,0,0,1,3.245,2.347l-.078.107a2,2,0,0,1-1.624.829m5.527-7.7a2,2,0,0,1-1.63-3.162,2.058,2.058,0,0,1,2.83-.525,1.945,1.945,0,0,1,.511,2.736l-.077.109a2,2,0,0,1-1.633.842m5.526-7.7a2,2,0,0,1-1.621-3.175l.079-.107a2,2,0,1,1,3.245,2.345l-.078.108a2,2,0,0,1-1.624.828" transform="translate(-21.699 -49.453)" fill="#00aab4"/>
          <path id="Path_823652" data-name="Path 823652" d="M138.582,227.379a1.986,1.986,0,0,1-.6-.094l-.129-.04a2,2,0,0,1,1.207-3.817l.128.041a2,2,0,0,1-.6,3.91m-9.039-2.844a2,2,0,0,1-.6-.094l-.126-.041a2,2,0,1,1,1.206-3.816l.128.041a2,2,0,0,1-.6,3.91m-9.055-2.845a1.943,1.943,0,0,1-.577-.09l-.126-.039a2,2,0,0,1,1.183-3.823,2.056,2.056,0,0,1,1.384,2.523,1.972,1.972,0,0,1-1.865,1.429m-9.021-2.843a2.022,2.022,0,0,1-.588-.087l-.129-.04a2,2,0,0,1,1.174-3.829l.127.04a2,2,0,0,1-.585,3.916" transform="translate(-12.353 -24.268)" fill="#008cb4"/>
          <path id="Path_823653" data-name="Path 823653" d="M507.956,226.09a2,2,0,0,1-.6-3.909l.128-.041a2,2,0,0,1,1.207,3.816l-.129.041a1.978,1.978,0,0,1-.6.093m9.132-2.924a2.037,2.037,0,0,1-1.951-1.376,1.945,1.945,0,0,1,1.234-2.5l.127-.04a2,2,0,1,1,1.219,3.812,2.043,2.043,0,0,1-.629.1m9.026-2.886a2.036,2.036,0,0,1-1.952-1.374,1.947,1.947,0,0,1,1.235-2.5l.126-.041a2,2,0,0,1,1.221,3.814,2.086,2.086,0,0,1-.629.1m9.025-2.886a2.033,2.033,0,0,1-1.951-1.375,1.946,1.946,0,0,1,1.233-2.5l.128-.04a2,2,0,0,1,1.219,3.813,2.058,2.058,0,0,1-.629.1" transform="translate(-57.162 -24.108)" fill="#00aa87"/>
          <path id="Path_823654" data-name="Path 823654" d="M455.938,467.326a2,2,0,0,1-1.624-.828l-.078-.108a2,2,0,0,1,3.245-2.347l.078.108a2,2,0,0,1-1.621,3.175m-5.581-7.655a2,2,0,0,1-1.623-.83l-.078-.107a2,2,0,0,1,3.245-2.347l.078.109a2,2,0,0,1-1.621,3.175m-5.58-7.659a2,2,0,0,1-1.614-.814l-.079-.108a2,2,0,1,1,3.227-2.373l.078.108a2,2,0,0,1-1.612,3.187m-5.581-7.656a2,2,0,0,1-1.625-.829l-.078-.108a2,2,0,1,1,3.246-2.344l.078.106a2,2,0,0,1-1.621,3.176" transform="translate(-49.385 -49.739)" fill="#64b44b"/>
          <path id="Path_823655" data-name="Path 823655" d="M325.346,90.407a1.946,1.946,0,0,1-2-1.935v-.133a2,2,0,0,1,4,0,2.06,2.06,0,0,1-2,2.069m0-9.408a2,2,0,0,1-2-2v-.134a2,2,0,0,1,4,0V79a2,2,0,0,1-2,2m0-9.543a1.947,1.947,0,0,1-2-1.935v-.133a2,2,0,1,1,4,0,2.061,2.061,0,0,1-2,2.069m0-9.409a2,2,0,0,1-2-2v-.133a2,2,0,1,1,4,0v.133a2,2,0,0,1-2,2" transform="translate(-36.531 -6.543)" fill="#0a62a5"/>
          <path id="Path_823656" data-name="Path 823656" d="M310.216,107.573c.322-.19.64-.387.971-.564-.327.183-.652.368-.971.564" transform="translate(-35.048 -12.09)" fill="#d5da23"/>
          <path id="Path_823657" data-name="Path 823657" d="M500.63,236.08c.02.511.013,1.017,0,1.523.015-.507.01-1.014,0-1.523" transform="translate(-56.561 -26.672)" fill="#1e415a"/>
          <path id="Path_823658" data-name="Path 823658" d="M311.311,106.968c.2-.112.409-.215.614-.322-.208.1-.411.213-.614.322" transform="translate(-35.172 -12.049)" fill="#1e415a"/>
          <path id="Path_823659" data-name="Path 823659" d="M500.609,235.552c.007.156.014.312.02.468-.007-.156-.011-.312-.02-.468" transform="translate(-56.558 -26.613)" fill="#1e415a"/>
          <path id="Path_823660" data-name="Path 823660" d="M245.125,246.968a139.281,139.281,0,0,0,65.446-48.028,139.62,139.62,0,0,1-26.864-60.849,26.791,26.791,0,0,1-.4-5.354,85.93,85.93,0,0,1-84.579,68.811,87.575,87.575,0,0,1-10.646-.664,26.6,26.6,0,0,1,6.728,2.351,139.593,139.593,0,0,1,50.319,43.732" transform="translate(-21.249 -14.997)" fill="#0082d2"/>
          <path id="Path_823661" data-name="Path 823661" d="M152.534,232.094a26.691,26.691,0,0,0,22.751,30.12,141.143,141.143,0,0,0,19.394,1.342,139.752,139.752,0,0,0,46.4-7.962,139.593,139.593,0,0,0-50.319-43.732,26.678,26.678,0,0,0-6.728-2.351c-.459-.056-.922-.1-1.379-.167a26.7,26.7,0,0,0-30.12,22.75" transform="translate(-17.204 -23.622)" fill="#008cb4"/>
          <path id="Path_823662" data-name="Path 823662" d="M223.212,425.487a26.677,26.677,0,0,0,35.678-12.326,141.44,141.44,0,0,0,7.271-18.032,139.734,139.734,0,0,0,6.764-46.67,139.578,139.578,0,0,0-57.037,34.311,26.654,26.654,0,0,0-4.548,6.06c-.153.326-.3.656-.454.978a26.692,26.692,0,0,0,12.326,35.679" transform="translate(-23.521 -39.369)" fill="#00aab4"/>
          <path id="Path_823663" data-name="Path 823663" d="M430.066,381.267a139.519,139.519,0,0,0-57.139-33.324,139.559,139.559,0,0,0,15,64.414,26.617,26.617,0,0,0,41.719,7.7c.335-.312.679-.611,1-.943.1-.106.2-.218.3-.325a26.682,26.682,0,0,0-.891-37.519" transform="translate(-42.132 -39.31)" fill="#64b44b"/>
          <path id="Path_823664" data-name="Path 823664" d="M326.173,198.9a139.083,139.083,0,0,0,65.875,47.145,139.725,139.725,0,0,1,33.177-34.172,141.182,141.182,0,0,1,16.483-10.314,26.769,26.769,0,0,1,4.792-1.978,85.942,85.942,0,0,1-91.7-59.155c-.858-2.64-1.582-5.328-2.182-8.03a26.756,26.756,0,0,1-.315,5.03A139.586,139.586,0,0,1,326.173,198.9" transform="translate(-36.851 -14.958)" fill="#00aae1"/>
          <path id="Path_823665" data-name="Path 823665" d="M300.551,153.648A139.739,139.739,0,0,0,322.7,195.629a139.6,139.6,0,0,0,26.125-61.475,26.671,26.671,0,0,0,.314-5.029c-.271-1.219-.524-2.438-.741-3.659a26.673,26.673,0,0,0-38.268-19.184c-.2.107-.412.209-.614.322-.331.177-.648.373-.97.564a26.61,26.61,0,0,0-12.426,18.515q-.3,1.888-.687,3.743a26.787,26.787,0,0,0,.4,5.354,140.775,140.775,0,0,0,4.716,18.868" transform="translate(-33.377 -11.685)" fill="#0a62a5"/>
          <path id="Path_823666" data-name="Path 823666" d="M489.315,234.343c.009-.506.017-1.012,0-1.523-.005-.156-.012-.312-.019-.468-.051-.844-.134-1.692-.267-2.544a26.677,26.677,0,0,0-30.486-22.256c-1.219.191-2.435.348-3.649.486a26.8,26.8,0,0,0-4.792,1.977,141.315,141.315,0,0,0-16.483,10.314A139.731,139.731,0,0,0,400.438,254.5a139.2,139.2,0,0,0,66.331,5.792,26.68,26.68,0,0,0,5.25-1.374c1.055-.621,2.117-1.226,3.191-1.8a26.662,26.662,0,0,0,14.105-22.78" transform="translate(-45.241 -23.413)" fill="#00aa87"/>
          <path id="Path_823667" data-name="Path 823667" d="M430.067,371.39A26.527,26.527,0,0,1,436.811,382a23.961,23.961,0,0,0-1.26-3.647,85.947,85.947,0,0,1,26.33-108.814c2.265-1.646,4.622-3.18,7.03-4.6a26.744,26.744,0,0,1-5.25,1.373,139.2,139.2,0,0,1-66.331-5.792,139.245,139.245,0,0,0-24.4,77.542,139.519,139.519,0,0,1,57.139,33.324" transform="translate(-42.133 -29.434)" fill="#00d2aa"/>
          <path id="Path_823668" data-name="Path 823668" d="M386.59,423.51a26.547,26.547,0,0,1-12.079-11.9,139.546,139.546,0,0,1-15-64.414,139.334,139.334,0,0,0-81.391.458,139.743,139.743,0,0,1-6.764,46.671,141.468,141.468,0,0,1-7.271,18.031,26.562,26.562,0,0,1-9.938,11.008,26.171,26.171,0,0,0,4.6-3.566,85.951,85.951,0,0,1,111.629-8.581,87.469,87.469,0,0,1,9.238,7.741,25.5,25.5,0,0,0,6.984,4.551" transform="translate(-28.713 -38.565)" fill="#8cd26e"/>
          <path id="Path_823669" data-name="Path 823669" d="M257.7,288.248a140.087,140.087,0,0,0-14.8-26.729,139.743,139.743,0,0,1-46.4,7.962,141.148,141.148,0,0,1-19.394-1.342,26.592,26.592,0,0,1-8.6-2.766h-.124a85.943,85.943,0,0,1,42.511,103.436,86.978,86.978,0,0,1-4.05,10.2,26.677,26.677,0,0,1,4.547-6.06,139.587,139.587,0,0,1,57.038-34.311,139.514,139.514,0,0,0-10.73-50.389" transform="translate(-19.024 -29.546)" fill="#00d7e1"/>
          <path id="Path_823670" data-name="Path 823670" d="M211.03,369.449a128.687,128.687,0,0,1-33.4-86.594c0-3.741.169-7.444.482-11.105a87.582,87.582,0,0,0-7.579-4.654,136.933,136.933,0,0,0,37.3,110.662,86.354,86.354,0,0,0,3.2-8.308" transform="translate(-19.164 -30.176)" fill="#d1d3d4"/>
          <path id="Path_823671" data-name="Path 823671" d="M469.12,270.323c-1.122.814-2.214,1.653-3.286,2.509q.385,4.983.389,10.063A128.586,128.586,0,0,1,437,364.639a87.016,87.016,0,0,0,3.127,8.681,136.892,136.892,0,0,0,33.232-105.862c-1.438.918-2.857,1.864-4.236,2.865" transform="translate(-49.372 -30.217)" fill="#d1d3d4"/>
          <path id="Path_823672" data-name="Path 823672" d="M371.322,419.914c-.756-.55-1.526-1.068-2.294-1.59a129.1,129.1,0,0,1-99.4,1.68,87.128,87.128,0,0,0-7.032,5.734,137.052,137.052,0,0,0,113.694-1.928c-1.609-1.357-3.266-2.661-4.966-3.9" transform="translate(-29.668 -47.262)" fill="#d1d3d4"/>
          <path id="Path_823673" data-name="Path 823673" d="M358.193,140.554c.193.594.411,1.174.616,1.763A129.653,129.653,0,0,1,438,200.238a87.124,87.124,0,0,0,9.145-.276,137.657,137.657,0,0,0-90.894-66.446c.554,2.367,1.186,4.722,1.937,7.038" transform="translate(-40.249 -15.085)" fill="#d1d3d4"/>
          <path id="Path_823674" data-name="Path 823674" d="M198.094,201.557a129.612,129.612,0,0,1,83.028-60.009,87.318,87.318,0,0,0,2.27-8.64,137.611,137.611,0,0,0-94.226,68.1,87.4,87.4,0,0,0,8.928.548" transform="translate(-21.372 -15.016)" fill="#d1d3d4"/>
          <path id="Path_823675" data-name="Path 823675" d="M233.931,71.356a67.7,67.7,0,1,1-67.7-67.7,67.7,67.7,0,0,1,67.7,67.7" transform="translate(-11.131 -0.413)" fill="#0082d2"/>
          <path id="Path_823676" data-name="Path 823676" d="M165.815,141.883a70.942,70.942,0,1,1,70.942-70.941,71.023,71.023,0,0,1-70.942,70.941m0-135.4a64.463,64.463,0,1,0,64.462,64.463A64.536,64.536,0,0,0,165.815,6.479" transform="translate(-10.719 0)" fill="#d1d3d4"/>
          <path id="Path_823677" data-name="Path 823677" d="M388.112,527.74a71.634,71.634,0,1,1-71.636-71.634,71.635,71.635,0,0,1,71.636,71.634" transform="translate(-27.662 -51.531)" fill="#8cd26e"/>
          <path id="Path_823678" data-name="Path 823678" d="M316.04,602.365A75.061,75.061,0,1,1,391.1,527.3a75.146,75.146,0,0,1-75.063,75.062m0-143.267A68.206,68.206,0,1,0,384.247,527.3,68.283,68.283,0,0,0,316.04,459.1" transform="translate(-27.225 -51.094)" fill="#d1d3d4"/>
          <path id="Path_823679" data-name="Path 823679" d="M615.93,355.132A65.334,65.334,0,1,1,550.6,289.8a65.336,65.336,0,0,1,65.334,65.335" transform="translate(-54.824 -32.741)" fill="#00d2aa"/>
          <path id="Path_823680" data-name="Path 823680" d="M550.2,423.2a68.462,68.462,0,1,1,68.46-68.463A68.54,68.54,0,0,1,550.2,423.2m0-130.671A62.209,62.209,0,1,0,612.4,354.734,62.279,62.279,0,0,0,550.2,292.525" transform="translate(-54.426 -32.343)" fill="#d1d3d4"/>
          <path id="Path_823681" data-name="Path 823681" d="M539.761,79.025A70.555,70.555,0,1,1,469.206,8.469a70.555,70.555,0,0,1,70.555,70.556" transform="translate(-45.039 -0.957)" fill="#00aae1"/>
          <path id="Path_823682" data-name="Path 823682" d="M468.776,152.528A73.932,73.932,0,1,1,542.708,78.6a74.016,74.016,0,0,1-73.931,73.932m0-141.112A67.179,67.179,0,1,0,535.955,78.6a67.255,67.255,0,0,0-67.178-67.179" transform="translate(-44.609 -0.527)" fill="#d1d3d4"/>
          <path id="Path_823683" data-name="Path 823683" d="M146.153,370.63A71.157,71.157,0,1,1,75,299.472a71.157,71.157,0,0,1,71.157,71.158" transform="translate(-0.434 -33.834)" fill="#00d7e1"/>
          <path id="Path_823684" data-name="Path 823684" d="M74.562,444.759A74.563,74.563,0,1,1,149.125,370.2a74.646,74.646,0,0,1-74.563,74.563m0-142.315A67.753,67.753,0,1,0,142.315,370.2a67.828,67.828,0,0,0-67.752-67.752" transform="translate(0 -33.401)" fill="#d1d3d4"/>
        </g>
      </g>
      <g id="Group_1074006" data-name="Group 1074006" transform="translate(737.727 2628.852)">
        <g id="Group_1074005" data-name="Group 1074005" transform="translate(0 0)" clip-path="url(#clip-path-2)">
          <path id="Path_823685" data-name="Path 823685" d="M11.283,71.359c-2.274,0-4.55.056-6.822-.019a4.258,4.258,0,0,1-3.6-2.2A4.861,4.861,0,0,1,.14,65.276a4.4,4.4,0,0,0,.014-.943c.04-1.635.352-3.242.516-4.862.136-1.331.4-2.639.619-3.949.194-1.156.5-2.309.812-3.449.465-1.708.912-3.424,1.475-5.1.511-1.521,1.112-3.018,1.769-4.482.85-1.891,1.749-3.765,2.713-5.6a62.813,62.813,0,0,1,3.886-6.442c1.012-1.467,2.087-2.883,3.124-4.33a50.681,50.681,0,0,1,3.32-3.875c.937-1.063,1.912-2.083,2.939-3.046A61.73,61.73,0,0,1,28.6,13.216c1.363-.935,2.7-1.94,4.09-2.82,1.077-.681,2.232-1.291,3.356-1.922,1.639-.92,3.345-1.7,5.025-2.528a51.639,51.639,0,0,1,4.915-1.877c2.306-.852,4.68-1.477,7.046-2.134a38.8,38.8,0,0,1,3.879-.852C58.771.767,60.663.57,62.549.367a51.144,51.144,0,0,1,7.759-.33c2.285.1,4.573.191,6.857.476a86.052,86.052,0,0,1,8.692,1.6,21.64,21.64,0,0,0,2.887.767,15.229,15.229,0,0,1,3.609,1.129c.951.331,1.941.7,2.891,1.1,2.454,1.022,4.8,2.251,7.175,3.427a61.676,61.676,0,0,1,6.5,4.106,58.855,58.855,0,0,1,9.675,8.151c1.466,1.506,2.855,3.09,4.174,4.737a83.777,83.777,0,0,1,5.193,7.311,66.938,66.938,0,0,1,5.841,11.733,78.666,78.666,0,0,1,2.566,8.227c.592,2.195.923,4.435,1.3,6.665a43.439,43.439,0,0,1,.465,4.486c.055.893.059,1.785.111,2.675a4.328,4.328,0,0,1-2.037,3.817,4.906,4.906,0,0,1-3.127.9c-4.48.04-8.963.088-13.442-.03a4.489,4.489,0,0,1-4.046-2.768A7.433,7.433,0,0,1,115,66.055a52.626,52.626,0,0,0-.771-6.08,45.594,45.594,0,0,0-1.933-6.741,46.466,46.466,0,0,0-2.182-5.106,50.66,50.66,0,0,0-3.876-6.254,48.836,48.836,0,0,0-7.5-7.957A45.672,45.672,0,0,0,90,28.152a41.418,41.418,0,0,0-7.127-2.892A36.874,36.874,0,0,0,76.4,23.83c-1.687-.192-3.38-.4-5.088-.482a36.083,36.083,0,0,0-4.027-.066,38.962,38.962,0,0,0-5.806.6c-.946.2-1.927.252-2.868.474-.635.149-1.261.359-1.9.53a44.151,44.151,0,0,0-6.841,2.523A39.885,39.885,0,0,0,44.7,30.194a51.728,51.728,0,0,0-5.658,4.241,44.892,44.892,0,0,0-8.354,9.677,53.873,53.873,0,0,0-5.176,10.495,35.375,35.375,0,0,0-1.452,5.572,43.034,43.034,0,0,0-.673,5.777c-.157,2.655-1.2,4.412-3.777,5.185a6.252,6.252,0,0,1-1.708.209c-2.206.023-4.413.009-6.62.009M108.541,26.78c.167-.147.342-.288.5-.445,1.329-1.313,2.645-2.639,3.986-3.94.61-.591.639-.578.032-1.12a67.566,67.566,0,0,0-12.487-8.925A62.357,62.357,0,0,0,84.148,6.095c-1.44-.324-2.881-.672-4.341-.862-1.014-.132-2.048-.228-3.047-.4-1.64-.287-3.294-.114-4.924-.358-.3-.044-.493,0-.488.405.027,2.206.024,4.412.031,6.618q-.011,3.24-.023,6.481c0,1.047,0,1.041,1.016,1.1.286.016.57.13.853.119a24.5,24.5,0,0,1,5.224.608,45.9,45.9,0,0,1,6.963,1.811,50.416,50.416,0,0,1,17.422,10.252c.178.161.326.389.6.108q2.547-2.6,5.106-5.191M11.775,67.035v-.005c2.138,0,4.277-.031,6.414.018.69.016.857-.289.881-.86.024-.555.047-1.107.1-1.664A50.123,50.123,0,0,1,21,54.948,49.233,49.233,0,0,1,31.733,35.764c.362-.4.385-.686-.009-1.076q-4.754-4.694-9.484-9.412a1.694,1.694,0,0,0-.142-.144c-.245-.192-.429-.2-.669.072-.779.869-1.557,1.736-2.3,2.638A65.236,65.236,0,0,0,7.448,49.186a67.335,67.335,0,0,0-2,7.865c-.415,2.088-.606,4.214-.86,6.329A17.766,17.766,0,0,1,4.365,65.9c-.214.814.132,1.138,1,1.138q3.208,0,6.415,0m55.25-55.313h.006c0-2.207-.013-4.413.01-6.619,0-.469-.059-.681-.6-.647-.666.042-1.337.131-1.994.128a38.324,38.324,0,0,0-6.712.743,61.508,61.508,0,0,0-10.526,2.8A65.151,65.151,0,0,0,25.264,21.384c-.338.309-.39.491-.035.842q4.829,4.767,9.617,9.574c.327.329.5.279.8,0A49.553,49.553,0,0,1,46.7,24.261a48.722,48.722,0,0,1,19.746-5.208c.495-.023.591-.2.587-.643-.018-2.229-.008-4.458-.008-6.687M126.718,67.03v0h5.809c1.414,0,1.386,0,1.394-1.4s-.2-2.76-.32-4.135a53.6,53.6,0,0,0-1.218-7.077A63.886,63.886,0,0,0,127.735,41.1a60.531,60.531,0,0,0-4.119-7.331c-.863-1.3-1.763-2.587-2.712-3.829-1.22-1.6-2.546-3.112-3.884-4.615-.342-.384-.566-.4-.919-.035-1.29,1.32-2.6,2.62-3.9,3.927l-5.433,5.453c-.293.294-.587.543-.149.995a38.807,38.807,0,0,1,3.916,4.9,49.606,49.606,0,0,1,8.254,20.378,42.829,42.829,0,0,1,.568,5.006c.05,1.07.1,1.088,1.151,1.089h6.215" transform="translate(0 0)"/>
          <path id="Path_823686" data-name="Path 823686" d="M105.677,117.163c-5.571,0-11.141.014-16.711-.01a7.594,7.594,0,0,1-3.409-.9,9.1,9.1,0,0,1-4.526-5.157,9.409,9.409,0,0,1-.481-2.6,8.995,8.995,0,0,1,1.438-5.217c1.3-2.291,2.643-4.562,3.941-6.856.742-1.313,1.516-2.613,2.278-3.917,1.262-2.155,2.5-4.323,3.752-6.485,1.342-2.323,2.676-4.65,4.027-6.967.874-1.5,1.7-3.033,2.68-4.458a7.962,7.962,0,0,1,3.53-2.817,9.089,9.089,0,0,1,4.452-.646,8.154,8.154,0,0,1,6.335,3.66c1.493,2.243,2.779,4.616,4.139,6.942s2.679,4.639,4.016,6.959l7.005,12.147c.546.949,1.072,1.91,1.64,2.845a8.066,8.066,0,0,1,1.066,2.858,8.726,8.726,0,0,1-.186,3.963,9.277,9.277,0,0,1-2.211,3.982,8.917,8.917,0,0,1-3.17,2.09,9.676,9.676,0,0,1-3.563.583q-8.021.006-16.042,0m0-3.073c.063.005.126.015.19.015q8.065,0,16.133,0a6.706,6.706,0,0,0,1.578-.2,5.813,5.813,0,0,0,4.367-5.6,7.3,7.3,0,0,0-1.091-3.637c-3.063-5.275-6.087-10.573-9.166-15.839A38.155,38.155,0,0,0,114.5,83.59c.091-.445-.249-.722-.434-1.045-1.1-1.916-2.168-3.847-3.34-5.716a5.956,5.956,0,0,0-9.673-.306,24.109,24.109,0,0,0-1.569,2.615q-4.439,7.645-8.86,15.3-2.078,3.595-4.138,7.2c-.445.78-.842,1.6-1.315,2.347a10.757,10.757,0,0,0-1.328,2.545,5.557,5.557,0,0,0,.43,4.371,5.615,5.615,0,0,0,5.028,3.185c3.308.078,6.621.022,9.93.02q3.224,0,6.446-.015" transform="translate(-36.875 -32.551)"/>
          <path id="Path_823687" data-name="Path 823687" d="M105.439,112.322a11.916,11.916,0,0,1,3.308-8.177,11.316,11.316,0,0,1,6.033-3.326,26.866,26.866,0,0,1,3.439-.31c1.149-.1,2.1.482,3.146.695a8.348,8.348,0,0,1,2.993,1.429,10.419,10.419,0,0,1,2.827,2.836c.254.377.593.23.88.087,2.275-1.137,4.614-2.133,6.938-3.161,3.746-1.659,7.517-3.26,11.242-4.965,1.8-.823,3.633-1.555,5.43-2.374a2.509,2.509,0,0,1,2.982.256,2.111,2.111,0,0,1-.771,3.418c-1.688.851-3.433,1.573-5.164,2.326-1.166.507-2.346.986-3.491,1.538-3.4,1.642-6.913,3.038-10.347,4.608-1.7.778-3.421,1.524-5.16,2.215-.472.188-.572.428-.484.832a9.146,9.146,0,0,1,.259,2.436c-.265,4.993-2.467,8.8-7.092,10.879a11.9,11.9,0,0,1-15.982-6.307,9.916,9.916,0,0,1-.986-4.936m12.107-7.421a7.553,7.553,0,0,0-7.72,7.5,7.652,7.652,0,0,0,7.629,7.831,7.729,7.729,0,0,0,7.679-7.734,7.619,7.619,0,0,0-7.588-7.6" transform="translate(-48.282 -43.365)"/>
          <path id="Path_823688" data-name="Path 823688" d="M15.41,88.149q-3.207,0-6.415,0c-.864,0-1.21-.325-1-1.138a17.766,17.766,0,0,0,.222-2.516c.255-2.115.446-4.241.86-6.329a67.443,67.443,0,0,1,2-7.865,65.236,65.236,0,0,1,11.68-21.343c.742-.9,1.521-1.769,2.3-2.638.241-.269.424-.264.67-.072a1.777,1.777,0,0,1,.142.144Q30.614,51.1,35.359,55.8c.4.39.371.674.009,1.076A49.24,49.24,0,0,0,24.636,76.062,50.124,50.124,0,0,0,22.8,85.637c-.053.556-.075,1.109-.1,1.664-.024.571-.192.876-.881.86-2.137-.049-4.277-.018-6.415-.018Z" transform="translate(-3.635 -21.114)" fill="#89c8fe"/>
          <path id="Path_823689" data-name="Path 823689" d="M88.131,15.484c0,2.229-.01,4.458.008,6.687,0,.444-.092.621-.587.643a48.723,48.723,0,0,0-19.747,5.209,49.554,49.554,0,0,0-11.05,7.543c-.3.275-.477.325-.8,0q-4.787-4.808-9.617-9.573c-.356-.351-.3-.533.035-.842A65.149,65.149,0,0,1,68.312,11.888a61.531,61.531,0,0,1,10.526-2.8,38.318,38.318,0,0,1,6.711-.743c.657,0,1.329-.086,1.994-.127.546-.035.61.177.6.646-.023,2.206-.01,4.413-.01,6.619Z" transform="translate(-21.106 -3.761)" fill="#8cd26e"/>
          <path id="Path_823690" data-name="Path 823690" d="M216.589,88.166h-6.214c-1.055,0-1.1-.018-1.151-1.089a42.841,42.841,0,0,0-.568-5.006A49.606,49.606,0,0,0,200.4,61.694a38.805,38.805,0,0,0-3.915-4.9c-.437-.452-.144-.7.149-.995l5.433-5.453c1.3-1.308,2.614-2.607,3.9-3.927.353-.361.577-.349.919.035,1.337,1.5,2.663,3.017,3.884,4.615.949,1.242,1.848,2.526,2.712,3.829a60.529,60.529,0,0,1,4.119,7.331,63.888,63.888,0,0,1,4.648,13.332,53.608,53.608,0,0,1,1.218,7.077c.125,1.375.328,2.745.32,4.135s.02,1.4-1.394,1.4h-5.809Z" transform="translate(-89.871 -21.136)" fill="#fd636f"/>
          <path id="Path_823691" data-name="Path 823691" d="M131.649,15.262c-.008-2.206,0-4.413-.031-6.618,0-.408.189-.45.488-.4,1.631.244,3.285.071,4.924.358,1,.175,2.033.27,3.047.4,1.46.19,2.9.539,4.341.862a62.4,62.4,0,0,1,16.424,6.256,67.573,67.573,0,0,1,12.487,8.926c.607.543.578.529-.032,1.12-1.341,1.3-2.657,2.626-3.986,3.939-.159.157-.333.3-.5.445a15.536,15.536,0,0,1-3.232-2.361,58.3,58.3,0,0,0-9.512-6.286A56.175,56.175,0,0,0,134.9,15.646a11.206,11.206,0,0,1-3.251-.384" transform="translate(-60.269 -3.766)" fill="#ffe176"/>
          <path id="Path_823692" data-name="Path 823692" d="M131.657,21.207a11.206,11.206,0,0,0,3.251.384,56.175,56.175,0,0,1,21.166,6.254,58.3,58.3,0,0,1,9.512,6.286,15.536,15.536,0,0,0,3.232,2.361q-2.554,2.594-5.106,5.19c-.275.281-.422.053-.6-.108A50.419,50.419,0,0,0,145.69,31.321a46.052,46.052,0,0,0-6.964-1.811A24.535,24.535,0,0,0,133.5,28.9c-.282.011-.567-.1-.853-.118-1.016-.056-1.019-.049-1.016-1.1q.009-3.241.023-6.481" transform="translate(-60.276 -9.711)" fill="#fecf63"/>
          <path id="Path_823693" data-name="Path 823693" d="M127,76.809a5.366,5.366,0,0,1,4.954,2.638c1.172,1.869,2.245,3.8,3.34,5.716.185.323.524.6.434,1.045a38.207,38.207,0,0,1,3.188,5.236c3.08,5.265,6.1,10.564,9.167,15.839a7.313,7.313,0,0,1,1.091,3.637,5.814,5.814,0,0,1-4.368,5.6,6.726,6.726,0,0,1-1.578.2q-8.066,0-16.133,0c-.063,0-.127-.01-.19-.015a12.612,12.612,0,0,0,.095-2.261c.23-.038.461-.072.69-.115A3.975,3.975,0,0,0,130.769,109a3.8,3.8,0,0,0-3.86-2.6c-.055-.466.1-.931,0-1.4a3.624,3.624,0,0,0,3.234-1.983,4.14,4.14,0,0,0,.372-1.937c.02-1.98.131-3.955.218-5.932.033-.726.014-1.452.067-2.181.12-1.679.162-3.365.182-5.05a3.446,3.446,0,0,0-2.387-3.314,7.839,7.839,0,0,0-1.59-.214q0-3.788,0-7.577" transform="translate(-58.107 -35.171)" fill="#fecf63"/>
          <path id="Path_823694" data-name="Path 823694" d="M108.35,76.8q0,3.788,0,7.577c-.285.016-.571.026-.856.048a3.4,3.4,0,0,0-3.052,3.227c-.046,1.931.087,3.859.175,5.788.113,2.5.134,5.006.2,7.508a4.811,4.811,0,0,0,.123,1.118,3.565,3.565,0,0,0,3.309,2.92c.1.465-.054.931,0,1.4a4.433,4.433,0,0,0-2.436.841,4.11,4.11,0,0,0-1.435,3.871,4.313,4.313,0,0,0,3.965,3.345,12.609,12.609,0,0,1-.095,2.261q-3.222.007-6.445.015c-3.311,0-6.622.059-9.931-.02a5.913,5.913,0,0,1-5.459-7.556,10.741,10.741,0,0,1,1.329-2.545c.472-.75.869-1.568,1.314-2.347q2.059-3.605,4.139-7.2,4.424-7.653,8.86-15.3a23.85,23.85,0,0,1,1.569-2.614A5.372,5.372,0,0,1,108.35,76.8" transform="translate(-39.454 -35.166)" fill="#ffe176"/>
          <path id="Path_823695" data-name="Path 823695" d="M123.687,111.4a3.565,3.565,0,0,1-3.309-2.92,4.782,4.782,0,0,1-.124-1.118c-.07-2.5-.092-5.008-.2-7.508-.087-1.929-.22-3.857-.175-5.788a3.4,3.4,0,0,1,3.052-3.227c.285-.022.571-.032.857-.048a7.838,7.838,0,0,1,1.59.214,3.445,3.445,0,0,1,2.387,3.314c-.02,1.684-.062,3.37-.182,5.05-.053.729-.034,1.454-.066,2.181-.088,1.976-.2,3.952-.219,5.932a4.123,4.123,0,0,1-.372,1.936,3.624,3.624,0,0,1-3.234,1.983m.985-15.938c.006-.1.014-.19.018-.286.069-1.3.069-1.295-1.252-1.284-.375,0-.536.108-.524.52.034,1.2,0,2.407.1,3.61.07.817.041,1.641.073,2.462.069,1.753.158,3.506.218,5.259.025.715.052,1.43.093,2.144a.4.4,0,0,0,.475.412c.258-.028.327-.217.3-.454a6.393,6.393,0,0,1,.076-1.174c.148-2.627.139-5.259.273-7.887.056-1.106.093-2.215.148-3.322" transform="translate(-54.888 -41.573)"/>
          <path id="Path_823696" data-name="Path 823696" d="M123.678,139.44a4.314,4.314,0,0,1-3.965-3.345,4.114,4.114,0,0,1,1.435-3.871,4.435,4.435,0,0,1,2.436-.841,3.8,3.8,0,0,1,3.861,2.605,3.976,3.976,0,0,1-3.076,5.336c-.229.043-.46.077-.69.115m.954-4.035a.877.877,0,0,0-.923-.966.932.932,0,0,0-.974.942,1.087,1.087,0,0,0,.979.983,1.042,1.042,0,0,0,.918-.96" transform="translate(-54.782 -60.162)"/>
          <path id="Path_823697" data-name="Path 823697" d="M127.247,98.077c-.055,1.107-.092,2.216-.148,3.322-.134,2.628-.125,5.26-.273,7.887a6.4,6.4,0,0,0-.076,1.174c.029.237-.04.426-.3.454a.4.4,0,0,1-.475-.412c-.041-.714-.068-1.429-.093-2.144-.06-1.754-.15-3.506-.218-5.259-.032-.821,0-1.645-.073-2.462-.1-1.2-.069-2.406-.1-3.61-.012-.413.15-.517.524-.52,1.321-.01,1.321-.019,1.252,1.284,0,.1-.012.19-.018.286" transform="translate(-57.462 -44.191)" fill="#fd636f"/>
          <path id="Path_823698" data-name="Path 823698" d="M127.25,137.986a1.042,1.042,0,0,1-.918.96,1.087,1.087,0,0,1-.979-.983.932.932,0,0,1,.974-.942.877.877,0,0,1,.923.966" transform="translate(-57.4 -62.743)" fill="#fd636f"/>
        </g>
      </g>
      <path id="Path_824391" data-name="Path 824391" d="M6.533-5.205H4.2V0H1.27V-14.219H6.553A5.972,5.972,0,0,1,10.439-13.1a3.876,3.876,0,0,1,1.367,3.174,4.374,4.374,0,0,1-.63,2.427A4.3,4.3,0,0,1,9.268-5.947L12.344-.137V0H9.2ZM4.2-7.578H6.563A2.42,2.42,0,0,0,8.271-8.14a2.007,2.007,0,0,0,.605-1.548,2.148,2.148,0,0,0-.571-1.582,2.374,2.374,0,0,0-1.753-.576H4.2ZM16.826,0H13.994V-10.566h2.832Zm-3-13.3a1.39,1.39,0,0,1,.425-1.045,1.6,1.6,0,0,1,1.157-.41,1.6,1.6,0,0,1,1.152.41,1.382,1.382,0,0,1,.43,1.045,1.386,1.386,0,0,1-.435,1.055,1.6,1.6,0,0,1-1.147.41,1.6,1.6,0,0,1-1.147-.41A1.386,1.386,0,0,1,13.828-13.3ZM24.014.2A5.187,5.187,0,0,1,20.229-1.23a5.068,5.068,0,0,1-1.46-3.8V-5.3a6.383,6.383,0,0,1,.615-2.847,4.515,4.515,0,0,1,1.743-1.934,4.893,4.893,0,0,1,2.573-.679,4.385,4.385,0,0,1,3.413,1.367,5.555,5.555,0,0,1,1.245,3.877v1.152H21.631a2.622,2.622,0,0,0,.825,1.66A2.5,2.5,0,0,0,24.2-2.08a3.046,3.046,0,0,0,2.549-1.182l1.387,1.553a4.237,4.237,0,0,1-1.719,1.4A5.639,5.639,0,0,1,24.014.2Zm-.322-8.682a1.764,1.764,0,0,0-1.362.569,2.946,2.946,0,0,0-.669,1.628h3.926v-.226a2.1,2.1,0,0,0-.508-1.457A1.819,1.819,0,0,0,23.691-8.486ZM35.684-2.92a.909.909,0,0,0-.513-.815,5.824,5.824,0,0,0-1.646-.532q-3.77-.791-3.77-3.2a2.9,2.9,0,0,1,1.167-2.349,4.708,4.708,0,0,1,3.052-.942,5.067,5.067,0,0,1,3.218.947A2.985,2.985,0,0,1,38.4-7.354H35.576a1.366,1.366,0,0,0-.391-1,1.653,1.653,0,0,0-1.221-.4,1.689,1.689,0,0,0-1.1.322,1.017,1.017,0,0,0-.391.82.87.87,0,0,0,.444.757,4.571,4.571,0,0,0,1.5.5,12.244,12.244,0,0,1,1.777.474,2.92,2.92,0,0,1,2.236,2.842A2.756,2.756,0,0,1,37.188-.7a5.35,5.35,0,0,1-3.2.894,5.588,5.588,0,0,1-2.358-.474,3.957,3.957,0,0,1-1.616-1.3,3.018,3.018,0,0,1-.586-1.782H32.1a1.473,1.473,0,0,0,.557,1.152,2.208,2.208,0,0,0,1.387.4,2.044,2.044,0,0,0,1.226-.308A.957.957,0,0,0,35.684-2.92Zm4.15-2.441a6.193,6.193,0,0,1,1.157-3.916,3.75,3.75,0,0,1,3.12-1.484A3.289,3.289,0,0,1,46.816-9.57l.117-1h2.559V-.352a4.516,4.516,0,0,1-.63,2.412A4.045,4.045,0,0,1,47.09,3.623a6.231,6.231,0,0,1-2.676.537A5.794,5.794,0,0,1,42.148,3.7a4.021,4.021,0,0,1-1.67-1.2L41.729.781a3.306,3.306,0,0,0,2.559,1.182,2.42,2.42,0,0,0,1.748-.6,2.253,2.253,0,0,0,.625-1.7V-.908A3.264,3.264,0,0,1,44.092.2a3.74,3.74,0,0,1-3.081-1.489,6.191,6.191,0,0,1-1.177-3.95Zm2.822.21A3.856,3.856,0,0,0,43.232-2.9a1.833,1.833,0,0,0,1.582.817,1.96,1.96,0,0,0,1.846-.968V-7.5a1.955,1.955,0,0,0-1.826-.968,1.844,1.844,0,0,0-1.6.831A4.346,4.346,0,0,0,42.656-5.151Zm8.564-.23a6.267,6.267,0,0,1,.605-2.8,4.432,4.432,0,0,1,1.743-1.9,5.086,5.086,0,0,1,2.642-.674A4.812,4.812,0,0,1,59.7-9.453,5.252,5.252,0,0,1,61.211-5.9l.02.723a5.523,5.523,0,0,1-1.357,3.9A4.718,4.718,0,0,1,56.23.2,4.742,4.742,0,0,1,52.583-1.27a5.62,5.62,0,0,1-1.362-3.984Zm2.822.2a3.95,3.95,0,0,0,.566,2.3,1.868,1.868,0,0,0,1.621.8,1.873,1.873,0,0,0,1.6-.787,4.322,4.322,0,0,0,.576-2.518,3.91,3.91,0,0,0-.576-2.289,1.873,1.873,0,0,0-1.621-.812,1.842,1.842,0,0,0-1.6.807A4.395,4.395,0,0,0,54.043-5.181Z" transform="translate(779 2738.811)"/>
      <path id="Path_823699" data-name="Path 823699" d="M-14.54,0H159.717c11.85,0,21.457,9.972,21.457,22.273s-9.607,22.273-21.457,22.273H-14.54S-35.563,43.2-36,24.748-26.39,0-14.54,0Z" transform="translate(598.011 2496.445)" fill="#ffbf9a"/>
      <path id="Path_823703" data-name="Path 823703" d="M-14.54,0H159.717c11.85,0,21.457,9.972,21.457,22.273s-9.607,22.273-21.457,22.273H-14.54S-35.563,43.2-36,24.748-26.39,0-14.54,0Z" transform="translate(734.011 2900.406)" fill="#ffbf9a"/>
      <path id="Path_823704" data-name="Path 823704" d="M-14.54,0H159.717c11.85,0,21.457,9.972,21.457,22.273s-9.607,22.273-21.457,22.273H-14.54S-35.563,43.2-36,24.748-26.39,0-14.54,0Z" transform="translate(944.011 2755.811)" fill="#ffbf9a"/>
      <path id="Path_823702" data-name="Path 823702" d="M-13.339,0h184a22.468,22.468,0,0,1,22.657,22.273,22.468,22.468,0,0,1-22.657,22.273h-184S-35.538,43.2-36,24.748-25.852,0-13.339,0Z" transform="translate(511.011 2756.134)" fill="#ffbf9a"/>
      <path id="Path_823700" data-name="Path 823700" d="M21.471,0H195.727c11.85,0,21.457,9.972,21.457,22.273s-9.607,22.273-21.457,22.273H21.471S.448,43.2.014,24.748,9.62,0,21.471,0Z" transform="translate(1053.185 2540.992) rotate(180)" fill="#ffbf9a"/>
      <path id="Path_824392" data-name="Path 824392" d="M1.143,0V-12.8H5.625a5.886,5.886,0,0,1,3.533.892,3.05,3.05,0,0,1,1.2,2.615,2.891,2.891,0,0,1-.483,1.657,2.792,2.792,0,0,1-1.345,1.05,2.7,2.7,0,0,1,1.551.993,2.936,2.936,0,0,1,.567,1.828A3.377,3.377,0,0,1,9.475-.967,5.3,5.3,0,0,1,6.117,0ZM3.779-5.572v3.454H6.038a2.18,2.18,0,0,0,1.455-.444,1.522,1.522,0,0,0,.523-1.226A1.607,1.607,0,0,0,6.2-5.572Zm0-1.863H5.73q2-.035,2-1.591a1.47,1.47,0,0,0-.505-1.252,2.658,2.658,0,0,0-1.6-.382H3.779ZM15.144,0H12.595V-9.51h2.549Zm-2.7-11.971a1.251,1.251,0,0,1,.382-.94,1.436,1.436,0,0,1,1.042-.369,1.44,1.44,0,0,1,1.037.369,1.244,1.244,0,0,1,.387.94,1.247,1.247,0,0,1-.391.949,1.443,1.443,0,0,1-1.033.369,1.443,1.443,0,0,1-1.033-.369A1.247,1.247,0,0,1,12.445-11.971ZM16.84-4.843a5.64,5.64,0,0,1,.545-2.522,3.989,3.989,0,0,1,1.569-1.714,4.577,4.577,0,0,1,2.377-.606,4.33,4.33,0,0,1,3.142,1.178,4.727,4.727,0,0,1,1.358,3.2l.018.65a4.97,4.97,0,0,1-1.222,3.511A4.247,4.247,0,0,1,21.349.176a4.268,4.268,0,0,1-3.283-1.318A5.058,5.058,0,0,1,16.84-4.729Zm2.54.18a3.555,3.555,0,0,0,.51,2.073,1.682,1.682,0,0,0,1.459.717,1.686,1.686,0,0,0,1.441-.709,3.89,3.89,0,0,0,.519-2.267,3.519,3.519,0,0,0-.519-2.06,1.686,1.686,0,0,0-1.459-.731,1.658,1.658,0,0,0-1.441.726A3.955,3.955,0,0,0,19.38-4.662ZM30.094,0H27.545V-13.5h2.549Zm1.7-4.843a5.64,5.64,0,0,1,.545-2.522A3.989,3.989,0,0,1,33.9-9.079a4.577,4.577,0,0,1,2.377-.606,4.33,4.33,0,0,1,3.142,1.178,4.727,4.727,0,0,1,1.358,3.2l.018.65a4.97,4.97,0,0,1-1.222,3.511A4.247,4.247,0,0,1,36.3.176a4.268,4.268,0,0,1-3.283-1.318A5.058,5.058,0,0,1,31.79-4.729Zm2.54.18a3.555,3.555,0,0,0,.51,2.073,1.682,1.682,0,0,0,1.459.717,1.686,1.686,0,0,0,1.441-.709,3.89,3.89,0,0,0,.519-2.267,3.519,3.519,0,0,0-.519-2.06,1.686,1.686,0,0,0-1.459-.731,1.658,1.658,0,0,0-1.441.726A3.955,3.955,0,0,0,34.33-4.662ZM36.782-13.5h2.769l-2.435,2.725H35.051Zm5.212,8.675A5.573,5.573,0,0,1,43.036-8.35a3.375,3.375,0,0,1,2.808-1.336,2.96,2.96,0,0,1,2.435,1.072l.105-.9h2.3V-.316a4.064,4.064,0,0,1-.567,2.171,3.641,3.641,0,0,1-1.6,1.406,5.608,5.608,0,0,1-2.408.483,5.215,5.215,0,0,1-2.039-.417,3.619,3.619,0,0,1-1.5-1.077L43.7.7A2.975,2.975,0,0,0,46,1.767a2.178,2.178,0,0,0,1.573-.541,2.027,2.027,0,0,0,.563-1.534v-.51a2.938,2.938,0,0,1-2.312.993,3.366,3.366,0,0,1-2.773-1.34A5.572,5.572,0,0,1,41.994-4.72Zm2.54.189a3.47,3.47,0,0,0,.519,2.029,1.65,1.65,0,0,0,1.424.735,1.764,1.764,0,0,0,1.661-.871V-6.749a1.76,1.76,0,0,0-1.644-.871,1.66,1.66,0,0,0-1.437.748A3.911,3.911,0,0,0,44.534-4.636ZM55.318,0H52.77V-9.51h2.549Zm-2.7-11.971a1.251,1.251,0,0,1,.382-.94,1.436,1.436,0,0,1,1.042-.369,1.44,1.44,0,0,1,1.037.369,1.244,1.244,0,0,1,.387.94,1.247,1.247,0,0,1-.391.949,1.443,1.443,0,0,1-1.033.369,1.443,1.443,0,0,1-1.033-.369A1.247,1.247,0,0,1,52.62-11.971Zm8.745,10.1a1.666,1.666,0,0,0,1.143-.387,1.355,1.355,0,0,0,.457-1.028h2.382a3.258,3.258,0,0,1-.527,1.771A3.48,3.48,0,0,1,63.4-.268a4.442,4.442,0,0,1-1.991.444,4.129,4.129,0,0,1-3.217-1.3A5.13,5.13,0,0,1,57.015-4.7v-.167a5.071,5.071,0,0,1,1.169-3.507,4.08,4.08,0,0,1,3.208-1.31A4,4,0,0,1,64.252-8.67a3.594,3.594,0,0,1,1.094,2.7H62.965a1.745,1.745,0,0,0-.457-1.206,1.524,1.524,0,0,0-1.16-.464,1.53,1.53,0,0,0-1.34.647,3.749,3.749,0,0,0-.453,2.1v.264A3.8,3.8,0,0,0,60-2.515,1.549,1.549,0,0,0,61.365-1.872ZM66.4-4.843a5.64,5.64,0,0,1,.545-2.522,3.989,3.989,0,0,1,1.569-1.714,4.577,4.577,0,0,1,2.377-.606,4.33,4.33,0,0,1,3.142,1.178,4.727,4.727,0,0,1,1.358,3.2l.018.65a4.97,4.97,0,0,1-1.222,3.511A4.247,4.247,0,0,1,70.91.176a4.268,4.268,0,0,1-3.283-1.318A5.058,5.058,0,0,1,66.4-4.729Zm2.54.18a3.555,3.555,0,0,0,.51,2.073,1.682,1.682,0,0,0,1.459.717,1.686,1.686,0,0,0,1.441-.709,3.89,3.89,0,0,0,.519-2.267,3.519,3.519,0,0,0-.519-2.06,1.686,1.686,0,0,0-1.459-.731,1.658,1.658,0,0,0-1.441.726A3.955,3.955,0,0,0,68.941-4.662Z" transform="translate(905 2524.811)"/>
      <path id="Path_824393" data-name="Path 824393" d="M8.842-5.229H3.779V0H1.143V-12.8H9.475v2.136h-5.7v3.3H8.842ZM13.579,0h-2.54V-9.51h2.54Zm-.747-13.368H15.6l-2.435,2.725H11.1Zm8.086,10.74a.818.818,0,0,0-.461-.734,5.241,5.241,0,0,0-1.481-.479q-3.393-.712-3.393-2.883a2.613,2.613,0,0,1,1.05-2.114,4.237,4.237,0,0,1,2.747-.848,4.56,4.56,0,0,1,2.9.853,2.687,2.687,0,0,1,1.085,2.215h-2.54a1.229,1.229,0,0,0-.352-.9,1.488,1.488,0,0,0-1.1-.356,1.52,1.52,0,0,0-.993.29.916.916,0,0,0-.352.738.783.783,0,0,0,.4.681,4.114,4.114,0,0,0,1.349.448,11.019,11.019,0,0,1,1.6.426,2.628,2.628,0,0,1,2.013,2.558,2.481,2.481,0,0,1-1.116,2.1,4.815,4.815,0,0,1-2.883.8A5.029,5.029,0,0,1,17.266-.25a3.561,3.561,0,0,1-1.455-1.169,2.716,2.716,0,0,1-.527-1.6h2.408a1.326,1.326,0,0,0,.5,1.037,1.987,1.987,0,0,0,1.248.36,1.839,1.839,0,0,0,1.1-.277A.861.861,0,0,0,20.918-2.628ZM27.7,0H25.154V-9.51H27.7ZM25-11.971a1.251,1.251,0,0,1,.382-.94,1.436,1.436,0,0,1,1.042-.369,1.44,1.44,0,0,1,1.037.369,1.244,1.244,0,0,1,.387.94,1.247,1.247,0,0,1-.391.949,1.443,1.443,0,0,1-1.033.369,1.443,1.443,0,0,1-1.033-.369A1.247,1.247,0,0,1,25-11.971Zm8.745,10.1a1.666,1.666,0,0,0,1.143-.387,1.355,1.355,0,0,0,.457-1.028h2.382A3.258,3.258,0,0,1,37.2-1.516,3.48,3.48,0,0,1,35.785-.268a4.442,4.442,0,0,1-1.991.444,4.129,4.129,0,0,1-3.217-1.3A5.13,5.13,0,0,1,29.4-4.7v-.167a5.071,5.071,0,0,1,1.169-3.507,4.08,4.08,0,0,1,3.208-1.31A4,4,0,0,1,36.637-8.67a3.594,3.594,0,0,1,1.094,2.7H35.35a1.745,1.745,0,0,0-.457-1.206,1.524,1.524,0,0,0-1.16-.464,1.53,1.53,0,0,0-1.34.647,3.749,3.749,0,0,0-.453,2.1v.264a3.8,3.8,0,0,0,.448,2.113A1.549,1.549,0,0,0,33.75-1.872Zm5.036-2.971a5.64,5.64,0,0,1,.545-2.522A3.989,3.989,0,0,1,40.9-9.079a4.577,4.577,0,0,1,2.377-.606,4.33,4.33,0,0,1,3.142,1.178,4.727,4.727,0,0,1,1.358,3.2l.018.65a4.97,4.97,0,0,1-1.222,3.511A4.247,4.247,0,0,1,43.295.176a4.268,4.268,0,0,1-3.283-1.318,5.058,5.058,0,0,1-1.226-3.586Zm2.54.18a3.555,3.555,0,0,0,.51,2.073,1.682,1.682,0,0,0,1.459.717,1.686,1.686,0,0,0,1.441-.709,3.89,3.89,0,0,0,.519-2.267,3.519,3.519,0,0,0-.519-2.06,1.686,1.686,0,0,0-1.459-.731,1.658,1.658,0,0,0-1.441.726A3.955,3.955,0,0,0,41.326-4.662Z" transform="translate(984 2785.811)"/>
      <path id="Path_824394" data-name="Path 824394" d="M11.637-6.108a7.71,7.71,0,0,1-.58,3.116A5.349,5.349,0,0,1,9.448-.87L11.575.8,9.9,2.285,7.172.1a5.767,5.767,0,0,1-.967.079A5.324,5.324,0,0,1,3.366-.589,5.08,5.08,0,0,1,1.433-2.773,7.5,7.5,0,0,1,.738-6.038v-.633A7.685,7.685,0,0,1,1.419-10,5.072,5.072,0,0,1,3.344-12.2a5.3,5.3,0,0,1,2.843-.769,5.3,5.3,0,0,1,2.843.769A5.072,5.072,0,0,1,10.956-10a7.663,7.663,0,0,1,.681,3.318Zm-2.672-.58a5.385,5.385,0,0,0-.721-3.059,2.349,2.349,0,0,0-2.057-1.046A2.349,2.349,0,0,0,4.14-9.76,5.324,5.324,0,0,0,3.41-6.732v.624a5.453,5.453,0,0,0,.721,3.041A2.342,2.342,0,0,0,6.205-1.986,2.321,2.321,0,0,0,8.244-3.028a5.421,5.421,0,0,0,.721-3.037ZM19.1-.967A3.185,3.185,0,0,1,16.5.176,3,3,0,0,1,14.164-.7a3.752,3.752,0,0,1-.822-2.575V-9.51h2.54v6.151q0,1.487,1.354,1.487a1.834,1.834,0,0,0,1.775-.9V-9.51H21.56V0H19.169ZM26.218,0h-2.54V-9.51h2.54Zm-.747-13.368h2.769L25.8-10.644H23.739ZM30.788-9.51l.079,1.063A3.342,3.342,0,0,1,33.6-9.686a2.536,2.536,0,0,1,2.522,1.45,3.265,3.265,0,0,1,2.856-1.45,2.836,2.836,0,0,1,2.3.9,4.141,4.141,0,0,1,.756,2.711V0H39.489V-6.064a1.811,1.811,0,0,0-.316-1.182,1.4,1.4,0,0,0-1.116-.374,1.585,1.585,0,0,0-1.582,1.09L36.483,0h-2.54V-6.056a1.789,1.789,0,0,0-.325-1.2,1.416,1.416,0,0,0-1.107-.369,1.646,1.646,0,0,0-1.564.9V0h-2.54V-9.51ZM46.67,0H44.121V-9.51H46.67Zm-2.7-11.971a1.251,1.251,0,0,1,.382-.94A1.436,1.436,0,0,1,45.4-13.28a1.44,1.44,0,0,1,1.037.369,1.244,1.244,0,0,1,.387.94,1.247,1.247,0,0,1-.391.949,1.443,1.443,0,0,1-1.033.369,1.443,1.443,0,0,1-1.033-.369A1.247,1.247,0,0,1,43.972-11.971Zm8.745,10.1a1.666,1.666,0,0,0,1.143-.387,1.355,1.355,0,0,0,.457-1.028H56.7a3.258,3.258,0,0,1-.527,1.771A3.48,3.48,0,0,1,54.751-.268a4.442,4.442,0,0,1-1.991.444,4.129,4.129,0,0,1-3.217-1.3A5.13,5.13,0,0,1,48.366-4.7v-.167a5.071,5.071,0,0,1,1.169-3.507,4.08,4.08,0,0,1,3.208-1.31A4,4,0,0,1,55.6-8.67a3.594,3.594,0,0,1,1.094,2.7H54.316a1.745,1.745,0,0,0-.457-1.206,1.524,1.524,0,0,0-1.16-.464,1.53,1.53,0,0,0-1.34.647,3.749,3.749,0,0,0-.453,2.1v.264a3.8,3.8,0,0,0,.448,2.113A1.549,1.549,0,0,0,52.717-1.872Zm5.036-2.971A5.64,5.64,0,0,1,58.3-7.365a3.989,3.989,0,0,1,1.569-1.714,4.577,4.577,0,0,1,2.377-.606,4.33,4.33,0,0,1,3.142,1.178,4.727,4.727,0,0,1,1.358,3.2l.018.65A4.97,4.97,0,0,1,65.54-1.147,4.247,4.247,0,0,1,62.262.176a4.268,4.268,0,0,1-3.283-1.318,5.058,5.058,0,0,1-1.226-3.586Zm2.54.18a3.555,3.555,0,0,0,.51,2.073,1.682,1.682,0,0,0,1.459.717A1.686,1.686,0,0,0,63.7-2.581a3.89,3.89,0,0,0,.519-2.267,3.519,3.519,0,0,0-.519-2.06,1.686,1.686,0,0,0-1.459-.731,1.658,1.658,0,0,0-1.441.726A3.955,3.955,0,0,0,60.293-4.662Z" transform="translate(771 2928.811)"/>
      <path id="Path_824395" data-name="Path 824395" d="M9.536-4.667a5.7,5.7,0,0,1-1,3.52A3.2,3.2,0,0,1,5.845.176a2.963,2.963,0,0,1-2.329-1V3.656H.976V-9.51H3.331l.088.932A2.985,2.985,0,0,1,5.827-9.686a3.22,3.22,0,0,1,2.733,1.3A5.858,5.858,0,0,1,9.536-4.8ZM7-4.852A3.743,3.743,0,0,0,6.526-6.9,1.532,1.532,0,0,0,5.159-7.62a1.663,1.663,0,0,0-1.644.914v3.894a1.692,1.692,0,0,0,1.661.94Q7-1.872,7-4.852ZM16.26-2.628a.818.818,0,0,0-.461-.734,5.241,5.241,0,0,0-1.481-.479q-3.393-.712-3.393-2.883a2.613,2.613,0,0,1,1.05-2.114,4.237,4.237,0,0,1,2.747-.848,4.56,4.56,0,0,1,2.9.853A2.687,2.687,0,0,1,18.7-6.618h-2.54a1.229,1.229,0,0,0-.352-.9,1.488,1.488,0,0,0-1.1-.356,1.52,1.52,0,0,0-.993.29.916.916,0,0,0-.352.738.783.783,0,0,0,.4.681,4.114,4.114,0,0,0,1.349.448,11.019,11.019,0,0,1,1.6.426,2.628,2.628,0,0,1,2.013,2.558,2.481,2.481,0,0,1-1.116,2.1,4.815,4.815,0,0,1-2.883.8A5.029,5.029,0,0,1,12.608-.25a3.561,3.561,0,0,1-1.455-1.169,2.716,2.716,0,0,1-.527-1.6h2.408a1.326,1.326,0,0,0,.5,1.037,1.987,1.987,0,0,0,1.248.36,1.839,1.839,0,0,0,1.1-.277A.861.861,0,0,0,16.26-2.628ZM23.045,0H20.5V-9.51h2.549Zm-2.7-11.971a1.251,1.251,0,0,1,.382-.94,1.436,1.436,0,0,1,1.042-.369,1.44,1.44,0,0,1,1.037.369,1.244,1.244,0,0,1,.387.94,1.247,1.247,0,0,1-.391.949,1.443,1.443,0,0,1-1.033.369,1.443,1.443,0,0,1-1.033-.369A1.247,1.247,0,0,1,20.347-11.971Zm8.745,10.1a1.666,1.666,0,0,0,1.143-.387,1.355,1.355,0,0,0,.457-1.028h2.382a3.258,3.258,0,0,1-.527,1.771A3.48,3.48,0,0,1,31.126-.268a4.442,4.442,0,0,1-1.991.444,4.129,4.129,0,0,1-3.217-1.3A5.13,5.13,0,0,1,24.741-4.7v-.167A5.071,5.071,0,0,1,25.91-8.376a4.08,4.08,0,0,1,3.208-1.31A4,4,0,0,1,31.979-8.67a3.594,3.594,0,0,1,1.094,2.7H30.691a1.745,1.745,0,0,0-.457-1.206,1.524,1.524,0,0,0-1.16-.464,1.53,1.53,0,0,0-1.34.647,3.749,3.749,0,0,0-.453,2.1v.264a3.8,3.8,0,0,0,.448,2.113A1.549,1.549,0,0,0,29.092-1.872Zm5.036-2.971a5.64,5.64,0,0,1,.545-2.522,3.989,3.989,0,0,1,1.569-1.714,4.577,4.577,0,0,1,2.377-.606,4.33,4.33,0,0,1,3.142,1.178,4.727,4.727,0,0,1,1.358,3.2l.018.65a4.97,4.97,0,0,1-1.222,3.511A4.247,4.247,0,0,1,38.637.176a4.268,4.268,0,0,1-3.283-1.318,5.058,5.058,0,0,1-1.226-3.586Zm2.54.18a3.555,3.555,0,0,0,.51,2.073,1.682,1.682,0,0,0,1.459.717,1.686,1.686,0,0,0,1.441-.709A3.89,3.89,0,0,0,40.6-4.847a3.519,3.519,0,0,0-.519-2.06,1.686,1.686,0,0,0-1.459-.731,1.658,1.658,0,0,0-1.441.726A3.955,3.955,0,0,0,36.668-4.662ZM45.316,0V-7.646H43.9V-9.51h1.415v-.439a3.566,3.566,0,0,1,1.1-2.764,4.438,4.438,0,0,1,3.063-.971,10.16,10.16,0,0,1,2.883.519L52-11.065a11.248,11.248,0,0,0-1.336-.33,6.564,6.564,0,0,0-1.02-.075q-1.775,0-1.775,1.573v.387h1.872v1.863H47.865V0Zm8.235,0H51V-9.51h2.549ZM60.8-2.628a.818.818,0,0,0-.461-.734,5.241,5.241,0,0,0-1.481-.479q-3.393-.712-3.393-2.883a2.613,2.613,0,0,1,1.05-2.114,4.237,4.237,0,0,1,2.747-.848,4.56,4.56,0,0,1,2.9.853,2.687,2.687,0,0,1,1.085,2.215h-2.54a1.229,1.229,0,0,0-.352-.9,1.488,1.488,0,0,0-1.1-.356,1.52,1.52,0,0,0-.993.29.916.916,0,0,0-.352.738.783.783,0,0,0,.4.681,4.114,4.114,0,0,0,1.349.448,11.019,11.019,0,0,1,1.6.426,2.628,2.628,0,0,1,2.013,2.558,2.481,2.481,0,0,1-1.116,2.1,4.815,4.815,0,0,1-2.883.8A5.029,5.029,0,0,1,57.151-.25,3.561,3.561,0,0,1,55.7-1.419a2.716,2.716,0,0,1-.527-1.6h2.408a1.326,1.326,0,0,0,.5,1.037,1.987,1.987,0,0,0,1.248.36,1.839,1.839,0,0,0,1.1-.277A.861.861,0,0,0,60.8-2.628ZM67.588,0H65.039V-9.51h2.549Zm-2.7-11.971a1.251,1.251,0,0,1,.382-.94,1.436,1.436,0,0,1,1.042-.369,1.44,1.44,0,0,1,1.037.369,1.244,1.244,0,0,1,.387.94,1.247,1.247,0,0,1-.391.949,1.443,1.443,0,0,1-1.033.369,1.443,1.443,0,0,1-1.033-.369A1.247,1.247,0,0,1,64.89-11.971Zm4.395,7.128a5.64,5.64,0,0,1,.545-2.522A3.989,3.989,0,0,1,71.4-9.079a4.577,4.577,0,0,1,2.377-.606,4.33,4.33,0,0,1,3.142,1.178,4.727,4.727,0,0,1,1.358,3.2l.018.65a4.97,4.97,0,0,1-1.222,3.511A4.247,4.247,0,0,1,73.793.176,4.268,4.268,0,0,1,70.51-1.143a5.058,5.058,0,0,1-1.226-3.586Zm2.54.18a3.555,3.555,0,0,0,.51,2.073,1.682,1.682,0,0,0,1.459.717,1.686,1.686,0,0,0,1.441-.709,3.89,3.89,0,0,0,.519-2.267,3.519,3.519,0,0,0-.519-2.06,1.686,1.686,0,0,0-1.459-.731,1.658,1.658,0,0,0-1.441.726A3.955,3.955,0,0,0,71.824-4.662ZM82.538,0H79.989V-13.5h2.549Zm1.7-4.843a5.64,5.64,0,0,1,.545-2.522,3.989,3.989,0,0,1,1.569-1.714,4.577,4.577,0,0,1,2.377-.606,4.33,4.33,0,0,1,3.142,1.178,4.727,4.727,0,0,1,1.358,3.2l.018.65a4.97,4.97,0,0,1-1.222,3.511A4.247,4.247,0,0,1,88.743.176,4.268,4.268,0,0,1,85.46-1.143a5.058,5.058,0,0,1-1.226-3.586Zm2.54.18a3.555,3.555,0,0,0,.51,2.073,1.682,1.682,0,0,0,1.459.717,1.686,1.686,0,0,0,1.441-.709A3.89,3.89,0,0,0,90.7-4.847a3.519,3.519,0,0,0-.519-2.06,1.686,1.686,0,0,0-1.459-.731,1.658,1.658,0,0,0-1.441.726A3.955,3.955,0,0,0,86.774-4.662ZM89.227-13.5H92l-2.435,2.725H87.5Zm5.212,8.675A5.573,5.573,0,0,1,95.48-8.35a3.375,3.375,0,0,1,2.808-1.336,2.96,2.96,0,0,1,2.435,1.072l.105-.9h2.3V-.316a4.064,4.064,0,0,1-.567,2.171,3.641,3.641,0,0,1-1.6,1.406,5.608,5.608,0,0,1-2.408.483,5.215,5.215,0,0,1-2.039-.417,3.619,3.619,0,0,1-1.5-1.077L96.144.7a2.975,2.975,0,0,0,2.3,1.063,2.178,2.178,0,0,0,1.573-.541,2.027,2.027,0,0,0,.563-1.534v-.51a2.938,2.938,0,0,1-2.312.993A3.366,3.366,0,0,1,95.5-1.165,5.572,5.572,0,0,1,94.438-4.72Zm2.54.189A3.47,3.47,0,0,0,97.5-2.607a1.65,1.65,0,0,0,1.424.735,1.764,1.764,0,0,0,1.661-.871V-6.749a1.76,1.76,0,0,0-1.644-.871,1.66,1.66,0,0,0-1.437.748A3.911,3.911,0,0,0,96.979-4.636ZM107.763,0h-2.549V-9.51h2.549Zm-2.7-11.971a1.251,1.251,0,0,1,.382-.94,1.436,1.436,0,0,1,1.042-.369,1.44,1.44,0,0,1,1.037.369,1.244,1.244,0,0,1,.387.94,1.247,1.247,0,0,1-.391.949,1.443,1.443,0,0,1-1.033.369,1.443,1.443,0,0,1-1.033-.369A1.247,1.247,0,0,1,105.064-11.971Zm8.745,10.1a1.666,1.666,0,0,0,1.143-.387,1.355,1.355,0,0,0,.457-1.028h2.382a3.258,3.258,0,0,1-.527,1.771,3.48,3.48,0,0,1-1.419,1.248,4.442,4.442,0,0,1-1.991.444,4.129,4.129,0,0,1-3.217-1.3A5.13,5.13,0,0,1,109.459-4.7v-.167a5.071,5.071,0,0,1,1.169-3.507,4.08,4.08,0,0,1,3.208-1.31A4,4,0,0,1,116.7-8.67a3.594,3.594,0,0,1,1.094,2.7h-2.382a1.745,1.745,0,0,0-.457-1.206,1.524,1.524,0,0,0-1.16-.464,1.53,1.53,0,0,0-1.34.647,3.749,3.749,0,0,0-.453,2.1v.264a3.8,3.8,0,0,0,.448,2.113A1.549,1.549,0,0,0,113.81-1.872Zm5.036-2.971a5.64,5.64,0,0,1,.545-2.522,3.989,3.989,0,0,1,1.569-1.714,4.577,4.577,0,0,1,2.377-.606,4.33,4.33,0,0,1,3.142,1.178,4.727,4.727,0,0,1,1.358,3.2l.018.65a4.97,4.97,0,0,1-1.222,3.511A4.247,4.247,0,0,1,123.354.176a4.268,4.268,0,0,1-3.283-1.318,5.058,5.058,0,0,1-1.226-3.586Zm2.54.18a3.555,3.555,0,0,0,.51,2.073,1.682,1.682,0,0,0,1.459.717,1.686,1.686,0,0,0,1.441-.709,3.89,3.89,0,0,0,.519-2.267,3.519,3.519,0,0,0-.519-2.06,1.686,1.686,0,0,0-1.459-.731,1.658,1.658,0,0,0-1.441.726A3.955,3.955,0,0,0,121.386-4.662Z" transform="translate(523 2786.811)"/>
      <path id="Path_824396" data-name="Path 824396" d="M8.367-2.637H3.744L2.865,0H.062L4.825-12.8H7.269L12.059,0h-2.8ZM4.456-4.772h3.2L6.047-9.562ZM15.047-9.51l.079,1.063a3.342,3.342,0,0,1,2.733-1.239,2.536,2.536,0,0,1,2.522,1.45,3.265,3.265,0,0,1,2.856-1.45,2.836,2.836,0,0,1,2.3.9A4.141,4.141,0,0,1,26.3-6.073V0H23.748V-6.064a1.811,1.811,0,0,0-.316-1.182,1.4,1.4,0,0,0-1.116-.374,1.585,1.585,0,0,0-1.582,1.09L20.742,0H18.2V-6.056a1.789,1.789,0,0,0-.325-1.2A1.416,1.416,0,0,0,16.77-7.62a1.646,1.646,0,0,0-1.564.9V0h-2.54V-9.51ZM36.817-4.667A5.758,5.758,0,0,1,35.842-1.1,3.231,3.231,0,0,1,33.117.176a2.969,2.969,0,0,1-2.47-1.187L30.533,0H28.248V-13.5h2.54v4.843A2.893,2.893,0,0,1,33.1-9.686a3.258,3.258,0,0,1,2.729,1.279,5.767,5.767,0,0,1,.989,3.6Zm-2.54-.185a3.783,3.783,0,0,0-.457-2.1,1.545,1.545,0,0,0-1.362-.664,1.676,1.676,0,0,0-1.67.993v3.753a1.7,1.7,0,0,0,1.688,1,1.568,1.568,0,0,0,1.617-1.213A6.257,6.257,0,0,0,34.277-4.852ZM41.063,0H38.514V-9.51h2.549Zm-2.7-11.971a1.251,1.251,0,0,1,.382-.94,1.436,1.436,0,0,1,1.042-.369,1.44,1.44,0,0,1,1.037.369,1.244,1.244,0,0,1,.387.94,1.247,1.247,0,0,1-.391.949,1.443,1.443,0,0,1-1.033.369,1.443,1.443,0,0,1-1.033-.369A1.247,1.247,0,0,1,38.364-11.971ZM47.531.176a4.668,4.668,0,0,1-3.406-1.283,4.561,4.561,0,0,1-1.314-3.419v-.246a5.745,5.745,0,0,1,.554-2.562,4.064,4.064,0,0,1,1.569-1.74,4.4,4.4,0,0,1,2.316-.611,3.947,3.947,0,0,1,3.072,1.23,5,5,0,0,1,1.121,3.489v1.037H45.387a2.36,2.36,0,0,0,.743,1.494,2.245,2.245,0,0,0,1.569.563,2.742,2.742,0,0,0,2.294-1.063l1.248,1.4A3.813,3.813,0,0,1,49.693-.277,5.075,5.075,0,0,1,47.531.176Zm-.29-7.813a1.587,1.587,0,0,0-1.226.512,2.651,2.651,0,0,0-.6,1.466h3.533v-.2a1.891,1.891,0,0,0-.457-1.311A1.638,1.638,0,0,0,47.241-7.638Zm7.98-1.872.079,1.1a3.32,3.32,0,0,1,2.733-1.274,2.759,2.759,0,0,1,2.25.888,4.142,4.142,0,0,1,.756,2.654V0H58.5V-6.082a1.648,1.648,0,0,0-.352-1.173,1.574,1.574,0,0,0-1.169-.365,1.747,1.747,0,0,0-1.608.914V0h-2.54V-9.51Zm10.784-2.338V-9.51h1.626v1.863H66.006V-2.9a1.133,1.133,0,0,0,.2.756,1.015,1.015,0,0,0,.773.229,4.051,4.051,0,0,0,.747-.062V-.053A5.229,5.229,0,0,1,66.19.176a2.425,2.425,0,0,1-2.725-2.7V-7.646H62.077V-9.51h1.389v-2.338ZM74.558,0A2.821,2.821,0,0,1,74.3-.853,3.073,3.073,0,0,1,71.9.176a3.376,3.376,0,0,1-2.316-.809,2.6,2.6,0,0,1-.918-2.039,2.687,2.687,0,0,1,1.121-2.32,5.529,5.529,0,0,1,3.239-.817H74.2v-.545a1.567,1.567,0,0,0-.338-1.055,1.331,1.331,0,0,0-1.068-.4,1.513,1.513,0,0,0-1.006.308,1.045,1.045,0,0,0-.365.844H68.88a2.551,2.551,0,0,1,.51-1.529,3.37,3.37,0,0,1,1.441-1.1,5.253,5.253,0,0,1,2.092-.4,4.15,4.15,0,0,1,2.791.883,3.09,3.09,0,0,1,1.033,2.483V-2.2a4.546,4.546,0,0,0,.378,2.048V0Zm-2.1-1.767a2.188,2.188,0,0,0,1.037-.25,1.645,1.645,0,0,0,.7-.672V-4.324h-.949q-1.907,0-2.03,1.318l-.009.149a1.017,1.017,0,0,0,.334.782A1.3,1.3,0,0,0,72.457-1.767ZM81.378,0H78.829V-13.5h2.549Z" transform="translate(629 2524.811)"/>
    </g>
  </g>
</svg>
