<svg xmlns="http://www.w3.org/2000/svg" xmlns:xlink="http://www.w3.org/1999/xlink" width="505" height="78" viewBox="0 0 505 78">
  <defs>
    <linearGradient id="linear-gradient" x1="0.5" x2="0.5" y2="1" gradientUnits="objectBoundingBox">
      <stop offset="0" stop-color="#defff8"/>
      <stop offset="0.803" stop-color="#eaf5ff"/>
      <stop offset="1" stop-color="#f0feff"/>
    </linearGradient>
  </defs>
  <g id="Group_1074218" data-name="Group 1074218" transform="translate(-810 -2735)">
    <g id="Group_1074179" data-name="Group 1074179" transform="translate(0 5)">
      <rect id="Rectangle_378218" data-name="Rectangle 378218" width="505" height="78" rx="20" transform="translate(810 2730)" fill="url(#linear-gradient)"/>
      <g id="Group_1073952" data-name="Group 1073952" transform="translate(819 2739)">
        <path id="Path_824457" data-name="Path 824457" d="M-63.311-3.9h-1.743L-65.735,0h-2.146l1.853-10.664,3.53.007a4.021,4.021,0,0,1,2.728.835A2.641,2.641,0,0,1-58.923-7.5a3.351,3.351,0,0,1-2.344,3.054l1.5,4.329V0h-2.285Zm-1.436-1.78,1.6.015a2.237,2.237,0,0,0,1.4-.458,1.812,1.812,0,0,0,.663-1.2,1.381,1.381,0,0,0-.227-1.113,1.352,1.352,0,0,0-1.047-.432l-1.831-.007ZM-56.47,0h-2.08l1.377-7.925h2.08Zm-.461-9.939a1.032,1.032,0,0,1,.322-.813,1.134,1.134,0,0,1,.813-.322,1.139,1.139,0,0,1,.813.286,1.027,1.027,0,0,1,.359.776,1.061,1.061,0,0,1-.3.791,1.139,1.139,0,0,1-.831.352,1.158,1.158,0,0,1-.809-.278A1.023,1.023,0,0,1-56.931-9.939ZM-50.955.146A3.448,3.448,0,0,1-52.8-.363a3.086,3.086,0,0,1-1.2-1.377,3.838,3.838,0,0,1-.308-1.93l.022-.293a5.123,5.123,0,0,1,.674-2.124,4.07,4.07,0,0,1,1.45-1.49,3.588,3.588,0,0,1,1.963-.494,2.741,2.741,0,0,1,2.318,1.126,3.859,3.859,0,0,1,.6,2.776l-.117.9h-4.856a1.7,1.7,0,0,0,.374,1.23,1.426,1.426,0,0,0,1.1.476A2.534,2.534,0,0,0-48.8-2.439l.945,1.172A2.939,2.939,0,0,1-49.146-.216,4.215,4.215,0,0,1-50.955.146Zm.659-6.511a1.468,1.468,0,0,0-1.014.359,3.153,3.153,0,0,0-.795,1.3h2.842l.044-.19a1.941,1.941,0,0,0,.007-.557,1.063,1.063,0,0,0-.359-.663A1.125,1.125,0,0,0-50.3-6.365Zm8.108,4.131q.117-.586-.813-.85l-.667-.168q-2.366-.652-2.3-2.3a2.276,2.276,0,0,1,.992-1.827,3.7,3.7,0,0,1,2.3-.692,3.315,3.315,0,0,1,2.168.71,2.341,2.341,0,0,1,.842,1.853l-2.051-.007a.9.9,0,0,0-1.011-1.033,1.455,1.455,0,0,0-.839.242A1,1,0,0,0-44-5.654q-.11.586.886.828l.293.066a5.892,5.892,0,0,1,1.545.553,2.332,2.332,0,0,1,.824.773,1.912,1.912,0,0,1,.267,1.106,2.111,2.111,0,0,1-.487,1.318,2.981,2.981,0,0,1-1.274.872,4.44,4.44,0,0,1-1.7.286,3.345,3.345,0,0,1-2.2-.758,2.444,2.444,0,0,1-.894-1.923l1.948.015a1.071,1.071,0,0,0,1.216,1.15,1.73,1.73,0,0,0,.941-.234A.926.926,0,0,0-42.187-2.234Zm3.354-1.736a5.483,5.483,0,0,1,1.2-2.985,3.039,3.039,0,0,1,2.465-1.124,2.222,2.222,0,0,1,1.89.916l.271-.769,1.9.007-1.3,7.654a3.734,3.734,0,0,1-1.348,2.5,4.192,4.192,0,0,1-2.812.894,3.908,3.908,0,0,1-1.567-.355,3.352,3.352,0,0,1-1.23-.934l1.025-1.26a2.2,2.2,0,0,0,1.729.9,2.03,2.03,0,0,0,1.377-.421A2.254,2.254,0,0,0-34.46-.212l.117-.476a2.577,2.577,0,0,1-1.941.835,2.276,2.276,0,0,1-1.838-.861,3.7,3.7,0,0,1-.747-2.2A7.4,7.4,0,0,1-38.833-3.97ZM-36.8-3.1A1.894,1.894,0,0,0-36.515-2a1.012,1.012,0,0,0,.839.436,1.849,1.849,0,0,0,1.494-.719l.615-3.36a1.215,1.215,0,0,0-1.165-.719,1.62,1.62,0,0,0-1.34.638,3.338,3.338,0,0,0-.688,1.753A7.7,7.7,0,0,0-36.8-3.1Zm10.488-4.971a3.179,3.179,0,0,1,1.805.538A3.032,3.032,0,0,1-23.4-6.09a4.464,4.464,0,0,1,.253,2.04A4.822,4.822,0,0,1-24.459-.992,3.712,3.712,0,0,1-27.29.146a3.169,3.169,0,0,1-1.787-.531A3.02,3.02,0,0,1-30.19-1.816a4.366,4.366,0,0,1-.256-2.021,4.964,4.964,0,0,1,1.333-3.12A3.636,3.636,0,0,1-26.316-8.071ZM-28.4-3.089a1.829,1.829,0,0,0,.33,1.108,1.1,1.1,0,0,0,.886.421,1.605,1.605,0,0,0,1.494-.874,4.356,4.356,0,0,0,.505-2.373,1.989,1.989,0,0,0-.341-1.122,1.077,1.077,0,0,0-.89-.435,1.607,1.607,0,0,0-1.476.867A4.311,4.311,0,0,0-28.4-3.089Zm17.161-.852a6.545,6.545,0,0,1-.652,2.212A3.587,3.587,0,0,1-13.132-.293a2.867,2.867,0,0,1-1.641.447A2.288,2.288,0,0,1-16.589-.7l-.725,3.75H-19.38l1.9-10.972,1.9-.007-.139.8A2.53,2.53,0,0,1-13.7-8.071a2.251,2.251,0,0,1,1.809.846A3.677,3.677,0,0,1-11.2-5.01,8.562,8.562,0,0,1-11.243-3.94Zm-2.051-.15.044-.7a1.959,1.959,0,0,0-.26-1.13.933.933,0,0,0-.8-.433,1.7,1.7,0,0,0-1.487.763l-.593,3.272a1.156,1.156,0,0,0,1.165.77,1.49,1.49,0,0,0,1.245-.58A3.969,3.969,0,0,0-13.293-4.091ZM-6.006,0a2.138,2.138,0,0,1-.081-.718A2.684,2.684,0,0,1-8.108.146,2.432,2.432,0,0,1-9.833-.531a2.05,2.05,0,0,1-.641-1.637A2.369,2.369,0,0,1-9.386-4.156a4.937,4.937,0,0,1,2.78-.692l.967.015.1-.476a1.654,1.654,0,0,0,.022-.461.793.793,0,0,0-.26-.538.9.9,0,0,0-.59-.2,1.261,1.261,0,0,0-.82.238,1.154,1.154,0,0,0-.432.729l-2.073.007A2.3,2.3,0,0,1-8.646-7.379,4.042,4.042,0,0,1-6.2-8.071a2.922,2.922,0,0,1,2.109.8A2.346,2.346,0,0,1-3.45-5.281l-.608,3.794-.037.469a2.261,2.261,0,0,0,.125.879L-3.977,0ZM-7.6-1.458a1.891,1.891,0,0,0,1.56-.776l.256-1.37L-6.5-3.611a2.005,2.005,0,0,0-1.648.7,1.211,1.211,0,0,0-.227.593.7.7,0,0,0,.165.626A.835.835,0,0,0-7.6-1.458ZM2.71-5.94a4.264,4.264,0,0,0-.7-.073,2,2,0,0,0-1.75.828L-.652,0H-2.717L-1.34-7.925.6-7.932l-.19.967A2.179,2.179,0,0,1,2.256-8.086a3.013,3.013,0,0,1,.718.1ZM7.031,0a2.138,2.138,0,0,1-.081-.718A2.684,2.684,0,0,1,4.929.146,2.432,2.432,0,0,1,3.2-.531a2.05,2.05,0,0,1-.641-1.637A2.369,2.369,0,0,1,3.651-4.156a4.937,4.937,0,0,1,2.78-.692l.967.015.1-.476a1.654,1.654,0,0,0,.022-.461.793.793,0,0,0-.26-.538.9.9,0,0,0-.59-.2,1.261,1.261,0,0,0-.82.238,1.154,1.154,0,0,0-.432.729l-2.073.007A2.3,2.3,0,0,1,4.391-7.379a4.042,4.042,0,0,1,2.45-.692,2.922,2.922,0,0,1,2.109.8,2.346,2.346,0,0,1,.637,1.989L8.979-1.487l-.037.469a2.261,2.261,0,0,0,.125.879L9.06,0ZM5.442-1.458A1.891,1.891,0,0,0,7-2.234L7.258-3.6l-.718-.007a2.005,2.005,0,0,0-1.648.7,1.211,1.211,0,0,0-.227.593A.7.7,0,0,0,4.83-1.7.835.835,0,0,0,5.442-1.458ZM17.783.146a3.448,3.448,0,0,1-1.842-.509,3.086,3.086,0,0,1-1.2-1.377,3.838,3.838,0,0,1-.308-1.93l.022-.293a5.123,5.123,0,0,1,.674-2.124,4.07,4.07,0,0,1,1.45-1.49,3.588,3.588,0,0,1,1.963-.494,2.741,2.741,0,0,1,2.318,1.126,3.859,3.859,0,0,1,.6,2.776l-.117.9H16.487a1.7,1.7,0,0,0,.374,1.23,1.426,1.426,0,0,0,1.1.476,2.534,2.534,0,0,0,1.978-.879l.945,1.172A2.939,2.939,0,0,1,19.592-.216,4.215,4.215,0,0,1,17.783.146Zm.659-6.511a1.468,1.468,0,0,0-1.014.359,3.153,3.153,0,0,0-.795,1.3h2.842l.044-.19a1.941,1.941,0,0,0,.007-.557,1.063,1.063,0,0,0-.359-.663A1.125,1.125,0,0,0,18.442-6.365ZM26.55-2.234q.117-.586-.813-.85l-.667-.168q-2.366-.652-2.3-2.3a2.276,2.276,0,0,1,.992-1.827,3.7,3.7,0,0,1,2.3-.692,3.315,3.315,0,0,1,2.168.71,2.341,2.341,0,0,1,.842,1.853l-2.051-.007a.9.9,0,0,0-1.011-1.033,1.455,1.455,0,0,0-.839.242,1,1,0,0,0-.436.652q-.11.586.886.828l.293.066a5.892,5.892,0,0,1,1.545.553,2.332,2.332,0,0,1,.824.773,1.912,1.912,0,0,1,.267,1.106,2.111,2.111,0,0,1-.487,1.318A2.981,2.981,0,0,1,26.8-.139a4.44,4.44,0,0,1-1.7.286,3.345,3.345,0,0,1-2.2-.758A2.444,2.444,0,0,1,22-2.534l1.948.015a1.071,1.071,0,0,0,1.216,1.15,1.73,1.73,0,0,0,.941-.234A.926.926,0,0,0,26.55-2.234ZM33.7-9.873l-.344,1.948h1.318L34.4-6.372H33.083L32.41-2.4a1.009,1.009,0,0,0,.059.571q.1.2.5.212.117.007.63-.037L33.45-.037a3.474,3.474,0,0,1-1.187.168,1.861,1.861,0,0,1-1.516-.637,2.3,2.3,0,0,1-.41-1.685l.681-4.182H29.9l.271-1.553h1.121l.337-1.948ZM36.68,0H34.6l1.377-7.925h2.08Zm-.461-9.939a1.032,1.032,0,0,1,.322-.813,1.134,1.134,0,0,1,.813-.322,1.139,1.139,0,0,1,.813.286,1.027,1.027,0,0,1,.359.776,1.061,1.061,0,0,1-.3.791,1.139,1.139,0,0,1-.831.352,1.158,1.158,0,0,1-.809-.278A1.023,1.023,0,0,1,36.218-9.939Zm5.508,2.007-.168.9a2.918,2.918,0,0,1,2.322-1.04,2.23,2.23,0,0,1,1.216.337,1.574,1.574,0,0,1,.652.872,3.052,3.052,0,0,1,2.461-1.208,1.993,1.993,0,0,1,1.644.747,3.067,3.067,0,0,1,.465,2.095l-.015.183L49.46,0H47.388l.842-5.067a3.664,3.664,0,0,0,.022-.506.785.785,0,0,0-.879-.792,1.744,1.744,0,0,0-1.458.909l-.022.169L44.971,0H42.905l.842-5.046a3.655,3.655,0,0,0,.022-.505.784.784,0,0,0-.872-.8,1.75,1.75,0,0,0-1.414.74L40.5,0H38.43L39.8-7.925ZM55.686,0a2.138,2.138,0,0,1-.081-.718,2.684,2.684,0,0,1-2.021.864,2.432,2.432,0,0,1-1.725-.677,2.05,2.05,0,0,1-.641-1.637,2.369,2.369,0,0,1,1.088-1.989,4.937,4.937,0,0,1,2.78-.692l.967.015.1-.476a1.654,1.654,0,0,0,.022-.461.793.793,0,0,0-.26-.538.9.9,0,0,0-.59-.2,1.261,1.261,0,0,0-.82.238,1.154,1.154,0,0,0-.432.729L52-5.537a2.3,2.3,0,0,1,1.044-1.842,4.042,4.042,0,0,1,2.45-.692,2.922,2.922,0,0,1,2.109.8,2.346,2.346,0,0,1,.637,1.989l-.608,3.794-.037.469a2.261,2.261,0,0,0,.125.879L57.715,0ZM54.1-1.458a1.891,1.891,0,0,0,1.56-.776l.256-1.37L55.2-3.611a2.005,2.005,0,0,0-1.648.7,1.211,1.211,0,0,0-.227.593.7.7,0,0,0,.165.626A.835.835,0,0,0,54.1-1.458ZM64.4-5.94a4.264,4.264,0,0,0-.7-.073,2,2,0,0,0-1.75.828L61.04,0H58.975l1.377-7.925,1.941-.007-.19.967a2.179,2.179,0,0,1,1.846-1.121,3.013,3.013,0,0,1,.718.1ZM-47.725,15.447a1.357,1.357,0,0,0,.952-.311,1.53,1.53,0,0,0,.5-.868l1.941-.007a2.847,2.847,0,0,1-.524,1.5,3.182,3.182,0,0,1-1.26,1.04,3.606,3.606,0,0,1-1.659.352,2.928,2.928,0,0,1-2.285-1,3.717,3.717,0,0,1-.813-2.593l.022-.4.007-.081a4.954,4.954,0,0,1,1.3-3.065,3.526,3.526,0,0,1,2.732-1.088,2.857,2.857,0,0,1,2.128.875,3.091,3.091,0,0,1,.773,2.23h-1.926a1.622,1.622,0,0,0-.278-1,1.057,1.057,0,0,0-.835-.4q-1.479-.044-1.794,2.161a7.3,7.3,0,0,0-.081,1.348Q-48.75,15.425-47.725,15.447ZM-39,8.929a3.179,3.179,0,0,1,1.805.538,3.032,3.032,0,0,1,1.113,1.443,4.464,4.464,0,0,1,.253,2.04,4.822,4.822,0,0,1-1.315,3.058,3.712,3.712,0,0,1-2.831,1.139,3.169,3.169,0,0,1-1.787-.531,3.02,3.02,0,0,1-1.113-1.432,4.366,4.366,0,0,1-.256-2.021,4.964,4.964,0,0,1,1.333-3.12A3.636,3.636,0,0,1-39,8.929Zm-2.087,4.983a1.829,1.829,0,0,0,.33,1.108,1.1,1.1,0,0,0,.886.421,1.605,1.605,0,0,0,1.494-.874,4.356,4.356,0,0,0,.505-2.373,1.989,1.989,0,0,0-.341-1.122,1.077,1.077,0,0,0-.89-.435,1.607,1.607,0,0,0-1.476.867A4.311,4.311,0,0,0-41.089,13.911Zm9.119-4.844-.176.938a2.852,2.852,0,0,1,2.307-1.077,1.9,1.9,0,0,1,1.655.82,3.305,3.305,0,0,1,.388,2.212L-28.63,17H-30.7l.85-5.061a2.37,2.37,0,0,0,.015-.52.839.839,0,0,0-.937-.769,1.778,1.778,0,0,0-1.458.754l-.989,5.6h-2.065L-33.9,9.075Zm9.551,5.7q.117-.586-.813-.85l-.667-.168q-2.366-.652-2.3-2.3a2.276,2.276,0,0,1,.992-1.827,3.7,3.7,0,0,1,2.3-.692,3.315,3.315,0,0,1,2.168.71,2.341,2.341,0,0,1,.842,1.853l-2.051-.007a.9.9,0,0,0-1.011-1.033,1.455,1.455,0,0,0-.839.242,1,1,0,0,0-.436.652q-.11.586.886.828l.293.066a5.892,5.892,0,0,1,1.545.553,2.332,2.332,0,0,1,.824.773,1.912,1.912,0,0,1,.267,1.106,2.111,2.111,0,0,1-.487,1.318,2.981,2.981,0,0,1-1.274.872,4.44,4.44,0,0,1-1.7.286,3.345,3.345,0,0,1-2.2-.758,2.444,2.444,0,0,1-.894-1.923l1.948.015A1.071,1.071,0,0,0-23.8,15.63a1.73,1.73,0,0,0,.941-.234A.926.926,0,0,0-22.419,14.766Zm6.724,2.38a3.448,3.448,0,0,1-1.842-.509,3.086,3.086,0,0,1-1.2-1.377,3.838,3.838,0,0,1-.308-1.93l.022-.293a5.123,5.123,0,0,1,.674-2.124,4.07,4.07,0,0,1,1.45-1.49,3.588,3.588,0,0,1,1.963-.494,2.741,2.741,0,0,1,2.318,1.126,3.859,3.859,0,0,1,.6,2.776l-.117.9h-4.856a1.7,1.7,0,0,0,.374,1.23,1.426,1.426,0,0,0,1.1.476,2.534,2.534,0,0,0,1.978-.879l.945,1.172a2.939,2.939,0,0,1-1.289,1.051A4.215,4.215,0,0,1-15.7,17.146Zm.659-6.511a1.468,1.468,0,0,0-1.014.359,3.153,3.153,0,0,0-.795,1.3H-14l.044-.19a1.941,1.941,0,0,0,.007-.557,1.063,1.063,0,0,0-.359-.663A1.125,1.125,0,0,0-15.037,10.635Zm6.987,4.812a1.357,1.357,0,0,0,.952-.311,1.53,1.53,0,0,0,.5-.868l1.941-.007a2.847,2.847,0,0,1-.524,1.5,3.182,3.182,0,0,1-1.26,1.04,3.606,3.606,0,0,1-1.659.352,2.928,2.928,0,0,1-2.285-1,3.717,3.717,0,0,1-.813-2.593l.022-.4.007-.081a4.954,4.954,0,0,1,1.3-3.065A3.526,3.526,0,0,1-7.134,8.929,2.857,2.857,0,0,1-5.006,9.8a3.091,3.091,0,0,1,.773,2.23H-6.16a1.622,1.622,0,0,0-.278-1,1.057,1.057,0,0,0-.835-.4q-1.479-.044-1.794,2.161a7.3,7.3,0,0,0-.081,1.348Q-9.075,15.425-8.049,15.447Zm9.1.732a2.736,2.736,0,0,1-2.183.967,2.036,2.036,0,0,1-1.729-.82A3,3,0,0,1-3.318,14.2l.857-5.127H-.4l-.872,5.155a2.039,2.039,0,0,0-.007.455.753.753,0,0,0,.813.755A1.888,1.888,0,0,0,1.128,14.7l.989-5.624H4.2L2.82,17H.894Zm7.075.967a3.448,3.448,0,0,1-1.842-.509,3.086,3.086,0,0,1-1.2-1.377,3.838,3.838,0,0,1-.308-1.93l.022-.293a5.123,5.123,0,0,1,.674-2.124,4.07,4.07,0,0,1,1.45-1.49,3.588,3.588,0,0,1,1.963-.494A2.741,2.741,0,0,1,11.2,10.055a3.859,3.859,0,0,1,.6,2.776l-.117.9H6.826a1.7,1.7,0,0,0,.374,1.23,1.426,1.426,0,0,0,1.1.476,2.534,2.534,0,0,0,1.978-.879l.945,1.172a2.939,2.939,0,0,1-1.289,1.051A4.215,4.215,0,0,1,8.123,17.146Zm.659-6.511a1.468,1.468,0,0,0-1.014.359,3.153,3.153,0,0,0-.795,1.3H9.814l.044-.19a1.941,1.941,0,0,0,.007-.557,1.063,1.063,0,0,0-.359-.663A1.125,1.125,0,0,0,8.782,10.635Zm6.782-1.567-.176.938A2.852,2.852,0,0,1,17.7,8.929a1.9,1.9,0,0,1,1.655.82,3.305,3.305,0,0,1,.388,2.212L18.9,17H16.838l.85-5.061a2.37,2.37,0,0,0,.015-.52.839.839,0,0,0-.937-.769,1.778,1.778,0,0,0-1.458.754L14.319,17H12.253L13.63,9.075Zm8.43,6.379a1.357,1.357,0,0,0,.952-.311,1.53,1.53,0,0,0,.5-.868l1.941-.007a2.847,2.847,0,0,1-.524,1.5A3.182,3.182,0,0,1,25.6,16.8a3.606,3.606,0,0,1-1.659.352,2.928,2.928,0,0,1-2.285-1,3.717,3.717,0,0,1-.813-2.593l.022-.4.007-.081a4.954,4.954,0,0,1,1.3-3.065A3.526,3.526,0,0,1,24.91,8.929a2.857,2.857,0,0,1,2.128.875,3.091,3.091,0,0,1,.773,2.23H25.884a1.622,1.622,0,0,0-.278-1,1.057,1.057,0,0,0-.835-.4q-1.479-.044-1.794,2.161a7.3,7.3,0,0,0-.081,1.348Q22.969,15.425,23.994,15.447ZM30.366,17h-2.08l1.377-7.925h2.08ZM29.9,7.061a1.032,1.032,0,0,1,.322-.813,1.24,1.24,0,0,1,1.626-.037,1.027,1.027,0,0,1,.359.776,1.061,1.061,0,0,1-.3.791,1.139,1.139,0,0,1-.831.352,1.158,1.158,0,0,1-.809-.278A1.023,1.023,0,0,1,29.9,7.061ZM36.7,17a2.138,2.138,0,0,1-.081-.718,2.684,2.684,0,0,1-2.021.864,2.432,2.432,0,0,1-1.725-.677,2.05,2.05,0,0,1-.641-1.637,2.369,2.369,0,0,1,1.088-1.989,4.937,4.937,0,0,1,2.78-.692l.967.015.1-.476a1.654,1.654,0,0,0,.022-.461.793.793,0,0,0-.26-.538.9.9,0,0,0-.59-.2,1.261,1.261,0,0,0-.82.238,1.154,1.154,0,0,0-.432.729l-2.073.007a2.3,2.3,0,0,1,1.044-1.842,4.042,4.042,0,0,1,2.45-.692,2.922,2.922,0,0,1,2.109.8,2.346,2.346,0,0,1,.637,1.989l-.608,3.794-.037.469a2.261,2.261,0,0,0,.125.879L38.73,17Zm-1.589-1.458a1.891,1.891,0,0,0,1.56-.776l.256-1.37-.718-.007a2.005,2.005,0,0,0-1.648.7,1.211,1.211,0,0,0-.227.593.7.7,0,0,0,.165.626A.835.835,0,0,0,35.112,15.542Zm9.47-.776q.117-.586-.813-.85l-.667-.168q-2.366-.652-2.3-2.3A2.276,2.276,0,0,1,41.8,9.621a3.7,3.7,0,0,1,2.3-.692,3.315,3.315,0,0,1,2.168.71,2.341,2.341,0,0,1,.842,1.853l-2.051-.007a.9.9,0,0,0-1.011-1.033,1.455,1.455,0,0,0-.839.242,1,1,0,0,0-.436.652q-.11.586.886.828l.293.066a5.892,5.892,0,0,1,1.545.553,2.332,2.332,0,0,1,.824.773,1.912,1.912,0,0,1,.267,1.106,2.111,2.111,0,0,1-.487,1.318,2.981,2.981,0,0,1-1.274.872,4.44,4.44,0,0,1-1.7.286,3.345,3.345,0,0,1-2.2-.758,2.444,2.444,0,0,1-.894-1.923l1.948.015A1.071,1.071,0,0,0,43.2,15.63a1.73,1.73,0,0,0,.941-.234A.926.926,0,0,0,44.583,14.766Z" transform="translate(68 28)"/>
        <path id="Path_824458" data-name="Path 824458" d="M0,0H306.574V2.884H0Z" transform="translate(162.45 28.741)" fill="#ffae7e"/>
        <path id="Path_824459" data-name="Path 824459" d="M2.959-3.757,2.3,0H.154L2.007-10.664l3.735.007A3.737,3.737,0,0,1,8.459-9.7a2.975,2.975,0,0,1,.864,2.5,3.367,3.367,0,0,1-1.307,2.5A4.757,4.757,0,0,1,4.98-3.75Zm.3-1.78,1.787.015a2.26,2.26,0,0,0,1.436-.447,1.8,1.8,0,0,0,.681-1.208,1.543,1.543,0,0,0-.245-1.216,1.329,1.329,0,0,0-1.051-.483L3.845-8.884ZM14.9-5.94a4.264,4.264,0,0,0-.7-.073,2,2,0,0,0-1.75.828L11.543,0H9.478l1.377-7.925L12.8-7.932l-.19.967a2.179,2.179,0,0,1,1.846-1.121,3.013,3.013,0,0,1,.718.1Zm4.226-2.131a3.179,3.179,0,0,1,1.805.538A3.032,3.032,0,0,1,22.05-6.09,4.464,4.464,0,0,1,22.3-4.05,4.822,4.822,0,0,1,20.988-.992,3.712,3.712,0,0,1,18.157.146,3.169,3.169,0,0,1,16.37-.385a3.02,3.02,0,0,1-1.113-1.432A4.366,4.366,0,0,1,15-3.838a4.964,4.964,0,0,1,1.333-3.12A3.636,3.636,0,0,1,19.131-8.071ZM17.043-3.089a1.829,1.829,0,0,0,.33,1.108,1.1,1.1,0,0,0,.886.421,1.605,1.605,0,0,0,1.494-.874,4.356,4.356,0,0,0,.505-2.373,1.989,1.989,0,0,0-.341-1.122,1.077,1.077,0,0,0-.89-.435,1.607,1.607,0,0,0-1.476.867A4.311,4.311,0,0,0,17.043-3.089ZM30.513-3.94a5.682,5.682,0,0,1-1.143,3A2.843,2.843,0,0,1,26.982.154a2.21,2.21,0,0,1-1.9-1.011l-.3.857H22.9l1.948-11.25h2.073l-.8,4.05a2.469,2.469,0,0,1,1.934-.872,2.236,2.236,0,0,1,1.805.824,3.647,3.647,0,0,1,.7,2.238A8.562,8.562,0,0,1,30.513-3.94Zm-2.051-.154a6.144,6.144,0,0,0,.044-.97q-.081-1.278-1.055-1.3a1.719,1.719,0,0,0-1.516.83l-.571,3.159a1.179,1.179,0,0,0,1.187.823q1.523.044,1.868-2.219ZM35.742,0a2.138,2.138,0,0,1-.081-.718A2.684,2.684,0,0,1,33.64.146a2.432,2.432,0,0,1-1.725-.677,2.05,2.05,0,0,1-.641-1.637,2.369,2.369,0,0,1,1.088-1.989,4.937,4.937,0,0,1,2.78-.692l.967.015.1-.476a1.654,1.654,0,0,0,.022-.461.793.793,0,0,0-.26-.538.9.9,0,0,0-.59-.2,1.261,1.261,0,0,0-.82.238,1.154,1.154,0,0,0-.432.729l-2.073.007A2.3,2.3,0,0,1,33.1-7.379a4.042,4.042,0,0,1,2.45-.692,2.922,2.922,0,0,1,2.109.8A2.346,2.346,0,0,1,38.3-5.281L37.69-1.487l-.037.469a2.261,2.261,0,0,0,.125.879L37.771,0ZM34.153-1.458a1.891,1.891,0,0,0,1.56-.776l.256-1.37-.718-.007a2.005,2.005,0,0,0-1.648.7,1.211,1.211,0,0,0-.227.593.7.7,0,0,0,.165.626A.835.835,0,0,0,34.153-1.458Zm12.5-2.483a5.682,5.682,0,0,1-1.143,3A2.843,2.843,0,0,1,43.118.154a2.21,2.21,0,0,1-1.9-1.011l-.3.857H39.031l1.948-11.25h2.073l-.8,4.05a2.469,2.469,0,0,1,1.934-.872,2.236,2.236,0,0,1,1.805.824,3.647,3.647,0,0,1,.7,2.238A8.562,8.562,0,0,1,46.648-3.94ZM44.6-4.095a6.144,6.144,0,0,0,.044-.97q-.081-1.278-1.055-1.3a1.719,1.719,0,0,0-1.516.83L41.5-2.376a1.179,1.179,0,0,0,1.187.823q1.523.044,1.868-2.219ZM49.475,0H47.4l1.377-7.925h2.08Zm-.461-9.939a1.032,1.032,0,0,1,.322-.813,1.134,1.134,0,0,1,.813-.322,1.139,1.139,0,0,1,.813.286,1.027,1.027,0,0,1,.359.776,1.061,1.061,0,0,1-.3.791,1.139,1.139,0,0,1-.831.352,1.158,1.158,0,0,1-.809-.278A1.023,1.023,0,0,1,49.014-9.939ZM53.408,0h-2.08l1.956-11.25h2.073Zm3.933,0h-2.08l1.377-7.925h2.08ZM56.88-9.939a1.032,1.032,0,0,1,.322-.813,1.134,1.134,0,0,1,.813-.322,1.139,1.139,0,0,1,.813.286,1.027,1.027,0,0,1,.359.776,1.061,1.061,0,0,1-.3.791,1.139,1.139,0,0,1-.831.352,1.158,1.158,0,0,1-.809-.278A1.023,1.023,0,0,1,56.88-9.939Zm6.145,1.86a2.255,2.255,0,0,1,1.787.886l.776-4.058h2.073L65.713,0H63.867l.117-.85a2.565,2.565,0,0,1-2.065,1,2.281,2.281,0,0,1-1.3-.388,2.444,2.444,0,0,1-.861-1.095,4.41,4.41,0,0,1-.333-1.593,6,6,0,0,1,.022-.894l.044-.33a6.344,6.344,0,0,1,.677-2.139,3.531,3.531,0,0,1,1.23-1.37A2.9,2.9,0,0,1,63.025-8.079Zm-1.5,4.263a5.932,5.932,0,0,0-.037.938q.073,1.289,1.04,1.311a1.768,1.768,0,0,0,1.516-.82l.564-3.149a1.17,1.17,0,0,0-1.143-.82,1.505,1.505,0,0,0-1.256.582A3.915,3.915,0,0,0,61.523-3.816ZM71.946,0a2.138,2.138,0,0,1-.081-.718,2.684,2.684,0,0,1-2.021.864,2.432,2.432,0,0,1-1.725-.677,2.05,2.05,0,0,1-.641-1.637,2.369,2.369,0,0,1,1.088-1.989,4.937,4.937,0,0,1,2.78-.692l.967.015.1-.476a1.654,1.654,0,0,0,.022-.461.793.793,0,0,0-.26-.538.9.9,0,0,0-.59-.2,1.261,1.261,0,0,0-.82.238,1.154,1.154,0,0,0-.432.729l-2.073.007a2.3,2.3,0,0,1,1.044-1.842,4.042,4.042,0,0,1,2.45-.692,2.922,2.922,0,0,1,2.109.8A2.346,2.346,0,0,1,74.5-5.281l-.608,3.794-.037.469a2.261,2.261,0,0,0,.125.879L73.975,0ZM70.356-1.458a1.891,1.891,0,0,0,1.56-.776l.256-1.37-.718-.007a2.005,2.005,0,0,0-1.648.7,1.211,1.211,0,0,0-.227.593.7.7,0,0,0,.165.626A.835.835,0,0,0,70.356-1.458Zm8.811-6.621a2.255,2.255,0,0,1,1.787.886l.776-4.058H83.8L81.855,0H80.01l.117-.85a2.565,2.565,0,0,1-2.065,1,2.281,2.281,0,0,1-1.3-.388A2.444,2.444,0,0,1,75.9-1.329a4.41,4.41,0,0,1-.333-1.593,6,6,0,0,1,.022-.894l.044-.33a6.344,6.344,0,0,1,.677-2.139,3.531,3.531,0,0,1,1.23-1.37A2.9,2.9,0,0,1,79.167-8.079Zm-1.5,4.263a5.932,5.932,0,0,0-.037.938q.073,1.289,1.04,1.311a1.768,1.768,0,0,0,1.516-.82l.564-3.149a1.17,1.17,0,0,0-1.143-.82,1.505,1.505,0,0,0-1.256.582A3.915,3.915,0,0,0,77.666-3.816Z" transform="translate(268 20)"/>
        <path id="Path_824460" data-name="Path 824460" d="M7.148-4.358H3.062L2.3,0H.154L2.007-10.664H8.76l-.315,1.78h-4.6L3.362-6.13h4.1ZM13.3-5.94a4.264,4.264,0,0,0-.7-.073,2,2,0,0,0-1.75.828L9.939,0H7.874L9.25-7.925l1.941-.007L11-6.965a2.179,2.179,0,0,1,1.846-1.121,3.013,3.013,0,0,1,.718.1ZM17.021.146a3.448,3.448,0,0,1-1.842-.509,3.086,3.086,0,0,1-1.2-1.377,3.838,3.838,0,0,1-.308-1.93l.022-.293a5.123,5.123,0,0,1,.674-2.124,4.07,4.07,0,0,1,1.45-1.49,3.588,3.588,0,0,1,1.963-.494A2.741,2.741,0,0,1,20.1-6.945a3.859,3.859,0,0,1,.6,2.776l-.117.9H15.725a1.7,1.7,0,0,0,.374,1.23,1.426,1.426,0,0,0,1.1.476,2.534,2.534,0,0,0,1.978-.879l.945,1.172A2.939,2.939,0,0,1,18.831-.216,4.215,4.215,0,0,1,17.021.146Zm.659-6.511a1.468,1.468,0,0,0-1.014.359,3.153,3.153,0,0,0-.795,1.3h2.842l.044-.19a1.941,1.941,0,0,0,.007-.557,1.063,1.063,0,0,0-.359-.663A1.125,1.125,0,0,0,17.681-6.365Zm6.987,4.812a1.357,1.357,0,0,0,.952-.311,1.53,1.53,0,0,0,.5-.868l1.941-.007a2.847,2.847,0,0,1-.524,1.5A3.182,3.182,0,0,1,26.276-.2a3.606,3.606,0,0,1-1.659.352,2.928,2.928,0,0,1-2.285-1,3.717,3.717,0,0,1-.813-2.593l.022-.4.007-.081a4.954,4.954,0,0,1,1.3-3.065,3.526,3.526,0,0,1,2.732-1.088,2.857,2.857,0,0,1,2.128.875,3.091,3.091,0,0,1,.773,2.23H26.558a1.622,1.622,0,0,0-.278-1,1.057,1.057,0,0,0-.835-.4Q23.965-6.409,23.65-4.2a7.3,7.3,0,0,0-.081,1.348Q23.643-1.575,24.668-1.553Zm9.1.732a2.736,2.736,0,0,1-2.183.967,2.036,2.036,0,0,1-1.729-.82A3,3,0,0,1,29.4-2.8l.857-5.127h2.065L31.45-2.77a2.039,2.039,0,0,0-.007.455.753.753,0,0,0,.813.755A1.888,1.888,0,0,0,33.845-2.3l.989-5.624h2.08L35.537,0H33.611ZM40.84.146A3.448,3.448,0,0,1,39-.363,3.086,3.086,0,0,1,37.8-1.74a3.838,3.838,0,0,1-.308-1.93l.022-.293a5.123,5.123,0,0,1,.674-2.124,4.07,4.07,0,0,1,1.45-1.49A3.588,3.588,0,0,1,41.6-8.071,2.741,2.741,0,0,1,43.92-6.945a3.859,3.859,0,0,1,.6,2.776l-.117.9H39.543a1.7,1.7,0,0,0,.374,1.23,1.426,1.426,0,0,0,1.1.476,2.534,2.534,0,0,0,1.978-.879l.945,1.172A2.939,2.939,0,0,1,42.649-.216,4.215,4.215,0,0,1,40.84.146ZM41.5-6.365a1.468,1.468,0,0,0-1.014.359,3.153,3.153,0,0,0-.795,1.3h2.842l.044-.19a1.941,1.941,0,0,0,.007-.557,1.063,1.063,0,0,0-.359-.663A1.125,1.125,0,0,0,41.5-6.365Zm6.782-1.567-.176.938a2.852,2.852,0,0,1,2.307-1.077,1.9,1.9,0,0,1,1.655.82,3.305,3.305,0,0,1,.388,2.212L51.621,0H49.556l.85-5.061a2.37,2.37,0,0,0,.015-.52.839.839,0,0,0-.937-.769,1.778,1.778,0,0,0-1.458.754L47.036,0H44.971l1.377-7.925Zm8.43,6.379a1.357,1.357,0,0,0,.952-.311,1.53,1.53,0,0,0,.5-.868L60.1-2.739a2.847,2.847,0,0,1-.524,1.5A3.182,3.182,0,0,1,58.319-.2,3.606,3.606,0,0,1,56.66.154a2.928,2.928,0,0,1-2.285-1,3.717,3.717,0,0,1-.813-2.593l.022-.4.007-.081a4.954,4.954,0,0,1,1.3-3.065,3.526,3.526,0,0,1,2.732-1.088,2.857,2.857,0,0,1,2.128.875,3.091,3.091,0,0,1,.773,2.23H58.6a1.622,1.622,0,0,0-.278-1,1.057,1.057,0,0,0-.835-.4Q56.008-6.409,55.693-4.2a7.3,7.3,0,0,0-.081,1.348Q55.686-1.575,56.711-1.553ZM63.083,0H61L62.38-7.925h2.08Zm-.461-9.939a1.032,1.032,0,0,1,.322-.813,1.134,1.134,0,0,1,.813-.322,1.139,1.139,0,0,1,.813.286,1.027,1.027,0,0,1,.359.776,1.061,1.061,0,0,1-.3.791,1.139,1.139,0,0,1-.831.352,1.158,1.158,0,0,1-.809-.278A1.023,1.023,0,0,1,62.622-9.939ZM69.419,0a2.138,2.138,0,0,1-.081-.718,2.684,2.684,0,0,1-2.021.864,2.432,2.432,0,0,1-1.725-.677,2.05,2.05,0,0,1-.641-1.637,2.369,2.369,0,0,1,1.088-1.989,4.937,4.937,0,0,1,2.78-.692l.967.015.1-.476a1.654,1.654,0,0,0,.022-.461.793.793,0,0,0-.26-.538.9.9,0,0,0-.59-.2,1.261,1.261,0,0,0-.82.238,1.154,1.154,0,0,0-.432.729l-2.073.007a2.3,2.3,0,0,1,1.044-1.842,4.042,4.042,0,0,1,2.45-.692,2.922,2.922,0,0,1,2.109.8,2.346,2.346,0,0,1,.637,1.989l-.608,3.794-.037.469a2.261,2.261,0,0,0,.125.879L71.448,0ZM67.83-1.458a1.891,1.891,0,0,0,1.56-.776l.256-1.37-.718-.007a2.005,2.005,0,0,0-1.648.7,1.211,1.211,0,0,0-.227.593.7.7,0,0,0,.165.626A.835.835,0,0,0,67.83-1.458ZM80.222-5.574l1.663-2.351h2.322L81.335-3.94,82.939,0H80.845l-.974-2.476L78.12,0H75.784l2.988-4.146L77.241-7.925h2.095Zm16.04,4.226A3.6,3.6,0,0,1,94.589-.231,7.053,7.053,0,0,1,92.1.139a3.857,3.857,0,0,1-1.919-.48,3.349,3.349,0,0,1-1.3-1.359,4.807,4.807,0,0,1-.542-2.021A9.226,9.226,0,0,1,88.561-6.2a6.973,6.973,0,0,1,1.018-2.5,4.759,4.759,0,0,1,1.732-1.6,4.564,4.564,0,0,1,2.241-.509,3.707,3.707,0,0,1,2.615.941,3.9,3.9,0,0,1,1.077,2.611l-2.065-.007A2.185,2.185,0,0,0,94.7-8.584a1.622,1.622,0,0,0-1.179-.454,2.313,2.313,0,0,0-2.135,1.19A7.407,7.407,0,0,0,90.5-4.27a3.145,3.145,0,0,0,.385,1.941,1.593,1.593,0,0,0,1.4.7,2.973,2.973,0,0,0,1.86-.52L94.5-3.984H92.549L92.834-5.6h4.072Zm6.731-4.592a4.264,4.264,0,0,0-.7-.073,2,2,0,0,0-1.75.828L99.631,0H97.566l1.377-7.925,1.941-.007-.19.967a2.179,2.179,0,0,1,1.846-1.121,3.013,3.013,0,0,1,.718.1ZM107.314,0a2.138,2.138,0,0,1-.081-.718,2.684,2.684,0,0,1-2.021.864,2.432,2.432,0,0,1-1.725-.677,2.05,2.05,0,0,1-.641-1.637,2.369,2.369,0,0,1,1.088-1.989,4.937,4.937,0,0,1,2.78-.692l.967.015.1-.476a1.654,1.654,0,0,0,.022-.461.793.793,0,0,0-.26-.538.9.9,0,0,0-.59-.2,1.261,1.261,0,0,0-.82.238,1.154,1.154,0,0,0-.432.729l-2.073.007a2.3,2.3,0,0,1,1.044-1.842,4.042,4.042,0,0,1,2.45-.692,2.922,2.922,0,0,1,2.109.8,2.346,2.346,0,0,1,.637,1.989l-.608,3.794-.037.469a2.261,2.261,0,0,0,.125.879L109.343,0Zm-1.589-1.458a1.891,1.891,0,0,0,1.56-.776l.256-1.37-.718-.007a2.005,2.005,0,0,0-1.648.7,1.211,1.211,0,0,0-.227.593.7.7,0,0,0,.165.626A.835.835,0,0,0,105.725-1.458Zm8.1-1.157,2.256-5.31h2.227L114.478,0H112.5l-1.355-7.925h2.095ZM121.685.146a3.448,3.448,0,0,1-1.842-.509,3.086,3.086,0,0,1-1.2-1.377,3.838,3.838,0,0,1-.308-1.93l.022-.293a5.123,5.123,0,0,1,.674-2.124,4.07,4.07,0,0,1,1.45-1.49,3.588,3.588,0,0,1,1.963-.494,2.741,2.741,0,0,1,2.318,1.126,3.859,3.859,0,0,1,.6,2.776l-.117.9h-4.856a1.7,1.7,0,0,0,.374,1.23,1.426,1.426,0,0,0,1.1.476,2.534,2.534,0,0,0,1.978-.879l.945,1.172a2.939,2.939,0,0,1-1.289,1.051A4.215,4.215,0,0,1,121.685.146Zm.659-6.511a1.468,1.468,0,0,0-1.014.359,3.153,3.153,0,0,0-.795,1.3h2.842l.044-.19a1.941,1.941,0,0,0,.007-.557,1.063,1.063,0,0,0-.359-.663A1.125,1.125,0,0,0,122.344-6.365Zm7.449-1.714a2.255,2.255,0,0,1,1.787.886l.776-4.058h2.073L132.48,0h-1.846l.117-.85a2.565,2.565,0,0,1-2.065,1,2.281,2.281,0,0,1-1.3-.388,2.444,2.444,0,0,1-.861-1.095,4.41,4.41,0,0,1-.333-1.593,6,6,0,0,1,.022-.894l.044-.33a6.344,6.344,0,0,1,.677-2.139,3.531,3.531,0,0,1,1.23-1.37A2.9,2.9,0,0,1,129.792-8.079Zm-1.5,4.263a5.932,5.932,0,0,0-.037.938q.073,1.289,1.04,1.311a1.768,1.768,0,0,0,1.516-.82l.564-3.149a1.17,1.17,0,0,0-1.143-.82,1.505,1.505,0,0,0-1.256.582A3.915,3.915,0,0,0,128.291-3.816ZM138.713,0a2.138,2.138,0,0,1-.081-.718,2.684,2.684,0,0,1-2.021.864,2.432,2.432,0,0,1-1.725-.677,2.05,2.05,0,0,1-.641-1.637,2.369,2.369,0,0,1,1.088-1.989,4.937,4.937,0,0,1,2.78-.692l.967.015.1-.476a1.654,1.654,0,0,0,.022-.461.793.793,0,0,0-.26-.538.9.9,0,0,0-.59-.2,1.261,1.261,0,0,0-.82.238,1.154,1.154,0,0,0-.432.729l-2.073.007a2.3,2.3,0,0,1,1.044-1.842,4.042,4.042,0,0,1,2.45-.692,2.922,2.922,0,0,1,2.109.8,2.346,2.346,0,0,1,.637,1.989l-.608,3.794-.037.469a2.261,2.261,0,0,0,.125.879L140.742,0Zm-1.589-1.458a1.891,1.891,0,0,0,1.56-.776l.256-1.37-.718-.007a2.005,2.005,0,0,0-1.648.7,1.211,1.211,0,0,0-.227.593.7.7,0,0,0,.165.626A.835.835,0,0,0,137.124-1.458Zm8.811-6.621a2.255,2.255,0,0,1,1.787.886l.776-4.058h2.073L148.623,0h-1.846l.117-.85a2.565,2.565,0,0,1-2.065,1,2.281,2.281,0,0,1-1.3-.388,2.444,2.444,0,0,1-.861-1.095,4.41,4.41,0,0,1-.333-1.593,6,6,0,0,1,.022-.894l.044-.33a6.344,6.344,0,0,1,.677-2.139,3.531,3.531,0,0,1,1.23-1.37A2.9,2.9,0,0,1,145.935-8.079Zm-1.5,4.263a5.932,5.932,0,0,0-.037.938q.073,1.289,1.04,1.311a1.768,1.768,0,0,0,1.516-.82l.564-3.149a1.17,1.17,0,0,0-1.143-.82,1.505,1.505,0,0,0-1.256.582A3.915,3.915,0,0,0,144.434-3.816ZM157.9-8.079a2.255,2.255,0,0,1,1.787.886l.776-4.058h2.073L160.591,0h-1.846l.117-.85a2.565,2.565,0,0,1-2.065,1,2.281,2.281,0,0,1-1.3-.388,2.444,2.444,0,0,1-.861-1.095,4.41,4.41,0,0,1-.333-1.593,6,6,0,0,1,.022-.894l.044-.33a6.344,6.344,0,0,1,.677-2.139,3.531,3.531,0,0,1,1.23-1.37A2.9,2.9,0,0,1,157.9-8.079Zm-1.5,4.263a5.932,5.932,0,0,0-.037.938q.073,1.289,1.04,1.311a1.768,1.768,0,0,0,1.516-.82l.564-3.149a1.17,1.17,0,0,0-1.143-.82,1.505,1.505,0,0,0-1.256.582A3.915,3.915,0,0,0,156.4-3.816ZM166,.146a3.448,3.448,0,0,1-1.842-.509,3.086,3.086,0,0,1-1.2-1.377,3.838,3.838,0,0,1-.308-1.93l.022-.293a5.123,5.123,0,0,1,.674-2.124,4.07,4.07,0,0,1,1.45-1.49,3.588,3.588,0,0,1,1.963-.494,2.741,2.741,0,0,1,2.318,1.126,3.859,3.859,0,0,1,.6,2.776l-.117.9h-4.856a1.7,1.7,0,0,0,.374,1.23,1.426,1.426,0,0,0,1.1.476,2.534,2.534,0,0,0,1.978-.879l.945,1.172a2.939,2.939,0,0,1-1.289,1.051A4.215,4.215,0,0,1,166,.146Zm.659-6.511a1.468,1.468,0,0,0-1.014.359,3.153,3.153,0,0,0-.795,1.3H167.7l.044-.19a1.941,1.941,0,0,0,.007-.557,1.063,1.063,0,0,0-.359-.663A1.125,1.125,0,0,0,166.663-6.365ZM176.06,0h-2.08l1.956-11.25h2.073ZM182.4,0a2.138,2.138,0,0,1-.081-.718,2.684,2.684,0,0,1-2.021.864,2.432,2.432,0,0,1-1.725-.677,2.05,2.05,0,0,1-.641-1.637,2.369,2.369,0,0,1,1.088-1.989,4.937,4.937,0,0,1,2.78-.692l.967.015.1-.476a1.654,1.654,0,0,0,.022-.461.793.793,0,0,0-.26-.538.9.9,0,0,0-.59-.2,1.261,1.261,0,0,0-.82.238,1.154,1.154,0,0,0-.432.729l-2.073.007a2.3,2.3,0,0,1,1.044-1.842,4.042,4.042,0,0,1,2.45-.692,2.922,2.922,0,0,1,2.109.8,2.346,2.346,0,0,1,.637,1.989l-.608,3.794-.037.469a2.261,2.261,0,0,0,.125.879L184.424,0Zm-1.589-1.458a1.891,1.891,0,0,0,1.56-.776l.256-1.37-.718-.007a2.005,2.005,0,0,0-1.648.7,1.211,1.211,0,0,0-.227.593.7.7,0,0,0,.165.626A.835.835,0,0,0,180.806-1.458Zm9.47-.776q.117-.586-.813-.85l-.667-.168q-2.366-.652-2.3-2.3a2.276,2.276,0,0,1,.992-1.827,3.7,3.7,0,0,1,2.3-.692,3.315,3.315,0,0,1,2.168.71,2.341,2.341,0,0,1,.842,1.853l-2.051-.007a.9.9,0,0,0-1.011-1.033,1.455,1.455,0,0,0-.839.242,1,1,0,0,0-.436.652q-.11.586.886.828l.293.066a5.892,5.892,0,0,1,1.545.553,2.332,2.332,0,0,1,.824.773,1.912,1.912,0,0,1,.267,1.106,2.111,2.111,0,0,1-.487,1.318,2.981,2.981,0,0,1-1.274.872,4.44,4.44,0,0,1-1.7.286,3.345,3.345,0,0,1-2.2-.758,2.444,2.444,0,0,1-.894-1.923l1.948.015a1.071,1.071,0,0,0,1.216,1.15,1.73,1.73,0,0,0,.941-.234A.926.926,0,0,0,190.276-2.234Zm10.129.681a1.357,1.357,0,0,0,.952-.311,1.53,1.53,0,0,0,.5-.868l1.941-.007a2.847,2.847,0,0,1-.524,1.5,3.182,3.182,0,0,1-1.26,1.04,3.606,3.606,0,0,1-1.659.352,2.928,2.928,0,0,1-2.285-1,3.717,3.717,0,0,1-.813-2.593l.022-.4.007-.081a4.954,4.954,0,0,1,1.3-3.065,3.526,3.526,0,0,1,2.732-1.088,2.857,2.857,0,0,1,2.128.875,3.091,3.091,0,0,1,.773,2.23h-1.926a1.622,1.622,0,0,0-.278-1,1.057,1.057,0,0,0-.835-.4Q199.7-6.409,199.387-4.2a7.3,7.3,0,0,0-.081,1.348Q199.38-1.575,200.405-1.553Zm8.723-6.519a3.179,3.179,0,0,1,1.805.538,3.032,3.032,0,0,1,1.113,1.443,4.464,4.464,0,0,1,.253,2.04,4.822,4.822,0,0,1-1.315,3.058A3.712,3.712,0,0,1,208.154.146a3.169,3.169,0,0,1-1.787-.531,3.02,3.02,0,0,1-1.113-1.432A4.366,4.366,0,0,1,205-3.838a4.964,4.964,0,0,1,1.333-3.12A3.636,3.636,0,0,1,209.128-8.071Zm-2.087,4.983a1.829,1.829,0,0,0,.33,1.108,1.1,1.1,0,0,0,.886.421,1.605,1.605,0,0,0,1.494-.874,4.356,4.356,0,0,0,.505-2.373,1.989,1.989,0,0,0-.341-1.122,1.077,1.077,0,0,0-.89-.435,1.607,1.607,0,0,0-1.476.867A4.311,4.311,0,0,0,207.041-3.089Zm9.119-4.844-.176.938a2.852,2.852,0,0,1,2.307-1.077,1.9,1.9,0,0,1,1.655.82,3.305,3.305,0,0,1,.388,2.212L219.5,0h-2.065l.85-5.061a2.37,2.37,0,0,0,.015-.52.839.839,0,0,0-.937-.769A1.778,1.778,0,0,0,215.9-5.6L214.915,0h-2.065l1.377-7.925Zm9.551,5.7q.117-.586-.813-.85l-.667-.168q-2.366-.652-2.3-2.3a2.276,2.276,0,0,1,.992-1.827,3.7,3.7,0,0,1,2.3-.692,3.315,3.315,0,0,1,2.168.71,2.341,2.341,0,0,1,.842,1.853l-2.051-.007a.9.9,0,0,0-1.011-1.033,1.455,1.455,0,0,0-.839.242,1,1,0,0,0-.436.652q-.11.586.886.828l.293.066a5.892,5.892,0,0,1,1.545.553,2.332,2.332,0,0,1,.824.773,1.912,1.912,0,0,1,.267,1.106,2.111,2.111,0,0,1-.487,1.318,2.981,2.981,0,0,1-1.274.872,4.44,4.44,0,0,1-1.7.286,3.345,3.345,0,0,1-2.2-.758,2.444,2.444,0,0,1-.894-1.923l1.948.015a1.071,1.071,0,0,0,1.216,1.15,1.73,1.73,0,0,0,.941-.234A.926.926,0,0,0,225.71-2.234Zm6.724,2.38a3.448,3.448,0,0,1-1.842-.509,3.086,3.086,0,0,1-1.2-1.377,3.838,3.838,0,0,1-.308-1.93l.022-.293a5.123,5.123,0,0,1,.674-2.124,4.07,4.07,0,0,1,1.45-1.49,3.588,3.588,0,0,1,1.963-.494,2.741,2.741,0,0,1,2.318,1.126,3.859,3.859,0,0,1,.6,2.776l-.117.9h-4.856a1.7,1.7,0,0,0,.374,1.23,1.426,1.426,0,0,0,1.1.476,2.534,2.534,0,0,0,1.978-.879l.945,1.172a2.939,2.939,0,0,1-1.289,1.051A4.215,4.215,0,0,1,232.434.146Zm.659-6.511a1.468,1.468,0,0,0-1.014.359,3.153,3.153,0,0,0-.795,1.3h2.842l.044-.19a1.941,1.941,0,0,0,.007-.557,1.063,1.063,0,0,0-.359-.663A1.125,1.125,0,0,0,233.093-6.365Zm6.987,4.812a1.357,1.357,0,0,0,.952-.311,1.53,1.53,0,0,0,.5-.868l1.941-.007a2.847,2.847,0,0,1-.524,1.5,3.182,3.182,0,0,1-1.26,1.04,3.606,3.606,0,0,1-1.659.352,2.928,2.928,0,0,1-2.285-1,3.717,3.717,0,0,1-.813-2.593l.022-.4.007-.081a4.954,4.954,0,0,1,1.3-3.065A3.526,3.526,0,0,1,241-8.071a2.857,2.857,0,0,1,2.128.875,3.091,3.091,0,0,1,.773,2.23H241.97a1.622,1.622,0,0,0-.278-1,1.057,1.057,0,0,0-.835-.4q-1.479-.044-1.794,2.161a7.3,7.3,0,0,0-.081,1.348Q239.055-1.575,240.081-1.553Zm9.1.732a2.736,2.736,0,0,1-2.183.967,2.036,2.036,0,0,1-1.729-.82,3,3,0,0,1-.454-2.124l.857-5.127h2.065l-.872,5.155a2.039,2.039,0,0,0-.007.455.753.753,0,0,0,.813.755,1.888,1.888,0,0,0,1.589-.741l.989-5.624h2.08L250.95,0h-1.926Zm7.075.967a3.448,3.448,0,0,1-1.842-.509,3.086,3.086,0,0,1-1.2-1.377,3.838,3.838,0,0,1-.308-1.93l.022-.293a5.123,5.123,0,0,1,.674-2.124,4.07,4.07,0,0,1,1.45-1.49,3.588,3.588,0,0,1,1.963-.494,2.741,2.741,0,0,1,2.318,1.126,3.859,3.859,0,0,1,.6,2.776l-.117.9h-4.856a1.7,1.7,0,0,0,.374,1.23,1.426,1.426,0,0,0,1.1.476,2.534,2.534,0,0,0,1.978-.879l.945,1.172a2.939,2.939,0,0,1-1.289,1.051A4.215,4.215,0,0,1,256.252.146Zm.659-6.511a1.468,1.468,0,0,0-1.014.359,3.153,3.153,0,0,0-.795,1.3h2.842l.044-.19A1.941,1.941,0,0,0,258-5.457a1.063,1.063,0,0,0-.359-.663A1.125,1.125,0,0,0,256.912-6.365Zm6.782-1.567-.176.938a2.852,2.852,0,0,1,2.307-1.077,1.9,1.9,0,0,1,1.655.82,3.305,3.305,0,0,1,.388,2.212L267.034,0h-2.065l.85-5.061a2.37,2.37,0,0,0,.015-.52.839.839,0,0,0-.937-.769,1.778,1.778,0,0,0-1.458.754L262.449,0h-2.065l1.377-7.925Zm8.43,6.379a1.357,1.357,0,0,0,.952-.311,1.53,1.53,0,0,0,.5-.868l1.941-.007a2.847,2.847,0,0,1-.524,1.5,3.182,3.182,0,0,1-1.26,1.04,3.606,3.606,0,0,1-1.659.352,2.928,2.928,0,0,1-2.285-1,3.717,3.717,0,0,1-.813-2.593l.022-.4L269-3.918a4.954,4.954,0,0,1,1.3-3.065,3.526,3.526,0,0,1,2.732-1.088,2.857,2.857,0,0,1,2.128.875,3.091,3.091,0,0,1,.773,2.23h-1.926a1.622,1.622,0,0,0-.278-1,1.057,1.057,0,0,0-.835-.4q-1.479-.044-1.794,2.161a7.3,7.3,0,0,0-.081,1.348Q271.1-1.575,272.124-1.553ZM278.5,0h-2.08l1.377-7.925h2.08Zm-.461-9.939a1.032,1.032,0,0,1,.322-.813,1.134,1.134,0,0,1,.813-.322,1.139,1.139,0,0,1,.813.286,1.027,1.027,0,0,1,.359.776,1.061,1.061,0,0,1-.3.791,1.139,1.139,0,0,1-.831.352,1.158,1.158,0,0,1-.809-.278A1.023,1.023,0,0,1,278.035-9.939ZM284.832,0a2.138,2.138,0,0,1-.081-.718,2.684,2.684,0,0,1-2.021.864A2.432,2.432,0,0,1,281-.531a2.05,2.05,0,0,1-.641-1.637,2.369,2.369,0,0,1,1.088-1.989,4.937,4.937,0,0,1,2.78-.692l.967.015.1-.476a1.654,1.654,0,0,0,.022-.461.793.793,0,0,0-.26-.538.9.9,0,0,0-.59-.2,1.261,1.261,0,0,0-.82.238,1.154,1.154,0,0,0-.432.729l-2.073.007a2.3,2.3,0,0,1,1.044-1.842,4.042,4.042,0,0,1,2.45-.692,2.922,2.922,0,0,1,2.109.8,2.346,2.346,0,0,1,.637,1.989l-.608,3.794-.037.469a2.261,2.261,0,0,0,.125.879L286.86,0Zm-1.589-1.458a1.891,1.891,0,0,0,1.56-.776l.256-1.37-.718-.007a2.005,2.005,0,0,0-1.648.7,1.211,1.211,0,0,0-.227.593.7.7,0,0,0,.165.626A.835.835,0,0,0,283.242-1.458Zm9.47-.776q.117-.586-.813-.85l-.667-.168q-2.366-.652-2.3-2.3a2.276,2.276,0,0,1,.992-1.827,3.7,3.7,0,0,1,2.3-.692,3.315,3.315,0,0,1,2.168.71,2.341,2.341,0,0,1,.842,1.853l-2.051-.007a.9.9,0,0,0-1.011-1.033,1.455,1.455,0,0,0-.839.242,1,1,0,0,0-.436.652q-.11.586.886.828l.293.066a5.892,5.892,0,0,1,1.545.553,2.332,2.332,0,0,1,.824.773,1.912,1.912,0,0,1,.267,1.106,2.111,2.111,0,0,1-.487,1.318,2.981,2.981,0,0,1-1.274.872,4.44,4.44,0,0,1-1.7.286,3.345,3.345,0,0,1-2.2-.758,2.444,2.444,0,0,1-.894-1.923l1.948.015a1.071,1.071,0,0,0,1.216,1.15,1.73,1.73,0,0,0,.941-.234A.926.926,0,0,0,292.712-2.234Z" transform="translate(167.023 54.258)"/>
      </g>
      <text id="_" data-name="=" transform="translate(963 2774)" font-size="15" font-family="Roboto-BoldItalic, Roboto" font-weight="700" font-style="italic"><tspan x="-4.2" y="0">=</tspan></text>
    </g>
  </g>
</svg>
