<svg xmlns="http://www.w3.org/2000/svg" xmlns:xlink="http://www.w3.org/1999/xlink" width="190" height="190" viewBox="0 0 190 190">
  <defs>
    <clipPath id="clip-path">
      <rect id="Rectangle_378099" data-name="Rectangle 378099" width="190" height="190" transform="translate(1125 2521.23)" fill="#fff" stroke="#707070" stroke-width="1"/>
    </clipPath>
    <clipPath id="clip-path-2">
      <rect id="Rectangle_378275" data-name="Rectangle 378275" width="167.392" height="162.649" fill="none"/>
    </clipPath>
  </defs>
  <g id="Mask_Group_393" data-name="Mask Group 393" transform="translate(-1125 -2521.23)" clip-path="url(#clip-path)">
    <g id="Group_1073819" data-name="Group 1073819" transform="translate(1128 2523.23)">
      <g id="Group_1074105" data-name="Group 1074105" transform="translate(5.911 2.328)">
        <g id="Group_1074104" data-name="Group 1074104" clip-path="url(#clip-path-2)">
          <path id="Path_824036" data-name="Path 824036" d="M75.923,149.992v7.287h26.95c1.825,0,3.56.16,3.62,2.592.059,2.4-1.58,2.772-3.456,2.773q-29.984.008-59.968,0c-1.895,0-3.546-.417-3.491-2.761s1.776-2.613,3.635-2.611q12.075.013,24.15,0h3.059v-7.287h-3.3c-16.914,0-33.829.076-50.742-.084a17.348,17.348,0,0,1-7.418-1.9,7.734,7.734,0,0,1-4.047-6.936c-.049-1.265-.081-2.531-.081-3.8Q4.829,82.735,4.86,28.193a4.524,4.524,0,0,0-1.8-4.13A8.467,8.467,0,0,1,.633,14.225C1.915,10.856,4.707,9,8.986,9q29.035-.062,58.069-.024c1.074,0,2.147,0,3.691,0,0-1.748.015-3.329,0-4.91C70.718,2.036,70.9-.033,73.525,0c2.459.031,2.627,2,2.573,3.934C76.055,5.467,76.089,7,76.089,8.97h3.26q29.035,0,58.069.014c5.912.01,9.056,2.911,9.457,8.491a7.488,7.488,0,0,1-3.835,7.266,3.492,3.492,0,0,0-1.945,3.415c.061,19.446.026,38.894.078,58.341,0,.977.662,1.936.863,2.934.24,1.19.242,2.428.482,3.618.3,1.5.745,2.981,1.127,4.469,1.363-.551,2.935-.834,4.05-1.7,3.176-2.472,3.548-2.8,6.326-.1,3.084,3,5.74,6.441,8.522,9.741,1.322,1.567.723,2.843-.6,4.23a33.408,33.408,0,0,0-3.109,4.445c1.781.628,3.526,1.59,5.354,1.793,1.974.219,3.254.916,3.205,2.848-.122,4.925-.326,9.859-.8,14.76-.177,1.825-1.931,1.956-3.615,2.007a35.741,35.741,0,0,0-5.317.923c.809,1.62,1.336,3.488,2.494,4.8,1.547,1.752,1.568,3.293.062,4.727-3.38,3.222-6.874,6.328-10.4,9.386-1.528,1.324-2.877.666-4.281-.595a40.761,40.761,0,0,0-4.649-3.2c-.594,1.889-1.072,3.826-1.829,5.647-.419,1.007-1.318,2.606-1.979,2.6-4.843-.079-9.683-.459-14.517-.828-2.028-.155-2.741-1.449-2.541-3.394a19.558,19.558,0,0,0,.048-2.711c-.1-2.86-1.332-3.481-3.821-1.942a11.252,11.252,0,0,0-1.307.962c-3.244,2.726-3.367,2.83-6.467.034a7.587,7.587,0,0,0-5.627-1.993c-7.959.1-15.919.04-23.879.04Zm59.741-123.41H10.082c-.049.734-.128,1.347-.128,1.959q-.009,55.2,0,110.4c0,4.239,1.655,5.807,5.988,5.808q41.639.011,83.277,0c.658,0,1.316-.086,2.147-.144-1.055-2.321-3.435-4.169-.507-6.618,1.316-1.1,1.984-2.974,2.945-4.5a34.483,34.483,0,0,0-5.374-1.681c-1.8-.271-2.924-.814-2.914-2.773.02-3.867-.156-7.748.122-11.6.337-4.652,1-4.983,5.647-5,1.215,0,2.428-.729,3.642-1.123-.456-1.217-.871-2.452-1.391-3.642a2.88,2.88,0,0,0-.935-.968c-2.064-1.592-1.976-3.456-.28-5.074,3.313-3.161,6.779-6.166,10.233-9.176,1.542-1.344,2.847-.754,4.257.524a40.452,40.452,0,0,0,4.648,3.211,42.392,42.392,0,0,0,1.746-5.672c.289-1.7.876-2.653,2.672-2.737,3.213-.149,6.423-.359,9.781-.553Zm-9.836,127.692c2.073.158,4.219.334,6.365.484,1.569.109,2.276-.406,2.6-2.2.957-5.239,4.524-7.855,8.968-6.57,1.912.553,3.572,1.978,5.693,3.209l6.268-5.612c-.4-.688-.577-1-.764-1.31-4.257-7.055-1.982-11.737,6.173-12.773.541-.069,1.447-.439,1.488-.757a27.823,27.823,0,0,0,.433-7.232c-.11-.773-2.381-1.307-3.711-1.83-4.234-1.664-6.429-5.458-4.943-9.1a35.426,35.426,0,0,1,3.091-5l-5.58-6.27c-9.333,4.947-12.062,3.611-14.772-7.181l-8.068-.56c-3.056,10.328-6.708,11.655-15.348,5.547l-6.088,5.754c6.415,8.429,2.478,14.074-6.739,14.517-.155,2.777-.312,5.59-.466,8.35,8.874,1.5,12.328,7.42,5.532,14.993,1.066,1.283,2.193,2.561,3.23,3.907,1.482,1.923,2.744,2.676,5.308,1.059,4.567-2.879,8.726-1.286,10.4,3.514a35.852,35.852,0,0,1,.931,5.053M73.379,21h62.952c.723,0,1.613.258,2.137-.068,1.132-.7,2.815-1.64,2.908-2.611.113-1.185-.929-2.783-1.939-3.671-.728-.64-2.219-.55-3.37-.55q-62.68-.037-125.359-.014a13.32,13.32,0,0,0-2.691.191A3,3,0,0,0,5.4,17.8a3.276,3.276,0,0,0,3.13,3.175A17.726,17.726,0,0,0,10.7,21h62.68" transform="translate(0 0)" fill="#161615"/>
          <path id="Path_824037" data-name="Path 824037" d="M144.045,48.979v60.653c-3.357.193-6.568.4-9.781.552-1.8.084-2.383,1.032-2.672,2.737a42.32,42.32,0,0,1-1.746,5.672,40.472,40.472,0,0,1-4.647-3.212c-1.411-1.278-2.714-1.868-4.257-.524-3.454,3.011-6.921,6.015-10.234,9.176-1.7,1.618-1.783,3.482.28,5.074a2.884,2.884,0,0,1,.934.968c.52,1.189.935,2.424,1.391,3.641-1.214.394-2.427,1.12-3.642,1.123-4.645.015-5.31.345-5.647,5-.278,3.848-.1,7.729-.122,11.6-.01,1.96,1.114,2.5,2.914,2.773a34.542,34.542,0,0,1,5.374,1.681c-.962,1.523-1.63,3.4-2.945,4.5-2.928,2.449-.548,4.3.507,6.618-.831.058-1.489.144-2.147.144q-41.638.01-83.277,0c-4.333,0-5.986-1.569-5.988-5.808q-.024-55.2,0-110.4c0-.613.078-1.225.128-1.959Zm-88.279,63.28q0-2.034,0-4.068a4.742,4.742,0,0,0-.018-.542c-.289-2.477-1.839-3.548-4.137-2.785-1.791.594-3.572,1.231-5.321,1.939-12.862,5.207-20,18.838-17.153,32.946a29.2,29.2,0,0,0,29.041,23.173c13.291-.39,26.579-11.071,28.851-23.67.39-2.163-.668-3.327-2.691-3.487-2.067-.163-4.17.113-6.232-.079-3.33-.312-5.385.549-6.8,4.047-2.376,5.884-9.474,9.406-15.3,8.352a15.509,15.509,0,0,1-12.649-13.437c-.676-5.73,3.285-12.32,9.162-14.6,2.569-1,3.6-2.441,3.27-5.08a22.9,22.9,0,0,1-.022-2.71M41.29,80a6.162,6.162,0,0,1-.973.272q-3.8.03-7.591.039c-3.965.014-4.236.262-4.252,4.093q-.023,5.152,0,10.3c.022,3.537.526,4.067,4.133,4.025,7.04-.083,14.078-.265,21.118-.344,5.148-.058,10.3-.039,15.445,0,2.123.014,3.226-.939,3.227-3.073q.008-17.219-.01-34.437c0-1.948-.963-2.963-3.038-2.93-3.976.062-7.955.083-11.93-.008-2.52-.058-3.366,1.2-3.315,3.5.052,2.321.011,4.645.011,7.258-3.09,0-5.874-.018-8.657,0-3.732.03-4.137.449-4.167,4.266-.018,2.335,0,4.671,0,7.034M60.007,112.1a26.645,26.645,0,0,1-.018,2.975c-.3,2.616.646,4.088,3.279,5.032a13.17,13.17,0,0,1,8.188,8.433,3.715,3.715,0,0,0,4.047,2.823c2.612-.1,5.231-.006,7.846-.034,1.866-.02,3.159-.852,3.242-2.835a8.913,8.913,0,0,0-.519-2.627c-3.11-11.3-10.563-18.118-21.8-20.915-3.081-.767-4.205.231-4.259,3.36-.022,1.262,0,2.525,0,3.788m48.318-32.363c-7.589,0-15.177.014-22.766-.011-1.806-.005-3.283.3-3.361,2.527-.084,2.4,1.539,2.841,3.4,2.844q22.631.03,45.262.008c1.887,0,3.544-.505,3.543-2.772,0-2.336-1.679-2.619-3.582-2.61-7.5.035-15,.015-22.5.015m.029,13.506c-7.6,0-15.193.011-22.79-.008-1.767,0-3.333.152-3.368,2.472-.034,2.241,1.4,2.676,3.226,2.676q22.79,0,45.578,0c1.8,0,3.368-.362,3.408-2.538.043-2.391-1.645-2.627-3.537-2.619-7.506.031-15.012.013-22.518.012m.057-27.124c-4.418,0-8.835.024-13.253-.012-1.8-.015-3.038.6-3.049,2.562-.01,1.977,1.315,2.629,3.048,2.632q13.118.025,26.236.011c1.8,0,3.1-.833,3.082-2.646-.017-1.773-1.191-2.61-3.083-2.574-4.326.081-8.655.026-12.982.026" transform="translate(-8.381 -22.396)" fill="#bbd184"/>
          <path id="Path_824038" data-name="Path 824038" d="M210.441,231.432a35.848,35.848,0,0,0-.931-5.054c-1.671-4.8-5.83-6.393-10.4-3.514-2.564,1.616-3.826.863-5.308-1.059-1.037-1.346-2.164-2.623-3.23-3.906,6.8-7.573,3.342-13.5-5.532-14.993.154-2.76.312-5.573.466-8.35,9.217-.442,13.154-6.087,6.739-14.516l6.088-5.754c8.64,6.108,12.293,4.782,15.348-5.547l8.068.56c2.71,10.793,5.439,12.128,14.772,7.181l5.58,6.27a35.37,35.37,0,0,0-3.09,5c-1.487,3.639.709,7.433,4.943,9.1,1.33.523,3.6,1.057,3.711,1.83a27.8,27.8,0,0,1-.433,7.232c-.04.318-.947.688-1.488.757-8.155,1.036-10.43,5.718-6.173,12.773.186.308.363.622.764,1.311l-6.268,5.611c-2.122-1.23-3.781-2.656-5.693-3.208-4.445-1.284-8.011,1.331-8.968,6.57-.327,1.792-1.035,2.307-2.6,2.2-2.147-.15-4.293-.325-6.366-.483M197.43,200.638a19.059,19.059,0,0,0,38.118.132,19.446,19.446,0,0,0-19.337-19.036,19.111,19.111,0,0,0-18.781,18.9" transform="translate(-84.612 -77.157)" fill="#ffce30"/>
          <path id="Path_824039" data-name="Path 824039" d="M77.91,32.869H15.23a17.726,17.726,0,0,1-2.169-.026,3.276,3.276,0,0,1-3.13-3.175,3,3,0,0,1,2.617-3.521,13.32,13.32,0,0,1,2.691-.191q62.68-.011,125.359.014c1.151,0,2.642-.09,3.37.55,1.01.888,2.052,2.486,1.939,3.671-.093.971-1.776,1.907-2.908,2.611-.524.326-1.413.068-2.137.068H77.91" transform="translate(-4.531 -11.866)" fill="#cde7e4"/>
          <path id="Path_824040" data-name="Path 824040" d="M64.35,159.138a22.552,22.552,0,0,0,.02,2.71c.329,2.639-.7,4.083-3.27,5.08-5.876,2.28-9.837,8.87-9.161,14.6a15.51,15.51,0,0,0,12.649,13.437c5.829,1.055,12.927-2.468,15.3-8.351,1.413-3.5,3.467-4.36,6.8-4.048,2.061.193,4.165-.084,6.232.079,2.024.16,3.082,1.323,2.692,3.487-2.272,12.6-15.56,23.279-28.851,23.669a29.2,29.2,0,0,1-29.042-23.173c-2.847-14.109,4.291-27.739,17.153-32.946,1.749-.708,3.529-1.345,5.321-1.94,2.3-.763,3.849.308,4.137,2.785a4.751,4.751,0,0,1,.018.542q0,2.034,0,4.068m-5.7-1.2c-10.352,2.69-17.238,13.22-16.364,23.953,1.079,13.251,11.162,22.725,23.443,22.82,10.579.081,21.691-7.863,22.848-16.359-2.234-.659-3.666-.231-4.93,2.118a19.894,19.894,0,0,1-20.861,9.938,20.2,20.2,0,0,1-16.255-16.75,19.458,19.458,0,0,1,9.45-20.038c2.492-1.356,3.438-2.845,2.669-5.683" transform="translate(-16.963 -69.275)" fill="#161615"/>
          <path id="Path_824041" data-name="Path 824041" d="M49.826,87.549c0-2.363-.015-4.7,0-7.033.03-3.818.435-4.236,4.167-4.266,2.784-.023,5.567,0,8.657,0,0-2.613.04-4.937-.012-7.258-.051-2.3.8-3.559,3.315-3.5,3.975.091,7.954.069,11.93.008,2.074-.033,3.034.983,3.038,2.931q.035,17.218.009,34.437c0,2.134-1.1,3.087-3.227,3.073-5.148-.034-10.3-.053-15.445,0-7.039.079-14.078.261-21.118.344-3.607.042-4.112-.488-4.133-4.025q-.031-5.152,0-10.3c.017-3.831.287-4.08,4.252-4.093q3.8-.013,7.591-.039a6.159,6.159,0,0,0,.973-.272M75.461,70.907H68.255v29.752h7.205ZM62.481,81.668H55.35v18.975h7.131Zm-12.96,11.6H42.278v7.468h7.243Z" transform="translate(-16.917 -29.943)" fill="#161615"/>
          <path id="Path_824042" data-name="Path 824042" d="M95.059,159.044c0-1.262-.018-2.526,0-3.788.054-3.128,1.178-4.126,4.259-3.36,11.239,2.8,18.691,9.615,21.8,20.915a8.934,8.934,0,0,1,.519,2.627c-.083,1.983-1.376,2.815-3.242,2.835-2.615.028-5.234-.071-7.846.034a3.714,3.714,0,0,1-4.047-2.823,13.169,13.169,0,0,0-8.189-8.433c-2.632-.943-3.575-2.415-3.279-5.032a26.515,26.515,0,0,0,.018-2.975m20.077,13.622c-1.461-6.591-8.545-13.6-14.568-14.471-.706,2.377.028,3.71,2.255,5.179a24.678,24.678,0,0,1,7.164,7.1c1.483,2.341,2.862,2.742,5.15,2.188" transform="translate(-43.434 -69.343)" fill="#161615"/>
          <path id="Path_824043" data-name="Path 824043" d="M162.129,105.631c7.5,0,15,.021,22.5-.015,1.9-.009,3.58.274,3.582,2.61,0,2.268-1.656,2.772-3.542,2.772q-22.631.011-45.262-.008c-1.861,0-3.483-.446-3.4-2.844.078-2.227,1.554-2.532,3.361-2.526,7.589.025,15.178.01,22.766.01" transform="translate(-62.187 -48.294)" fill="#161615"/>
          <path id="Path_824044" data-name="Path 824044" d="M162.159,130.518c7.506,0,15.012.018,22.518-.013,1.893-.008,3.58.227,3.537,2.619-.04,2.176-1.609,2.539-3.407,2.538q-22.79-.015-45.579,0c-1.826,0-3.26-.435-3.226-2.676.035-2.32,1.6-2.477,3.368-2.473,7.6.019,15.193.008,22.789.008" transform="translate(-62.187 -59.674)" fill="#161615"/>
          <path id="Path_824045" data-name="Path 824045" d="M170.569,80.531c4.327,0,8.656.055,12.982-.026,1.891-.035,3.066.8,3.083,2.574.018,1.813-1.283,2.646-3.082,2.646q-13.118-.007-26.236-.012c-1.733,0-3.058-.656-3.048-2.632.01-1.96,1.247-2.577,3.049-2.562,4.417.036,8.835.011,13.253.011" transform="translate(-70.54 -36.811)" fill="#161615"/>
          <path id="Path_824046" data-name="Path 824046" d="M207.865,211.588a19.111,19.111,0,0,1,18.782-18.9,19.445,19.445,0,0,1,19.337,19.036,19.059,19.059,0,0,1-38.118-.133m32.74.3A13.86,13.86,0,0,0,227.1,197.823a13.916,13.916,0,0,0-.278,27.831A13.678,13.678,0,0,0,240.6,211.889" transform="translate(-95.048 -88.106)" fill="#161615"/>
          <path id="Path_824047" data-name="Path 824047" d="M62.961,163.369c.769,2.838-.176,4.327-2.669,5.683a19.458,19.458,0,0,0-9.45,20.038A20.2,20.2,0,0,0,67.1,205.839,19.894,19.894,0,0,0,87.959,195.9c1.265-2.349,2.7-2.777,4.93-2.118-1.157,8.5-12.269,16.44-22.848,16.359-12.282-.094-22.364-9.569-23.443-22.82-.874-10.733,6.013-21.263,16.364-23.953" transform="translate(-21.273 -74.702)" fill="#3aafb7"/>
          <rect id="Rectangle_378272" data-name="Rectangle 378272" width="7.205" height="29.752" transform="translate(51.338 40.964)" fill="#402a7c"/>
          <rect id="Rectangle_378273" data-name="Rectangle 378273" width="7.131" height="18.975" transform="translate(38.433 51.725)" fill="#f59667"/>
          <rect id="Rectangle_378274" data-name="Rectangle 378274" width="7.243" height="7.468" transform="translate(25.361 63.323)" fill="#ffb400"/>
          <path id="Path_824048" data-name="Path 824048" d="M119.619,178.18c-2.287.555-3.667.153-5.15-2.188a24.678,24.678,0,0,0-7.164-7.1c-2.227-1.469-2.961-2.8-2.255-5.179,6.023.866,13.108,7.88,14.568,14.471" transform="translate(-47.917 -74.857)" fill="#237e7f"/>
          <path id="Path_824049" data-name="Path 824049" d="M244.972,216.218a13.678,13.678,0,0,1-13.784,13.765,13.916,13.916,0,0,1,.278-27.831,13.86,13.86,0,0,1,13.506,14.066" transform="translate(-99.414 -92.435)" fill="#cde7e4"/>
        </g>
      </g>
    </g>
  </g>
</svg>
